<svg width="10" height="6" viewBox="0 0 10 6" fill="none" xmlns="http://www.w3.org/2000/svg">
<path d="M4.75 5.875H4.71875C4.78125 5.9375 4.875 5.96875 5 5.96875C5.09375 5.96875 5.1875 5.9375 5.28125 5.875L9.90625 1.28125C9.96875 1.21875 10 1.125 10 1.03125C10 0.9375 9.96875 0.84375 9.90625 0.75L9.28125 0.125C9.1875 0.0625 9.09375 0.03125 9 0.03125C8.875 0.03125 8.8125 0.0625 8.75 0.125L5 3.84375L1.25 0.125C1.1875 0.0625 1.09375 0.03125 1 0.03125C0.875 0.03125 0.78125 0.0625 0.71875 0.125L0.09375 0.75C0.03125 0.84375 0 0.9375 0 1.03125C0 1.125 0.03125 1.21875 0.125 1.28125L4.75 5.875Z" fill="#FFF"/>
</svg>
