<?xml version="1.0" encoding="utf-8"?>
<!-- Generator: Adobe Illustrator 24.1.2, SVG Export Plug-In . SVG Version: 6.00 Build 0)  -->
<svg version="1.1" id="Layer_1" xmlns="http://www.w3.org/2000/svg" xmlns:xlink="http://www.w3.org/1999/xlink" x="0px" y="0px"
	 viewBox="0 0 1400 350" style="enable-background:new 0 0 1400 350;" xml:space="preserve">
<style type="text/css">
	.st0{clip-path:url(#SVGID_2_);fill:#02B090;}
	.st1{clip-path:url(#SVGID_4_);fill:#005CE2;}
	.st2{clip-path:url(#SVGID_6_);}
	.st3{fill:#FFFFFF;stroke:#000000;stroke-width:0.9805;stroke-miterlimit:10;}
	.st4{fill:none;stroke:#FFFFFF;stroke-width:3.9398;stroke-miterlimit:10;}
	.st5{fill:#0088D3;}
	.st6{fill:#FFFFFF;stroke:#000000;stroke-width:0.7354;stroke-miterlimit:10;}
	.st7{fill:none;stroke:#FFFFFF;stroke-width:2.3547;stroke-miterlimit:10;}
	.st8{fill:#FFB000;}
	.st9{fill:#FFFFFF;stroke:#000000;stroke-width:2.3829;stroke-miterlimit:10;}
	.st10{fill:#FFCC5A;}
	.st11{fill:none;stroke:#000000;stroke-width:8.7688;stroke-miterlimit:10;}
	.st12{fill:none;stroke:#000000;stroke-width:0.9805;stroke-miterlimit:10;}
	.st13{fill:#FFE6E6;stroke:#000000;stroke-width:0.9805;stroke-linecap:round;stroke-linejoin:round;stroke-miterlimit:10;}
	.st14{fill:#FFE6E6;stroke:#000000;stroke-width:0.7354;stroke-linecap:round;stroke-linejoin:round;stroke-miterlimit:10;}
	.st15{fill:#FFFFFF;}
	.st16{fill:#005CE2;}
	.st17{fill:#FFFFFF;stroke:#000000;stroke-width:0.7354;stroke-linecap:round;stroke-linejoin:round;stroke-miterlimit:10;}
	.st18{fill:#003EBC;}
	.st19{fill:#FFE6E6;stroke:#000000;stroke-width:0.7354;stroke-linecap:round;stroke-miterlimit:10;}
	.st20{fill:none;stroke:#FFFFFF;stroke-width:1.8375;stroke-miterlimit:10;}
	.st21{fill:none;stroke:#FFFFFF;stroke-width:0.9805;stroke-linecap:round;stroke-miterlimit:10;}
	.st22{stroke:#000000;stroke-width:0.7354;stroke-linecap:round;stroke-linejoin:round;stroke-miterlimit:10;}
	.st23{fill:none;stroke:#000000;stroke-width:0.7354;stroke-linecap:round;stroke-linejoin:round;stroke-miterlimit:10;}
</style>
<g>
	<g>
		<defs>
			<rect id="SVGID_1_" width="1400" height="350"/>
		</defs>
		<clipPath id="SVGID_2_">
			<use xlink:href="#SVGID_1_"  style="overflow:visible;"/>
		</clipPath>
		<rect class="st0" width="1400" height="350"/>
	</g>
	<g>
		<defs>
			<rect id="SVGID_3_" width="1400" height="350"/>
		</defs>
		<clipPath id="SVGID_4_">
			<use xlink:href="#SVGID_3_"  style="overflow:visible;"/>
		</clipPath>
		<path class="st1" d="M508.99,350.14c0,0,173.45-10.75,237.94-21.81c64.23-11.01,64.39-18.71,109.67-21.26
			c47.26-2.65,55.78,11.66,136.22-4.61c88.14-17.82,141.99-39.83,283.11-38.91c128.03,0.84,133.44-6.56,133.44-6.56l32.09,259.05
			L543.33,627.31L508.99,350.14z"/>
	</g>
	<g>
		<defs>
			<rect id="SVGID_5_" width="1400" height="350"/>
		</defs>
		<clipPath id="SVGID_6_">
			<use xlink:href="#SVGID_5_"  style="overflow:visible;"/>
		</clipPath>
		<g class="st2">
			<polyline points="837.2,319.48 837.2,329.28 866.62,329.28 848.48,319.48 			"/>
			<g>
				<g>
					<path class="st3" d="M968,112.91h89.36c0,0,5.13,101.28-6.46,102.59c-9.77,1.1-79.9-1.73-79.9-1.73S958.38,126.46,968,112.91z"
						/>
					<path class="st4" d="M979.18,115.59c0,0,10.56-33.25,35.93-31.36s29.79,33.57,29.79,33.57"/>
					<path class="st5" d="M1036.84,194.49v-0.93v-0.92h-5.66v-2.72h5.03v-0.9v-0.89h-5.03v-2.21h5.42v-0.93v-0.92h-7.57v10.43h7.81
						V194.49z M1028.93,164.26c0-8.66-7.02-15.68-15.68-15.68s-15.68,7.02-15.68,15.68c0,8.66,7.02,15.68,15.68,15.68
						C1021.9,179.94,1028.93,172.92,1028.93,164.26L1028.93,164.26z M1027.99,164.26c0,8.16-6.6,14.77-14.74,14.77
						s-14.74-6.62-14.74-14.77c0-8.16,6.6-14.78,14.74-14.78c3.9,0,7.44,1.52,10.07,3.99h-1.67v21.18h1.84v-21.02
						C1026.27,156.33,1027.99,160.09,1027.99,164.26L1027.99,164.26z M1021.02,156.16c0.13-0.99,0.21-2.7,0.21-2.7h-1.34
						c0,0,0,0.13-0.07,0.85c-0.07,0.73-0.37,2.41-0.53,3.39c-0.15,0.97-0.63,2.93-0.91,3.84c-0.27,0.9-0.43,1.22-0.59,1.22
						c-0.18,0-0.29-0.38-0.57-1.19c-0.28-0.82-0.45-1.7-0.66-2.56c-0.2-0.86-0.47-2.5-0.6-3.35s-0.26-2.19-0.26-2.19h-1.36
						c0,2.87,0.95,7.12,1.22,8.31c0.27,1.19,1.3,4.55,2.23,4.55c1.02,0,1.97-3.58,2.32-4.88
						C1020.49,160.14,1020.9,157.15,1021.02,156.16L1021.02,156.16z M1012.1,174.65h1.88v-21.19h-1.86c0,0,0,3.94,0.01,4.04
						c0.01,0.11,0,0.17,0,0.2s-0.03,0.01-0.03-0.02c0-0.04-0.07-0.35-0.12-0.65c-0.05-0.31-0.2-1.1-0.66-1.93
						c-0.65-1.17-1.62-1.8-2.16-2.08c-0.53-0.29-2.49-0.88-4.22-0.02c-1.72,0.86-2.23,2.15-2.52,3.64
						c-0.32,1.63,0.18,3.45,0.64,4.62c0.5,1.26,1.66,3.23,1.66,3.23s-0.33-0.19-1-0.62c-0.66-0.43-1.34-1.22-1.34-1.22
						s-0.17,0.34-0.47,1.04c-0.31,0.7-0.78,1.81-0.94,3.06s-0.31,2.48,0.08,3.91c0.39,1.43,0.78,2.01,1.53,2.93
						c0.93,1.13,2.56,1.81,4.38,1.75c1.83-0.05,3.2-1.03,3.81-1.7c0.62-0.67,0.84-1.2,1.03-1.66s0.32-1.07,0.32-1.07V171v3.65
						H1012.1z M1012.12,168.27l-0.03-0.04c0,0-0.03-0.1-0.05-0.18c-0.02-0.16-0.25-0.83-0.47-1.4c-0.22-0.58-0.93-1.89-1.23-2.44
						s-1.7-2.82-2.13-3.54c-0.42-0.73-0.9-1.75-0.9-1.75s-0.8-1.86-0.22-2.19c0.59-0.33,0.97,0.9,1.22,1.56s0.67,3.18,0.67,3.18
						s0.17-0.32,0.49-0.82s0.75-0.8,0.75-0.8s0.06-1-0.54-2.64c-0.57-1.56-1.82-2.83-3.24-2.5c-1.57,0.36-1.88,2.31-1.19,4.28
						s1.5,3.28,3.33,6.51c1.85,3.25,1.93,4.6,1.11,6.21c-0.77,1.51-2.63,1.94-4.11,1.43c-1.55-0.54-2.85-2.51-2.85-4.63
						c0.01-2.43,0.99-3.79,0.99-3.79s-0.53,1.08-0.5,3.11c0.04,2.99,1.48,4.71,3.11,5.02c1.47,0.27,2.87-0.66,3.16-2.17
						c0.36-1.9-1.02-4.02-1.31-4.61c-0.3-0.59-2.15-3.77-2.28-4.03s-1.64-2.9-1.61-4.76c0.03-1.85,1.06-2.65,1.68-2.91
						c0.62-0.25,1.95-0.53,3.38,1.09c1.43,1.61,1.5,3.92,1.5,3.92s0.19-0.15,0.45-0.29c0.27-0.14,0.8-0.33,0.8-0.33v9.51H1012.12z
						 M1005.49,165.78c0,0,0.47,0.79,0.8,1.32c0.32,0.54,1.09,1.92,1.18,2.56c0.09,0.64-0.08,1.16-0.57,1.2
						c-0.5,0.04-1.31-0.49-1.62-2.43C1005.09,167.28,1005.49,165.78,1005.49,165.78L1005.49,165.78z M1014.57,160.11
						c0,0.09-0.01,14.54-0.01,14.54h1.82v-5.87c0,0,0.69,1.53,1.42,1.53s1.43-1.55,1.43-1.55v5.89h1.82c0,0,0-14.3,0-14.45
						s-0.01-0.23-0.05-0.23c-0.03,0-0.12-0.09-0.13,0.13s-0.23,1.45-0.69,3.27c-0.45,1.82-1.42,3.19-1.69,3.44
						c-0.26,0.25-0.57,0.33-0.7,0.33s-0.2,0.07-0.76-0.42s-1.14-1.92-1.49-2.95c-0.35-1.04-0.78-3.51-0.79-3.61
						c-0.01-0.1-0.01-0.21-0.08-0.21C1014.6,159.96,1014.57,160.02,1014.57,160.11L1014.57,160.11z M1019.19,144.46h7.83v-0.94
						v-0.93h-5.68v-2.74h5.05v-0.91v-0.9h-5.05v-2.23h5.44v-0.94v-0.93h-7.59V144.46L1019.19,144.46z M1016.01,144.46h1.07v-10.51
						H1016h-1.07v4.21h-4.04v-4.21h-1.08h-1.08v10.51h1.08h1.07v-4.5h4.04v4.5H1016.01L1016.01,144.46z M1004.41,135.81h3.12v-0.94
						v-0.93h-8.39v0.94v0.93h3.12v8.65h1.08h1.07V135.81L1004.41,135.81z M995.24,187.19h2.1c-0.08-1.05-0.48-1.87-1.21-2.49
						c-0.72-0.61-1.66-0.92-2.81-0.92c-1.23,0-2.21,0.3-2.93,0.89s-1.08,1.39-1.08,2.41c0,0.9,0.27,1.57,0.82,1.99
						c0.55,0.43,1.64,0.83,3.27,1.2c0.89,0.2,1.46,0.39,1.73,0.57c0.28,0.19,0.42,0.47,0.42,0.87s-0.19,0.71-0.58,0.93
						c-0.39,0.22-0.92,0.34-1.61,0.34c-0.67,0-1.19-0.15-1.56-0.45s-0.57-0.72-0.6-1.28h-2.07c0.05,1.13,0.44,1.99,1.17,2.61
						c0.73,0.61,1.75,0.91,3.05,0.91s2.32-0.29,3.08-0.86s1.14-1.35,1.14-2.33c0-0.97-0.25-1.68-0.76-2.12
						c-0.5-0.44-1.51-0.84-3-1.18c-1.03-0.23-1.71-0.43-2.02-0.6c-0.32-0.17-0.48-0.41-0.48-0.72c0-0.43,0.15-0.77,0.46-1.02
						c0.31-0.24,0.73-0.37,1.28-0.37c0.63,0,1.14,0.14,1.53,0.44C994.99,186.3,995.2,186.7,995.24,187.19L995.24,187.19z
						 M1006.59,184.06h-8.37v0.93v0.92h3.11v8.58h1.08h1.07v-8.58h3.11v-0.93V184.06L1006.59,184.06z M1008.63,185.28
						c-0.89,1-1.34,2.35-1.34,4.05c0,1.67,0.45,2.99,1.34,3.97s2.09,1.47,3.61,1.47c1.52,0,2.73-0.49,3.61-1.47
						c0.89-0.98,1.34-2.3,1.34-3.97c0-1.7-0.44-3.05-1.34-4.05c-0.89-1-2.09-1.5-3.61-1.5
						C1010.72,183.78,1009.52,184.28,1008.63,185.28L1008.63,185.28z M1009.44,189.32c0-1.15,0.25-2.06,0.74-2.71
						c0.49-0.65,1.18-0.98,2.05-0.98c0.88,0,1.56,0.33,2.06,0.98s0.74,1.56,0.74,2.71c0,1.13-0.25,2.01-0.74,2.65
						s-1.18,0.96-2.06,0.96s-1.56-0.32-2.05-0.96S1009.44,190.45,1009.44,189.32L1009.44,189.32z M1019.86,184.06h-1.07v10.43h1.08
						h1.07v-4.12h2.14c0.61,0,1.05,0.1,1.31,0.3s0.4,0.53,0.41,1l0.01,0.96c0.01,0.41,0.03,0.8,0.07,1.15
						c0.04,0.36,0.09,0.59,0.15,0.7h2.38v-0.28c-0.17-0.09-0.29-0.2-0.35-0.34c-0.06-0.14-0.1-0.38-0.11-0.72l-0.05-1.71
						c-0.03-0.84-0.33-1.43-0.92-1.79c-0.1-0.06-0.22-0.12-0.34-0.17c0.22-0.08,0.43-0.19,0.6-0.31c0.67-0.46,1-1.2,1-2.2
						c0-0.87-0.3-1.57-0.9-2.1s-1.39-0.8-2.37-0.8H1019.86L1019.86,184.06z M1020.94,185.86h2.58c0.53,0,0.92,0.12,1.19,0.34
						c0.26,0.23,0.4,0.57,0.4,1.03c0,0.46-0.14,0.81-0.42,1.04s-0.69,0.34-1.25,0.34h-2.49L1020.94,185.86L1020.94,185.86z"/>
				</g>
				<g>
					<path class="st6" d="M1065.58,200.86h53.41c0,0,3.07,60.53-3.86,61.32c-5.84,0.66-47.75-1.04-47.75-1.04
						S1059.83,208.96,1065.58,200.86z"/>
					<path class="st7" d="M1072.26,202.46c0,0,6.31-19.87,21.48-18.74c15.16,1.13,17.8,20.06,17.8,20.06"/>
					<path class="st5" d="M1106.72,249.62v-0.55v-0.55h-3.38v-1.62h3.01v-0.54v-0.53h-3.01v-1.32h3.24v-0.56v-0.55h-4.53v6.23
						L1106.72,249.62L1106.72,249.62z M1101.99,231.56c0-5.18-4.2-9.37-9.37-9.37c-5.18,0-9.37,4.2-9.37,9.37
						c0,5.18,4.2,9.37,9.37,9.37C1097.8,240.93,1101.99,236.73,1101.99,231.56L1101.99,231.56z M1101.43,231.56
						c0,4.88-3.94,8.83-8.81,8.83c-4.86,0-8.81-3.95-8.81-8.83s3.94-8.83,8.81-8.83c2.33,0,4.45,0.91,6.02,2.39h-1v12.66h1.1V225.2
						C1100.4,226.81,1101.43,229.06,1101.43,231.56L1101.43,231.56z M1097.27,226.71c0.08-0.59,0.13-1.61,0.13-1.61h-0.8
						c0,0,0,0.08-0.04,0.51s-0.22,1.44-0.32,2.03c-0.09,0.58-0.38,1.75-0.54,2.3c-0.16,0.54-0.25,0.73-0.35,0.73
						s-0.18-0.23-0.34-0.71c-0.17-0.49-0.27-1.02-0.39-1.53c-0.12-0.52-0.28-1.49-0.36-2s-0.16-1.31-0.16-1.31h-0.81
						c0,1.72,0.57,4.25,0.73,4.96s0.77,2.72,1.33,2.72c0.61,0,1.18-2.14,1.39-2.92C1096.95,229.09,1097.19,227.3,1097.27,226.71
						L1097.27,226.71z M1091.94,237.77h1.12V225.1h-1.11c0,0,0,2.35,0.01,2.42c0.01,0.06,0,0.1,0,0.12c0,0.02-0.02,0.01-0.02-0.01
						c0-0.02-0.04-0.21-0.07-0.39c-0.03-0.19-0.12-0.66-0.4-1.15c-0.39-0.7-0.97-1.07-1.29-1.24c-0.32-0.17-1.49-0.53-2.52-0.01
						c-1.03,0.51-1.33,1.28-1.51,2.18c-0.19,0.97,0.11,2.06,0.39,2.76c0.3,0.75,0.99,1.93,0.99,1.93s-0.2-0.11-0.6-0.37
						s-0.8-0.73-0.8-0.73s-0.1,0.2-0.28,0.62c-0.19,0.42-0.47,1.08-0.56,1.83c-0.09,0.75-0.19,1.48,0.04,2.34
						c0.24,0.85,0.47,1.2,0.91,1.75c0.56,0.68,1.53,1.08,2.62,1.05s1.91-0.62,2.28-1.02c0.37-0.4,0.5-0.72,0.61-0.99
						s0.19-0.64,0.19-0.64v0.05L1091.94,237.77L1091.94,237.77z M1091.95,233.95l-0.02-0.03c0,0-0.02-0.06-0.03-0.1
						c-0.01-0.09-0.15-0.49-0.28-0.84c-0.13-0.35-0.55-1.13-0.73-1.46c-0.18-0.33-1.02-1.68-1.27-2.12
						c-0.25-0.43-0.54-1.04-0.54-1.04s-0.48-1.11-0.13-1.31s0.58,0.54,0.73,0.93s0.4,1.9,0.4,1.9s0.1-0.19,0.3-0.49
						c0.19-0.3,0.45-0.48,0.45-0.48s0.03-0.6-0.33-1.58c-0.34-0.93-1.09-1.69-1.94-1.49c-0.94,0.21-1.13,1.38-0.71,2.56
						c0.41,1.18,0.9,1.96,1.99,3.89c1.11,1.94,1.16,2.75,0.66,3.71c-0.46,0.9-1.57,1.16-2.46,0.85c-0.93-0.32-1.7-1.5-1.7-2.76
						c0-1.45,0.59-2.27,0.59-2.27s-0.32,0.65-0.3,1.86c0.02,1.79,0.88,2.81,1.86,3c0.88,0.16,1.71-0.4,1.89-1.3
						c0.22-1.13-0.61-2.41-0.79-2.76c-0.18-0.35-1.28-2.26-1.36-2.41c-0.08-0.15-0.98-1.74-0.96-2.84c0.02-1.1,0.64-1.59,1.01-1.74
						c0.37-0.15,1.17-0.31,2.02,0.65c0.86,0.96,0.89,2.35,0.89,2.35s0.11-0.09,0.27-0.17s0.48-0.2,0.48-0.2L1091.95,233.95
						L1091.95,233.95z M1087.99,232.46c0,0,0.28,0.47,0.48,0.79c0.19,0.32,0.65,1.15,0.71,1.53c0.05,0.38-0.05,0.69-0.34,0.72
						c-0.3,0.02-0.78-0.29-0.97-1.45C1087.75,233.36,1087.99,232.46,1087.99,232.46L1087.99,232.46z M1093.41,229.08
						c0,0.06,0,8.69,0,8.69h1.09v-3.51c0,0,0.41,0.92,0.85,0.92s0.85-0.93,0.85-0.93v3.52h1.09c0,0,0-8.55,0-8.64
						s-0.01-0.14-0.03-0.14s-0.07-0.05-0.08,0.08s-0.14,0.86-0.41,1.95s-0.85,1.91-1.01,2.06s-0.34,0.2-0.42,0.2
						c-0.08,0-0.12,0.04-0.46-0.25s-0.68-1.15-0.89-1.77s-0.46-2.1-0.47-2.16s-0.01-0.12-0.05-0.12
						C1093.43,228.98,1093.41,229.02,1093.41,229.08L1093.41,229.08z M1096.18,219.72h4.68v-0.56v-0.56h-3.39v-1.64h3.02v-0.54
						v-0.54h-3.02v-1.33h3.25v-0.56v-0.56h-4.54V219.72L1096.18,219.72z M1094.27,219.72h0.64v-6.28h-0.65h-0.64v2.51h-2.41v-2.51
						h-0.65h-0.64v6.28h0.65h0.64v-2.69h2.41v2.69H1094.27L1094.27,219.72z M1087.34,214.55h1.86v-0.56v-0.56h-5.01v0.56v0.55h1.86
						v5.17h0.65h0.64V214.55L1087.34,214.55z M1081.86,245.26h1.25c-0.05-0.63-0.29-1.12-0.72-1.49c-0.43-0.37-0.99-0.55-1.68-0.55
						c-0.74,0-1.32,0.18-1.75,0.53s-0.65,0.83-0.65,1.44c0,0.54,0.16,0.94,0.49,1.19c0.33,0.26,0.98,0.5,1.96,0.72
						c0.53,0.12,0.88,0.23,1.04,0.34c0.17,0.11,0.25,0.28,0.25,0.52s-0.12,0.42-0.35,0.56c-0.23,0.13-0.55,0.2-0.96,0.2
						c-0.4,0-0.71-0.09-0.93-0.27c-0.22-0.18-0.34-0.43-0.36-0.76h-1.24c0.03,0.67,0.27,1.19,0.7,1.56
						c0.44,0.36,1.05,0.55,1.82,0.55c0.77,0,1.39-0.17,1.84-0.52c0.46-0.34,0.68-0.81,0.68-1.39s-0.15-1-0.45-1.27
						c-0.3-0.27-0.9-0.5-1.79-0.7c-0.62-0.14-1.02-0.26-1.21-0.36s-0.29-0.25-0.29-0.43c0-0.26,0.09-0.46,0.28-0.61
						c0.18-0.14,0.44-0.22,0.76-0.22c0.38,0,0.68,0.09,0.92,0.26C1081.71,244.73,1081.84,244.96,1081.86,245.26L1081.86,245.26z
						 M1088.64,243.39h-5v0.55v0.55h1.86v5.13h0.64h0.64v-5.13h1.86v-0.56V243.39L1088.64,243.39z M1089.86,244.12
						c-0.53,0.6-0.8,1.41-0.8,2.42c0,1,0.27,1.79,0.8,2.37c0.53,0.59,1.25,0.88,2.15,0.88c0.91,0,1.63-0.29,2.16-0.88
						c0.53-0.58,0.8-1.38,0.8-2.37c0-1.02-0.27-1.83-0.8-2.42c-0.53-0.6-1.25-0.9-2.16-0.9
						C1091.11,243.22,1090.4,243.52,1089.86,244.12L1089.86,244.12z M1090.35,246.53c0-0.69,0.15-1.23,0.44-1.62
						c0.3-0.39,0.7-0.58,1.23-0.58s0.93,0.19,1.23,0.58c0.3,0.39,0.44,0.93,0.44,1.62c0,0.67-0.15,1.2-0.44,1.58
						c-0.29,0.38-0.7,0.57-1.23,0.57c-0.52,0-0.93-0.19-1.23-0.57C1090.5,247.73,1090.35,247.21,1090.35,246.53L1090.35,246.53z
						 M1096.58,243.39h-0.64v6.23h0.64h0.64v-2.46h1.28c0.36,0,0.63,0.06,0.78,0.18c0.16,0.12,0.24,0.32,0.24,0.6l0.01,0.58
						c0,0.25,0.02,0.48,0.04,0.69s0.05,0.35,0.09,0.42h1.42v-0.16c-0.1-0.05-0.17-0.12-0.21-0.21c-0.04-0.08-0.06-0.23-0.06-0.43
						l-0.03-1.02c-0.01-0.5-0.2-0.86-0.55-1.07c-0.06-0.04-0.13-0.07-0.21-0.1c0.13-0.05,0.25-0.11,0.36-0.19
						c0.4-0.28,0.6-0.72,0.6-1.31c0-0.52-0.18-0.94-0.54-1.26c-0.36-0.32-0.83-0.48-1.42-0.48L1096.58,243.39L1096.58,243.39z
						 M1097.22,244.46h1.54c0.32,0,0.55,0.07,0.71,0.21c0.16,0.14,0.24,0.34,0.24,0.62s-0.08,0.48-0.25,0.62s-0.41,0.21-0.75,0.21
						h-1.49V244.46L1097.22,244.46z"/>
				</g>
				<rect x="909.26" y="198.39" transform="matrix(0.7071 -0.7071 0.7071 0.7071 109.1759 709.8636)" width="4.41" height="49.52"/>
				<g>
					<g>
						<path class="st8" d="M911.01,279.93c0,0,16.79-59.2,44.09-59.2s50.8,0,50.8,0s-4.3,40.73,66.34,40.73
							c72.22,0,70.12-63.82,34.43-107.91l39.89-16.79v27.71l-10.5,1.68c0,0,32.33,26.45,44.51,62.56l-34.43,51.22L911.01,279.93
							L911.01,279.93z"/>
						<path d="M1005.9,221.99h-50.49c0,0-18.37-1.26-17.53-13.86c0.84-12.6,17.21-13.44,34.85-2.1c8.42,5.42,24.35,7.98,28.55,6.72
							S1010.52,216.11,1005.9,221.99z"/>
						<circle class="st9" cx="1160.41" cy="150.19" r="12.6"/>
						<path class="st10" d="M1141.52,132.14c0,0-1.26,40.31,5.46,39.89s12.18-5.46,12.18-5.46s5.04-32.75,0-34.43
							C1154.12,130.46,1141.52,132.14,1141.52,132.14z"/>
						<path class="st11" d="M983.58,274.11c0,0-8.04-19.73-34.34-18.27c-26.31,1.46-29.59,32.88-26.67,51.15
							c2.92,18.27,22.65,21.19,44.94,19.73C989.79,325.26,992.35,290.19,983.58,274.11z"/>
						<path class="st8" d="M903.88,288.12c0-29.1,23.59-52.69,52.69-52.69s52.69,23.59,52.69,52.69"/>
						<path class="st11" d="M1200.09,267.12c0,0-12.86-18.94-35.19-11.36s-42.9,40.33-21.07,61.32s49.96,7.14,63.4-9.66
							C1220.67,290.64,1207.65,274.68,1200.09,267.12z"/>
						<path class="st8" d="M1120.11,288.12c0-29.1,23.59-52.69,52.69-52.69s52.69,23.59,52.69,52.69"/>
						<path d="M1151.41,131.4c0,0,3.34-18.79-10.1-26.34c0,0,0.84-12.6-4.62-7.98s-2.94,26.03,0,20.15s2.94-5.88,2.94-5.88
							s9.66,6.5,8.19,20.04L1151.41,131.4L1151.41,131.4z"/>
					</g>
					<path class="st12" d="M925.34,245.68c8.74-6.44,19.54-10.25,31.24-10.25c26.32,0,48.13,19.29,52.06,44.51"/>
					<path class="st12" d="M1120.74,279.93c3.93-25.21,25.74-44.51,52.06-44.51c1.07,0,2.14,0.03,3.19,0.1"/>
				</g>
				<circle class="st13" cx="794.91" cy="70.79" r="19"/>
				<path class="st14" d="M777.15,77.28L789.89,104l-8.33,4.41c0,0,12.75,6.37,23.04,4.9s13.24-11.28,13.24-11.28
					c-5.88-0.98-16.18-3.43-16.18-8.33c0-3.43,8.33-11.28,8.33-11.28"/>
				<polyline class="st15" points="781.8,108.17 788.98,104.48 803.86,110.62 808.75,99.8 816.37,101.66 819.55,148.86 
					799.94,148.86 				"/>
				<path class="st16" d="M783.03,106.45l-10.79,4.41l-7.84,97.56l86.78-2.94c0,0,0-37.75-10.79-63.74s-18.63-40.69-18.63-40.69
					l-9.32-0.98c0,0,4.9,22.55,1.47,45.1L783.03,106.45z"/>
				<path class="st17" d="M789.89,115.06l3.68-1l0.49,3.92c0,0,8.82-3.92,9.81-7.35c0,0-13.24-4.41-18.14-10.3l-5.39,5.88l0.84,1"/>
				<polyline class="st17" points="814.08,110.55 811.46,111.36 813.42,114.3 803.62,110.87 808.52,97.63 814.4,99.59 
					814.66,100.33 				"/>
				<polygon class="st18" points="764.4,208.43 752.14,307.22 770.77,307.22 809.75,229.27 834.99,319.97 851.17,319.97 
					851.17,205.49 				"/>
				<path d="M757.49,307.22c0,0-4.61,5.88-5.59,10.3c-0.98,4.41,0,11.77,0,11.77s12.26-5.39,14.22-10.79c1.96-5.39,0-11.28,0-11.28"
					/>
				<path class="st14" d="M766.11,133.66c-13.73,5.88-19.61,20.59-19.61,20.59l44.86,4.66c0,0,2.94-3.43,3.43-7.84
					s2.94,1.96,2.94,4.41s0,2.45,0,2.45s5.88-1.96,7.35,0.98s4.9,8.82,0,11.77s-12.99-2.21-12.99-2.21s-70.6,9.81-63.74-14.22
					c6.86-24.02,40.69-38.73,40.69-38.73"/>
				<path class="st17" d="M772.24,111.36c0,0-16.67,6.86-28.44,16.18l11.77,17.16l14.56-7.59"/>
				<path class="st14" d="M833.03,118.22c41.18-10.3,64.24-36.31,64.24-36.31c4.85,7.5,14,4.15,13.52-3.01
					c-0.39-5.83-5.9-7.95-9.41-7.13c-10.01,2.33-17.85,6.74-29.13,13.61c-11.28,6.86-44.12,18.14-44.12,18.14"/>
				<g>
					<path class="st19" d="M906.71,78.71c0,0,3.27-0.71,3.99,2"/>
					<path class="st19" d="M906.71,75.48c0,0,2.46-0.26,3.51,0.9"/>
					<path class="st19" d="M906.56,73.31c0,0,1-0.05,1.49,0.33"/>
					<path class="st19" d="M904.3,83.26c0,0,1.9-0.44,2.56-1.24"/>
				</g>
				<path class="st6" d="M883.25,97.16h41.67c0,0,2.39,47.24-3.01,47.85c-4.56,0.51-37.26-0.81-37.26-0.81
					S878.76,103.48,883.25,97.16z"/>
				<circle class="st15" cx="886.3" cy="102.56" r="0.73"/>
				<path class="st20" d="M888.47,98.41c0,0,4.92-15.51,16.76-14.63c11.83,0.88,13.89,15.66,13.89,15.66"/>
				<path class="st19" d="M903.97,82.45c0,0,2.29,5.01-0.18,6.35s-6.45-6.97-6.45-6.97"/>
				<path class="st5" d="M915.36,135.21v-0.43v-0.43h-2.64v-1.27h2.35v-0.42v-0.42h-2.35v-1.03h2.53v-0.43v-0.43h-3.53v4.86
					L915.36,135.21L915.36,135.21z M911.66,121.11c0-4.04-3.27-7.31-7.31-7.31s-7.31,3.27-7.31,7.31s3.27,7.31,7.31,7.31
					C908.39,128.42,911.66,125.15,911.66,121.11L911.66,121.11z M911.23,121.11c0,3.8-3.08,6.89-6.88,6.89
					c-3.79,0-6.87-3.09-6.87-6.89c0-3.81,3.08-6.89,6.87-6.89c1.82,0,3.47,0.71,4.7,1.86h-0.78v9.88h0.86v-9.8
					C910.42,117.41,911.23,119.17,911.23,121.11L911.23,121.11z M907.98,117.33c0.06-0.46,0.1-1.26,0.1-1.26h-0.62
					c0,0,0,0.06-0.03,0.4c-0.03,0.34-0.17,1.13-0.25,1.58c-0.07,0.45-0.29,1.37-0.42,1.79s-0.2,0.57-0.28,0.57s-0.14-0.18-0.27-0.56
					s-0.21-0.79-0.31-1.19s-0.22-1.17-0.28-1.56c-0.06-0.4-0.12-1.02-0.12-1.02h-0.63c0,1.34,0.44,3.32,0.57,3.87
					c0.13,0.56,0.6,2.12,1.04,2.12c0.47,0,0.92-1.67,1.08-2.28C907.73,119.19,907.92,117.8,907.98,117.33L907.98,117.33z
					 M903.82,125.96h0.88v-9.88h-0.87c0,0,0,1.84,0.01,1.89s0,0.08,0,0.09c0,0.01-0.01,0-0.01-0.01c0-0.02-0.03-0.16-0.06-0.3
					c-0.02-0.14-0.09-0.51-0.31-0.9c-0.3-0.54-0.76-0.84-1.01-0.97c-0.25-0.13-1.16-0.41-1.97-0.01c-0.8,0.4-1.04,1-1.18,1.7
					c-0.15,0.76,0.08,1.61,0.3,2.16c0.23,0.59,0.77,1.51,0.77,1.51s-0.16-0.09-0.47-0.29c-0.31-0.2-0.63-0.57-0.63-0.57
					s-0.08,0.16-0.22,0.48c-0.14,0.33-0.36,0.85-0.44,1.43c-0.07,0.59-0.15,1.16,0.04,1.82c0.18,0.67,0.36,0.94,0.71,1.37
					c0.43,0.53,1.19,0.84,2.04,0.82s1.49-0.48,1.78-0.8c0.29-0.31,0.39-0.56,0.48-0.77c0.09-0.21,0.15-0.5,0.15-0.5v0.04
					L903.82,125.96L903.82,125.96z M903.82,122.98l-0.01-0.02c0,0-0.02-0.05-0.02-0.08c-0.01-0.07-0.12-0.39-0.22-0.65
					c-0.1-0.27-0.43-0.88-0.57-1.14s-0.79-1.31-0.99-1.65c-0.2-0.34-0.42-0.82-0.42-0.82s-0.37-0.87-0.1-1.02
					c0.28-0.15,0.45,0.42,0.57,0.73c0.12,0.31,0.31,1.48,0.31,1.48s0.08-0.15,0.23-0.38c0.15-0.23,0.35-0.37,0.35-0.37
					s0.03-0.47-0.25-1.23c-0.27-0.73-0.85-1.32-1.51-1.17c-0.73,0.17-0.88,1.08-0.56,2s0.7,1.53,1.56,3.03
					c0.86,1.52,0.9,2.14,0.52,2.89c-0.36,0.7-1.22,0.91-1.92,0.67c-0.72-0.25-1.33-1.17-1.33-2.16c0-1.13,0.46-1.77,0.46-1.77
					s-0.25,0.51-0.23,1.45c0.02,1.39,0.69,2.2,1.45,2.34c0.68,0.13,1.34-0.31,1.47-1.01c0.17-0.88-0.47-1.88-0.61-2.15
					c-0.14-0.28-1-1.76-1.06-1.88c-0.06-0.12-0.77-1.35-0.75-2.22c0.01-0.86,0.5-1.24,0.79-1.35c0.29-0.12,0.91-0.25,1.58,0.51
					c0.67,0.75,0.7,1.83,0.7,1.83s0.09-0.07,0.21-0.13s0.37-0.15,0.37-0.15v4.42H903.82z M900.73,121.82c0,0,0.22,0.37,0.37,0.62
					s0.51,0.9,0.55,1.2c0.04,0.3-0.04,0.54-0.27,0.56c-0.23,0.02-0.61-0.23-0.76-1.13C900.55,122.52,900.73,121.82,900.73,121.82
					L900.73,121.82z M904.97,119.18c0,0.04,0,6.78,0,6.78h0.85v-2.74c0,0,0.32,0.72,0.66,0.72c0.34,0,0.67-0.72,0.67-0.72v2.75H908
					c0,0,0-6.67,0-6.74s-0.01-0.11-0.02-0.11c-0.02,0-0.06-0.04-0.06,0.06c-0.01,0.1-0.11,0.67-0.32,1.52s-0.66,1.49-0.79,1.6
					c-0.12,0.11-0.27,0.15-0.33,0.15s-0.09,0.03-0.36-0.19c-0.26-0.23-0.53-0.89-0.69-1.38c-0.16-0.48-0.36-1.64-0.37-1.68
					c-0.01-0.05-0.01-0.1-0.04-0.1C904.98,119.1,904.97,119.13,904.97,119.18L904.97,119.18z M907.12,111.88h3.65v-0.44v-0.43h-2.65
					v-1.28h2.35v-0.42v-0.42h-2.35v-1.04h2.54v-0.44v-0.43h-3.54V111.88L907.12,111.88z M905.64,111.88h0.5v-4.9h-0.5h-0.5v1.96
					h-1.88v-1.96h-0.5h-0.5v4.9h0.51h0.5v-2.1h1.88v2.1H905.64L905.64,111.88z M900.23,107.84h1.45v-0.44v-0.43h-3.91v0.44v0.43
					h1.45v4.03h0.5h0.5L900.23,107.84L900.23,107.84z M895.95,131.81h0.98c-0.04-0.49-0.22-0.87-0.56-1.16
					c-0.34-0.29-0.77-0.43-1.31-0.43c-0.57,0-1.03,0.14-1.37,0.42c-0.34,0.28-0.51,0.65-0.51,1.12c0,0.42,0.13,0.73,0.38,0.93
					c0.26,0.2,0.77,0.39,1.53,0.56c0.41,0.09,0.68,0.18,0.81,0.27c0.13,0.09,0.19,0.22,0.19,0.41c0,0.18-0.09,0.33-0.27,0.43
					c-0.18,0.1-0.43,0.16-0.75,0.16c-0.31,0-0.55-0.07-0.73-0.21c-0.17-0.14-0.27-0.34-0.28-0.6h-0.97
					c0.02,0.53,0.21,0.93,0.55,1.22c0.34,0.28,0.82,0.43,1.42,0.43s1.08-0.13,1.44-0.4c0.36-0.27,0.53-0.63,0.53-1.09
					c0-0.45-0.12-0.78-0.35-0.99c-0.24-0.21-0.7-0.39-1.4-0.55c-0.48-0.11-0.8-0.2-0.94-0.28c-0.15-0.08-0.22-0.19-0.22-0.34
					c0-0.2,0.07-0.36,0.22-0.47c0.14-0.11,0.34-0.17,0.6-0.17c0.29,0,0.53,0.07,0.72,0.2C895.84,131.39,895.94,131.57,895.95,131.81
					L895.95,131.81z M901.25,130.35h-3.9v0.43v0.43h1.45v4h0.5h0.5v-4h1.45v-0.43V130.35L901.25,130.35z M902.2,130.91
					c-0.41,0.47-0.62,1.1-0.62,1.89c0,0.78,0.21,1.4,0.62,1.85c0.42,0.46,0.98,0.69,1.68,0.69c0.71,0,1.27-0.23,1.69-0.69
					s0.62-1.07,0.62-1.85c0-0.79-0.21-1.42-0.62-1.89s-0.98-0.7-1.69-0.7C903.17,130.22,902.61,130.45,902.2,130.91L902.2,130.91z
					 M902.58,132.8c0-0.54,0.12-0.96,0.35-1.26c0.23-0.3,0.55-0.46,0.96-0.46c0.41,0,0.73,0.15,0.96,0.46
					c0.23,0.3,0.35,0.73,0.35,1.26s-0.11,0.94-0.35,1.23c-0.23,0.3-0.55,0.45-0.96,0.45c-0.41,0-0.73-0.15-0.96-0.45
					C902.69,133.74,902.58,133.33,902.58,132.8L902.58,132.8z M907.44,130.35h-0.5v4.86h0.5h0.5v-1.92h1c0.28,0,0.49,0.05,0.61,0.14
					s0.19,0.25,0.19,0.47l0.01,0.45c0,0.19,0.01,0.37,0.03,0.54s0.04,0.27,0.07,0.33h1.11v-0.13c-0.08-0.04-0.14-0.09-0.16-0.16
					c-0.03-0.06-0.04-0.18-0.05-0.34l-0.02-0.8c-0.01-0.39-0.15-0.67-0.43-0.83c-0.05-0.03-0.1-0.05-0.16-0.08
					c0.1-0.04,0.2-0.09,0.28-0.15c0.31-0.22,0.47-0.56,0.47-1.03c0-0.41-0.14-0.73-0.42-0.98c-0.28-0.25-0.65-0.37-1.1-0.37H907.44
					L907.44,130.35z M907.94,131.18h1.2c0.25,0,0.43,0.05,0.55,0.16s0.18,0.27,0.18,0.48c0,0.22-0.06,0.38-0.19,0.48
					c-0.13,0.11-0.32,0.16-0.58,0.16h-1.16V131.18L907.94,131.18z"/>
				<path class="st17" d="M822,101.8c0,0,19.61-4.41,28.44-8.82c0,0,8.82,13.24,8.82,23.04l-26.92,7.13"/>
				<path d="M956.34,208.18h-75.01l-5.88-59.32h80.89C963.2,162.59,956.34,208.18,956.34,208.18z"/>
				<path d="M956.3,148.96L915.85,78.9c0,0,10.09-3.08,13.03-1.62c16.97,8.42,38.03,65.55,38.03,65.55L956.3,148.96z"/>
				<path class="st21" d="M937.89,208.13c0.57-8.48,8.17-11.63,18.45-9.33"/>
				<path class="st22" d="M813.51,66.89c-4.87-1.77-13.84-5.39-14.55-8.24c0,0-2.94,8.82-16.18,14.22l-1.96,10.79
					c-4.19-3.49-4.9-6.99-4.9-12.87c0-10.49,8.51-19,19-19C804.07,51.79,811.72,58.26,813.51,66.89z"/>
				<path class="st14" d="M781.41,86.21c-0.7,0.25-1.48,0.39-2.31,0.39c-3.11,0-5.64-1.98-5.64-4.41c0-2.44,2.52-4.41,5.64-4.41
					c1.56,0,2.97,0.49,3.99,1.29"/>
				<path class="st23" d="M800.43,63.56c0,0,3.92,2.94,5.88,7.84l-4.41,0.98"/>
				<path class="st23" d="M793.08,75.81c0,0,4.9,5.88,11.77,1.47"/>
			</g>
		</g>
	</g>
</g>
</svg>
