<?xml version="1.0" encoding="utf-8"?>
<!-- Generator: Adobe Illustrator 24.1.2, SVG Export Plug-In . SVG Version: 6.00 Build 0)  -->
<svg version="1.1" id="Layer_1" xmlns="http://www.w3.org/2000/svg" xmlns:xlink="http://www.w3.org/1999/xlink" x="0px" y="0px"
	 viewBox="0 0 1400 350" style="enable-background:new 0 0 1400 350;" xml:space="preserve">
<style type="text/css">
	.st0{clip-path:url(#SVGID_3_);fill:url(#SVGID_4_);}
	.st1{clip-path:url(#SVGID_6_);}
	.st2{fill:#FFE6E6;stroke:#000000;stroke-width:1.4059;stroke-linecap:round;stroke-linejoin:round;stroke-miterlimit:10;}
	.st3{stroke:#000000;stroke-width:1.4059;stroke-linecap:round;stroke-linejoin:round;stroke-miterlimit:10;}
	.st4{fill:none;stroke:#000000;stroke-width:1.4059;stroke-linecap:round;stroke-linejoin:round;stroke-miterlimit:10;}
	.st5{fill:#FFB000;}
	.st6{fill:#F9D4D4;}
	.st7{fill:#FFE6E6;}
	.st8{fill:none;stroke:#000000;stroke-width:1.4059;stroke-linecap:round;stroke-miterlimit:10;}
	.st9{fill:none;stroke:#FFFFFF;stroke-width:1.4059;stroke-miterlimit:10;}
	.st10{clip-path:url(#SVGID_8_);}
	.st11{fill:#FFFFFF;}
	.st12{fill:#FFE6E6;stroke:#000000;stroke-width:2.2449;stroke-linecap:round;stroke-linejoin:round;stroke-miterlimit:10;}
	.st13{fill:#685CA8;}
	.st14{fill:#005CE2;}
	.st15{fill:none;stroke:#FFFFFF;stroke-width:2.3354;stroke-linejoin:round;stroke-miterlimit:10;}
	.st16{font-family:'BasicSans-SemiBold';}
	.st17{font-size:16.9484px;}
</style>
<g>
	<g>
		<defs>
			<rect id="SVGID_1_" width="1400" height="350"/>
		</defs>
		<linearGradient id="SVGID_2_" gradientUnits="userSpaceOnUse" x1="700" y1="0" x2="700" y2="350">
			<stop  offset="0" style="stop-color:#003E97"/>
			<stop  offset="0.1459" style="stop-color:#0049B2"/>
			<stop  offset="0.3067" style="stop-color:#0051C7"/>
			<stop  offset="0.485" style="stop-color:#0057D6"/>
			<stop  offset="0.6928" style="stop-color:#005BDF"/>
			<stop  offset="1" style="stop-color:#005CE2"/>
		</linearGradient>
		<use xlink:href="#SVGID_1_"  style="overflow:visible;fill:url(#SVGID_2_);"/>
		<clipPath id="SVGID_3_">
			<use xlink:href="#SVGID_1_"  style="overflow:visible;"/>
		</clipPath>
		<linearGradient id="SVGID_4_" gradientUnits="userSpaceOnUse" x1="700" y1="0" x2="700" y2="350">
			<stop  offset="0" style="stop-color:#003E97"/>
			<stop  offset="0.1459" style="stop-color:#0049B2"/>
			<stop  offset="0.3067" style="stop-color:#0051C7"/>
			<stop  offset="0.485" style="stop-color:#0057D6"/>
			<stop  offset="0.6928" style="stop-color:#005BDF"/>
			<stop  offset="1" style="stop-color:#005CE2"/>
		</linearGradient>
		<rect class="st0" width="1400" height="350"/>
	</g>
	<g>
		<defs>
			<rect id="SVGID_5_" width="1400" height="350"/>
		</defs>
		<clipPath id="SVGID_6_">
			<use xlink:href="#SVGID_5_"  style="overflow:visible;"/>
		</clipPath>
		<g class="st1">
			<path d="M163.3,106.71c0,0-13.87-32.28-47.45-21.09c-37.96,12.65-40.07,104.74-37.26,131.8c2.81,27.06,78.38,8.79,78.38,8.79"/>
			<path class="st2" d="M153.48,172.56c0,0-2.98,15.88,1.49,24.32h-25.81l3.97-33.75"/>
			
				<ellipse transform="matrix(0.0825 -0.9966 0.9966 0.0825 6.9063 288.6015)" class="st2" cx="160.19" cy="140.55" rx="39.46" ry="39.46"/>
			<path class="st3" d="M128.37,117.21c-0.53,0.73-1.04,1.47-1.51,2.21l72.51,16.48c-1.24-10.48-6.66-20.44-15.85-27.18
				C165.95,95.84,141.26,99.64,128.37,117.21z"/>
			<path class="st4" d="M166.62,124.65c0,0,3.57,18.62,2.4,29.46l-11.87-5.63"/>
			<path class="st4" d="M155.11,162.99c0,0-9.02,1.39-10.81-7.93"/>
			<path class="st5" d="M56.7,350h142.44c0,0-0.75-6.71-1.97-17.41c-3.76-32.88-12.02-103.4-16.89-132.23l-20.35-3.47l-2.98-8.93
				H123.7l-2.98,8.93l-25.97-0.19c0,0-20.86,72.11-32.68,126.17C59.93,332.69,58.08,341.91,56.7,350z"/>
			<path class="st5" d="M179.66,200.25c0,0,26.51,3.12,45.84,39.32s2.81,57.64-17.93,64.67c-4.25,1.44-8.76,2.17-13.24,2.43
				c-17.34,0.98-34.21-5.24-34.21-5.24l9.14-30.58c0,0,11.38,4.17,21.32,3.34c6.64-0.55,12.63-3.34,14.18-11.07
				c3.87-19.33-41.83-28.47-41.83-28.47"/>
			<path class="st6" d="M124.45,264.57l6.16-0.05c0,0,2.11-3.51,4.57-3.87c2.46-0.35,3.87,2.11,3.87,2.11s12.65-0.7,10.9,0.7
				c-1.76,1.41-9.14,3.51-9.14,3.51l3.51,9.14c0,0-9.84,4.57-13-1.05l-6.68,3.54"/>
			<path d="M160.83,258.9c0,0-11.37,31.28-13.58,31.59s-17.38-5.37-17.69-7.27s11.69-31.59,11.69-31.59L160.83,258.9z"/>
			<g>
				<path class="st7" d="M167.18,280.73l-8.94-1.72c0,0,0.48-2.89,0.13-4.65c-0.68-3.41-1.33-4.57-1.33-4.57l-3.24,7.73l-16.5-10.54
					c0,0-4.46,9.36-1.78,16.04c2.67,6.68,13.36,5.79,18.71,4.9l9.18,5.42"/>
				<path class="st8" d="M135.82,271.01c0,0,1.82,4.41,5.69,6.16"/>
				<path class="st8" d="M134.79,275.99c0,0,1.62,4.53,5.13,5.23"/>
				<path class="st8" d="M135.21,282.1c0,0,0.5,1.58,4.01,2.63"/>
			</g>
			<path class="st5" d="M94.94,196.69c-6.86,0-42.27,0.83-60.14,46.5c-8.78,22.44,12.77,33.38,36.97,38.69
				c25.02,5.5,52.87,4.98,52.87,4.98v-27.3c0,0-30.03,1.45-45.92-5.24c-2.72-1.14-5.02-2.53-6.69-4.19
				c-11.42-11.42,18.36-16.88,18.36-16.88"/>
			<path class="st9" d="M194.35,306.67c-17.34,0.98-34.21-5.24-34.21-5.24l9.14-30.58c0,0,11.38,4.17,21.32,3.34"/>
			<path class="st9" d="M71.58,282.23c25.02,5.5,52.87,4.98,52.87,4.98v-27.3c0,0-30.03,1.45-45.92-5.24"/>
		</g>
	</g>
	<g>
		<defs>
			<rect id="SVGID_7_" width="1400" height="350"/>
		</defs>
		<clipPath id="SVGID_8_">
			<use xlink:href="#SVGID_7_"  style="overflow:visible;"/>
		</clipPath>
		<g class="st10">
			<path d="M1094.4,137.6c0,0,93.89-60.64,131.36-75.73c20.96-8.44,14.74-10.3,68.19,95.98s89.61,158.09,79.92,169.13
				c-9.69,11.05-132.77,81.71-140.04,75.78C1226.57,396.84,1094.4,137.6,1094.4,137.6z"/>
			<path class="st11" d="M1113.18,144.27l40-23.79c0,0,3.07,15.04,9.67,12.26c6.6-2.79,43.23-19.71,42.72-27.46
				c-0.51-7.76-5.79-11.37-5.79-11.37l36.84-18.75l123.36,242.43c0,0-113.63,69.27-119.15,64.06
				C1235.33,376.44,1113.18,144.27,1113.18,144.27z"/>
			<g>
				<path class="st12" d="M1206.77,369.99c0,0-44.78-16.36-55.84-62.27c-11.06-45.91,24.62-50.9,38.77-36.91
					C1203.84,284.81,1251.88,343.81,1206.77,369.99z"/>
				<path class="st12" d="M1206.97,291.76c0,0-30.7,5.36-38.66,32.89"/>
				<path class="st12" d="M1192.18,273.37c0,0-25.54,7.46-32.46,28.73"/>
				<path class="st12" d="M1218.79,312.03c0,0-33.74,6.96-33.44,32.57"/>
				<path class="st12" d="M1372.19,311.43c0,0-28.71-4.92-35.48-26.1s-0.43-28.98-0.43-28.98s-16.56-50.55-2.83-44.94
					c13.73,5.61,40.33,54.49,45.48,73.63C1384.09,304.18,1372.19,311.43,1372.19,311.43z"/>
			</g>
			<circle class="st13" cx="1219.15" cy="188.32" r="40.41"/>
			<circle class="st14" cx="1259.49" cy="269.56" r="40.41"/>
			<g>
				<path class="st11" d="M1218.45,215.04c-0.37-0.72-0.76-1.43-1.09-2.17c-0.18-0.38-0.37-0.49-0.8-0.41
					c-2.26,0.42-4.51,0.38-6.74-0.24c-2.59-0.72-4.77-2.13-6.68-3.99c-1.44-1.41-2.7-2.97-3.72-4.7s-2.03-3.47-2.92-5.26
					c-1.5-3.02-2.83-6.12-3.44-9.47c-0.46-2.56-0.49-5.11,0.28-7.63c0.52-1.72,1.47-3.22,2.59-4.61c1.65-2.07,3.63-3.79,5.77-5.34
					c2.27-1.64,4.67-3.04,7.18-4.26c3.42-1.66,6.9-3.12,10.66-3.84c1.77-0.34,3.55-0.52,5.36-0.48c3.2,0.07,5.92,1.3,8.32,3.35
					c1.72,1.47,3.17,3.19,4.46,5.05c1.28,1.85,2.41,3.78,3.37,5.81c0.78,1.66,1.46,3.37,2.16,5.06c0.7,1.67,1.23,3.4,1.52,5.19
					c0.85,5.28-0.66,9.76-4.55,13.43c-1.63,1.54-3.34,2.97-5.21,4.21c-1.15,0.76-2.33,1.47-3.53,2.16c-1.01,0.59-2.05,1.14-3.1,1.66
					c-0.78,0.39-1.59,0.72-2.4,1.05c-0.35,0.14-0.51,0.37-0.6,0.73c-0.51,2.01-1.04,4.02-1.58,6.02c-0.11,0.4-0.25,0.8-0.44,1.17
					c-0.73,1.49-2.34,1.63-3.33,0.3c-0.19-0.26-0.36-0.54-0.51-0.83C1219.11,216.38,1218.78,215.71,1218.45,215.04
					C1218.45,215.05,1218.45,215.05,1218.45,215.04z M1209.35,170.68c-1.37,0.83-3,1.77-4.57,2.79c-1.91,1.24-3.63,2.7-5.12,4.43
					c-1.36,1.58-2.45,3.31-2.86,5.4c-0.57,2.96-0.03,5.8,0.92,8.6c0.73,2.17,1.78,4.19,2.77,6.25c0.29,0.6,0.64,1.17,0.95,1.75
					c0.93,1.76,2.03,3.39,3.37,4.86c1.84,2.01,4.01,3.48,6.72,4.06c1.62,0.34,3.24,0.32,4.86,0.03c0.2-0.04,0.39-0.09,0.52,0.18
					c1,2.04,2.02,4.07,3.03,6.1c0.26,0.53,0.51,1.06,0.81,1.57c0.15,0.26,0.34,0.64,0.69,0.5c0.25-0.1,0.46-0.4,0.58-0.66
					c0.18-0.39,0.27-0.82,0.37-1.24c0.7-2.87,1.39-5.73,2.07-8.6c0.08-0.33,0.22-0.53,0.53-0.65c0.35-0.13,0.71-0.28,1.04-0.45
					c1.12-0.58,2.25-1.16,3.35-1.79c1.1-0.64,2.21-1.28,3.24-2.04c1.43-1.05,2.81-2.18,4.18-3.32c2.87-2.4,4.4-5.44,4.31-9.23
					c-0.05-1.91-0.45-3.75-1.16-5.51c-0.81-1.99-1.6-3.99-2.53-5.92c-0.69-1.44-1.56-2.79-2.42-4.15c-1.15-1.82-2.56-3.44-4.22-4.84
					c-2.13-1.79-4.55-2.66-7.37-2.48c-2.98,0.19-5.84,0.9-8.6,1.97C1213.04,168.98,1211.34,169.8,1209.35,170.68z"/>
				<path class="st11" d="M1232.11,196.76c-0.6,0.1-1.13,0.24-1.67,0.28c-5.09,0.4-10.11,0.15-14.97-1.6
					c-3.03-1.09-5.78-2.72-8.36-4.63c-1.13-0.84-2.2-1.76-3.28-2.65c-1.03-0.85-1.17-1.98-0.94-3.19c0.22-1.13,0.69-2.16,1.31-3.12
					c0.62-0.95,1.43-1.2,2.46-0.77c1.68,0.69,3.3,1.49,4.84,2.48c0.99,0.63,1.56,1.87,0.9,2.99c-0.2,0.35-0.35,0.73-0.5,1.1
					c-0.24,0.6-0.17,1.21,0.28,1.64c3.12,2.99,6.75,4.51,11.14,3.75c0.82-0.14,1.28-0.61,1.45-1.43c0.07-0.33,0.16-0.66,0.2-1
					c0.12-1.18,1.15-1.93,2.38-1.87c1.65,0.08,3.27,0.32,4.87,0.7c0.2,0.05,0.41,0.09,0.61,0.14c1,0.25,1.51,0.84,1.51,1.86
					c-0.01,1.47-0.31,2.89-1.13,4.13C1232.92,196.02,1232.48,196.37,1232.11,196.76z"/>
				<path class="st11" d="M1230.57,181.64c0.09,0.17,0.18,0.35,0.27,0.52c0.15,0.32,0.05,0.66-0.24,0.81
					c-0.28,0.16-0.65,0.03-0.84-0.28c-0.57-0.9-1.1-1.83-1.73-2.69c-2.88-3.91-8.12-5.62-12.73-4.17c-0.78,0.25-1.53,0.58-2.29,0.89
					c-0.42,0.18-0.83,0.1-0.99-0.23c-0.15-0.32,0.01-0.7,0.41-0.89c5.61-2.76,12.17-1.74,16.28,3.28c0.35,0.43,0.68,0.89,1,1.35
					c0.31,0.45,0.58,0.92,0.88,1.38C1230.58,181.63,1230.57,181.63,1230.57,181.64z"/>
				<path class="st11" d="M1226.93,182.1c0.07,0.14,0.15,0.28,0.21,0.42c0.15,0.35,0.03,0.66-0.3,0.81
					c-0.32,0.15-0.6,0.06-0.78-0.28c-0.57-1.05-1.2-2.05-2.14-2.81c-2.1-1.71-4.48-2.13-7.06-1.41c-0.47,0.13-0.93,0.33-1.4,0.47
					c-0.42,0.13-0.72,0.01-0.85-0.32s0.01-0.65,0.4-0.82c3.46-1.47,7.49-1.37,10.55,1.94c0.26,0.29,0.51,0.6,0.73,0.91
					c0.24,0.34,0.44,0.71,0.66,1.06C1226.94,182.09,1226.93,182.09,1226.93,182.1z"/>
				<path class="st11" d="M1217.5,180.86c2-0.8,4.15-0.86,5.83,1.74c0.06,0.1,0.14,0.19,0.21,0.28c0.22,0.31,0.16,0.74-0.13,0.95
					c-0.27,0.2-0.7,0.09-0.92-0.24c-0.17-0.26-0.32-0.54-0.52-0.78c-1.01-1.23-2.36-1.53-3.83-0.86c-0.07,0.03-0.14,0.07-0.22,0.09
					c-0.38,0.11-0.7-0.04-0.82-0.39C1217,181.34,1217.16,181.01,1217.5,180.86z"/>
			</g>
			<g>
				<path class="st15" d="M1285.3,272.97c-0.19,0.57-1.51,1.64-3.56,2.98l5.94,8.91c0,0-7.95-2.75-12.97-4.72
					c-10.88,6.06-26.5,13.41-28.54,12.74c-3.14-1.02-14.39-26.22-14.39-26.22l41.41-22.64
					C1273.19,244.02,1286.32,269.83,1285.3,272.97z"/>
				<text transform="matrix(0.8913 -0.4535 0.4535 0.8913 1247.4736 280.3273)" class="st11 st16 st17">sms</text>
			</g>
		</g>
	</g>
</g>
<rect x="1750.77" y="175" class="st14" width="214.33" height="214.33"/>
</svg>
