<svg width="1000" height="398" viewBox="0 0 1000 398" fill="none" xmlns="http://www.w3.org/2000/svg">
<rect y="32" width="1000" height="366" fill="#FFC734"/>
<mask id="mask0" mask-type="alpha" maskUnits="userSpaceOnUse" x="-55" y="-40" width="1055" height="437">
<path d="M1000 -40H-55V397H1000V-40Z" fill="white"/>
</mask>
<g mask="url(#mask0)">
<path d="M1000 -40H-55V397H1000V-40Z" fill="#FFC734"/>
<path opacity="0.2" d="M891.598 361.556H887.938V364.736H891.598V361.556Z" fill="black"/>
<path opacity="0.2" d="M830.535 361.556H826.875V364.736H830.535V361.556Z" fill="black"/>
<path opacity="0.2" d="M769.473 361.556H765.812V364.736H769.473V361.556Z" fill="black"/>
<path opacity="0.2" d="M708.41 361.556H704.75V364.736H708.41V361.556Z" fill="black"/>
<path opacity="0.2" d="M647.348 361.556H643.688V364.736H647.348V361.556Z" fill="black"/>
<path opacity="0.2" d="M586.285 361.556H582.625V364.736H586.285V361.556Z" fill="black"/>
<path opacity="0.2" d="M525.223 361.556H521.562V364.736H525.223V361.556Z" fill="black"/>
<path opacity="0.2" d="M464.16 361.556H460.5V364.736H464.16V361.556Z" fill="black"/>
<path opacity="0.2" d="M403.098 361.556H399.438V364.736H403.098V361.556Z" fill="black"/>
<path opacity="0.2" d="M342.035 361.556H338.375V364.736H342.035V361.556Z" fill="black"/>
<path opacity="0.2" d="M280.973 361.556H277.312V364.736H280.973V361.556Z" fill="black"/>
<path opacity="0.2" d="M219.91 361.556H216.25V364.736H219.91V361.556Z" fill="black"/>
<path opacity="0.2" d="M158.848 361.556H155.188V364.736H158.848V361.556Z" fill="black"/>
<path opacity="0.2" d="M97.785 361.556H94.125V364.736H97.785V361.556Z" fill="black"/>
<path opacity="0.2" d="M36.7225 361.556H33.0625V364.736H36.7225V361.556Z" fill="black"/>
<path opacity="0.2" d="M891.598 308.333H887.938V311.513H891.598V308.333Z" fill="black"/>
<path opacity="0.2" d="M830.535 308.333H826.875V311.513H830.535V308.333Z" fill="black"/>
<path opacity="0.2" d="M769.473 308.333H765.812V311.513H769.473V308.333Z" fill="black"/>
<path opacity="0.2" d="M708.41 308.333H704.75V311.513H708.41V308.333Z" fill="black"/>
<path opacity="0.2" d="M647.348 308.333H643.688V311.513H647.348V308.333Z" fill="black"/>
<path opacity="0.2" d="M586.285 308.333H582.625V311.513H586.285V308.333Z" fill="black"/>
<path opacity="0.2" d="M525.223 308.333H521.562V311.513H525.223V308.333Z" fill="black"/>
<path opacity="0.2" d="M464.16 308.333H460.5V311.513H464.16V308.333Z" fill="black"/>
<path opacity="0.2" d="M403.098 308.333H399.438V311.513H403.098V308.333Z" fill="black"/>
<path opacity="0.2" d="M342.035 308.333H338.375V311.513H342.035V308.333Z" fill="black"/>
<path opacity="0.2" d="M280.973 308.333H277.312V311.513H280.973V308.333Z" fill="black"/>
<path opacity="0.2" d="M219.91 308.333H216.25V311.513H219.91V308.333Z" fill="black"/>
<path opacity="0.2" d="M158.848 308.333H155.188V311.513H158.848V308.333Z" fill="black"/>
<path opacity="0.2" d="M97.785 308.333H94.125V311.513H97.785V308.333Z" fill="black"/>
<path opacity="0.2" d="M36.7225 308.333H33.0625V311.513H36.7225V308.333Z" fill="black"/>
<path opacity="0.2" d="M891.598 255.111H887.938V258.291H891.598V255.111Z" fill="black"/>
<path opacity="0.2" d="M830.535 255.111H826.875V258.291H830.535V255.111Z" fill="black"/>
<path opacity="0.2" d="M769.473 255.111H765.812V258.291H769.473V255.111Z" fill="black"/>
<path opacity="0.2" d="M708.41 255.111H704.75V258.291H708.41V255.111Z" fill="black"/>
<path opacity="0.2" d="M647.348 255.111H643.688V258.291H647.348V255.111Z" fill="black"/>
<path opacity="0.2" d="M586.285 255.111H582.625V258.291H586.285V255.111Z" fill="black"/>
<path opacity="0.2" d="M525.223 255.111H521.562V258.291H525.223V255.111Z" fill="black"/>
<path opacity="0.2" d="M464.16 255.111H460.5V258.291H464.16V255.111Z" fill="black"/>
<path opacity="0.2" d="M403.098 255.111H399.438V258.291H403.098V255.111Z" fill="black"/>
<path opacity="0.2" d="M342.035 255.111H338.375V258.291H342.035V255.111Z" fill="black"/>
<path opacity="0.2" d="M280.973 255.111H277.312V258.291H280.973V255.111Z" fill="black"/>
<path opacity="0.2" d="M219.91 255.111H216.25V258.291H219.91V255.111Z" fill="black"/>
<path opacity="0.2" d="M158.848 255.111H155.188V258.291H158.848V255.111Z" fill="black"/>
<path opacity="0.2" d="M97.785 255.111H94.125V258.291H97.785V255.111Z" fill="black"/>
<path opacity="0.2" d="M36.7225 255.111H33.0625V258.291H36.7225V255.111Z" fill="black"/>
<path opacity="0.2" d="M891.598 201.889H887.938V205.069H891.598V201.889Z" fill="black"/>
<path opacity="0.2" d="M830.535 201.889H826.875V205.069H830.535V201.889Z" fill="black"/>
<path opacity="0.2" d="M769.473 201.889H765.812V205.069H769.473V201.889Z" fill="black"/>
<path opacity="0.2" d="M708.41 201.889H704.75V205.069H708.41V201.889Z" fill="black"/>
<path opacity="0.2" d="M647.348 201.889H643.688V205.069H647.348V201.889Z" fill="black"/>
<path opacity="0.2" d="M586.285 201.889H582.625V205.069H586.285V201.889Z" fill="black"/>
<path opacity="0.2" d="M525.223 201.889H521.562V205.069H525.223V201.889Z" fill="black"/>
<path opacity="0.2" d="M464.16 201.889H460.5V205.069H464.16V201.889Z" fill="black"/>
<path opacity="0.2" d="M403.098 201.889H399.438V205.069H403.098V201.889Z" fill="black"/>
<path opacity="0.2" d="M342.035 201.889H338.375V205.069H342.035V201.889Z" fill="black"/>
<path opacity="0.2" d="M280.973 201.889H277.312V205.069H280.973V201.889Z" fill="black"/>
<path opacity="0.2" d="M219.91 201.889H216.25V205.069H219.91V201.889Z" fill="black"/>
<path opacity="0.2" d="M158.848 201.889H155.188V205.069H158.848V201.889Z" fill="black"/>
<path opacity="0.2" d="M97.785 201.889H94.125V205.069H97.785V201.889Z" fill="black"/>
<path opacity="0.2" d="M36.7225 201.889H33.0625V205.069H36.7225V201.889Z" fill="black"/>
<path opacity="0.2" d="M891.598 148.667H887.938V151.847H891.598V148.667Z" fill="black"/>
<path opacity="0.2" d="M830.535 148.667H826.875V151.847H830.535V148.667Z" fill="black"/>
<path opacity="0.2" d="M769.473 148.667H765.812V151.847H769.473V148.667Z" fill="black"/>
<path opacity="0.2" d="M708.41 148.667H704.75V151.847H708.41V148.667Z" fill="black"/>
<path opacity="0.2" d="M647.348 148.667H643.688V151.847H647.348V148.667Z" fill="black"/>
<path opacity="0.2" d="M586.285 148.667H582.625V151.847H586.285V148.667Z" fill="black"/>
<path opacity="0.2" d="M525.223 148.667H521.562V151.847H525.223V148.667Z" fill="black"/>
<path opacity="0.2" d="M464.16 148.667H460.5V151.847H464.16V148.667Z" fill="black"/>
<path opacity="0.2" d="M403.098 148.667H399.438V151.847H403.098V148.667Z" fill="black"/>
<path opacity="0.2" d="M342.035 148.667H338.375V151.847H342.035V148.667Z" fill="black"/>
<path opacity="0.2" d="M280.973 148.667H277.312V151.847H280.973V148.667Z" fill="black"/>
<path opacity="0.2" d="M219.91 148.667H216.25V151.847H219.91V148.667Z" fill="black"/>
<path opacity="0.2" d="M158.848 148.667H155.188V151.847H158.848V148.667Z" fill="black"/>
<path opacity="0.2" d="M97.785 148.667H94.125V151.847H97.785V148.667Z" fill="black"/>
<path opacity="0.2" d="M36.7225 148.667H33.0625V151.847H36.7225V148.667Z" fill="black"/>
<path opacity="0.2" d="M891.598 95.4443H887.938V98.6243H891.598V95.4443Z" fill="black"/>
<path opacity="0.2" d="M830.535 95.4443H826.875V98.6243H830.535V95.4443Z" fill="black"/>
<path opacity="0.2" d="M769.473 95.4443H765.812V98.6243H769.473V95.4443Z" fill="black"/>
<path opacity="0.2" d="M708.41 95.4443H704.75V98.6243H708.41V95.4443Z" fill="black"/>
<path opacity="0.2" d="M647.348 95.4443H643.688V98.6243H647.348V95.4443Z" fill="black"/>
<path opacity="0.2" d="M586.285 95.4443H582.625V98.6243H586.285V95.4443Z" fill="black"/>
<path opacity="0.2" d="M525.223 95.4443H521.562V98.6243H525.223V95.4443Z" fill="black"/>
<path opacity="0.2" d="M464.16 95.4443H460.5V98.6243H464.16V95.4443Z" fill="black"/>
<path opacity="0.2" d="M403.098 95.4443H399.438V98.6243H403.098V95.4443Z" fill="black"/>
<path opacity="0.2" d="M342.035 95.4443H338.375V98.6243H342.035V95.4443Z" fill="black"/>
<path opacity="0.2" d="M280.973 95.4443H277.312V98.6243H280.973V95.4443Z" fill="black"/>
<path opacity="0.2" d="M219.91 95.4443H216.25V98.6243H219.91V95.4443Z" fill="black"/>
<path opacity="0.2" d="M158.848 95.4443H155.188V98.6243H158.848V95.4443Z" fill="black"/>
<path opacity="0.2" d="M97.785 95.4443H94.125V98.6243H97.785V95.4443Z" fill="black"/>
<path opacity="0.2" d="M36.7225 95.4443H33.0625V98.6243H36.7225V95.4443Z" fill="black"/>
<path opacity="0.2" d="M891.598 42.2227H887.938V45.4027H891.598V42.2227Z" fill="black"/>
<path opacity="0.2" d="M830.535 42.2227H826.875V45.4027H830.535V42.2227Z" fill="black"/>
<path opacity="0.2" d="M769.473 42.2227H765.812V45.4027H769.473V42.2227Z" fill="black"/>
<path opacity="0.2" d="M708.41 42.2227H704.75V45.4027H708.41V42.2227Z" fill="black"/>
<path opacity="0.2" d="M647.348 42.2227H643.688V45.4027H647.348V42.2227Z" fill="black"/>
<path opacity="0.2" d="M586.285 42.2227H582.625V45.4027H586.285V42.2227Z" fill="black"/>
<path opacity="0.2" d="M525.223 42.2227H521.562V45.4027H525.223V42.2227Z" fill="black"/>
<path opacity="0.2" d="M464.16 42.2227H460.5V45.4027H464.16V42.2227Z" fill="black"/>
<path opacity="0.2" d="M403.098 42.2227H399.438V45.4027H403.098V42.2227Z" fill="black"/>
<path opacity="0.2" d="M342.035 42.2227H338.375V45.4027H342.035V42.2227Z" fill="black"/>
<path opacity="0.2" d="M280.973 42.2227H277.312V45.4027H280.973V42.2227Z" fill="black"/>
<path opacity="0.2" d="M219.91 42.2227H216.25V45.4027H219.91V42.2227Z" fill="black"/>
<path opacity="0.2" d="M158.848 42.2227H155.188V45.4027H158.848V42.2227Z" fill="black"/>
<path opacity="0.2" d="M97.785 42.2227H94.125V45.4027H97.785V42.2227Z" fill="black"/>
<path opacity="0.2" d="M36.7225 42.2227H33.0625V45.4027H36.7225V42.2227Z" fill="black"/>
</g>
</svg>
