<svg width="1000" height="366" viewBox="0 0 1000 366" fill="none" xmlns="http://www.w3.org/2000/svg">
<mask id="mask0" mask-type="alpha" maskUnits="userSpaceOnUse" x="0" y="0" width="1000" height="366">
<rect width="1000" height="366" fill="#FFC734"/>
</mask>
<g mask="url(#mask0)">
<mask id="mask1" mask-type="alpha" maskUnits="userSpaceOnUse" x="-55" y="-72" width="1055" height="437">
<path d="M1000 -72H-55V365H1000V-72Z" fill="white"/>
</mask>
<g mask="url(#mask1)">
<path d="M1000 -72H-55V365H1000V-72Z" fill="#FFC734"/>
<path opacity="0.2" d="M891.598 329.556H887.938V332.736H891.598V329.556Z" fill="black"/>
<path opacity="0.2" d="M830.535 329.556H826.875V332.736H830.535V329.556Z" fill="black"/>
<path opacity="0.2" d="M769.473 329.556H765.812V332.736H769.473V329.556Z" fill="black"/>
<path opacity="0.2" d="M708.41 329.556H704.75V332.736H708.41V329.556Z" fill="black"/>
<path opacity="0.2" d="M647.348 329.556H643.688V332.736H647.348V329.556Z" fill="black"/>
<path opacity="0.2" d="M586.285 329.556H582.625V332.736H586.285V329.556Z" fill="black"/>
<path opacity="0.2" d="M525.223 329.556H521.562V332.736H525.223V329.556Z" fill="black"/>
<path opacity="0.2" d="M464.16 329.556H460.5V332.736H464.16V329.556Z" fill="black"/>
<path opacity="0.2" d="M403.098 329.556H399.438V332.736H403.098V329.556Z" fill="black"/>
<path opacity="0.2" d="M342.035 329.556H338.375V332.736H342.035V329.556Z" fill="black"/>
<path opacity="0.2" d="M280.973 329.556H277.312V332.736H280.973V329.556Z" fill="black"/>
<path opacity="0.2" d="M219.91 329.556H216.25V332.736H219.91V329.556Z" fill="black"/>
<path opacity="0.2" d="M158.848 329.556H155.188V332.736H158.848V329.556Z" fill="black"/>
<path opacity="0.2" d="M97.785 329.556H94.125V332.736H97.785V329.556Z" fill="black"/>
<path opacity="0.2" d="M36.7225 329.556H33.0625V332.736H36.7225V329.556Z" fill="black"/>
<path opacity="0.2" d="M891.598 276.333H887.938V279.513H891.598V276.333Z" fill="black"/>
<path opacity="0.2" d="M830.535 276.333H826.875V279.513H830.535V276.333Z" fill="black"/>
<path opacity="0.2" d="M769.473 276.333H765.812V279.513H769.473V276.333Z" fill="black"/>
<path opacity="0.2" d="M708.41 276.333H704.75V279.513H708.41V276.333Z" fill="black"/>
<path opacity="0.2" d="M647.348 276.333H643.688V279.513H647.348V276.333Z" fill="black"/>
<path opacity="0.2" d="M586.285 276.333H582.625V279.513H586.285V276.333Z" fill="black"/>
<path opacity="0.2" d="M525.223 276.333H521.562V279.513H525.223V276.333Z" fill="black"/>
<path opacity="0.2" d="M464.16 276.333H460.5V279.513H464.16V276.333Z" fill="black"/>
<path opacity="0.2" d="M403.098 276.333H399.438V279.513H403.098V276.333Z" fill="black"/>
<path opacity="0.2" d="M342.035 276.333H338.375V279.513H342.035V276.333Z" fill="black"/>
<path opacity="0.2" d="M280.973 276.333H277.312V279.513H280.973V276.333Z" fill="black"/>
<path opacity="0.2" d="M219.91 276.333H216.25V279.513H219.91V276.333Z" fill="black"/>
<path opacity="0.2" d="M158.848 276.333H155.188V279.513H158.848V276.333Z" fill="black"/>
<path opacity="0.2" d="M97.785 276.333H94.125V279.513H97.785V276.333Z" fill="black"/>
<path opacity="0.2" d="M36.7225 276.333H33.0625V279.513H36.7225V276.333Z" fill="black"/>
<path opacity="0.2" d="M891.598 223.111H887.938V226.291H891.598V223.111Z" fill="black"/>
<path opacity="0.2" d="M830.535 223.111H826.875V226.291H830.535V223.111Z" fill="black"/>
<path opacity="0.2" d="M769.473 223.111H765.812V226.291H769.473V223.111Z" fill="black"/>
<path opacity="0.2" d="M708.41 223.111H704.75V226.291H708.41V223.111Z" fill="black"/>
<path opacity="0.2" d="M647.348 223.111H643.688V226.291H647.348V223.111Z" fill="black"/>
<path opacity="0.2" d="M586.285 223.111H582.625V226.291H586.285V223.111Z" fill="black"/>
<path opacity="0.2" d="M525.223 223.111H521.562V226.291H525.223V223.111Z" fill="black"/>
<path opacity="0.2" d="M464.16 223.111H460.5V226.291H464.16V223.111Z" fill="black"/>
<path opacity="0.2" d="M403.098 223.111H399.438V226.291H403.098V223.111Z" fill="black"/>
<path opacity="0.2" d="M342.035 223.111H338.375V226.291H342.035V223.111Z" fill="black"/>
<path opacity="0.2" d="M280.973 223.111H277.312V226.291H280.973V223.111Z" fill="black"/>
<path opacity="0.2" d="M219.91 223.111H216.25V226.291H219.91V223.111Z" fill="black"/>
<path opacity="0.2" d="M158.848 223.111H155.188V226.291H158.848V223.111Z" fill="black"/>
<path opacity="0.2" d="M97.785 223.111H94.125V226.291H97.785V223.111Z" fill="black"/>
<path opacity="0.2" d="M36.7225 223.111H33.0625V226.291H36.7225V223.111Z" fill="black"/>
<path opacity="0.2" d="M891.598 169.889H887.938V173.069H891.598V169.889Z" fill="black"/>
<path opacity="0.2" d="M830.535 169.889H826.875V173.069H830.535V169.889Z" fill="black"/>
<path opacity="0.2" d="M769.473 169.889H765.812V173.069H769.473V169.889Z" fill="black"/>
<path opacity="0.2" d="M708.41 169.889H704.75V173.069H708.41V169.889Z" fill="black"/>
<path opacity="0.2" d="M647.348 169.889H643.688V173.069H647.348V169.889Z" fill="black"/>
<path opacity="0.2" d="M586.285 169.889H582.625V173.069H586.285V169.889Z" fill="black"/>
<path opacity="0.2" d="M525.223 169.889H521.562V173.069H525.223V169.889Z" fill="black"/>
<path opacity="0.2" d="M464.16 169.889H460.5V173.069H464.16V169.889Z" fill="black"/>
<path opacity="0.2" d="M403.098 169.889H399.438V173.069H403.098V169.889Z" fill="black"/>
<path opacity="0.2" d="M342.035 169.889H338.375V173.069H342.035V169.889Z" fill="black"/>
<path opacity="0.2" d="M280.973 169.889H277.312V173.069H280.973V169.889Z" fill="black"/>
<path opacity="0.2" d="M219.91 169.889H216.25V173.069H219.91V169.889Z" fill="black"/>
<path opacity="0.2" d="M158.848 169.889H155.188V173.069H158.848V169.889Z" fill="black"/>
<path opacity="0.2" d="M97.785 169.889H94.125V173.069H97.785V169.889Z" fill="black"/>
<path opacity="0.2" d="M36.7225 169.889H33.0625V173.069H36.7225V169.889Z" fill="black"/>
<path opacity="0.2" d="M891.598 116.667H887.938V119.847H891.598V116.667Z" fill="black"/>
<path opacity="0.2" d="M830.535 116.667H826.875V119.847H830.535V116.667Z" fill="black"/>
<path opacity="0.2" d="M769.473 116.667H765.812V119.847H769.473V116.667Z" fill="black"/>
<path opacity="0.2" d="M708.41 116.667H704.75V119.847H708.41V116.667Z" fill="black"/>
<path opacity="0.2" d="M647.348 116.667H643.688V119.847H647.348V116.667Z" fill="black"/>
<path opacity="0.2" d="M586.285 116.667H582.625V119.847H586.285V116.667Z" fill="black"/>
<path opacity="0.2" d="M525.223 116.667H521.562V119.847H525.223V116.667Z" fill="black"/>
<path opacity="0.2" d="M464.16 116.667H460.5V119.847H464.16V116.667Z" fill="black"/>
<path opacity="0.2" d="M403.098 116.667H399.438V119.847H403.098V116.667Z" fill="black"/>
<path opacity="0.2" d="M342.035 116.667H338.375V119.847H342.035V116.667Z" fill="black"/>
<path opacity="0.2" d="M280.973 116.667H277.312V119.847H280.973V116.667Z" fill="black"/>
<path opacity="0.2" d="M219.91 116.667H216.25V119.847H219.91V116.667Z" fill="black"/>
<path opacity="0.2" d="M158.848 116.667H155.188V119.847H158.848V116.667Z" fill="black"/>
<path opacity="0.2" d="M97.785 116.667H94.125V119.847H97.785V116.667Z" fill="black"/>
<path opacity="0.2" d="M36.7225 116.667H33.0625V119.847H36.7225V116.667Z" fill="black"/>
<path opacity="0.2" d="M891.598 63.4443H887.938V66.6243H891.598V63.4443Z" fill="black"/>
<path opacity="0.2" d="M830.535 63.4443H826.875V66.6243H830.535V63.4443Z" fill="black"/>
<path opacity="0.2" d="M769.473 63.4443H765.812V66.6243H769.473V63.4443Z" fill="black"/>
<path opacity="0.2" d="M708.41 63.4443H704.75V66.6243H708.41V63.4443Z" fill="black"/>
<path opacity="0.2" d="M647.348 63.4443H643.688V66.6243H647.348V63.4443Z" fill="black"/>
<path opacity="0.2" d="M586.285 63.4443H582.625V66.6243H586.285V63.4443Z" fill="black"/>
<path opacity="0.2" d="M525.223 63.4443H521.562V66.6243H525.223V63.4443Z" fill="black"/>
<path opacity="0.2" d="M464.16 63.4443H460.5V66.6243H464.16V63.4443Z" fill="black"/>
<path opacity="0.2" d="M403.098 63.4443H399.438V66.6243H403.098V63.4443Z" fill="black"/>
<path opacity="0.2" d="M342.035 63.4443H338.375V66.6243H342.035V63.4443Z" fill="black"/>
<path opacity="0.2" d="M280.973 63.4443H277.312V66.6243H280.973V63.4443Z" fill="black"/>
<path opacity="0.2" d="M219.91 63.4443H216.25V66.6243H219.91V63.4443Z" fill="black"/>
<path opacity="0.2" d="M158.848 63.4443H155.188V66.6243H158.848V63.4443Z" fill="black"/>
<path opacity="0.2" d="M97.785 63.4443H94.125V66.6243H97.785V63.4443Z" fill="black"/>
<path opacity="0.2" d="M36.7225 63.4443H33.0625V66.6243H36.7225V63.4443Z" fill="black"/>
<path opacity="0.2" d="M891.598 10.2227H887.938V13.4027H891.598V10.2227Z" fill="black"/>
<path opacity="0.2" d="M830.535 10.2227H826.875V13.4027H830.535V10.2227Z" fill="black"/>
<path opacity="0.2" d="M769.473 10.2227H765.812V13.4027H769.473V10.2227Z" fill="black"/>
<path opacity="0.2" d="M708.41 10.2227H704.75V13.4027H708.41V10.2227Z" fill="black"/>
<path opacity="0.2" d="M647.348 10.2227H643.688V13.4027H647.348V10.2227Z" fill="black"/>
<path opacity="0.2" d="M586.285 10.2227H582.625V13.4027H586.285V10.2227Z" fill="black"/>
<path opacity="0.2" d="M525.223 10.2227H521.562V13.4027H525.223V10.2227Z" fill="black"/>
<path opacity="0.2" d="M464.16 10.2227H460.5V13.4027H464.16V10.2227Z" fill="black"/>
<path opacity="0.2" d="M403.098 10.2227H399.438V13.4027H403.098V10.2227Z" fill="black"/>
<path opacity="0.2" d="M342.035 10.2227H338.375V13.4027H342.035V10.2227Z" fill="black"/>
<path opacity="0.2" d="M280.973 10.2227H277.312V13.4027H280.973V10.2227Z" fill="black"/>
<path opacity="0.2" d="M219.91 10.2227H216.25V13.4027H219.91V10.2227Z" fill="black"/>
<path opacity="0.2" d="M158.848 10.2227H155.188V13.4027H158.848V10.2227Z" fill="black"/>
<path opacity="0.2" d="M97.785 10.2227H94.125V13.4027H97.785V10.2227Z" fill="black"/>
<path opacity="0.2" d="M36.7225 10.2227H33.0625V13.4027H36.7225V10.2227Z" fill="black"/>
</g>
</g>
</svg>
