<svg width="61" height="62" viewBox="0 0 61 62" fill="none" xmlns="http://www.w3.org/2000/svg">
<path d="M46.6994 0.11145C54.31 0.11145 60.5 6.79645 60.5 14.9963C60.5 23.1967 54.3072 29.8822 46.6971 29.8822C46.4455 29.8822 46.1882 29.8746 45.9452 29.8602V53.4355C45.9452 57.974 42.5339 61.6553 38.3218 61.6625H38.3009C38.1471 61.6625 38.047 61.6415 37.804 61.6318V61.6625H7.79068V61.6395C3.721 61.441 0.512341 57.8349 0.5 53.4452V48.7824C0.5 48.203 0.960889 47.7841 1.49772 47.7841H8.37498L8.60471 11.0404C8.60851 10.465 9.04234 9.94589 9.5768 9.94589H33.7039C35.6158 4.31598 40.7193 0.11145 46.6994 0.11145ZM30.6348 49.8789H2.44418V53.4345C2.45842 56.8232 5.00968 59.563 8.15426 59.5676H33.2212C33.1144 59.4367 32.9877 59.3518 32.8856 59.2418C31.4465 57.7009 30.6362 55.6055 30.6348 53.4196V49.8789ZM33.1642 12.0407H10.5422L10.3192 47.7841H31.651C31.8993 47.7749 32.1399 47.8767 32.316 48.0659C32.4921 48.2551 32.5871 48.5144 32.579 48.7824V53.4206C32.5946 56.8161 35.1507 59.5615 38.3024 59.5676H38.3209C41.4597 59.561 44.0015 56.8171 44.001 53.4345V29.5984C40.3372 28.8057 37.1314 26.4367 35.126 23.0387H24.8896C24.3523 23.0387 23.9175 22.5697 23.9175 21.9913C23.9175 21.4128 24.3523 20.9438 24.8896 20.9438H34.0713C33.2957 19.0561 32.896 17.0145 32.8979 14.9498C32.9027 13.9735 32.9919 12.9997 33.1642 12.0407ZM18.6498 37.0188C20.3657 37.0188 21.7616 38.4749 21.7616 40.2649C21.7616 42.055 20.3657 43.511 18.6498 43.511C16.9339 43.511 15.5384 42.055 15.5384 40.2649C15.5384 38.4749 16.9339 37.0188 18.6498 37.0188ZM18.6498 39.1137C18.0062 39.1137 17.4826 39.6302 17.4826 40.2649C17.4826 40.9001 18.0057 41.4162 18.6498 41.4162C19.2934 41.4162 19.8174 40.8996 19.8174 40.2649C19.8174 39.6302 19.2934 39.1137 18.6498 39.1137ZM37.8495 39.2738C38.3864 39.2738 38.8216 39.7428 38.8216 40.3212C38.8216 40.8996 38.3864 41.3686 37.8495 41.3686H24.8896C24.3523 41.3686 23.9175 40.8996 23.9175 40.3212C23.9175 39.7428 24.3523 39.2738 24.8896 39.2738H37.8495ZM18.6498 27.9147C20.3657 27.9147 21.7616 29.3708 21.7616 31.1608C21.7616 32.9509 20.3657 34.4069 18.6498 34.4069C16.9339 34.4069 15.5384 32.9509 15.5384 31.1608C15.5384 29.3708 16.9339 27.9147 18.6498 27.9147ZM18.6498 30.0096C18.0062 30.0096 17.4826 30.5256 17.4826 31.1608C17.4826 31.7955 18.0057 32.3121 18.6498 32.3121C19.2934 32.3121 19.8174 31.7955 19.8174 31.1608C19.8174 30.5261 19.2934 30.0096 18.6498 30.0096ZM37.8495 30.1088C38.3864 30.1088 38.8216 30.5778 38.8216 31.1562C38.8216 31.7347 38.3864 32.2037 37.8495 32.2037H24.8896C24.3523 32.2037 23.9175 31.7347 23.9175 31.1562C23.9175 30.5778 24.3523 30.1088 24.8896 30.1088H37.8495ZM46.6999 2.23545C40.1511 2.23545 34.8426 7.95537 34.8426 15.0117C34.8421 22.068 40.1511 27.7879 46.6994 27.7879C53.2454 27.7802 58.5496 22.0644 58.5568 15.0117C58.5568 7.95588 53.2482 2.23545 46.6999 2.23545ZM18.6498 18.8096C20.3657 18.8096 21.7616 20.2662 21.7616 22.0562C21.7616 23.8463 20.3657 25.3023 18.6498 25.3023C16.9339 25.3023 15.5384 23.8463 15.5384 22.0562C15.5384 20.2662 16.9339 18.8096 18.6498 18.8096ZM46.5528 5.23248C47.0896 5.23248 47.5249 5.70146 47.5249 6.2799V7.28641C49.4121 7.73443 50.7573 9.53571 50.7596 11.6178C50.7596 12.1962 50.3244 12.6652 49.7875 12.6652C49.2507 12.6652 48.8155 12.1962 48.8155 11.6178C48.814 10.3448 47.8685 9.30659 46.6871 9.28051C46.643 9.28715 46.5979 9.29125 46.5528 9.29125C46.5262 9.29125 46.5001 9.2892 46.474 9.28715C45.3111 9.38535 44.4278 10.4558 44.4733 11.7114C44.5194 12.9669 45.4777 13.9591 46.6439 13.9586C48.7457 13.9581 50.51 15.6643 50.7359 17.9156C50.9623 20.167 49.5777 22.2403 47.5249 22.7247V23.8243C47.5249 24.4027 47.0896 24.8717 46.5528 24.8717C46.0159 24.8717 45.5807 24.4027 45.5807 23.8243V22.6766C43.7818 22.1554 42.5306 20.3997 42.5282 18.3928C42.5282 17.8144 42.9635 17.3454 43.5003 17.3454C44.0371 17.3454 44.4724 17.8144 44.4724 18.3928C44.4724 19.6847 45.4445 20.7326 46.6439 20.7326C47.8434 20.7326 48.8155 19.6847 48.8155 18.3928C48.8155 17.1004 47.8434 16.0525 46.6439 16.0525C44.5782 16.0525 42.8324 14.4026 42.5633 12.1957C42.2942 9.98885 43.5852 7.90883 45.5807 7.33397V6.2799C45.5807 5.70146 46.0159 5.23248 46.5528 5.23248ZM18.6498 20.9045C18.0062 20.9045 17.4826 21.4215 17.4826 22.0562C17.4826 22.6909 18.0057 23.2075 18.6498 23.2075C19.2934 23.208 19.8174 22.6909 19.8174 22.0562C19.8174 21.421 19.2934 20.9045 18.6498 20.9045Z" fill="#127CD3"/>
</svg>
