<svg width="16" height="16" viewBox="0 0 16 16" fill="none" xmlns="http://www.w3.org/2000/svg">
<path d="M0 0.685714C0.00236797 0.504588 0.0753729 0.331546 0.20346 0.20346C0.331546 0.0753729 0.504588 0.00236797 0.685714 0H15.3143C15.4954 0.00236797 15.6685 0.0753729 15.7965 0.20346C15.9246 0.331546 15.9976 0.504588 16 0.685714C15.9976 0.866841 15.9246 1.03988 15.7965 1.16797C15.6685 1.29606 15.4954 1.36906 15.3143 1.37143H0.685714C0.504588 1.36906 0.331546 1.29606 0.20346 1.16797C0.0753729 1.03988 0.00236797 0.866841 0 0.685714ZM15.3143 7.31429H0.685714C0.503852 7.31429 0.329437 7.38653 0.200841 7.51513C0.0722447 7.64372 0 7.81814 0 8C0 8.18186 0.0722447 8.35628 0.200841 8.48487C0.329437 8.61347 0.503852 8.68571 0.685714 8.68571H15.3143C15.4961 8.68571 15.6706 8.61347 15.7992 8.48487C15.9278 8.35628 16 8.18186 16 8C16 7.81814 15.9278 7.64372 15.7992 7.51513C15.6706 7.38653 15.4961 7.31429 15.3143 7.31429ZM15.3143 14.6286H0.685714C0.503852 14.6286 0.329437 14.7008 0.200841 14.8294C0.0722447 14.958 0 15.1324 0 15.3143C0 15.4961 0.0722447 15.6706 0.200841 15.7992C0.329437 15.9278 0.503852 16 0.685714 16H15.3143C15.4961 16 15.6706 15.9278 15.7992 15.7992C15.9278 15.6706 16 15.4961 16 15.3143C16 15.1324 15.9278 14.958 15.7992 14.8294C15.6706 14.7008 15.4961 14.6286 15.3143 14.6286Z" fill="white"/>
</svg>
