<svg width="14" height="14" viewBox="0 0 14 14" fill="none" xmlns="http://www.w3.org/2000/svg">
<path d="M0.5 3.125C0.34375 3.125 0.21875 3.09375 0.125 3C0.03125 2.90625 0 2.78125 0 2.625V1.375C0 1.25 0.03125 1.125 0.125 1.03125C0.21875 0.9375 0.34375 0.875 0.5 0.875H13.5C13.625 0.875 13.75 0.9375 13.8438 1.03125C13.9375 1.125 14 1.25 14 1.375V2.625C14 2.78125 13.9375 2.90625 13.8438 3C13.75 3.09375 13.625 3.125 13.5 3.125H0.5ZM0.5 8.125C0.34375 8.125 0.21875 8.09375 0.125 8C0.03125 7.90625 0 7.78125 0 7.625V6.375C0 6.25 0.03125 6.125 0.125 6.03125C0.21875 5.9375 0.34375 5.875 0.5 5.875H13.5C13.625 5.875 13.75 5.9375 13.8438 6.03125C13.9375 6.125 14 6.25 14 6.375V7.625C14 7.78125 13.9375 7.90625 13.8438 8C13.75 8.09375 13.625 8.125 13.5 8.125H0.5ZM0.5 13.125C0.34375 13.125 0.21875 13.0938 0.125 13C0.03125 12.9062 0 12.7812 0 12.625V11.375C0 11.25 0.03125 11.125 0.125 11.0312C0.21875 10.9375 0.34375 10.875 0.5 10.875H13.5C13.625 10.875 13.75 10.9375 13.8438 11.0312C13.9375 11.125 14 11.25 14 11.375V12.625C14 12.7812 13.9375 12.9062 13.8438 13C13.75 13.0938 13.625 13.125 13.5 13.125H0.5Z" fill="white"/>
</svg>
