<svg width="13" height="14" viewBox="0 0 13 14" fill="none" xmlns="http://www.w3.org/2000/svg">
<path d="M11.9219 5.25C12.013 5.25 12.0905 5.2819 12.1543 5.3457C12.2181 5.4095 12.25 5.48698 12.25 5.57812V12.6875C12.25 13.0521 12.1224 13.362 11.8672 13.6172C11.612 13.8724 11.3021 14 10.9375 14H1.3125C0.947917 14 0.638021 13.8724 0.382812 13.6172C0.127604 13.362 0 13.0521 0 12.6875V5.57812C0 5.48698 0.0319012 5.4095 0.0957031 5.3457C0.159505 5.2819 0.236979 5.25 0.328125 5.25H11.9219ZM12.25 4.04687C12.25 4.13802 12.2181 4.21549 12.1543 4.2793C12.0905 4.3431 12.013 4.375 11.9219 4.375H0.328125C0.236979 4.375 0.159505 4.3431 0.0957031 4.2793C0.0319012 4.21549 0 4.13802 0 4.04687V3.0625C0 2.69792 0.127604 2.38802 0.382812 2.13281C0.638021 1.8776 0.947917 1.75 1.3125 1.75H2.625V0.328125C2.625 0.236979 2.6569 0.159505 2.7207 0.095703C2.78451 0.031901 2.86198 0 2.95312 0H4.04688C4.13802 0 4.21549 0.031901 4.2793 0.095703C4.3431 0.159505 4.375 0.236979 4.375 0.328125V1.75H7.875V0.328125C7.875 0.236979 7.9069 0.159505 7.9707 0.095703C8.0345 0.031901 8.11198 0 8.20312 0H9.29688C9.38802 0 9.4655 0.031901 9.5293 0.095703C9.5931 0.159505 9.625 0.236979 9.625 0.328125V1.75H10.9375C11.3021 1.75 11.612 1.8776 11.8672 2.13281C12.1224 2.38802 12.25 2.69792 12.25 3.0625V4.04687Z" fill="black"/>
</svg>
