<svg width="24" height="24" viewBox="0 0 24 24" fill="none" xmlns="http://www.w3.org/2000/svg">
<path d="M17.9219 10.25C18.013 10.25 18.0905 10.2819 18.1543 10.3457C18.2181 10.4095 18.25 10.487 18.25 10.5781V17.6875C18.25 18.0521 18.1224 18.362 17.8672 18.6172C17.612 18.8724 17.3021 19 16.9375 19H7.3125C6.94792 19 6.63802 18.8724 6.38281 18.6172C6.1276 18.362 6 18.0521 6 17.6875V10.5781C6 10.487 6.0319 10.4095 6.0957 10.3457C6.15951 10.2819 6.23698 10.25 6.32812 10.25H17.9219ZM18.25 9.04687C18.25 9.13802 18.2181 9.21549 18.1543 9.2793C18.0905 9.3431 18.013 9.375 17.9219 9.375H6.32812C6.23698 9.375 6.15951 9.3431 6.0957 9.2793C6.0319 9.21549 6 9.13802 6 9.04687V8.0625C6 7.69792 6.1276 7.38802 6.38281 7.13281C6.63802 6.8776 6.94792 6.75 7.3125 6.75H8.625V5.32813C8.625 5.23698 8.6569 5.1595 8.7207 5.0957C8.78451 5.0319 8.86198 5 8.95312 5H10.0469C10.138 5 10.2155 5.0319 10.2793 5.0957C10.3431 5.1595 10.375 5.23698 10.375 5.32813V6.75H13.875V5.32813C13.875 5.23698 13.9069 5.1595 13.9707 5.0957C14.0345 5.0319 14.112 5 14.2031 5H15.2969C15.388 5 15.4655 5.0319 15.5293 5.0957C15.5931 5.1595 15.625 5.23698 15.625 5.32813V6.75H16.9375C17.3021 6.75 17.612 6.8776 17.8672 7.13281C18.1224 7.38802 18.25 7.69792 18.25 8.0625V9.04687Z" fill="black"/>
</svg>
