<svg width="16" height="16" viewBox="0 0 16 16" fill="none" xmlns="http://www.w3.org/2000/svg">
<path d="M9.84971 8L15.8613 14.0116C15.9538 14.1349 16 14.2736 16 14.4277C16 14.5819 15.9538 14.7052 15.8613 14.7977L14.7977 15.8613C14.7052 15.9538 14.5819 16 14.4277 16C14.2736 16 14.1349 15.9538 14.0116 15.8613L8 9.84971L1.98844 15.8613C1.86513 15.9538 1.7264 16 1.57225 16C1.41811 16 1.2948 15.9538 1.20231 15.8613L0.138728 14.7977C0.0462427 14.7052 0 14.5819 0 14.4277C0 14.2736 0.0462427 14.1349 0.138728 14.0116L6.15029 8L0.138728 1.98844C0.0462427 1.86512 0 1.7264 0 1.57225C0 1.41811 0.0462427 1.2948 0.138728 1.20231L1.20231 0.138728C1.2948 0.0462426 1.41811 0 1.57225 0C1.7264 0 1.86513 0.0462426 1.98844 0.138728L8 6.15029L14.0116 0.138728C14.1349 0.0462426 14.2736 0 14.4277 0C14.5819 0 14.7052 0.0462426 14.7977 0.138728L15.8613 1.20231C15.9538 1.2948 16 1.41811 16 1.57225C16 1.7264 15.9538 1.86512 15.8613 1.98844L9.84971 8Z" fill="white"/>
</svg>
