<svg width="24" height="24" viewBox="0 0 24 24" fill="none" xmlns="http://www.w3.org/2000/svg">
<path d="M19 5.78125C19 5.5625 18.9062 5.375 18.75 5.21875C18.5938 5.09375 18.4062 5 18.2188 5H5.78125C5.53125 5 5.34375 5.09375 5.21875 5.21875C5.0625 5.375 5 5.5625 5 5.78125V18.2188C5 18.4375 5.0625 18.625 5.21875 18.7812C5.34375 18.9375 5.53125 19 5.78125 19H12.4688V13.5625H10.6562V11.4688H12.4688V9.90625C12.4688 9.03125 12.7188 8.34375 13.2188 7.84375C13.7188 7.375 14.375 7.125 15.1875 7.125C15.8125 7.125 16.375 7.15625 16.8125 7.1875V9.09375H15.6875C15.2812 9.09375 15 9.1875 14.8438 9.375C14.7188 9.53125 14.6562 9.78125 14.6562 10.125V11.4688H16.75L16.4688 13.5625H14.6562V19H18.2188C18.4375 19 18.625 18.9375 18.7812 18.7812C18.9062 18.625 19 18.4375 19 18.2188V5.78125Z" fill="white"/>
</svg>
