<svg width="56" height="56" viewBox="0 0 56 56" fill="none" xmlns="http://www.w3.org/2000/svg">
<path d="M47.3556 28.3115V1.13246C47.3556 0.832113 47.2376 0.544067 47.0276 0.33169C46.8175 0.119312 46.5326 0 46.2355 0H1.12013C0.823056 0 0.538145 0.119312 0.32808 0.33169C0.118014 0.544067 8.66852e-10 0.832113 8.66852e-10 1.13246V48.6553C-1.16685e-05 48.9566 0.117682 49.2457 0.327465 49.4597C0.537248 49.6737 0.82214 49.7952 1.12013 49.7979H30.0036C31.2638 51.6337 32.9286 53.1485 34.8667 54.2229C36.8047 55.2973 38.9632 55.9019 41.1718 55.989C43.3804 56.0762 45.5789 55.6435 47.5939 54.725C49.6089 53.8066 51.3854 52.4276 52.7832 50.6966C54.1811 48.9657 55.1623 46.9301 55.6493 44.7504C56.1363 42.5707 56.1158 40.3064 55.5896 38.136C55.0634 35.9656 54.0457 33.9485 52.6168 32.2436C51.1879 30.5387 49.3869 29.1926 47.3556 28.3115ZM2.24027 47.5229V2.26492H45.1154V27.543C43.0146 27.0289 40.8258 27.0035 38.714 27.4688C36.6021 27.9341 34.6222 28.8779 32.9236 30.2292C31.2249 31.5805 29.8518 33.304 28.9077 35.2697C27.9636 37.2355 27.4731 39.3922 27.4733 41.5775C27.4649 43.6279 27.8948 45.6559 28.7334 47.5229H2.24027ZM41.745 53.7615C39.3713 53.7615 37.051 53.0499 35.0773 51.7166C33.1037 50.3834 31.5655 48.4884 30.6571 46.2713C29.7487 44.0542 29.5111 41.6145 29.9742 39.2609C30.4372 36.9072 31.5803 34.7452 33.2587 33.0483C34.9371 31.3514 37.0756 30.1958 39.4036 29.7277C41.7317 29.2595 44.1448 29.4998 46.3377 30.4181C48.5307 31.3365 50.4051 32.8917 51.7238 34.887C53.0425 36.8823 53.7464 39.2282 53.7464 41.628C53.7385 44.8408 52.4705 47.9192 50.2207 50.1881C47.9708 52.457 44.9228 53.7312 41.745 53.7312V53.7615Z" fill="white"/>
<path d="M10.2012 12.4065H37.1444C37.4245 12.3798 37.6847 12.2484 37.874 12.038C38.0634 11.8277 38.1683 11.5534 38.1683 11.269C38.1683 10.9846 38.0634 10.7104 37.874 10.5C37.6847 10.2896 37.4245 10.1582 37.1444 10.1315H10.2012C9.92108 10.1582 9.66091 10.2896 9.47155 10.5C9.28218 10.7104 9.17724 10.9846 9.17724 11.269C9.17724 11.5534 9.28218 11.8277 9.47155 12.038C9.66091 12.2484 9.92108 12.3798 10.2012 12.4065Z" fill="white"/>
<path d="M10.2012 21.7594H37.1444C37.2915 21.7594 37.4371 21.7301 37.573 21.6732C37.7089 21.6163 37.8324 21.5329 37.9364 21.4277C38.0405 21.3226 38.123 21.1977 38.1793 21.0604C38.2355 20.923 38.2645 20.7757 38.2645 20.627C38.2645 20.4783 38.2355 20.331 38.1793 20.1936C38.123 20.0562 38.0405 19.9314 37.9364 19.8262C37.8324 19.721 37.7089 19.6376 37.573 19.5807C37.4371 19.5238 37.2915 19.4945 37.1444 19.4945H10.2012C9.9041 19.4945 9.61918 19.6138 9.40912 19.8262C9.19905 20.0386 9.08104 20.3266 9.08104 20.627C9.08104 20.9273 9.19905 21.2154 9.40912 21.4277C9.61918 21.6401 9.9041 21.7594 10.2012 21.7594Z" fill="white"/>
<path d="M24.8829 28.8373H10.2012C9.9041 28.8373 9.61918 28.9566 9.40912 29.169C9.19905 29.3814 9.08104 29.6694 9.08104 29.9698C9.08104 30.2701 9.19905 30.5582 9.40912 30.7705C9.61918 30.9829 9.9041 31.1022 10.2012 31.1022H24.8829C25.18 31.1022 25.4649 30.9829 25.675 30.7705C25.885 30.5582 26.0031 30.2701 26.0031 29.9698C26.0031 29.6694 25.885 29.3814 25.675 29.169C25.4649 28.9566 25.18 28.8373 24.8829 28.8373Z" fill="white"/>
<path d="M41.665 33.7514C40.6145 33.7598 39.5945 34.1092 38.7553 34.7482C37.9162 35.3872 37.3024 36.282 37.0044 37.3004C36.9522 37.4313 36.9277 37.5718 36.9325 37.7128C36.9372 37.8539 36.9711 37.9924 37.032 38.1194C37.0928 38.2464 37.1793 38.3591 37.2859 38.4503C37.3924 38.5414 37.5167 38.6091 37.6506 38.6488C37.7846 38.6885 37.9253 38.6994 38.0636 38.6808C38.202 38.6622 38.335 38.6146 38.4541 38.5409C38.5731 38.4672 38.6756 38.3692 38.755 38.2531C38.8343 38.1369 38.8887 38.0053 38.9147 37.8667C39.0667 37.3471 39.3587 36.8805 39.7579 36.5191C40.1571 36.1576 40.6479 35.9154 41.1753 35.8197C41.7028 35.7239 42.2463 35.7783 42.7449 35.9767C43.2436 36.1752 43.6779 36.5099 43.9992 36.9435C44.3206 37.3771 44.5164 37.8925 44.5648 38.4321C44.6131 38.9717 44.5121 39.5143 44.2731 39.9992C44.0341 40.4841 43.6664 40.8923 43.2111 41.1782C42.7558 41.464 42.2309 41.6163 41.695 41.6179C41.4297 41.6179 41.1754 41.7245 40.9878 41.9141C40.8002 42.1037 40.6949 42.3609 40.6949 42.6291V45.0659C40.6949 45.334 40.8002 45.5912 40.9878 45.7808C41.1754 45.9705 41.4297 46.077 41.695 46.077C41.9602 46.077 42.2146 45.9705 42.4022 45.7808C42.5897 45.5912 42.6951 45.334 42.6951 45.0659V43.5391C43.8832 43.2924 44.9382 42.6082 45.6553 41.6193C46.3725 40.6304 46.7006 39.4074 46.576 38.1877C46.4513 36.968 45.8828 35.8386 44.9809 35.0188C44.0789 34.199 42.9078 33.7473 41.695 33.7514H41.665Z" fill="white"/>
<path d="M41.685 47.0982C41.4595 47.0982 41.2391 47.1658 41.0516 47.2924C40.8641 47.4191 40.718 47.5991 40.6317 47.8097C40.5454 48.0203 40.5228 48.2521 40.5668 48.4757C40.6108 48.6993 40.7194 48.9047 40.8788 49.0659C41.0383 49.2271 41.2414 49.3369 41.4626 49.3814C41.6837 49.4258 41.913 49.403 42.1213 49.3158C42.3297 49.2285 42.5077 49.0808 42.633 48.8912C42.7583 48.7017 42.8251 48.4788 42.8251 48.2508C42.8251 47.9451 42.705 47.6519 42.4912 47.4358C42.2774 47.2196 41.9874 47.0982 41.685 47.0982Z" fill="white"/>
</svg>
