<svg width="18" height="18" viewBox="0 0 18 18" fill="none" xmlns="http://www.w3.org/2000/svg">
<path d="M8.23923 13.6378C8.38566 13.791 8.46741 13.9951 8.46741 14.2074C8.46741 14.4196 8.38566 14.6237 8.23923 14.7769L6.22165 16.8757C5.89134 17.2305 5.49189 17.5134 5.04811 17.7068C4.60434 17.9002 4.12569 18 3.64189 18C3.15808 18 2.67943 17.9002 2.23566 17.7068C1.79188 17.5134 1.39244 17.2305 1.06212 16.8757C0.37958 16.1415 0 15.1747 0 14.1704C0 13.1662 0.37958 12.1994 1.06212 11.4652L5.11829 7.2464C5.44756 6.89355 5.84548 6.61229 6.28741 6.42001C6.72934 6.22772 7.20588 6.12851 7.68755 6.12851C8.16922 6.12851 8.64576 6.22772 9.08769 6.42001C9.52962 6.61229 9.92754 6.89355 10.2568 7.2464C10.4032 7.39958 10.485 7.60365 10.485 7.81593C10.485 8.02821 10.4032 8.23228 10.2568 8.38546C10.1877 8.46202 10.1034 8.52316 10.0092 8.56495C9.91511 8.60673 9.8133 8.62823 9.71038 8.62804C9.60756 8.62758 9.50595 8.60579 9.41192 8.56405C9.31788 8.52231 9.23346 8.4615 9.16395 8.38546C8.97515 8.182 8.74663 8.01975 8.49262 7.9088C8.23861 7.79786 7.96457 7.7406 7.68755 7.7406C7.41053 7.7406 7.13648 7.79786 6.88248 7.9088C6.62847 8.01975 6.39995 8.182 6.21114 8.38546L2.16548 12.657C1.76193 13.0841 1.53698 13.6503 1.53698 14.239C1.53698 14.8277 1.76193 15.3939 2.16548 15.821C2.35521 16.0248 2.58463 16.1872 2.83951 16.2983C3.09439 16.4093 3.36928 16.4666 3.64714 16.4666C3.925 16.4666 4.19989 16.4093 4.45477 16.2983C4.70964 16.1872 4.93907 16.0248 5.1288 15.821L7.15688 13.7117C7.22805 13.6385 7.31302 13.5803 7.40684 13.5405C7.50066 13.5006 7.60144 13.4799 7.70331 13.4796C7.89573 13.4596 8.08827 13.5164 8.23923 13.6378ZM16.919 1.11864C16.5888 0.765511 16.19 0.48406 15.7472 0.291662C15.3044 0.0992632 14.827 0 14.3445 0C13.862 0 13.3846 0.0992632 12.9418 0.291662C12.499 0.48406 12.1002 0.765511 11.77 1.11864L9.34259 3.68154C9.19617 3.83472 9.11441 4.03879 9.11441 4.25107C9.11441 4.46336 9.19617 4.66742 9.34259 4.82061C9.41142 4.89394 9.49448 4.95235 9.58664 4.99225C9.67881 5.03216 9.77814 5.05271 9.87851 5.05264C9.98038 5.05231 10.0812 5.03163 10.175 4.99179C10.2688 4.95195 10.3538 4.89376 10.4249 4.82061L12.8628 2.25771C13.0528 2.05437 13.2823 1.89235 13.5371 1.78168C13.792 1.67101 14.0668 1.61406 14.3445 1.61434C14.6215 1.61827 14.8951 1.67713 15.1493 1.78754C15.4036 1.89795 15.6336 2.05774 15.8262 2.25771C16.2297 2.68486 16.4547 3.25109 16.4547 3.83974C16.4547 4.4284 16.2297 4.99463 15.8262 5.42178L11.3707 10.0835C11.1782 10.2835 10.9481 10.4433 10.6939 10.5537C10.4396 10.6641 10.166 10.723 9.88902 10.7269C9.6131 10.7257 9.34031 10.6681 9.08735 10.5575C8.83439 10.4468 8.60658 10.2856 8.41787 10.0835C8.34836 10.0075 8.26394 9.94667 8.16991 9.90493C8.07588 9.86318 7.97426 9.8414 7.87144 9.84094C7.67805 9.85198 7.4968 9.93915 7.36705 10.0835C7.22062 10.2367 7.13886 10.4408 7.13886 10.653C7.13886 10.8653 7.22062 11.0694 7.36705 11.2226C7.69632 11.5754 8.09423 11.8567 8.53616 12.049C8.97809 12.2413 9.45464 12.3405 9.93631 12.3405C10.418 12.3405 10.8945 12.2413 11.3365 12.049C11.7784 11.8567 12.1763 11.5754 12.5056 11.2226L16.9716 6.52921C17.6424 5.78602 18.0096 4.81639 17.9998 3.81361C17.9901 2.81082 17.6042 1.84855 16.919 1.11864Z" fill="white"/>
</svg>
