<svg width="18" height="16" viewBox="0 0 18 16" fill="none" xmlns="http://www.w3.org/2000/svg">
<path d="M17.25 2C17.4688 2 17.6562 2.09375 17.8125 2.28125C17.9688 2.46875 18.0312 2.6875 17.9688 2.90625L16.5625 9.40625C16.5 9.59375 16.4062 9.71875 16.2812 9.84375C16.1562 9.96875 16 10 15.8438 10H6.0625L6.375 11.5H15.1875C15.4062 11.5 15.5938 11.5938 15.75 11.7812C15.9062 11.9688 15.9688 12.1875 15.9062 12.4062L15.875 12.5625C16.2812 12.9688 16.5 13.4375 16.5 14C16.5 14.5625 16.2812 15.0625 15.9062 15.4375C15.5312 15.8125 15.0625 16 14.5 16C13.9375 16 13.4375 15.8125 13.0625 15.4375C12.6875 15.0625 12.5 14.5625 12.5 14C12.5 13.6562 12.5938 13.3125 12.7812 13H8.21875C8.40625 13.3125 8.5 13.6562 8.5 14C8.5 14.5625 8.28125 15.0625 7.90625 15.4375C7.53125 15.8125 7.0625 16 6.5 16C5.9375 16 5.4375 15.8125 5.0625 15.4375C4.6875 15.0625 4.5 14.5938 4.5 14.0312C4.5 13.4688 4.6875 13 5.0625 12.625L2.875 1.5H0.375C0.25 1.5 0.15625 1.46875 0.09375 1.40625C0.03125 1.34375 0 1.25 0 1.125V0.375C0 0.28125 0.03125 0.1875 0.09375 0.125C0.15625 0.0625 0.25 0 0.375 0H3.5C3.6875 0 3.84375 0.0625 3.96875 0.1875C4.09375 0.3125 4.1875 0.4375 4.25 0.59375L4.5 2H17.25ZM6.5 14.75C6.6875 14.75 6.875 14.6875 7.03125 14.5312C7.15625 14.4062 7.25 14.2188 7.25 14C7.25 13.8125 7.15625 13.625 7.03125 13.4688C6.875 13.3438 6.6875 13.25 6.5 13.25C6.28125 13.25 6.09375 13.3438 5.96875 13.4688C5.8125 13.625 5.75 13.8125 5.75 14C5.75 14.2188 5.8125 14.4062 5.96875 14.5312C6.09375 14.6875 6.28125 14.75 6.5 14.75ZM14.5 14.75C14.6875 14.75 14.875 14.6875 15.0312 14.5312C15.1562 14.4062 15.25 14.2188 15.25 14C15.25 13.8125 15.1562 13.625 15.0312 13.4688C14.875 13.3438 14.6875 13.25 14.5 13.25C14.2812 13.25 14.0938 13.3438 13.9688 13.4688C13.8125 13.625 13.75 13.8125 13.75 14C13.75 14.2188 13.8125 14.4062 13.9688 14.5312C14.0938 14.6875 14.2812 14.75 14.5 14.75ZM15.2188 8.5L16.3125 3.5H4.8125L5.78125 8.5H15.2188Z" fill="white"/>
</svg>
