<svg width="17" height="17" viewBox="0 0 17 17" fill="none" xmlns="http://www.w3.org/2000/svg">
<path d="M12.7279 4.24173C12.8508 4.36788 12.9196 4.53703 12.9196 4.71314C12.9196 4.88925 12.8508 5.0584 12.7279 5.18454L9.42809 8.48438L12.7279 11.7842C12.8529 11.9092 12.9232 12.0788 12.9232 12.2556C12.9232 12.4324 12.8529 12.602 12.7279 12.727C12.6029 12.852 12.4333 12.9223 12.2565 12.9223C12.0797 12.9223 11.9101 12.852 11.7851 12.727L8.48528 9.42718L5.18545 12.727C5.06043 12.852 4.89086 12.9223 4.71405 12.9223C4.53723 12.9223 4.36767 12.852 4.24264 12.727C4.11762 12.602 4.04738 12.4324 4.04738 12.2556C4.04738 12.0788 4.11762 11.9092 4.24264 11.7842L7.54247 8.48438L4.24264 5.18454C4.11762 5.05952 4.04738 4.88995 4.04738 4.71314C4.04738 4.53633 4.11762 4.36676 4.24264 4.24173C4.36767 4.11671 4.53723 4.04647 4.71405 4.04647C4.89086 4.04647 5.06043 4.11671 5.18545 4.24173L8.48528 7.54157L11.7851 4.24173C11.9113 4.11884 12.0804 4.05007 12.2565 4.05007C12.4326 4.05007 12.6018 4.11884 12.7279 4.24173Z" fill="white"/>
</svg>
