<svg width="21" height="20" viewBox="0 0 21 20" fill="none" xmlns="http://www.w3.org/2000/svg">
<path d="M19.5737 14.269C19.0369 15.4572 18.2775 16.5231 17.3396 17.4047C16.4017 18.2864 15.304 18.9661 14.1103 19.4045C11.803 20.2673 9.26542 20.1902 7.01086 19.1888C6.91958 19.1485 6.83688 19.0899 6.76751 19.0165C6.69813 18.943 6.64345 18.856 6.6066 18.7606C6.56975 18.6652 6.55145 18.5631 6.55277 18.4603C6.55408 18.3576 6.57497 18.2561 6.61425 18.1617C6.653 18.0671 6.70962 17.9816 6.78077 17.91C6.85192 17.8385 6.93617 17.7824 7.02856 17.7451C7.12095 17.7077 7.21961 17.6899 7.31874 17.6927C7.41787 17.6954 7.51547 17.7187 7.60579 17.7611C9.07279 18.4144 10.6923 18.6087 12.2646 18.3199C13.8369 18.0312 15.2932 17.272 16.454 16.1362C17.6148 15.0003 18.4293 13.5373 18.797 11.9277C19.1647 10.318 19.0695 8.63211 18.5233 7.07781C17.9771 5.5235 17.0036 4.16879 15.723 3.18073C14.4424 2.19267 12.9106 1.61447 11.3165 1.51743C9.72242 1.42039 8.13579 1.80876 6.75225 2.63465C5.36872 3.46053 4.24878 4.68781 3.53056 6.16514L6.09865 5.23048C6.19411 5.19161 6.29622 5.17334 6.39874 5.17679C6.50126 5.18023 6.60201 5.20532 6.69484 5.25052C6.78767 5.29571 6.87061 5.36006 6.93859 5.43962C7.00657 5.51918 7.05816 5.61228 7.09019 5.71321C7.12941 5.81129 7.14865 5.9167 7.14668 6.02284C7.14472 6.12898 7.1216 6.23355 7.07877 6.32999C7.03594 6.42644 6.97433 6.51267 6.89781 6.58328C6.82128 6.65389 6.73149 6.70735 6.63408 6.74032L2.2019 8.30151H2.11266H1.9441C1.86542 8.31635 1.7848 8.31635 1.70613 8.30151L1.63672 8.21935H1.4979L1.4285 8.11663C1.39563 8.07808 1.36579 8.03686 1.33926 7.99338C1.33598 7.96266 1.33598 7.93166 1.33926 7.90094C1.33737 7.87702 1.33737 7.85297 1.33926 7.82905C1.33926 7.82905 1.33926 7.82905 1.33926 7.76742C1.33926 7.70579 1.33926 7.76742 1.33926 7.69552L0.506363 2.92977C0.480789 2.72717 0.532922 2.52226 0.651568 2.35903C0.770214 2.1958 0.945914 2.08727 1.14095 2.05673C1.33547 2.02729 1.53333 2.07884 1.69127 2.20009C1.84921 2.32135 1.95437 2.50245 1.98376 2.70381L2.36054 5.22021C3.56255 2.93337 5.57795 1.22211 7.97857 0.449974C10.3792 -0.322157 12.9758 -0.0943082 15.2169 1.08511C17.4579 2.26454 19.1667 4.30259 19.9802 6.76628C20.7938 9.22998 20.6479 11.9252 19.5737 14.2792V14.269ZM10.7589 3.59738C10.5617 3.59738 10.3725 3.67854 10.233 3.82301C10.0936 3.96747 10.0152 4.16341 10.0152 4.36771V10.0579L14.8837 13.3549C15.0026 13.4418 15.1446 13.4885 15.2902 13.4884C15.4149 13.4867 15.5373 13.453 15.6463 13.3902C15.7553 13.3275 15.8476 13.2377 15.9149 13.1289C16.0109 12.9609 16.0418 12.7614 16.0013 12.5708C15.9609 12.3801 15.852 12.2125 15.6968 12.1018L11.5025 9.24645V4.36771C11.5039 4.26617 11.4855 4.16538 11.4486 4.07129C11.4117 3.97721 11.357 3.89174 11.2877 3.81993C11.2184 3.74812 11.1359 3.69143 11.045 3.65321C10.9542 3.61498 10.8569 3.596 10.7589 3.59738Z" fill="white"/>
</svg>
