<svg width="24" height="24" viewBox="0 0 24 24" fill="none" xmlns="http://www.w3.org/2000/svg">
<path d="M12 8.40625C10 8.40625 8.40625 10.0312 8.40625 12C8.40625 14 10 15.5938 12 15.5938C13.9688 15.5938 15.5938 14 15.5938 12C15.5938 10.0312 13.9688 8.40625 12 8.40625ZM12 14.3438C10.7188 14.3438 9.65625 13.3125 9.65625 12C9.65625 10.7188 10.6875 9.6875 12 9.6875C13.2812 9.6875 14.3125 10.7188 14.3125 12C14.3125 13.3125 13.2812 14.3438 12 14.3438ZM16.5625 8.28125C16.5625 7.8125 16.1875 7.4375 15.7188 7.4375C15.25 7.4375 14.875 7.8125 14.875 8.28125C14.875 8.75 15.25 9.125 15.7188 9.125C16.1875 9.125 16.5625 8.75 16.5625 8.28125ZM18.9375 9.125C18.875 8 18.625 7 17.8125 6.1875C17 5.375 16 5.125 14.875 5.0625C13.7188 5 10.25 5 9.09375 5.0625C7.96875 5.125 7 5.375 6.15625 6.1875C5.34375 7 5.09375 8 5.03125 9.125C4.96875 10.2812 4.96875 13.75 5.03125 14.9062C5.09375 16.0312 5.34375 17 6.15625 17.8438C7 18.6562 7.96875 18.9062 9.09375 18.9688C10.25 19.0312 13.7188 19.0312 14.875 18.9688C16 18.9062 17 18.6562 17.8125 17.8438C18.625 17 18.875 16.0312 18.9375 14.9062C19 13.75 19 10.2812 18.9375 9.125ZM17.4375 16.125C17.2188 16.75 16.7188 17.2188 16.125 17.4688C15.1875 17.8438 13 17.75 12 17.75C10.9688 17.75 8.78125 17.8438 7.875 17.4688C7.25 17.2188 6.78125 16.75 6.53125 16.125C6.15625 15.2188 6.25 13.0312 6.25 12C6.25 11 6.15625 8.8125 6.53125 7.875C6.78125 7.28125 7.25 6.8125 7.875 6.5625C8.78125 6.1875 10.9688 6.28125 12 6.28125C13 6.28125 15.1875 6.1875 16.125 6.5625C16.7188 6.78125 17.1875 7.28125 17.4375 7.875C17.8125 8.8125 17.7188 11 17.7188 12C17.7188 13.0312 17.8125 15.2188 17.4375 16.125Z" fill="white"/>
</svg>
