<svg width="297" height="53" viewBox="0 0 297 53" fill="none" xmlns="http://www.w3.org/2000/svg">
<path fill-rule="evenodd" clip-rule="evenodd" d="M94.7036 15.2422C94.8657 13.434 94.7999 11.3957 94.8442 9.46941H97.9116V44.815H94.751V39.2308C94.1347 41.1817 93.095 42.7077 91.5903 43.8687C90.1622 44.9699 88.1988 45.8548 85.7874 45.8548C83.3103 45.8548 81.249 44.838 79.749 43.585C78.2765 42.3534 77.0425 40.5866 76.4951 38.5682C75.2351 33.9349 76.8972 28.7679 78.5701 25.084C79.856 25.9229 81.0151 26.8891 82.2491 27.7802C80.4432 24.5963 78.3468 20.7114 78.6175 15.8097C78.8606 11.4003 81.668 8.23785 86.0703 7.95565C88.7034 7.78695 90.4726 8.96176 91.731 10.2746C93.0751 11.6733 94.0399 13.2868 94.7036 15.2422ZM89.9389 12.3558C89.0704 11.3098 87.7859 10.4034 85.8348 10.6059C83.4356 10.8543 81.5304 13.4678 81.8255 16.3312C81.9218 17.2698 82.2781 18.3664 82.5794 19.3587C84.1222 24.423 86.8746 27.6652 88.9954 32.0868C89.8441 33.8567 90.8212 36.0392 90.5521 38.0959C90.2524 40.3841 87.9755 41.5866 85.5519 41.3611C83.6543 41.1832 82.3852 40.3351 81.7307 39.3734C81.0013 38.2998 80.3102 36.3413 80.2215 34.5469C80.119 32.5009 80.5288 30.7878 80.6925 28.6805C80.223 29.0593 80.2551 29.5501 80.1267 30.0041C79.6985 31.5132 79.252 33.1374 79.3728 35.0668C79.5105 37.306 80.2597 38.9179 81.2597 40.2246C82.2475 41.5175 83.717 42.562 85.7874 42.6847C89.2447 42.8902 91.1316 41.1019 91.4481 38.0959C91.7861 34.895 90.3946 32.1237 89.2783 30.0041C88.1147 27.7956 86.7278 25.4061 85.5993 23.3325C84.4051 21.1408 82.9005 18.4093 82.9096 15.6211C82.9127 14.7223 83.1589 13.6733 83.5228 13.0659C84.3271 11.7239 86.344 11.4203 88.0046 12.2147C89.8747 13.1089 90.8304 15.3235 91.26 17.7498C91.4099 18.598 91.6928 19.6409 91.5429 20.2099C91.442 20.5948 90.8411 21.1102 90.5521 21.4875C90.1836 21.9706 89.9557 22.4046 89.656 22.765C89.1973 20.5074 88.8716 18.1624 88.0046 16.2361C87.8226 15.8297 87.292 14.6855 86.6376 14.8634C85.9434 15.0521 86.4786 17.144 86.6376 17.6548C86.8624 18.3863 87.3547 19.4277 87.6743 20.1163C89.8839 24.8723 93.4405 28.6774 94.8442 33.8843V18.555C94.1424 18.7636 93.543 19.078 92.8167 19.2636C92.2601 16.8266 91.3854 14.0981 89.9389 12.3558ZM83.7124 30.7617C83.4938 31.7264 83.3317 32.8077 83.3347 33.8843C83.3408 35.7631 84.1299 37.3597 85.2216 38.0008C85.6773 38.2692 86.6085 38.4931 87.0137 38.0483C87.4159 37.6097 87.1085 36.4073 86.9205 35.8245C86.4434 34.349 85.7966 33.2801 85.1268 32.1344C84.7965 31.57 84.4479 30.9458 83.9005 30.6191C83.8974 30.5915 83.8944 30.5639 83.8531 30.5731C83.7476 30.5854 83.7216 30.7203 83.7124 30.7617Z" fill="white"/>
<path fill-rule="evenodd" clip-rule="evenodd" d="M107.629 9.37524H109.989C109.239 15.4518 108.707 21.5666 107.016 26.8824C106.796 27.5741 106.453 28.4866 106.025 29.2949C105.669 29.9697 105.039 30.8961 104.186 30.8562C102.67 30.7872 101.874 27.9775 101.497 26.7873C99.8476 21.5865 99.2008 15.5576 98.5249 9.47033H100.695C101.152 13.6236 101.681 17.8136 102.629 21.6295C102.771 22.2031 102.894 22.8012 103.147 23.4745C103.316 23.9208 103.681 24.8196 104.091 24.8472C104.556 24.8794 104.962 23.9622 105.129 23.5221C105.784 21.7967 106.118 19.7476 106.45 17.7968C106.927 14.9855 107.251 12.3322 107.582 9.51788C107.579 9.4504 107.574 9.38291 107.629 9.37524Z" fill="white"/>
<path fill-rule="evenodd" clip-rule="evenodd" d="M99.0433 20.5892C99.0831 20.58 99.0877 20.6076 99.0907 20.6367C99.8583 24.0784 100.485 27.4678 102.109 30.2423C102.556 31.0045 103.401 32.2668 104.469 32.1349C105.037 32.0628 105.571 31.6441 105.93 31.2346C106.958 30.0674 107.674 28.1733 108.242 26.362C108.839 24.4603 109.297 22.4358 109.657 20.5892C109.767 28.569 109.674 36.7559 109.704 44.8155H106.638V35.3986C106.027 35.7375 105.302 37.4813 104.233 37.4813C103.247 37.4813 102.618 36.032 101.968 35.5888V44.8155H99.0433V20.5892Z" fill="white"/>
<path fill-rule="evenodd" clip-rule="evenodd" d="M122.395 25.7937V28.2538C121.873 35.8655 118.679 41.7534 114.469 45.7134C110.16 49.767 104.585 53 96.5437 53C88.6643 53 82.6717 49.816 78.5233 45.8085C76.4055 43.7625 74.6501 41.4283 73.1929 38.5219C71.8106 35.7643 70.7096 32.2353 70.5032 28.49V25.51C70.9527 18.2311 74.2816 12.4 78.193 8.47677C82.2803 4.37567 87.8676 1.5414 95.2226 1H97.6752C104.885 1.41256 110.731 4.53824 114.8 8.61787C118.872 12.7036 121.976 18.4995 122.395 25.7937ZM111.969 7.86176C108.058 4.61339 102.446 2.02298 95.0804 2.37266C90.542 2.58738 86.5556 4.1042 83.476 6.01519C80.3918 7.93078 77.7649 10.5994 75.8336 13.492C73.7923 16.5502 72.4008 20.2142 71.9665 24.7524C71.5384 29.2154 72.4803 33.9024 74.1363 37.433C77.2526 44.08 83.2528 49.2731 90.7882 51.0123C95.192 52.0307 100.154 51.6933 103.997 50.4449C107.601 49.2747 110.483 47.4572 112.96 45.241C113.072 45.1413 113.411 45.0647 113.29 44.8147H110.79V9.37552H113.526C113.119 8.79425 112.524 8.32187 111.969 7.86176ZM113.951 44.2947C117.839 40.5571 121.026 34.5803 121.026 27.1189C121.026 19.024 117.694 13.5303 113.668 9.42306C113.665 9.37245 113.607 9.38472 113.621 9.47061V44.5309C113.798 44.6015 113.865 44.376 113.951 44.2947Z" fill="white"/>
<path fill-rule="evenodd" clip-rule="evenodd" d="M236 36.8107V32.5023H223.471V26.7901H234.731V22.8086H223.471V17.8149H235.74V13.5065H218.363V36.8107H236ZM205.899 24.0484H200.303V17.488H205.899C207.071 17.488 207.949 17.7443 208.535 18.2555C209.121 18.7667 209.413 19.5889 209.413 20.7192C209.413 21.8942 209.121 22.7438 208.535 23.2651C207.949 23.7878 207.071 24.0484 205.899 24.0484ZM200.303 36.8107V27.7044H205.411C206.692 27.7044 207.613 27.9867 208.177 28.5526C208.742 29.1185 209.111 30.0112 209.284 31.2294C209.413 32.1654 209.511 33.1445 209.577 34.1669C209.642 35.1893 209.815 36.0705 210.097 36.8107H215.206C214.968 36.4838 214.788 36.0878 214.669 35.6198C214.55 35.1518 214.463 34.6565 214.409 34.1338C214.355 33.6125 214.316 33.1013 214.295 32.6002C214.273 32.0991 214.252 31.6643 214.23 31.2942C214.187 30.7067 214.105 30.1192 213.986 29.5317C213.867 28.9442 213.677 28.4057 213.416 27.9161C213.156 27.4265 212.82 27.0032 212.408 26.6432C211.996 26.2846 211.475 26.0182 210.846 25.844V25.7792C212.147 25.2565 213.086 24.4948 213.66 23.494C214.236 22.4932 214.523 21.3067 214.523 19.9359C214.523 19.0446 214.365 18.2123 214.051 17.439C213.736 16.6672 213.281 15.9876 212.684 15.4001C212.088 14.8126 211.372 14.3503 210.536 14.012C209.702 13.675 208.763 13.5065 207.722 13.5065H195.194V36.8107H200.303ZM180.615 33.0567C179.465 33.0567 178.489 32.8335 177.686 32.3886C176.884 31.9422 176.233 31.3489 175.734 30.6088C175.235 29.8701 174.872 29.0378 174.644 28.1119C174.416 27.1875 174.302 26.2357 174.302 25.2565C174.302 24.2341 174.416 23.2435 174.644 22.2859C174.872 21.3283 175.235 20.4744 175.734 19.7242C176.233 18.974 176.884 18.375 177.686 17.9286C178.489 17.4837 179.465 17.2605 180.615 17.2605C181.765 17.2605 182.741 17.4837 183.543 17.9286C184.346 18.375 184.998 18.974 185.496 19.7242C185.995 20.4744 186.359 21.3283 186.587 22.2859C186.814 23.2435 186.929 24.2341 186.929 25.2565C186.929 26.2357 186.814 27.1875 186.587 28.1119C186.359 29.0378 185.995 29.8701 185.496 30.6088C184.998 31.3489 184.346 31.9422 183.543 32.3886C182.741 32.8335 181.765 33.0567 180.615 33.0567ZM180.615 37.3334C182.416 37.3334 184.021 37.0223 185.431 36.4032C186.841 35.7825 188.034 34.9286 189.01 33.84C189.987 32.7529 190.736 31.4742 191.256 30.0055C191.777 28.5367 192.037 26.9542 192.037 25.2565C192.037 23.5156 191.777 21.9 191.256 20.4096C190.736 18.9193 189.987 17.619 189.01 16.5088C188.034 15.4001 186.841 14.5289 185.431 13.8982C184.021 13.2675 182.416 12.9521 180.615 12.9521C178.836 12.9521 177.237 13.2675 175.815 13.8982C174.394 14.5289 173.195 15.4001 172.219 16.5088C171.243 17.619 170.495 18.9193 169.974 20.4096C169.454 21.9 169.193 23.5156 169.193 25.2565C169.193 26.9542 169.454 28.5367 169.974 30.0055C170.495 31.4742 171.243 32.7529 172.219 33.84C173.195 34.9286 174.394 35.7825 175.815 36.4032C177.237 37.0223 178.836 37.3334 180.615 37.3334ZM160.895 36.8107V17.8149H167.859V13.5065H148.823V17.8149H155.787V36.8107H160.895ZM138.279 37.3334C139.863 37.3334 141.257 37.1476 142.461 36.7775C143.664 36.4075 144.674 35.892 145.488 35.2282C146.3 34.5643 146.913 33.7752 147.325 32.8609C147.737 31.948 147.944 30.9573 147.944 29.8917C147.944 28.5857 147.667 27.5143 147.114 26.6763C146.562 25.8382 145.905 25.1701 145.146 24.669C144.387 24.1679 143.621 23.8036 142.852 23.5761C142.081 23.3471 141.479 23.1887 141.046 23.1023C139.592 22.7323 138.414 22.4284 137.514 22.188C136.614 21.9489 135.909 21.7099 135.4 21.4709C134.89 21.2304 134.548 20.9698 134.375 20.6876C134.201 20.4039 134.115 20.0338 134.115 19.5774C134.115 19.0763 134.222 18.663 134.439 18.3376C134.656 18.0107 134.933 17.7385 135.269 17.5211C135.606 17.3037 135.98 17.151 136.392 17.0646C136.804 16.9768 137.217 16.9336 137.629 16.9336C138.258 16.9336 138.838 16.9883 139.369 17.0963C139.902 17.2058 140.373 17.3901 140.785 17.6521C141.197 17.9128 141.528 18.2713 141.778 18.7292C142.026 19.1857 142.173 19.7617 142.217 20.4586H147.163C147.163 19.1094 146.908 17.9617 146.398 17.0157C145.888 16.0682 145.199 15.2906 144.332 14.6815C143.465 14.0724 142.471 13.6318 141.355 13.3597C140.238 13.0875 139.072 12.9521 137.856 12.9521C136.815 12.9521 135.774 13.0933 134.732 13.3755C133.691 13.6592 132.758 14.094 131.934 14.6815C131.11 15.269 130.442 16.0034 129.933 16.8846C129.423 17.7659 129.167 18.8055 129.167 20.0021C129.167 21.0677 129.368 21.9763 129.77 22.7265C130.171 23.4782 130.698 24.1031 131.348 24.6042C131.999 25.1039 132.736 25.5128 133.56 25.8282C134.386 26.1435 135.232 26.4099 136.099 26.6273C136.946 26.8664 137.78 27.0838 138.605 27.2796C139.429 27.4755 140.167 27.7044 140.818 27.9651C141.468 28.2271 141.995 28.5526 142.395 28.9442C142.797 29.3359 142.998 29.8471 142.998 30.4792C142.998 31.0667 142.846 31.5505 142.542 31.9307C142.239 32.3123 141.858 32.6118 141.403 32.8292C140.948 33.0466 140.46 33.1935 139.939 33.2698C139.418 33.3461 138.93 33.3836 138.475 33.3836C137.803 33.3836 137.151 33.3015 136.522 33.1388C135.893 32.9761 135.345 32.7255 134.878 32.3886C134.412 32.0502 134.039 31.6096 133.756 31.0667C133.474 30.5224 133.334 29.8586 133.334 29.0753H128.386C128.365 30.5109 128.626 31.7521 129.167 32.7961C129.71 33.84 130.442 34.6997 131.364 35.375C132.287 36.0489 133.349 36.5443 134.554 36.8596C135.757 37.175 136.999 37.3334 138.279 37.3334Z" fill="white"/>
<path fill-rule="evenodd" clip-rule="evenodd" d="M63.8046 36.8107V32.5024H51.2758V26.7901H62.5355V22.8087H51.2758V17.8149H63.5447V13.5066H46.1678V36.8107H63.8046ZM27.4888 36.8107V26.7584H36.8937V36.8107H42.0016V13.5066H36.8937V22.4501H27.4888V13.5066H22.3794V36.8107H27.4888ZM13.0737 36.8107V17.8149H20.0365V13.5066H1V17.8149H7.96425V36.8107H13.0737Z" fill="white"/>
<path fill-rule="evenodd" clip-rule="evenodd" d="M253.163 9.67263C252.062 10.5916 250.42 10.4488 249.496 9.35358C248.571 8.25834 248.715 6.62588 249.817 5.70687C250.918 4.78785 252.56 4.93067 253.484 6.02591C254.408 7.12115 254.264 8.75361 253.163 9.67263ZM266.667 2.02512L266.656 2.02354C266.283 1.92336 265.893 1.9022 265.509 1.95444L251.003 1.07841C247.281 0.828139 245.425 2.37681 245.027 6.06471L243.376 20.4221C243.257 20.7895 243.21 21.1752 243.245 21.5598L243.244 21.5687C243.297 22.1216 243.51 22.6654 243.896 23.122L267.144 50.6734C268.155 51.8707 269.966 52.0283 271.17 51.0236L290.988 34.4871C292.193 33.4825 292.351 31.6813 291.341 30.484L268.092 2.93261C267.707 2.47603 267.205 2.17294 266.666 2.0257L266.667 2.02512Z" fill="#C54239"/>
<path fill-rule="evenodd" clip-rule="evenodd" d="M271.606 28.6284H271.605L271.61 28.6333L271.606 28.6284Z" fill="white"/>
<path d="M252.87 29.8212C252.994 29.8212 253.144 29.8006 253.319 29.7595L253.52 29.7286L253.567 29.5433C253.587 29.5227 253.618 29.5047 253.659 29.4893C253.701 29.4738 253.732 29.4558 253.752 29.4352C253.824 29.4044 253.897 29.3683 253.969 29.3272C254.041 29.286 254.103 29.2294 254.154 29.1573L254.216 28.972C254.216 28.9 254.214 28.8562 254.209 28.8408C254.203 28.8254 254.201 28.8125 254.201 28.8022C254.201 28.7919 254.206 28.7765 254.216 28.7559C254.227 28.7353 254.247 28.689 254.278 28.6169C254.309 28.5243 254.34 28.4291 254.371 28.3313C254.402 28.2335 254.438 28.1331 254.479 28.0302C254.459 27.9479 254.443 27.8707 254.433 27.7986L254.414 27.6867L254.387 27.567L254.325 27.4435C254.232 27.3612 254.108 27.3071 253.953 27.2814C253.799 27.2556 253.634 27.217 253.458 27.1656C253.355 27.145 253.234 27.1218 253.095 27.0961C252.955 27.0704 252.865 27.0421 252.824 27.0112L252.623 26.9031L252.484 27.1038C252.37 27.2685 252.288 27.3869 252.236 27.4589C252.185 27.531 252.138 27.5902 252.097 27.6365C252.056 27.6828 252.004 27.7266 251.942 27.7677C251.88 27.8089 251.787 27.8758 251.664 27.9685L251.834 28.2618L251.648 28.4008L251.865 28.6169C251.896 28.6581 251.922 28.7456 251.942 28.8794C251.963 28.9412 251.978 29.0055 251.989 29.0724C251.999 29.1393 252.056 29.2448 252.159 29.3889C252.241 29.4404 252.319 29.497 252.391 29.5588C252.463 29.6205 252.561 29.708 252.685 29.8212H252.87ZM260.407 29.777C260.579 29.7025 260.765 29.6736 260.967 29.6901C261.169 29.7067 261.338 29.7108 261.475 29.7025C261.621 29.5949 261.767 29.4894 261.913 29.3859C262.059 29.2824 262.192 29.1686 262.312 29.0445C262.338 28.9038 262.329 28.7858 262.286 28.6906C262.243 28.5954 262.187 28.5085 262.119 28.4299C262.05 28.3512 261.975 28.2768 261.894 28.2064C261.812 28.136 261.741 28.0595 261.681 27.9767C261.038 27.9684 260.396 27.9436 259.757 27.9022C259.118 27.8608 258.515 27.7573 257.949 27.5918C257.898 27.5008 257.85 27.4076 257.807 27.3124C257.765 27.2173 257.735 27.1076 257.717 26.9834C257.76 26.9172 257.805 26.8531 257.853 26.791C257.9 26.7289 257.919 26.6399 257.91 26.524C258.048 26.3999 258.179 26.2736 258.303 26.1453C258.427 26.017 258.56 25.8929 258.702 25.7729C258.843 25.6528 258.994 25.5452 259.152 25.45C259.311 25.3549 259.493 25.2783 259.699 25.2203C259.931 24.972 260.229 24.7837 260.594 24.6554C260.958 24.5271 261.347 24.4092 261.758 24.3016C261.939 24.2519 262.106 24.1526 262.26 24.0036C262.415 23.8546 262.522 23.6932 262.582 23.5194C262.642 23.3455 262.638 23.1779 262.569 23.0165C262.501 22.8551 262.338 22.7371 262.08 22.6627C262.08 22.613 262.089 22.5778 262.106 22.5571C262.123 22.5364 262.115 22.5054 262.08 22.464C261.977 22.4557 261.902 22.433 261.855 22.3957C261.808 22.3585 261.75 22.344 261.681 22.3523C261.69 22.3357 261.703 22.3067 261.72 22.2653C261.737 22.224 261.724 22.2033 261.681 22.2033C261.664 22.2446 261.645 22.2633 261.623 22.2591C261.602 22.255 261.578 22.2405 261.553 22.2157C261.527 22.1908 261.499 22.166 261.469 22.1412C261.439 22.1163 261.402 22.1081 261.36 22.1163C261.291 22.1412 261.218 22.1639 261.141 22.1846C261.064 22.2053 261.003 22.1826 260.961 22.1163C260.909 22.1991 260.838 22.2653 260.748 22.315C260.658 22.3647 260.564 22.4123 260.465 22.4578C260.366 22.5033 260.27 22.5488 260.176 22.5944C260.081 22.6399 260 22.6999 259.931 22.7744C259.751 22.8158 259.592 22.8737 259.455 22.9482C259.318 23.0227 259.185 23.1034 259.056 23.1903C258.927 23.2772 258.796 23.36 258.663 23.4387C258.53 23.5173 258.374 23.5773 258.194 23.6187C258.142 23.6849 258.084 23.7408 258.02 23.7863C257.955 23.8318 257.891 23.8774 257.827 23.9229C257.762 23.9684 257.702 24.0181 257.647 24.0719C257.591 24.1257 257.507 24.1774 257.396 24.2271C257.147 24.4919 256.904 24.7589 256.668 25.0279C256.433 25.2969 256.25 25.6177 256.122 25.9901C256.113 26.2385 256.122 26.4971 256.147 26.7661C256.173 27.0352 256.224 27.298 256.302 27.5546C256.379 27.8112 256.482 28.0533 256.611 28.2809C256.739 28.5085 256.907 28.701 257.113 28.8582C257.258 28.8913 257.374 28.9472 257.46 29.0259C257.546 29.1045 257.632 29.1893 257.717 29.2804C258.112 29.4128 258.545 29.5246 259.017 29.6156C259.489 29.7067 259.952 29.7605 260.407 29.777ZM266.635 29.7753L266.782 29.7628C267.018 29.7316 267.26 29.6671 267.509 29.5691C267.608 29.578 267.724 29.5714 267.857 29.5491C267.989 29.5268 268.122 29.4912 268.254 29.4423C268.387 29.3933 268.515 29.3399 268.64 29.282C268.764 29.2241 268.872 29.1685 268.963 29.1151C269.079 29.0883 269.193 29.0616 269.305 29.0349C269.417 29.0082 269.518 28.9637 269.609 28.9014C269.75 28.7767 269.903 28.6699 270.069 28.5808C270.235 28.4918 270.376 28.3672 270.492 28.2069C270.583 28.1535 270.662 28.0711 270.728 27.9598C270.794 27.8485 270.848 27.7239 270.889 27.5859C270.931 27.4479 270.96 27.3054 270.976 27.1585C270.993 27.0116 270.993 26.8758 270.976 26.7512C270.96 26.6532 270.935 26.5553 270.902 26.4573C270.869 26.3594 270.834 26.2637 270.796 26.1702C270.759 26.0767 270.728 25.981 270.703 25.8831C270.678 25.7851 270.67 25.6827 270.678 25.5759C270.479 25.2287 270.301 24.8614 270.144 24.4741C269.986 24.0868 269.808 23.7195 269.609 23.3723C269.642 23.3366 269.655 23.2788 269.647 23.1986C269.638 23.1541 269.613 23.1296 269.572 23.1252C269.531 23.1207 269.514 23.0873 269.522 23.025C269.605 22.9805 269.657 22.9115 269.678 22.818C269.698 22.7245 269.729 22.6333 269.771 22.5442C269.738 22.4285 269.705 22.3506 269.671 22.3105L269.647 22.2725C269.624 22.2266 269.603 22.1569 269.584 22.0634C269.551 22.0545 269.528 22.059 269.516 22.0768C269.504 22.0946 269.481 22.0991 269.448 22.0901C269.431 22.01 269.4 21.9477 269.354 21.9032C269.309 21.8587 269.261 21.8164 269.211 21.7763C269.162 21.7362 269.116 21.6917 269.075 21.6427C269.033 21.5938 269.008 21.5248 269 21.4357C268.909 21.3378 268.803 21.2799 268.683 21.2621C268.563 21.2443 268.453 21.2087 268.354 21.1553C268.246 21.2265 268.165 21.2933 268.111 21.3556C268.058 21.4179 267.998 21.5114 267.931 21.6361C267.84 21.6539 267.772 21.6628 267.726 21.6628C267.681 21.6628 267.621 21.6672 267.546 21.6761C267.447 21.8097 267.362 21.9232 267.291 22.0167C267.221 22.1102 267.111 22.1925 266.962 22.2638V22.4107C266.895 22.4285 266.837 22.4574 266.788 22.4975C266.738 22.5376 266.69 22.5798 266.645 22.6244C266.599 22.6689 266.552 22.7089 266.502 22.7446C266.452 22.7802 266.39 22.8069 266.315 22.8247C266.249 22.9493 266.16 23.0451 266.048 23.1118C265.936 23.1786 265.851 23.2788 265.793 23.4123C265.752 23.4212 265.717 23.4435 265.688 23.4791C265.659 23.5147 265.632 23.5526 265.607 23.5926C265.582 23.6327 265.555 23.6639 265.526 23.6861C265.497 23.7084 265.458 23.7106 265.408 23.6928C265.184 23.9777 264.952 24.2693 264.712 24.5676C264.472 24.8658 264.258 25.1908 264.072 25.5425C263.885 25.8942 263.743 26.277 263.643 26.6911C263.544 27.1051 263.527 27.5658 263.593 28.0733C263.685 28.3137 263.803 28.543 263.948 28.7611C264.093 28.9793 264.263 29.1663 264.457 29.3221C264.652 29.4779 264.876 29.5914 265.128 29.6626C265.381 29.7339 265.657 29.7472 265.955 29.7027C266.27 29.7739 266.545 29.794 266.782 29.7628L266.635 29.7753ZM266.637 27.8498C266.409 27.8686 266.187 27.8639 265.972 27.8356C265.758 27.8073 265.571 27.7271 265.412 27.5951C265.422 27.3686 265.464 27.1705 265.538 27.0007C265.613 26.8309 265.702 26.6706 265.804 26.5196C265.907 26.3687 266.012 26.2201 266.119 26.0739C266.227 25.9277 266.318 25.765 266.392 25.5857C266.439 25.5668 266.467 25.5598 266.476 25.5645C266.486 25.5692 266.509 25.5621 266.546 25.5433C266.761 25.2697 267.003 25.0291 267.274 24.8216C267.545 24.6141 267.815 24.4018 268.086 24.1848C268.133 24.2226 268.186 24.2532 268.247 24.2768C268.308 24.3004 268.366 24.3146 268.422 24.3193C268.478 24.324 268.529 24.3098 268.576 24.2768C268.622 24.2438 268.655 24.1896 268.674 24.1141C268.73 24.1707 268.781 24.1801 268.828 24.1424C268.874 24.1047 268.907 24.0669 268.926 24.0292C269.112 24.3216 269.28 24.6353 269.43 24.9702C269.579 25.3051 269.756 25.6187 269.962 25.9112C269.962 26.0055 269.966 26.0739 269.976 26.1163C269.985 26.1588 270.013 26.2178 270.059 26.2932C270.05 26.4253 270.015 26.5243 269.955 26.5904C269.894 26.6564 269.845 26.7413 269.808 26.8451C269.5 27.0055 269.206 27.1635 268.926 27.3191C268.646 27.4748 268.31 27.5998 267.918 27.6941C267.731 27.6941 267.528 27.7153 267.309 27.7578C267.09 27.8002 266.866 27.8309 266.637 27.8498ZM272.794 29.777C272.935 29.777 273.046 29.7299 273.129 29.6358C273.212 29.5416 273.324 29.3376 273.464 29.0238C273.481 28.97 273.489 28.9117 273.489 28.8489C273.498 28.8041 273.504 28.7593 273.508 28.7144C273.512 28.6696 273.522 28.6248 273.539 28.5799C273.564 28.5351 273.595 28.4925 273.632 28.4521C273.669 28.4118 273.704 28.3692 273.738 28.3244C273.795 28.2795 273.833 28.2168 273.849 28.1361C273.816 28.0733 273.808 28.006 273.824 27.9343C273.866 27.7998 273.928 27.6787 274.011 27.5711C274.093 27.4635 274.172 27.3694 274.246 27.2887C274.238 27.1811 274.253 27.0533 274.29 26.9053C274.327 26.7574 274.371 26.6117 274.42 26.4682C274.47 26.3247 274.52 26.197 274.569 26.0849C274.619 25.9728 274.656 25.8988 274.681 25.8629L274.78 25.6881L274.88 25.8898C275.227 26.652 275.749 27.0331 276.444 27.0331C276.717 27.0331 276.996 26.9838 277.282 26.8852C277.567 26.7865 277.849 26.6588 278.126 26.5018C278.403 26.3449 278.67 26.1745 278.927 25.9907C279.183 25.8069 279.419 25.6298 279.634 25.4594C279.651 25.4056 279.674 25.3742 279.702 25.3653C279.731 25.3563 279.762 25.3518 279.796 25.3518L279.907 25.4863C279.907 25.567 279.887 25.6208 279.845 25.6477C279.58 26.6431 279.454 27.4635 279.467 28.1092C279.479 28.7548 279.647 29.2076 279.969 29.4677C280.06 29.4677 280.141 29.4497 280.211 29.4139C280.282 29.378 280.358 29.3376 280.441 29.2928C280.507 29.2569 280.569 29.2233 280.627 29.1919C280.685 29.1605 280.751 29.1314 280.826 29.1045C280.843 29.0597 280.861 29.0148 280.882 28.97C280.903 28.9252 280.921 28.8803 280.938 28.8355C281.103 28.423 281.263 27.9814 281.416 27.5106C281.569 27.0399 281.629 26.5175 281.596 25.9436C281.645 25.8271 281.685 25.7195 281.714 25.6208C281.743 25.5222 281.765 25.4168 281.782 25.3047C281.798 25.1927 281.805 25.0716 281.8 24.9416C281.796 24.8116 281.79 24.63 281.782 24.3968C281.832 24.3072 281.875 24.1861 281.912 24.0337C281.949 23.8812 281.96 23.7422 281.943 23.6167L281.906 23.3611L282.142 23.3881C282.125 23.3522 282.113 23.3208 282.105 23.2939L282.08 23.2132C282.047 23.1325 282.02 23.054 281.999 22.9778C281.978 22.9016 281.976 22.8186 281.993 22.729C281.844 22.6214 281.74 22.4645 281.683 22.2582C281.649 22.1865 281.571 22.1147 281.447 22.043C281.43 22.034 281.418 22.0251 281.409 22.0161C281.401 22.0071 281.38 21.9892 281.347 21.9623C281.281 21.8995 281.248 21.8233 281.248 21.7336C281.231 21.7247 281.213 21.7157 281.192 21.7067C281.171 21.6978 281.149 21.6843 281.124 21.6664C281.033 21.6216 280.938 21.5767 280.838 21.5319C280.739 21.4871 280.644 21.4646 280.553 21.4646C280.462 21.4646 280.375 21.4915 280.292 21.5453C280.151 21.9219 279.965 22.2358 279.734 22.4869C279.502 22.7379 279.262 22.9711 279.014 23.1863C278.881 23.3029 278.755 23.4194 278.635 23.536C278.515 23.6526 278.38 23.7871 278.231 23.9395C278.165 23.9485 278.099 23.9731 278.033 24.0135C277.967 24.0538 277.9 24.1009 277.834 24.1547C277.735 24.2265 277.629 24.296 277.518 24.3632C277.406 24.4305 277.284 24.4641 277.151 24.4641C277.036 24.4641 276.903 24.4013 276.754 24.2758C276.738 24.1951 276.729 24.1211 276.729 24.0538C276.729 23.9866 276.733 23.9216 276.742 23.8588C276.767 23.7153 276.758 23.6033 276.717 23.5226L276.704 23.3881C276.746 23.2715 276.764 23.1594 276.76 23.0518C276.756 22.9442 276.736 22.8388 276.698 22.7357C276.661 22.6326 276.611 22.5295 276.549 22.4263C276.487 22.3232 276.423 22.2179 276.357 22.1103C276.307 22.0116 276.253 21.9264 276.196 21.8547C276.121 21.8368 276.053 21.8166 275.991 21.7942C275.929 21.7718 275.852 21.7471 275.761 21.7202C275.695 21.7202 275.645 21.6754 275.612 21.5857L275.587 21.4377C275.504 21.3301 275.372 21.236 275.19 21.1553C274.925 21.2629 274.724 21.4086 274.588 21.5924C274.451 21.7762 274.309 22.0071 274.16 22.2851C274.11 22.3748 274.058 22.4667 274.004 22.5608C273.951 22.655 273.891 22.7559 273.824 22.8635C273.742 22.998 273.64 23.1953 273.52 23.4553C273.4 23.7153 273.274 24 273.142 24.3094C273.009 24.6188 272.877 24.9371 272.744 25.2644C272.612 25.5917 272.494 25.8898 272.391 26.1588C272.287 26.4279 272.202 26.6475 272.136 26.8179C272.07 26.9883 272.037 27.078 272.037 27.0869C271.962 27.2752 271.923 27.4972 271.919 27.7527C271.915 28.0083 271.935 28.2616 271.981 28.5127C272.026 28.7638 272.093 28.9991 272.18 29.2188C272.266 29.4385 272.364 29.6111 272.471 29.7367C272.62 29.7636 272.728 29.777 272.794 29.777Z" fill="white"/>
</svg>
