<svg width="24" height="24" viewBox="0 0 24 24" fill="none" xmlns="http://www.w3.org/2000/svg">
<path d="M9.75 16.375C9.6875 16.4688 9.59375 16.5 9.5 16.5C9.375 16.5 9.3125 16.4688 9.25 16.375L5.125 12.25C5.03125 12.1875 5 12.125 5 12C5 11.9062 5.03125 11.8125 5.125 11.75L9.25 7.625C9.3125 7.5625 9.375 7.5 9.5 7.5C9.59375 7.5 9.6875 7.5625 9.75 7.625L10.375 8.21875C10.4375 8.3125 10.5 8.40625 10.5 8.5C10.5 8.625 10.4375 8.6875 10.375 8.75L7.84375 11.1875H18.625C18.7188 11.1875 18.8125 11.25 18.875 11.3125C18.9375 11.375 19 11.4688 19 11.5625V12.4375C19 12.5625 18.9375 12.6562 18.875 12.7188C18.8125 12.7812 18.7188 12.8125 18.625 12.8125H7.84375L10.375 15.25C10.4375 15.3125 10.5 15.4062 10.5 15.5C10.5 15.625 10.4375 15.7188 10.375 15.7812L9.75 16.375Z" fill="#161720"/>
</svg>
