<svg width="24" height="24" viewBox="0 0 24 24" fill="none" xmlns="http://www.w3.org/2000/svg">
<path fill-rule="evenodd" clip-rule="evenodd" d="M9.87109 16.1016C10.6185 17.1589 11.2292 18.0339 11.7031 18.7266C11.8307 18.9089 12.013 19 12.25 19C12.487 19 12.6693 18.9089 12.7969 18.7266L14.6289 16.1016C15.5404 14.7891 16.1419 13.9049 16.4336 13.4492C16.8529 12.793 17.1354 12.2415 17.2813 11.7949C17.4271 11.3483 17.5 10.8333 17.5 10.25C17.5 9.30208 17.263 8.42708 16.7891 7.625C16.3151 6.82292 15.6771 6.1849 14.875 5.71094C14.0729 5.23698 13.1979 5 12.25 5C11.3021 5 10.4271 5.23698 9.625 5.71094C8.82292 6.1849 8.1849 6.82292 7.71094 7.625C7.23698 8.42708 7 9.30208 7 10.25C7 10.8333 7.07292 11.3483 7.21875 11.7949C7.36458 12.2415 7.64714 12.793 8.06641 13.4492C8.35807 13.9049 8.95964 14.7891 9.87109 16.1016ZM14.6999 10.6002C14.6999 11.9533 13.603 13.0502 12.2499 13.0502C10.8968 13.0502 9.79993 11.9533 9.79993 10.6002C9.79993 9.24705 10.8968 8.15015 12.2499 8.15015C13.603 8.15015 14.6999 9.24705 14.6999 10.6002Z" fill="#161720"/>
</svg>
