<svg width="53" height="53" viewBox="0 0 53 53" fill="none" xmlns="http://www.w3.org/2000/svg">
<path d="M26.5 1C40.594 1 52 12.405 52 26.5C52 40.594 40.595 52 26.5 52C12.406 52 1 40.595 1 26.5C1 12.406 12.405 1 26.5 1ZM26.5 4.98438C14.6081 4.98438 4.98438 14.6073 4.98438 26.5C4.98438 38.3919 14.6073 48.0156 26.5 48.0156C38.3919 48.0156 48.0156 38.3927 48.0156 26.5C48.0156 14.6081 38.3927 4.98438 26.5 4.98438ZM27.0667 33.8667C28.6315 33.8667 29.9 35.1352 29.9 36.7C29.9 38.2648 28.6315 39.5333 27.0667 39.5333C25.5019 39.5333 24.2333 38.2648 24.2333 36.7C24.2333 35.1352 25.5019 33.8667 27.0667 33.8667ZM27.0667 13.4667C28.2641 13.4667 29.2446 14.2918 29.3276 15.3371L29.3333 15.481V28.4524C29.3333 29.5649 28.3185 30.4667 27.0667 30.4667C25.8692 30.4667 24.8887 29.6416 24.8057 28.5962L24.8 28.4524V15.481C24.8 14.3685 25.8148 13.4667 27.0667 13.4667Z" fill="black" stroke="#BAEEDC" stroke-width="1.5"/>
</svg>
