<?xml version="1.0" encoding="utf-8"?>
<!-- Generator: Adobe Illustrator 24.1.2, SVG Export Plug-In . SVG Version: 6.00 Build 0)  -->
<svg version="1.1" id="Layer_1" xmlns="http://www.w3.org/2000/svg" xmlns:xlink="http://www.w3.org/1999/xlink" x="0px" y="0px"
	 viewBox="0 0 1400 350" style="enable-background:new 0 0 1400 350;" xml:space="preserve">
<style type="text/css">
	.st0{clip-path:url(#SVGID_3_);fill:url(#SVGID_4_);}
	.st1{clip-path:url(#SVGID_6_);}
	.st2{fill:#FFE6E6;stroke:#000000;stroke-width:1.4318;stroke-linecap:round;stroke-linejoin:round;stroke-miterlimit:10;}
	.st3{stroke:#000000;stroke-width:1.4318;stroke-linecap:round;stroke-linejoin:round;stroke-miterlimit:10;}
	.st4{fill:#005CE2;}
	.st5{fill:none;stroke:#FFFFFF;stroke-width:1.4318;stroke-linecap:round;stroke-linejoin:round;stroke-miterlimit:10;}
	.st6{fill:#FFE6E6;}
	.st7{fill:#FFE6E6;stroke:#02B090;stroke-width:1.4318;stroke-linecap:round;stroke-linejoin:round;stroke-miterlimit:10;}
	.st8{fill:none;stroke:#02B090;stroke-width:1.4318;stroke-linecap:round;stroke-linejoin:round;stroke-miterlimit:10;}
	.st9{fill:#FFFFFF;stroke:#000000;stroke-width:1.4318;stroke-linecap:round;stroke-linejoin:round;stroke-miterlimit:10;}
	.st10{fill:none;stroke:#000000;stroke-width:1.4318;stroke-linecap:round;stroke-linejoin:round;stroke-miterlimit:10;}
	.st11{clip-path:url(#SVGID_8_);}
	.st12{fill:#FFFFFF;}
	.st13{fill:#02B090;}
	.st14{fill:#FFE6E6;stroke:#000000;stroke-width:2.1542;stroke-linecap:round;stroke-linejoin:round;stroke-miterlimit:10;}
	.st15{fill:none;stroke:#000000;stroke-width:2.1542;stroke-linecap:round;stroke-linejoin:round;stroke-miterlimit:10;}
</style>
<g>
	<g>
		<defs>
			<rect id="SVGID_1_" width="1400" height="350"/>
		</defs>
		<linearGradient id="SVGID_2_" gradientUnits="userSpaceOnUse" x1="700" y1="0" x2="700" y2="350">
			<stop  offset="0" style="stop-color:#017561"/>
			<stop  offset="0.0409" style="stop-color:#047B66"/>
			<stop  offset="0.24" style="stop-color:#11927B"/>
			<stop  offset="0.454" style="stop-color:#1AA28A"/>
			<stop  offset="0.6917" style="stop-color:#1FAC93"/>
			<stop  offset="1" style="stop-color:#21AF96"/>
		</linearGradient>
		<use xlink:href="#SVGID_1_"  style="overflow:visible;fill:url(#SVGID_2_);"/>
		<clipPath id="SVGID_3_">
			<use xlink:href="#SVGID_1_"  style="overflow:visible;"/>
		</clipPath>
		<linearGradient id="SVGID_4_" gradientUnits="userSpaceOnUse" x1="700" y1="0" x2="700" y2="350">
			<stop  offset="0" style="stop-color:#017561"/>
			<stop  offset="0.0409" style="stop-color:#047B66"/>
			<stop  offset="0.24" style="stop-color:#11927B"/>
			<stop  offset="0.454" style="stop-color:#1AA28A"/>
			<stop  offset="0.6917" style="stop-color:#1FAC93"/>
			<stop  offset="1" style="stop-color:#21AF96"/>
		</linearGradient>
		<rect class="st0" width="1400" height="350"/>
	</g>
	<g>
		<defs>
			<rect id="SVGID_5_" width="1400" height="350"/>
		</defs>
		<clipPath id="SVGID_6_">
			<use xlink:href="#SVGID_5_"  style="overflow:visible;"/>
		</clipPath>
		<g class="st1">
			<path class="st2" d="M203.23,212.16l5.06-60.72c0,0-7.32-5.59-5.06-10.12c1.26-2.53,3.79-2.53,3.79-2.53s2.53-24.03,3.79-21.5
				s2.53,16.44,2.53,16.44s7.59-2.53,10.12,1.26s0,15.18-3.79,16.44c0,0,6.32,29.09,7.59,69.57"/>
			<path class="st3" d="M60.54,260.89c0,0-59.63-5.04-64.66-42.82c-6-44.96,37.4-64.04,55.24-73.23
				c29.12-14.99,37.04-67.02,82.43-64.88s28.48,144.96,28.48,144.96"/>
			<path class="st4" d="M199.11,223.87l-48.22-57.25l-5.38,54.61c0,0,36.16,36.64,62.83,36.9c20.83,0.21,20.83-32.68,20.83-32.68
				l-29.09-7.59L199.11,223.87z"/>
			<circle class="st2" cx="131.84" cy="114.22" r="34.04"/>
			<path class="st2" d="M97.79,113.15v48.39l-15.84,4.28c0,0,4.71,29.98,35.54,31.26s27.41-33.83,27.41-33.83s-20.98,0-21.84-6.42
				s19.27-10.28,19.27-10.28"/>
			<path class="st4" d="M61.66,233.53c-8.8,27.51-7.58,24.74-11.8,51.34c-5.64,35.51-7.74,62.95-7.74,62.95h135.32l-3.67-19.89
				l-7.57-43.06l-0.76-4.31l-6.84-38.94c9.85-1.71,17.99-8.99,12.42-21.41c-4.57-10.2-16.09-42.11-20.05-53.15
				c-0.8-2.22-2.89-3.71-5.26-3.74c-7.47-0.09-13.87-1.3-13.87-1.3l-5.78,29.93l-36.69-28.13c0,0-26.17,0.49-50.78,28.18
				c-17.71,19.92-31.62,60.58-23.89,84.52c7.74,23.93,0,0,0,0l35.43-9.91C50.13,266.61,46.28,245.07,61.66,233.53z"/>
			<path class="st5" d="M121.13,238.83c0,0-10.28,9.85-30.83,0"/>
			<path class="st3" d="M165.63,110.07c-18.97-3.22-22.02-16.62-22.02-16.62c-4.82,12.6-23.73,16.15-35.97,17.56l-4.71,21.21
				c-3.25-5.22-5.14-11.39-5.14-17.99c0-1.7,0.12-3.38,0.37-5.01c0.44-2.97,1.26-5.81,2.41-8.47c5.22-12.09,17.25-20.56,31.27-20.56
				C149.24,80.17,163.59,93.22,165.63,110.07z"/>
			<ellipse class="st6" cx="100.36" cy="128.14" rx="7.07" ry="5.78"/>
			<circle class="st7" cx="130.34" cy="117" r="12.42"/>
			<circle class="st7" cx="156.03" cy="117" r="12.42"/>
			<line class="st8" x1="117.92" y1="117" x2="102.93" y2="120.86"/>
			<path class="st2" d="M129.48,135.42c0,0-2.57,6,0.86,6.85c3.43,0.86,6.42-2.57,7.71-5.57L129.48,135.42z"/>
			<path class="st5" d="M158.33,187.34c4.63,12.62,9.93,26.71,12.7,32.87c5.57,12.42-2.57,19.7-12.42,21.41"/>
			<polygon class="st9" points="90.57,158.01 125.98,192.16 88.04,184.57 94.36,180.78 72.86,164.33 			"/>
			<polygon class="st9" points="125.35,191.53 129.15,158.64 140.53,162.44 132.94,178.88 138,181.41 			"/>
			<path class="st9" d="M198.81,206.47v17.71l16.44,16.44l7.59-16.44l-0.05,19.9l12.7,0.33l-5.06-30.36
				C230.43,214.06,210.19,217.86,198.81,206.47z"/>
			<path class="st10" d="M207.03,138.8c0,0,6.32-1.26,6.32,0s-1.26,3.79-3.79,3.79c0,0,3.79,1.26,5.06,3.79"/>
			<path class="st10" d="M213.35,133.74c0,0-1.26,6.32,1.26,7.59s6.93-1.44,9.16-5.78"/>
			<line class="st10" x1="216.66" y1="133.02" x2="216.15" y2="141.64"/>
			<line class="st10" x1="219.99" y1="133.02" x2="219.5" y2="140.41"/>
			<path class="st5" d="M73.2,206.61c0,0-6.15,10.77-11.54,26.92"/>
			<path class="st2" d="M63.01,348c-30-23.07-43.59-71.97-43.59-71.97l30.71-9.42C53.2,297.37,76.08,348,76.08,348"/>
			<path class="st9" d="M18.66,284.44L4.75,256.61h8.85l5.06,11.38l4.05-13.17l30.1,1.79l3.79,18.97
				C56.61,275.58,26.25,271.79,18.66,284.44z"/>
		</g>
	</g>
	<g>
		<defs>
			<rect id="SVGID_7_" width="1400" height="350"/>
		</defs>
		<clipPath id="SVGID_8_">
			<use xlink:href="#SVGID_7_"  style="overflow:visible;"/>
		</clipPath>
		<g class="st11">
			<path d="M1082.41,132.36c0,0-3.37-12.32,12.38-19.07s131.17-63.01,131.17-63.01s135.35,245.41,130.51,259.98
				s-143.85,68.66-143.85,68.66L1082.41,132.36z"/>
			<path class="st12" d="M1219.29,71.06l21.45,42.53l96.07,190.49c0,0-113.45,57.59-118.03,57.5
				c-3.32-0.07-62.38-122.02-94.82-189.5c-12.41-25.81-20.91-43.66-20.91-43.66l33.07-17.47c0,0,4.83,11.05,8.81,10.96
				c3.98-0.09,43.01-18.68,45.12-22.32c2.11-3.63-3.69-13.66-3.69-13.66L1219.29,71.06z"/>
			<path class="st4" d="M1219.29,71.06l21.45,42.53l-116.78,58.49c-12.41-25.81-20.91-43.66-20.91-43.66l33.07-17.47
				c0,0,4.83,11.05,8.81,10.96c3.98-0.09,43.01-18.68,45.12-22.32c2.11-3.63-3.69-13.66-3.69-13.66L1219.29,71.06z"/>
			<g>
				<path class="st13" d="M1286.85,224.77c0.16,1.12-3.84,3.89-10.15,7.53l5.14,9.73l-13.98-4.85
					c-24.2,12.91-62.91,30.85-62.91,30.85c-5.02-0.27-35.37-65.12-34.31-69.58c1.06-4.46,75.95-42.55,80-42.25
					S1286.16,219.78,1286.85,224.77z"/>
				<path class="st12" d="M1187.32,207.18c0,0,1.84,8.75,4.21,7.96c2.36-0.78,53.59-27.38,52.25-29.91s-3.25-6.15-3.25-6.15
					L1187.32,207.18z"/>
				<path class="st12" d="M1196.12,223.83l43.8-23.13c0,0,7.46,6.24,4.4,8.33c-3.07,2.08-45.65,22.25-45.65,22.25L1196.12,223.83z"
					/>
				<path class="st12" d="M1203.25,239.96c0,0,3.33,9.81,5.86,8.48c2.53-1.34,62.3-31.05,62.26-32.88s-3.88-9.98-6.23-8.28
					C1262.8,208.98,1203.25,239.96,1203.25,239.96z"/>
			</g>
			<g>
				<path class="st14" d="M1242.84,308.43c0,0,12.08-2.97,16.51,14.67c4.44,17.63-7.81,56.26-42.94,70.91
					c-35.13,14.66-73.88-29.19-74.59-60.98s67.05-35.41,67.05-35.41s-11.96-87.23-0.32-83.63
					C1220.2,217.58,1242.84,308.43,1242.84,308.43z"/>
				<path class="st15" d="M1244.28,325.45c0,0,0.2-11.29-3.2-23.88"/>
				<path class="st15" d="M1187.44,300.45c0,0-2.05,11.28,3.02,22.73"/>
				<path class="st15" d="M1159.22,309.56c0,0-1.21,10.3,7.58,24.17"/>
			</g>
		</g>
	</g>
</g>
</svg>
