<svg width="24" height="24" viewBox="0 0 24 24" fill="none" xmlns="http://www.w3.org/2000/svg">
<path d="M18.3438 8.75C18.9688 8.28125 19.5312 7.71875 20 7.03125C19.375 7.3125 18.75 7.5 18.125 7.5625C18.8125 7.125 19.3125 6.53125 19.5625 5.75C18.9062 6.125 18.2188 6.40625 17.4688 6.53125C17.1562 6.21875 16.7812 5.96875 16.375 5.78125C15.9688 5.59375 15.5312 5.5 15.0625 5.5C14.4688 5.5 13.9375 5.65625 13.4375 5.9375C12.9375 6.25 12.5312 6.65625 12.25 7.15625C11.9375 7.65625 11.8125 8.21875 11.8125 8.78125C11.8125 9.03125 11.8125 9.28125 11.875 9.53125C10.5312 9.46875 9.28125 9.15625 8.09375 8.53125C6.90625 7.9375 5.9375 7.125 5.125 6.09375C4.8125 6.625 4.65625 7.1875 4.65625 7.75C4.65625 8.3125 4.78125 8.84375 5.0625 9.3125C5.3125 9.8125 5.6875 10.1875 6.125 10.5C5.59375 10.5 5.09375 10.3438 4.65625 10.0625V10.125C4.65625 10.9062 4.90625 11.5938 5.40625 12.1875C5.90625 12.8125 6.53125 13.1875 7.28125 13.3438C6.96875 13.4062 6.6875 13.4375 6.40625 13.4375C6.21875 13.4375 6 13.4375 5.8125 13.4062C6 14.0625 6.375 14.5938 6.9375 15.0312C7.5 15.4688 8.125 15.6562 8.875 15.6562C7.65625 16.5938 6.28125 17.0625 4.78125 17.0625C4.46875 17.0625 4.21875 17.0625 4 17.0312C5.5 18.0312 7.1875 18.5 9.03125 18.5C10.9375 18.5 12.625 18.0312 14.125 17.0312C15.4688 16.1562 16.5312 15 17.2812 13.5C18 12.125 18.375 10.6562 18.375 9.15625C18.375 8.96875 18.3438 8.84375 18.3438 8.75Z" fill="white"/>
</svg>
