<svg width="24" height="24" viewBox="0 0 24 24" fill="none" xmlns="http://www.w3.org/2000/svg">
<path d="M20.1875 7.875C20.3125 8.4375 20.4375 9.3125 20.5 10.4375L20.5312 12L20.5 13.5625C20.4375 14.75 20.3125 15.5938 20.1875 16.1562C20.0625 16.5312 19.875 16.8438 19.625 17.0938C19.3438 17.375 19.0312 17.5625 18.6562 17.6562C18.0938 17.8125 16.8438 17.9062 14.8438 17.9688L12 18L9.15625 17.9688C7.15625 17.9062 5.875 17.8125 5.34375 17.6562C4.96875 17.5625 4.625 17.375 4.375 17.0938C4.09375 16.8438 3.90625 16.5312 3.8125 16.1562C3.65625 15.5938 3.5625 14.75 3.5 13.5625L3.46875 12C3.46875 11.5625 3.46875 11.0312 3.5 10.4375C3.5625 9.3125 3.65625 8.4375 3.8125 7.875C3.90625 7.5 4.09375 7.1875 4.375 6.90625C4.625 6.65625 4.96875 6.46875 5.34375 6.34375C5.875 6.21875 7.15625 6.09375 9.15625 6.03125L12 6L14.8438 6.03125C16.8438 6.09375 18.0938 6.21875 18.6562 6.34375C19.0312 6.46875 19.3438 6.65625 19.625 6.90625C19.875 7.1875 20.0625 7.5 20.1875 7.875ZM10.25 14.5625L14.7188 12L10.25 9.46875V14.5625Z" fill="white"/>
</svg>
