<svg width="60" height="60" viewBox="0 0 60 60" fill="none" xmlns="http://www.w3.org/2000/svg">
<path d="M56.3939 24.582L56.3893 24.459C56.2524 20.7952 51.6278 19.1093 49.1803 21.9375L43.3659 28.6553L43.2525 28.5572L43.3659 28.6554C43.1386 28.9179 42.9483 29.2057 42.7953 29.5146L42.7702 29.5652L42.718 29.5867L42.4781 29.6857L42.32 29.7508L42.276 29.5856C41.9749 28.4565 41.1541 27.3304 39.459 26.8499L39.4999 26.7056L39.459 26.8499C38.2243 26.4997 37.1619 26.1944 36.2397 25.9295C34.2747 25.3649 32.9458 24.9831 31.9411 24.7384C30.4727 24.3807 29.7119 24.3198 28.6802 24.4103L28.6795 24.4104L28.6605 24.4122C25.8103 24.7178 24.0711 24.9162 22.6858 25.2429C21.3075 25.5679 20.2781 26.0203 18.8527 26.8406C16.7972 28.0237 14.7963 29.4069 12.8905 30.9594L12.7775 31.0515L12.6823 30.9411L12.3326 30.5362C12.3326 30.5362 12.3326 30.5362 12.3326 30.5362C11.5182 29.5932 10.0885 29.4886 9.14585 30.3028L9.14583 30.3028L0.906681 37.4165L0.906668 37.4165C-0.0115411 38.2091 -0.107523 39.5953 0.692478 40.5074C0.692486 40.5074 0.692493 40.5074 0.692501 40.5074L11.551 52.8817C12.3115 53.7483 13.6325 53.8541 14.4912 53.1279L14.5119 53.1104L14.5135 53.109L22.7199 46.0229C23.6651 45.2067 23.7698 43.7816 22.9535 42.8363L23.067 42.7382L22.9534 42.8363L22.632 42.464L22.534 42.3505L22.6476 42.2524L23.177 41.7954C24.6283 40.542 26.7985 40.1777 28.9719 40.794L28.931 40.9383L28.972 40.794L34.4332 42.343C34.9792 42.4975 35.5477 42.1807 35.7026 41.6348C35.8574 41.0887 35.5402 40.5205 34.9942 40.3657L35.0351 40.2214L34.9942 40.3657L29.5327 38.8166C26.6726 38.0056 23.7967 38.5448 21.8337 40.2396L21.7357 40.1261L21.8337 40.2396L21.3043 40.6967L21.1907 40.7947L21.0927 40.6811L14.2216 32.7237L14.1206 32.6067L14.2406 32.5092C16.0445 31.0443 17.9363 29.7395 19.878 28.6219C21.1055 27.9154 21.9352 27.5233 23.1739 27.2339C24.4039 26.9465 26.0369 26.7606 28.8679 26.4572L28.8709 26.4569C30.2219 26.3393 31.0814 26.5862 35.5311 27.8644L35.6223 27.8906C36.217 28.0614 36.7341 28.2041 37.1838 28.3281C38.0566 28.5688 38.6757 28.7396 39.116 28.9107C39.4534 29.0417 39.7036 29.1791 39.8895 29.3601C40.0782 29.5439 40.1901 29.7623 40.2693 30.0359C40.3442 30.294 40.3572 30.5438 40.3522 30.7273C40.3508 30.7766 40.3482 30.8214 40.345 30.8608H40.3639L40.3219 31.0443C40.2594 31.3174 40.1419 31.5597 40.0092 31.7388L40.0091 31.7389C39.9133 31.8679 39.7848 32.0065 39.5857 32.0974C39.3867 32.1883 39.1326 32.2246 38.7964 32.1782M56.3939 24.582L30.9161 33.341M56.3939 24.582L56.5155 24.6015M56.3939 24.582L56.5155 24.6015M38.7964 32.1782L38.8169 32.0296L38.7965 32.1782C38.7964 32.1782 38.7964 32.1782 38.7964 32.1782ZM38.7964 32.1782C36.7868 31.9017 32.2762 31.2979 31.3687 31.1764C31.2697 31.1631 31.2136 31.1556 31.2082 31.1549L31.2284 31.0062L31.2087 31.1549C30.6444 31.0801 30.1289 31.4747 30.0536 32.0374C29.9784 32.6 30.3734 33.1171 30.936 33.1923M30.936 33.1923C30.9359 33.1923 30.9359 33.1923 30.9358 33.1923L30.9161 33.341M30.936 33.1923L30.9161 33.341M30.936 33.1923C31.0011 33.2009 36.2942 33.9086 38.5161 34.2144L38.4957 34.363C36.2716 34.057 30.9695 33.3481 30.9161 33.341M40.1399 31.1436C40.151 31.1503 40.163 31.1561 40.1757 31.1608V31.0108M40.1399 31.1436C40.0655 31.0993 40.026 31.0194 40.0257 31.0081C40.0258 31.0037 40.0263 30.9972 40.0265 30.9951L40.0273 30.9887L40.0278 30.9856L40.0281 30.9836L40.0285 30.9813C40.0288 30.9799 40.0291 30.9786 40.0294 30.9773L40.1757 31.0108M40.1399 31.1436C40.1533 31.1004 40.1653 31.0561 40.1757 31.0108M40.1399 31.1436L40.1938 30.8685C40.1866 30.9481 40.1777 30.9991 40.176 31.009C40.1758 31.0102 40.1757 31.0108 40.1757 31.0108M41.8111 41.5826L41.8441 41.5637C42.6409 41.1077 57.5391 32.5808 57.583 32.5522C61.8543 29.771 59.7998 24.9751 56.5392 24.4534L41.8111 41.5826ZM41.8111 41.5826C41.4602 41.8095 41.0812 42.0147 40.6899 42.1895L41.8111 41.5826ZM56.5155 24.6015C58.0806 24.8519 59.3653 26.1322 59.7397 27.6906C60.1111 29.2361 59.5876 31.0679 57.5011 32.4265C57.5015 32.4262 57.4865 32.4348 57.4552 32.4528C57.426 32.4696 57.3826 32.4946 57.3243 32.528L56.8197 32.8174C56.3865 33.0656 55.7702 33.4187 55.0316 33.8416C53.5546 34.6875 51.5889 35.8129 49.6231 36.9382C45.8092 39.1215 41.9952 41.3045 41.7491 41.4453L41.7366 41.4525L41.7365 41.4523M56.5155 24.6015L41.7365 41.4523M41.7365 41.4523L41.7297 41.4567M41.7365 41.4523L41.7297 41.4567M41.7297 41.4567C41.3853 41.6793 41.0131 41.8808 40.6287 42.0525L40.6286 42.0526M41.7297 41.4567L40.6286 42.0526M40.6286 42.0526C40.1111 42.2842 39.5028 42.0519 39.2713 41.5334L39.2713 41.5334M40.6286 42.0526L39.2713 41.5334M39.2713 41.5334C39.0398 41.0152 39.2723 40.4073 39.7904 40.1759L39.2713 41.5334ZM10.4893 31.858L10.4906 31.8569L10.4911 31.8564C10.5021 31.8471 10.5569 31.8008 10.6404 31.8093C10.7194 31.8162 10.7626 31.8626 10.7771 31.8797C10.7773 31.8799 10.7775 31.8802 10.7778 31.8804L21.3972 44.1788L10.4893 31.858ZM10.4893 31.858L2.26801 38.9568L2.15357 39.0556M10.4893 31.858L2.15357 39.0556M2.15357 39.0556L2.2533 39.1693M2.15357 39.0556L2.2533 39.1693M2.2533 39.1693L13.0437 51.4657L13.1421 51.5778M2.2533 39.1693L13.1421 51.5778M13.1421 51.5778L13.2547 51.4801M13.1421 51.5778L13.2547 51.4801M13.2547 51.4801L13.2552 51.4797L13.2565 51.4785L13.2615 51.4742L13.2801 51.4583L13.3501 51.3979L13.6116 51.1724L14.5371 50.3741C15.3013 49.7148 16.3179 48.8374 17.3337 47.9597C18.3496 47.082 19.3648 46.2038 20.1262 45.5429C20.5069 45.2125 20.8244 44.9362 21.0468 44.7414C21.1579 44.6441 21.2456 44.5668 21.3057 44.5133C21.3356 44.4866 21.3593 44.4652 21.3757 44.4501C21.3837 44.4427 21.391 44.4358 21.3967 44.4302C21.3994 44.4276 21.4033 44.4237 21.4073 44.4193C21.409 44.4173 21.413 44.4128 21.4174 44.4069C21.4198 44.4036 21.4252 44.3954 21.4283 44.3901C21.4332 44.3807 21.4437 44.3503 21.447 44.3289L21.4472 44.3261M13.2547 51.4801L21.4472 44.3261M21.4472 44.3261C21.4522 44.2461 21.4123 44.1963 21.3978 44.1795L21.4472 44.3261ZM39.0635 8.36443L38.9456 8.21341C35.8118 4.1983 29.3668 6.47751 29.3715 11.5265C29.3771 16.8928 34.0312 21.027 38.4345 23.1053L38.3705 23.241L38.4346 23.1053C38.8477 23.3004 39.3184 23.2905 39.7106 23.1041L39.7107 23.104C42.87 21.6052 46.2154 18.9503 47.7587 15.7614C48.006 15.2505 47.7921 14.6358 47.2813 14.3887L47.2813 14.3887C46.7701 14.1411 46.1558 14.355 45.9086 14.866L45.7736 14.8007L45.9086 14.866C44.6145 17.5399 41.7605 19.7746 39.1367 21.0965L39.0698 21.1302L39.0027 21.097C37.1517 20.1817 35.2627 18.8708 33.8339 17.2503C32.4049 15.6296 31.4294 13.6907 31.4271 11.5245C31.4242 8.1782 35.9156 6.92408 37.6022 9.89172L37.6023 9.89187C37.6978 10.0604 37.8958 10.2706 38.1646 10.4362C38.4318 10.6009 38.7584 10.7151 39.1078 10.7066L39.1079 10.7066C39.6882 10.693 40.2329 10.3451 40.5279 9.87006L40.528 9.86994C42.1144 7.32109 45.4403 7.89985 46.4314 10.221M39.0635 8.36443L46.2934 10.2799M39.0635 8.36443L39.1818 8.21378M39.0635 8.36443L39.1818 8.21378M46.4314 10.221L46.2934 10.2799M46.4314 10.221C46.4314 10.2209 46.4314 10.2209 46.4314 10.2209L46.2934 10.2799M46.4314 10.221C46.6543 10.7427 47.2582 10.9855 47.7803 10.7624L47.8392 10.9004M46.2934 10.2799C46.5489 10.8778 47.2408 11.156 47.8392 10.9004M47.8392 10.9004L47.7803 10.7624C48.3023 10.5395 48.5447 9.93555 48.3218 9.41368C46.7563 5.74886 41.7674 4.92215 39.1818 8.21378M47.8392 10.9004L39.1818 8.21378M39.0639 8.12112L38.9459 8.02846C38.9531 8.01927 38.9604 8.0101 38.9676 8.00096C39 8.04039 39.0321 8.08044 39.0639 8.12112ZM39.0639 8.12112L39.1821 8.02883C39.1749 8.01962 39.1677 8.01043 39.1605 8.00128C39.1279 8.04062 39.0957 8.08057 39.0639 8.12112ZM40.6885 39.6843L40.6134 39.5544L40.6879 39.6846L40.6885 39.6843ZM40.6692 39.6956L40.5925 39.5666L40.6689 39.6957L40.6692 39.6956ZM40.1945 30.8608C40.2094 30.6878 40.215 30.3872 40.1253 30.0777C39.8788 29.227 39.3376 29.0777 37.1557 28.476C36.7048 28.3517 36.1838 28.208 35.5809 28.0348L35.559 28.0285C31.0351 26.729 30.2071 26.4911 28.8839 26.6063C23.2146 27.214 22.3947 27.3465 19.9528 28.7519C18.0601 29.8413 16.2146 31.1095 14.4518 32.5312L14.4487 32.5276L14.3351 32.6256L14.4297 32.7421C14.4309 32.7411 14.432 32.7402 14.4332 32.7392L21.1082 40.4696L21.2062 40.5831L21.3198 40.4851L40.1945 30.8608ZM54.2899 24.7932L54.3316 24.7516L54.3338 24.6927C54.4047 22.7607 51.9889 21.833 50.7346 23.2824L47.1124 27.4677L47.2849 27.7037C47.2843 27.7039 49.022 26.9851 50.7625 26.265L53.1541 25.2756L53.9422 24.9495L54.1631 24.8581L54.2213 24.834L54.2362 24.8279L54.24 24.8263L54.2411 24.8258L54.2415 24.8257C54.2418 24.8256 54.2675 24.8117 54.2899 24.7932Z" fill="#13D1F6" stroke="white" stroke-width="0.3"/>
</svg>
