<svg width="24" height="24" viewBox="0 0 24 24" fill="none" xmlns="http://www.w3.org/2000/svg">
<path d="M9.37003 18.3301C9.17118 18.3299 8.98055 18.2508 8.84003 18.1101C8.71906 17.9716 8.65239 17.794 8.65239 17.6101C8.65239 17.4262 8.71906 17.2486 8.84003 17.1101L13.58 12.3301L8.88003 7.60008C8.74798 7.45877 8.67314 7.27345 8.67003 7.08008C8.67033 6.98314 8.68995 6.88723 8.72772 6.79795C8.76549 6.70867 8.82067 6.6278 8.89003 6.56008C9.01653 6.42731 9.18729 6.34548 9.37003 6.33008C9.46697 6.33038 9.56288 6.35 9.65216 6.38777C9.74144 6.42554 9.8223 6.48072 9.89003 6.55008L15.15 11.8101C15.2773 11.9455 15.3481 12.1243 15.3481 12.3101C15.3481 12.4959 15.2773 12.6747 15.15 12.8101L9.94003 18.0701C9.87027 18.153 9.78293 18.2194 9.68434 18.2643C9.58575 18.3093 9.47838 18.3318 9.37003 18.3301Z" fill="#161720"/>
</svg>
