<svg width="24" height="24" viewBox="0 0 24 24" fill="none" xmlns="http://www.w3.org/2000/svg">
<path d="M14.6305 6.33008C14.8293 6.33025 15.0199 6.40939 15.1605 6.55008C15.2814 6.68856 15.3481 6.8662 15.3481 7.05008C15.3481 7.23396 15.2814 7.4116 15.1605 7.55008L10.4205 12.3301L15.1205 17.0601C15.2525 17.2014 15.3273 17.3867 15.3305 17.5801C15.3302 17.677 15.3105 17.7729 15.2728 17.8622C15.235 17.9515 15.1798 18.0324 15.1105 18.1001C14.984 18.2329 14.8132 18.3147 14.6305 18.3301C14.5335 18.3298 14.4376 18.3102 14.3483 18.2724C14.259 18.2346 14.1782 18.1794 14.1105 18.1101L8.85046 12.8501C8.7232 12.7147 8.65234 12.5359 8.65234 12.3501C8.65234 12.1643 8.7232 11.9855 8.85046 11.8501L14.0605 6.59008C14.1302 6.50715 14.2176 6.44079 14.3162 6.39582C14.4147 6.35085 14.5221 6.32839 14.6305 6.33008Z" fill="#161720"/>
</svg>
