<svg width="38" height="10" viewBox="0 0 38 10" fill="none" xmlns="http://www.w3.org/2000/svg">
<path d="M32.5766 9.81659C32.6937 9.93384 32.8526 9.99978 33.0183 9.99993C33.1086 10.0013 33.198 9.98262 33.2802 9.94514C33.3624 9.90766 33.4351 9.85237 33.4933 9.78326L37.8349 5.39996C37.941 5.28714 38 5.13813 38 4.9833C38 4.82846 37.941 4.67945 37.8349 4.56663L33.4516 0.183332C33.3952 0.125532 33.3278 0.0795517 33.2534 0.0480747C33.179 0.0165977 33.0991 0.000255585 33.0183 0C32.866 0.0128374 32.7237 0.0810223 32.6183 0.191666C32.5605 0.248103 32.5145 0.315488 32.483 0.389888C32.4515 0.464288 32.4352 0.544211 32.4349 0.624995C32.4375 0.786139 32.4999 0.940573 32.6099 1.05833L35.7166 4.18478L0.697468 4.18478C0.312263 4.18478 0 4.49705 0 4.88225C0 5.26745 0.312263 5.57972 0.697468 5.57972L35.9517 5.57972L32.5766 8.98327C32.4758 9.09867 32.4202 9.2467 32.4202 9.39993C32.4202 9.55316 32.4758 9.7012 32.5766 9.81659Z" fill="#0797FF"/>
</svg>
