<svg width="38" height="10" viewBox="0 0 38 10" fill="none" xmlns="http://www.w3.org/2000/svg">
<path d="M5.42339 0.183405C5.30629 0.0661625 5.14743 0.000219047 4.98173 7.31859e-05C4.89144 -0.00133158 4.80196 0.0173829 4.7198 0.054859C4.63764 0.0923351 4.56486 0.147633 4.50673 0.216738L0.165096 4.60004C0.0590433 4.71286 4.25038e-07 4.86187 4.38574e-07 5.0167C4.5211e-07 5.17154 0.0590434 5.32055 0.165096 5.43337L4.5484 9.81667C4.60484 9.87447 4.67222 9.92045 4.74662 9.95192C4.82102 9.9834 4.90094 9.99974 4.98173 10C5.13401 9.98716 5.27631 9.91898 5.38172 9.80833C5.43953 9.7519 5.4855 9.68451 5.51698 9.61011C5.54846 9.53571 5.5648 9.45579 5.56506 9.375C5.56246 9.21386 5.5001 9.05943 5.39006 8.94167L2.28343 5.81522L37.3025 5.81521C37.6877 5.81521 38 5.50295 38 5.11774C38 4.73254 37.6877 4.42028 37.3025 4.42028L2.04833 4.42028L5.42339 1.01673C5.5242 0.901333 5.57975 0.753299 5.57975 0.600069C5.57975 0.446839 5.5242 0.298805 5.42339 0.183405Z" fill="#0797FF"/>
</svg>
