<svg width="60" height="60" viewBox="0 0 60 60" fill="none" xmlns="http://www.w3.org/2000/svg">
<path d="M46.1994 1.04736C53.81 1.04736 60 7.34669 60 15.0735C60 22.8008 53.8072 29.1006 46.1971 29.1006C45.9455 29.1006 45.6882 29.0934 45.4452 29.0799V51.295C45.4452 55.5717 42.0339 59.0406 37.8218 59.0474H37.8009C37.6471 59.0474 37.547 59.0276 37.304 59.0184V59.0474H7.29068V59.0257C3.221 58.8387 0.0123409 55.4406 0 51.3042V46.9104C0 46.3644 0.460889 45.9697 0.997722 45.9697H7.87498L8.10471 11.3458C8.10851 10.8036 8.54234 10.3144 9.0768 10.3144H33.2039C35.1158 5.00932 40.2193 1.04736 46.1994 1.04736ZM30.1348 47.9436H1.94418V51.294C1.95842 54.4873 4.50968 57.069 7.65426 57.0734H32.7212C32.6144 56.95 32.4877 56.87 32.3856 56.7664C30.9465 55.3143 30.1362 53.3398 30.1348 51.2801V47.9436ZM32.6642 12.2884H10.0422L9.81916 45.9697H31.151C31.3993 45.961 31.6399 46.0569 31.816 46.2352C31.9921 46.4135 32.0871 46.6579 32.079 46.9104V51.281C32.0946 54.4806 34.6507 57.0676 37.8024 57.0734H37.8209C40.9597 57.0671 43.5015 54.4815 43.501 51.294V28.8331C39.8372 28.0861 36.6314 25.8538 34.626 22.6519H24.3896C23.8523 22.6519 23.4175 22.2099 23.4175 21.6649C23.4175 21.1198 23.8523 20.6779 24.3896 20.6779H33.5713C32.7957 18.8991 32.396 16.9752 32.3979 15.0296C32.4027 14.1096 32.4919 13.192 32.6642 12.2884ZM18.1498 35.8255C19.8657 35.8255 21.2616 37.1975 21.2616 38.8843C21.2616 40.5711 19.8657 41.9431 18.1498 41.9431C16.4339 41.9431 15.0384 40.5711 15.0384 38.8843C15.0384 37.1975 16.4339 35.8255 18.1498 35.8255ZM18.1498 37.7995C17.5062 37.7995 16.9826 38.2862 16.9826 38.8843C16.9826 39.4829 17.5057 39.9691 18.1498 39.9691C18.7934 39.9691 19.3174 39.4824 19.3174 38.8843C19.3174 38.2862 18.7934 37.7995 18.1498 37.7995ZM37.3495 37.9503C37.8864 37.9503 38.3216 38.3922 38.3216 38.9373C38.3216 39.4824 37.8864 39.9243 37.3495 39.9243H24.3896C23.8523 39.9243 23.4175 39.4824 23.4175 38.9373C23.4175 38.3922 23.8523 37.9503 24.3896 37.9503H37.3495ZM18.1498 27.2466C19.8657 27.2466 21.2616 28.6187 21.2616 30.3054C21.2616 31.9922 19.8657 33.3643 18.1498 33.3643C16.4339 33.3643 15.0384 31.9922 15.0384 30.3054C15.0384 28.6187 16.4339 27.2466 18.1498 27.2466ZM18.1498 29.2206C17.5062 29.2206 16.9826 29.7069 16.9826 30.3054C16.9826 30.9035 17.5057 31.3903 18.1498 31.3903C18.7934 31.3903 19.3174 30.9035 19.3174 30.3054C19.3174 29.7074 18.7934 29.2206 18.1498 29.2206ZM37.3495 29.3141C37.8864 29.3141 38.3216 29.756 38.3216 30.3011C38.3216 30.8462 37.8864 31.2881 37.3495 31.2881H24.3896C23.8523 31.2881 23.4175 30.8462 23.4175 30.3011C23.4175 29.756 23.8523 29.3141 24.3896 29.3141H37.3495ZM46.1999 3.04883C39.6511 3.04883 34.3426 8.43875 34.3426 15.088C34.3421 21.7372 39.6511 27.1271 46.1994 27.1271C52.7454 27.1199 58.0496 21.7338 58.0568 15.088C58.0568 8.43923 52.7482 3.04883 46.1999 3.04883ZM18.1498 18.6668C19.8657 18.6668 21.2616 20.0393 21.2616 21.7261C21.2616 23.4128 19.8657 24.7849 18.1498 24.7849C16.4339 24.7849 15.0384 23.4128 15.0384 21.7261C15.0384 20.0393 16.4339 18.6668 18.1498 18.6668ZM46.0528 5.87294C46.5896 5.87294 47.0249 6.31488 47.0249 6.85994V7.80838C48.9121 8.23056 50.2573 9.92792 50.2596 11.8899C50.2596 12.4349 49.8244 12.8769 49.2875 12.8769C48.7507 12.8769 48.3155 12.4349 48.3155 11.8899C48.314 10.6903 47.3685 9.71201 46.1871 9.68744C46.143 9.6937 46.0979 9.69756 46.0528 9.69756C46.0262 9.69756 46.0001 9.69563 45.974 9.6937C44.8111 9.78623 43.9278 10.7949 43.9733 11.9781C44.0194 13.1612 44.9777 14.0961 46.1439 14.0957C48.2457 14.0952 50.01 15.7029 50.2359 17.8244C50.4623 19.9458 49.0777 21.8996 47.0249 22.356V23.3921C47.0249 23.9372 46.5896 24.3791 46.0528 24.3791C45.5159 24.3791 45.0807 23.9372 45.0807 23.3921V22.3107C43.2818 21.8196 42.0306 20.1651 42.0282 18.274C42.0282 17.7289 42.4635 17.287 43.0003 17.287C43.5371 17.287 43.9724 17.7289 43.9724 18.274C43.9724 19.4914 44.9445 20.4788 46.1439 20.4788C47.3434 20.4788 48.3155 19.4914 48.3155 18.274C48.3155 17.0562 47.3434 16.0687 46.1439 16.0687C44.0782 16.0687 42.3324 14.514 42.0633 12.4344C41.7942 10.3549 43.0852 8.39489 45.0807 7.8532V6.85994C45.0807 6.31488 45.5159 5.87294 46.0528 5.87294ZM18.1498 20.6408C17.5062 20.6408 16.9826 21.128 16.9826 21.7261C16.9826 22.3242 17.5057 22.8109 18.1498 22.8109C18.7934 22.8114 19.3174 22.3242 19.3174 21.7261C19.3174 21.1275 18.7934 20.6408 18.1498 20.6408Z" fill="#127CD3"/>
</svg>
