<svg width="24" height="24" viewBox="0 0 24 24" fill="none" xmlns="http://www.w3.org/2000/svg">
<circle cx="12" cy="12" r="11.5" stroke="#0797FF"/>
<path d="M16.1854 7.50005H7.81543C7.6278 7.49856 7.44172 7.53405 7.26781 7.60449C7.0939 7.67492 6.93556 7.77892 6.80184 7.91055C6.66813 8.04218 6.56165 8.19886 6.48848 8.37164C6.41532 8.54442 6.3769 8.72992 6.37543 8.91755V15.105C6.38428 15.4801 6.54025 15.8365 6.80967 16.0975C7.07908 16.3585 7.44034 16.5031 7.81543 16.5H16.1854C16.3731 16.5015 16.5591 16.466 16.7331 16.3956C16.907 16.3252 17.0653 16.2212 17.199 16.0895C17.3327 15.9579 17.4392 15.8012 17.5124 15.6285C17.5855 15.4557 17.624 15.2702 17.6254 15.0825V8.89505C17.6166 8.52004 17.4606 8.16356 17.1912 7.90256C16.9218 7.64157 16.5605 7.49699 16.1854 7.50005ZM7.81543 8.27067H16.1854C16.3575 8.27067 16.5226 8.33864 16.6448 8.45979C16.767 8.58095 16.8364 8.74547 16.8379 8.91755V8.9963H16.7873L12.0004 12.1407L7.18543 8.7938C7.21495 8.64778 7.29355 8.51627 7.40815 8.4211C7.52276 8.32594 7.66648 8.27286 7.81543 8.27067ZM16.1854 15.7294H7.81543C7.64335 15.7294 7.47823 15.6615 7.35602 15.5403C7.23381 15.4191 7.16441 15.2546 7.16293 15.0825V9.75005L11.7754 12.9225C11.8404 12.9708 11.9195 12.9965 12.0004 12.9957C12.0786 12.9951 12.1549 12.9717 12.2198 12.9282L16.8379 9.90755V15.0825C16.8364 15.2546 16.767 15.4191 16.6448 15.5403C16.5226 15.6615 16.3575 15.7294 16.1854 15.7294Z" fill="#0797FF"/>
</svg>
