<svg width="24" height="24" viewBox="0 0 24 24" fill="none" xmlns="http://www.w3.org/2000/svg">
<circle cx="12" cy="12" r="11.5" stroke="#FF9900"/>
<path d="M17.8127 11.1875C17.8127 12.2188 17.508 13.0391 16.8986 13.6484C16.2424 14.3047 15.3752 14.6328 14.2502 14.6328C13.8283 14.6328 13.5236 14.5859 13.3361 14.4688C13.0549 14.3281 12.9142 14.0938 12.8674 13.7422C12.633 14.0469 12.3517 14.2812 12.0236 14.4688C11.6721 14.6562 11.3205 14.75 10.9924 14.75C10.2892 14.75 9.75018 14.5391 9.37518 14.0938C9.00018 13.6719 8.81268 13.0859 8.81268 12.3594C8.81268 11.6797 8.95331 11.0703 9.23456 10.5078C9.51581 9.96875 9.91425 9.54688 10.4064 9.24219C10.8752 8.9375 11.4142 8.77344 11.9767 8.77344C12.3049 8.77344 12.6096 8.84375 12.8908 8.96094C13.1486 9.10156 13.3596 9.26562 13.5002 9.5L13.5471 9.17188C13.5471 9.10156 13.5939 9.05469 13.6408 9.00781C13.6877 8.96094 13.758 8.9375 13.8283 8.9375H14.7424C14.8361 8.9375 14.9064 8.98438 14.9533 9.05469C15.0002 9.125 15.0236 9.19531 15.0236 9.26562L14.3674 12.7578C14.2971 13.0156 14.2971 13.2031 14.3439 13.3203C14.3908 13.4375 14.508 13.4844 14.7424 13.4844C15.258 13.4844 15.7033 13.2969 16.0783 12.8984C16.4767 12.4766 16.6877 11.8906 16.6877 11.1875C16.6877 10.3438 16.4533 9.61719 16.0314 8.96094C15.633 8.35156 15.0705 7.88281 14.3674 7.55469C13.6408 7.22656 12.8439 7.0625 12.0002 7.0625C11.1564 7.0625 10.3596 7.27344 9.65643 7.69531C8.92987 8.11719 8.36737 8.70312 7.9455 9.40625C7.52362 10.1328 7.31268 10.9062 7.31268 11.75C7.31268 12.5938 7.52362 13.3906 7.9455 14.0938C8.36737 14.8203 8.92987 15.3828 9.65643 15.8047C10.3596 16.2266 11.1564 16.4375 12.0002 16.4375C13.008 16.4375 13.9221 16.1562 14.7658 15.5469C14.8127 15.5 14.8596 15.5 14.9533 15.5C15.0236 15.5 15.0939 15.5469 15.1408 15.5938L15.4924 16.0156C15.5392 16.0859 15.5392 16.1562 15.5392 16.25C15.5392 16.3438 15.4924 16.3906 15.4455 16.4375C14.9299 16.8125 14.3908 17.0938 13.8049 17.2812C13.2189 17.4688 12.6096 17.5625 12.0002 17.5625C10.9455 17.5625 9.98456 17.3047 9.09393 16.7891C8.20331 16.2734 7.47675 15.5469 6.96112 14.6562C6.4455 13.7656 6.18768 12.8047 6.18768 11.75C6.18768 10.7188 6.4455 9.73438 6.96112 8.84375C7.47675 7.95312 8.20331 7.25 9.09393 6.73438C9.98456 6.21875 10.9455 5.9375 12.0236 5.9375C13.0783 5.9375 14.0392 6.17188 14.9299 6.59375C15.8205 7.03906 16.5002 7.64844 17.0158 8.39844C17.5314 9.21875 17.8127 10.1562 17.8127 11.1875ZM11.3908 13.4609C11.8596 13.4609 12.258 13.25 12.6096 12.8047C12.9611 12.3594 13.1486 11.8438 13.1486 11.2578C13.1486 10.9062 13.0549 10.625 12.8674 10.3906C12.6799 10.1797 12.3986 10.0625 12.0705 10.0625C11.7892 10.0625 11.508 10.1562 11.2502 10.3438C10.9689 10.5312 10.758 10.7656 10.5939 11.0938C10.4064 11.4453 10.3361 11.8203 10.3361 12.2422C10.3361 12.6406 10.4299 12.9453 10.6174 13.1562C10.8049 13.3672 11.0627 13.4609 11.3908 13.4609Z" fill="#FF9900"/>
</svg>
