<svg width="25" height="24" viewBox="0 0 25 24" fill="none" xmlns="http://www.w3.org/2000/svg">
<circle cx="12.0406" cy="12" r="11.5" stroke="#7360F2"/>
<path d="M17.1406 7.11719C17.7422 7.66406 18.1523 8.45703 18.4258 9.55078C18.6719 10.7539 18.6992 12.1758 18.5078 13.8438C18.3438 15.1836 17.8242 16.1953 17.0039 16.8789C16.5391 17.2617 15.9375 17.5352 15.2266 17.6992L15.0625 17.7266C14.7891 17.8359 14.3516 17.918 13.75 17.9727C12.793 18.1094 11.8359 18.1367 10.9062 18.0547C10.5234 18.4922 10.25 18.793 10.0859 18.957L9.86719 19.2031C9.64844 19.4219 9.51172 19.5859 9.42969 19.6406C9.26562 19.75 9.07422 19.7773 8.91016 19.7227C8.80078 19.6953 8.71875 19.6406 8.66406 19.5312C8.60938 19.4219 8.58203 19.3125 8.58203 19.2031V17.6172C7.57031 17.3438 6.80469 16.8242 6.25781 16.0312C5.84766 15.4297 5.57422 14.6367 5.46484 13.6797C5.35547 13.1328 5.32812 12.4219 5.38281 11.4922C5.38281 10.5352 5.49219 9.71484 5.71094 9.03125C5.92969 8.29297 6.25781 7.69141 6.75 7.19922C7.16016 6.81641 7.70703 6.51562 8.39062 6.26953C8.91016 6.10547 9.51172 5.96875 10.1953 5.85938C10.6602 5.80469 11.1523 5.75 11.6445 5.75H12.2461C13.5859 5.77734 14.7617 5.96875 15.7461 6.32422C16.3477 6.57031 16.8125 6.84375 17.1406 7.11719ZM17.5234 13.5977C17.6875 12.1758 17.6875 10.9727 17.4688 9.93359C17.25 8.97656 16.8945 8.26562 16.4023 7.82812C16.1289 7.60938 15.7461 7.39062 15.1992 7.19922C14.3242 6.92578 13.3398 6.76172 12.1914 6.73438H11.6719C11.2344 6.73438 10.8242 6.76172 10.4414 6.81641C9.86719 6.89844 9.34766 7.00781 8.91016 7.14453C8.33594 7.36328 7.87109 7.60938 7.54297 7.9375C7.13281 8.32031 6.83203 8.83984 6.64062 9.46875C6.47656 10.043 6.36719 10.7266 6.36719 11.5195V11.6836C6.33984 12.4766 6.36719 13.0781 6.42188 13.5156C6.53125 14.2812 6.75 14.9375 7.07812 15.4297C7.51562 16.0586 8.14453 16.4961 8.96484 16.7148L8.9375 19.0664C8.9375 19.2031 8.96484 19.2852 9.01953 19.3125C9.07422 19.3398 9.15625 19.3125 9.26562 19.2031C9.42969 19.0391 9.8125 18.6289 10.3594 17.9727L11.125 17.043C11.918 17.0977 12.7383 17.0703 13.5586 16.9609C14.0781 16.9062 14.4609 16.8242 14.707 16.7422L14.8711 16.7148C15.4453 16.5781 15.9102 16.3594 16.293 16.0586C16.9492 15.5117 17.3594 14.6914 17.5234 13.5977ZM13.7227 11.3828C13.668 10.5898 13.2578 10.1797 12.4922 10.125C12.3828 10.125 12.3008 10.207 12.3008 10.3164C12.3008 10.4258 12.3555 10.4805 12.4648 10.4805C13.0117 10.5352 13.3125 10.8359 13.3672 11.4102C13.3672 11.5195 13.4219 11.5742 13.5312 11.5742C13.6406 11.5742 13.7227 11.5195 13.7227 11.3828ZM14.2695 11.6836C14.2695 11.8203 14.3242 11.875 14.4336 11.875C14.543 11.875 14.625 11.8203 14.625 11.7109C14.625 11.0273 14.4336 10.4531 13.9961 9.96094C13.5586 9.49609 12.9844 9.22266 12.2188 9.16797C12.1094 9.16797 12.0273 9.25 12.0273 9.35938C12.0273 9.46875 12.082 9.52344 12.1914 9.52344C12.8477 9.57812 13.3672 9.82422 13.75 10.207C14.1055 10.6172 14.2695 11.1094 14.2695 11.6836ZM15.5547 12.0664C15.5547 10.918 15.1992 9.98828 14.4883 9.27734C13.8047 8.62109 12.957 8.26562 11.918 8.26562C11.7812 8.26562 11.7266 8.34766 11.7266 8.45703C11.7266 8.56641 11.7812 8.62109 11.918 8.62109C12.8477 8.62109 13.6133 8.92188 14.2148 9.49609C14.8711 10.1523 15.1992 11 15.1992 12.0664C15.1992 12.1758 15.2539 12.2305 15.3633 12.2305C15.4727 12.2305 15.5547 12.1758 15.5547 12.0664ZM15.2539 14.7461C15.3633 14.5 15.3359 14.2812 15.1445 14.0898C14.8164 13.7891 14.3789 13.4883 13.8867 13.2148C13.75 13.1328 13.6133 13.1055 13.4766 13.1328C13.3398 13.1602 13.2305 13.2148 13.1758 13.2969L12.9023 13.625C12.8477 13.707 12.7656 13.7617 12.6562 13.7617L12.5195 13.7891C12.082 13.6797 11.7266 13.4883 11.3984 13.2148C11.125 13.0234 10.8789 12.7773 10.6875 12.4492C10.5234 12.2305 10.4141 12.0117 10.332 11.7656L10.2227 11.4648V11.3281C10.2227 11.2188 10.2773 11.1367 10.3594 11.082L10.6875 10.8359C10.7695 10.7812 10.8242 10.6719 10.8516 10.5352C10.8789 10.3984 10.8516 10.2617 10.7969 10.0977C10.6328 9.85156 10.4961 9.63281 10.3867 9.44141L9.89453 8.83984C9.70312 8.64844 9.48438 8.62109 9.23828 8.73047C8.91016 8.92188 8.66406 9.11328 8.5 9.33203C8.28125 9.63281 8.22656 9.90625 8.30859 10.1523L8.47266 10.5078C8.58203 10.8633 8.77344 11.2734 9.04688 11.7109C9.29297 12.1484 9.56641 12.5586 9.86719 12.9414C10.1953 13.3789 10.5781 13.7617 11.0156 14.0898C11.4258 14.418 11.9453 14.7461 12.5469 15.0742C13.0938 15.375 13.5039 15.5664 13.832 15.6484C14.0781 15.7578 14.3516 15.6758 14.6523 15.457C14.8711 15.293 15.0625 15.0742 15.2539 14.7461Z" fill="#7360F2"/>
</svg>
