<svg width="24" height="24" viewBox="0 0 24 24" fill="none" xmlns="http://www.w3.org/2000/svg">
<circle cx="12" cy="12" r="11.5" stroke="#00A99C"/>
<path d="M16.225 17.6249C14.4789 17.6321 12.763 17.1705 11.2568 16.2886C9.78942 15.4251 8.56931 14.1992 7.71392 12.7288C6.83441 11.232 6.37219 9.52755 6.37522 7.7923C6.37272 7.5854 6.43751 7.38328 6.55987 7.21628C6.62694 7.12305 6.71305 7.04507 6.81251 6.98749C6.91197 6.9299 7.02253 6.89401 7.13689 6.88219L9.20841 6.39257C9.42307 6.35026 9.6458 6.38493 9.83736 6.4905C10.0347 6.58909 10.1858 6.76059 10.2586 6.96859L11.228 9.21506C11.3058 9.39732 11.318 9.60084 11.2626 9.79108C11.2206 9.97168 11.1263 10.1359 10.9914 10.2634L10.0047 11.0698C10.3356 11.6885 10.7533 12.2569 11.2453 12.7576C11.7424 13.258 12.3148 13.6778 12.9417 14.0018L13.7207 13.0513C13.8555 12.9055 14.0268 12.7981 14.217 12.7403C14.4089 12.6886 14.6128 12.7049 14.794 12.7864L17.0675 13.7541C17.2679 13.8357 17.432 13.9872 17.5291 14.1803C17.626 14.3748 17.6506 14.5973 17.5983 14.8082L17.1136 16.9049C17.1 17.0138 17.063 17.1185 17.0053 17.2119C16.9475 17.3054 16.8703 17.3853 16.779 17.4464C16.6173 17.5618 16.4237 17.6242 16.225 17.6249ZM9.40459 7.2566L7.23499 7.75197C7.22743 9.35441 7.64982 10.9296 8.45828 12.314C9.24259 13.6499 10.3572 14.7625 11.6954 15.5455C13.069 16.3483 14.6333 16.768 16.225 16.7609H16.2827L16.7616 14.6296V14.5778L14.4535 13.5755C14.418 13.5824 14.3856 13.6006 14.3612 13.6274L13.2072 15.0674L12.9014 14.9292C12.055 14.5513 11.2861 14.0201 10.6337 13.3624C9.98836 12.7155 9.46113 11.9611 9.07569 11.1332L8.93144 10.8279L10.4144 9.62403C10.4129 9.60871 10.4129 9.59327 10.4144 9.57795L9.43922 7.27388L9.40459 7.2566Z" fill="#00A99C"/>
</svg>
