<svg width="60" height="60" viewBox="0 0 60 60" fill="none" xmlns="http://www.w3.org/2000/svg">
<path d="M30.8162 6.61444C31.9968 5.82256 33.4937 5.79394 34.6294 6.54114C36.3217 7.65826 37.576 10.0404 38.0223 12.9034H56.4844C58.423 12.9034 60 14.4905 60 16.4414V49.4621C60 51.413 58.423 53 56.4844 53H3.51562C1.577 53 0 51.413 0 49.4621V16.4414C0 14.4905 1.577 12.9034 3.51562 12.9034H5.57098C6.01776 10.0409 7.27158 7.65832 8.96347 6.54212C10.1001 5.79399 11.597 5.82253 12.7776 6.61396L18.636 10.5449H24.9577L30.8162 6.61444ZM57.6562 45.9241H2.34375V49.4621C2.34375 50.1126 2.86926 50.6414 3.51562 50.6414H56.4844C57.1307 50.6414 57.6562 50.1121 57.6562 49.4621V45.9241ZM57.6562 38.8483H2.34375V43.5655H57.6562V38.8483ZM5.39062 15.2621H3.51562C2.86926 15.2621 2.34375 15.7909 2.34375 16.4414V36.4897H57.6562V16.4414C57.6562 15.7909 57.1307 15.2621 56.4844 15.2621H38.2031C38.2031 19.1266 36.801 22.5494 34.6307 23.9821C34.2764 24.2152 33.886 24.3713 33.4813 24.4538L35.3714 28.5335C35.5536 28.9278 35.506 29.3908 35.2469 29.739C34.9878 30.0868 34.5598 30.2633 34.1322 30.1974L30.7278 29.6746L28.9375 32.6353C28.7242 32.9881 28.3438 33.2018 27.9364 33.2018C27.9149 33.2018 27.8934 33.2009 27.8719 33.2C27.4402 33.1761 27.057 32.9149 26.8744 32.5206L21.7969 21.5626L16.7198 32.5206C16.5372 32.9149 16.1536 33.1761 15.7219 33.2C15.2898 33.2258 14.881 33.007 14.6562 32.6353L12.8664 29.6746L9.46152 30.1974C9.03442 30.2633 8.60596 30.0868 8.34686 29.739C8.08777 29.3908 8.04016 28.9273 8.22281 28.5335L10.1125 24.4542C9.70825 24.3718 9.31824 24.2156 8.96484 23.983C6.79275 22.5498 5.39062 19.1266 5.39062 15.2621ZM39.375 31.7724C40.0223 31.7724 40.5469 32.3003 40.5469 32.9517C40.5469 33.6031 40.0223 34.131 39.375 34.131C38.7277 34.131 38.2031 33.6031 38.2031 32.9517C38.2031 32.3003 38.7277 31.7724 39.375 31.7724ZM54.1406 31.7724C54.7879 31.7724 55.3125 32.3003 55.3125 32.9517C55.3125 33.6031 54.7879 34.131 54.1406 34.131H44.0625C43.4152 34.131 42.8906 33.6031 42.8906 32.9517C42.8906 32.3003 43.4152 31.7724 44.0625 31.7724H54.1406ZM19.9443 19.9793H18.636L13.0284 23.7421L11.2715 27.5333L13.2843 27.2242C13.7521 27.1515 14.2168 27.3703 14.4626 27.777L15.5205 29.5271L19.9443 19.9793ZM24.9577 19.9793H23.649L28.0733 29.5276L29.1312 27.777C29.377 27.3707 29.8402 27.1519 30.309 27.2242L32.3218 27.5338L30.5653 23.7416L24.9577 19.9793ZM33.3453 8.51422C33.0029 8.28896 32.5085 8.3138 32.1158 8.57685L26.4844 12.3553V14.0828H30C30.6473 14.0828 31.1719 14.6107 31.1719 15.2621C31.1719 15.9135 30.6473 16.4414 30 16.4414H26.4844V18.1689C26.4995 18.179 31.9244 21.775 32.2064 21.9993C32.5777 22.2094 33.0281 22.2186 33.3467 22.009C35.3362 20.6957 36.0356 16.8435 35.8154 14.1804C35.6053 11.5892 34.6358 9.366 33.3453 8.51422ZM11.4775 8.57685C11.0857 8.3138 10.5908 8.28895 10.247 8.51514C8.95798 9.36599 7.98843 11.5892 7.77832 14.1786C7.55905 16.8459 8.23975 20.6837 10.2484 22.01C10.5647 22.2177 11.0138 22.2089 11.3896 21.9975C11.4015 21.9883 17.0975 18.1767 17.1094 18.1689V16.4414H13.5938C12.9465 16.4414 12.4219 15.913 12.4219 15.2621C12.4219 14.6107 12.9465 14.0828 13.5938 14.0828H17.1094V12.3553L11.4775 8.57685ZM24.1406 12.9034H19.4531V17.6207H24.1406V12.9034Z" fill="#161720"/>
</svg>
