<svg width="60" height="60" viewBox="0 0 60 60" fill="none" xmlns="http://www.w3.org/2000/svg">
<path d="M52.6338 42.8663L27.6345 17.8685C27.2745 17.5135 26.7396 17.4035 26.272 17.5985C25.8045 17.791 25.4995 18.2485 25.4995 18.7534V53.3654C25.4995 53.8429 25.772 54.2779 26.202 54.4879C26.632 54.6979 27.1445 54.6454 27.517 54.3504L33.8642 49.3883L39.4041 59.3574C39.6342 59.7674 40.0591 59.9999 40.4991 59.9999C40.6866 59.9999 40.8791 59.9574 41.0591 59.8674L48.5589 56.1177C48.864 55.9653 49.0939 55.6953 49.1939 55.3702C49.2939 55.0427 49.2564 54.6902 49.094 54.3928L43.8741 45.0012H51.7489C52.2539 45.0012 52.7089 44.6962 52.9039 44.2287C53.0988 43.7612 52.9913 43.2238 52.6338 42.8663ZM41.7516 42.5039C41.3091 42.5039 40.899 42.7388 40.6741 43.1213C40.4491 43.5013 40.4416 43.9738 40.6566 44.3612L46.2739 54.4678L41.0115 57.1001L35.3442 46.8959C35.1666 46.5759 34.8567 46.3485 34.4991 46.2759C34.4142 46.2585 34.3317 46.251 34.2492 46.251C33.9742 46.251 33.6992 46.3434 33.4792 46.5159L27.9993 50.8005V21.7706L48.7338 42.5039H41.7516Z" fill="#127CD3"/>
<path d="M26.7495 0C26.0595 0 25.4995 0.559992 25.4995 1.24993V8.7493C25.4995 9.43925 26.0595 9.99924 26.7495 9.99924C27.4395 9.99924 27.9995 9.43925 27.9995 8.7493V1.24993C27.9994 0.559992 27.4395 0 26.7495 0Z" fill="#127CD3"/>
<path d="M16.7498 17.4985H9.25C8.56002 17.4985 8 18.0585 8 18.7485C8 19.4384 8.56002 19.9984 9.25 19.9984H16.7498C17.4398 19.9984 17.9998 19.4384 17.9998 18.7485C17.9998 18.0585 17.4398 17.4985 16.7498 17.4985Z" fill="#127CD3"/>
<path d="M44.2488 17.4985H36.749C36.059 17.4985 35.499 18.0585 35.499 18.7485C35.499 19.4384 36.059 19.9984 36.749 19.9984H44.2488C44.9388 19.9984 45.4988 19.4384 45.4988 18.7485C45.4988 18.0585 44.9388 17.4985 44.2488 17.4985Z" fill="#127CD3"/>
<path d="M20.5624 10.7941L15.2576 5.49206C14.7701 5.0046 13.9776 5.0046 13.4901 5.49206C13.0026 5.97952 13.0026 6.77199 13.4901 7.25945L18.7949 12.5615C19.04 12.8039 19.3599 12.9265 19.6799 12.9265C19.9999 12.9265 20.3199 12.8065 20.5624 12.5615C21.0499 12.074 21.0499 11.2816 20.5624 10.7941Z" fill="#127CD3"/>
<path d="M20.5624 24.9379C20.0749 24.4504 19.2824 24.4504 18.7949 24.9379L13.4901 30.2399C13.0026 30.7274 13.0026 31.5198 13.4901 32.0073C13.7352 32.2497 14.0551 32.3723 14.3751 32.3723C14.6951 32.3723 15.015 32.2499 15.2576 32.0073L20.5624 26.7053C21.0499 26.2178 21.0499 25.4253 20.5624 24.9379Z" fill="#127CD3"/>
<path d="M40.0092 5.49195C39.5217 5.00203 38.7292 5.00203 38.2393 5.49195L32.9345 10.794C32.447 11.2815 32.447 12.0739 32.9345 12.5614C33.1795 12.8038 33.4994 12.9264 33.8194 12.9264C34.1395 12.9264 34.4594 12.8064 34.7044 12.5614L40.0092 7.25934C40.4967 6.77188 40.4967 5.98199 40.0092 5.49195Z" fill="#127CD3"/>
</svg>
