<svg width="18" height="18" viewBox="0 0 18 18" fill="none" xmlns="http://www.w3.org/2000/svg">
<path d="M10.4932 9.00405L17.6859 1.79726C17.7853 1.7004 17.8643 1.58462 17.9183 1.45674C17.9722 1.32887 18 1.19149 18 1.0527C18 0.91391 17.9722 0.776527 17.9183 0.64865C17.8643 0.520774 17.7853 0.404993 17.6859 0.308136C17.4884 0.110827 17.2206 0 16.9414 0C16.6621 0 16.3944 0.110827 16.1968 0.308136L9.00405 7.51493L1.79726 0.308136C1.59753 0.122024 1.33335 0.0207028 1.06039 0.0255188C0.787432 0.0303349 0.526997 0.140912 0.333954 0.333954C0.140912 0.526997 0.0303349 0.787432 0.0255188 1.06039C0.0207028 1.33335 0.122024 1.59753 0.308136 1.79726L7.51493 9.00405L0.308136 16.1968C0.110827 16.3944 0 16.6621 0 16.9414C0 17.2206 0.110827 17.4884 0.308136 17.6859C0.505691 17.8832 0.773486 17.9941 1.0527 17.9941C1.33191 17.9941 1.5997 17.8832 1.79726 17.6859L9.00405 10.4932L16.1968 17.6859C16.2941 17.7844 16.41 17.8625 16.5379 17.9156C16.6658 17.9686 16.8029 17.9956 16.9414 17.995C17.0801 17.9981 17.218 17.9722 17.3463 17.919C17.4745 17.8658 17.5902 17.7864 17.6859 17.6859C17.7853 17.5891 17.8643 17.4733 17.9183 17.3454C17.9722 17.2175 18 17.0801 18 16.9414C18 16.8026 17.9722 16.6652 17.9183 16.5373C17.8643 16.4094 17.7853 16.2937 17.6859 16.1968L10.4932 9.00405Z" fill="#FFFFFF"/>
</svg>
