<svg width="60" height="60" viewBox="0 0 60 60" fill="none" xmlns="http://www.w3.org/2000/svg">
<path d="M18.4698 20.6949V22.6735C18.4698 23.1167 18.8298 23.476 19.2739 23.476C19.7179 23.476 20.078 23.1167 20.078 22.6735V20.9028H24.43C24.8741 20.9028 25.2341 20.5435 25.2341 20.1003C25.2341 19.6571 24.8741 19.2977 24.43 19.2977H19.2739C19.2433 19.2977 19.2185 19.273 19.2185 19.2425V14.096C19.2185 14.0655 19.2433 14.0407 19.2739 14.0407H27.064V32.1089C27.064 32.5521 27.424 32.9114 27.8681 32.9114C28.3122 32.9114 28.6722 32.5521 28.6722 32.1089V14.0406H32.2206V33.8243C32.2206 34.2675 32.5806 34.6268 33.0247 34.6268C33.4688 34.6268 33.8288 34.2675 33.8288 33.8243V20.9027H40.8149V35.5398C40.8149 35.983 41.1749 36.3423 41.619 36.3423C42.0631 36.3423 42.4231 35.983 42.4231 35.5398V20.6949C42.9349 20.4114 43.2825 19.8669 43.2825 19.2424V14.0958C43.2825 13.1803 42.5363 12.4356 41.619 12.4356H34.7485L38.7882 9.55568C39.3929 9.12456 39.7748 8.45343 39.8361 7.71435C39.8975 6.97517 39.6311 6.25054 39.1057 5.72611L37.1137 3.73777C36.5882 3.21334 35.8615 2.94711 35.1216 3.00875C34.381 3.06995 33.7085 3.4511 33.2767 4.0546L30.4465 8.00915L27.6163 4.05471C27.1844 3.45121 26.512 3.06995 25.7714 3.00886C25.0315 2.94744 24.3047 3.21334 23.7793 3.73787L21.7871 5.72622C21.2617 6.25065 20.9955 6.97528 21.0567 7.71446C21.118 8.45353 21.4999 9.12466 22.1046 9.55578L26.1444 12.4357H19.2739C18.3566 12.4357 17.6104 13.1804 17.6104 14.096V19.2425C17.6104 19.8669 17.9579 20.4114 18.4698 20.6949ZM29.5871 10.6096H31.3059C31.8103 10.6096 32.2206 11.0192 32.2206 11.5225V12.4355H28.6722V11.5225C28.6722 11.0192 29.0825 10.6096 29.5871 10.6096ZM41.6743 14.0958V19.2424C41.6743 19.2729 41.6495 19.2976 41.619 19.2976H33.8288V14.0406H41.619C41.6495 14.0406 41.6743 14.0654 41.6743 14.0958ZM34.5853 4.98768C34.7442 4.76565 34.9818 4.63093 35.2542 4.60846C35.5271 4.5862 35.7832 4.67983 35.9765 4.87276L37.9686 6.8611C38.1619 7.05403 38.2559 7.31009 38.2334 7.58199C38.2109 7.85388 38.0759 8.09101 37.8535 8.24959L33.7996 11.1395C33.6334 10.0572 32.7742 9.19957 31.6897 9.0336L34.5853 4.98768ZM22.6594 7.58199C22.6369 7.30998 22.7309 7.05403 22.9242 6.8611L24.9163 4.87276C25.1096 4.67983 25.3661 4.58609 25.6386 4.60846C25.9112 4.63093 26.1486 4.76565 26.3075 4.98768L29.2031 9.0336C28.1187 9.19946 27.2594 10.0571 27.0931 11.1394L23.0393 8.24948C22.8169 8.0909 22.6819 7.85388 22.6594 7.58199Z" fill="#161720"/>
<path d="M56.2293 44.1727H45.921L49.9608 41.2926C50.5655 40.8615 50.9475 40.1904 51.0087 39.4513C51.0699 38.7122 50.8037 37.9875 50.2782 37.4631L48.286 35.4747C47.7607 34.9504 47.0353 34.6849 46.2939 34.7457C45.5534 34.8069 44.8809 35.1881 44.449 35.7916L41.6189 39.7463L38.7887 35.7918C38.3567 35.1883 37.6843 34.807 36.9438 34.7459C36.2028 34.6852 35.4771 34.9505 34.9517 35.4749L32.9595 37.4633C32.434 37.9877 32.1678 38.7124 32.229 39.4515C32.2903 40.1906 32.6722 40.8617 33.2769 41.2929L37.3167 44.1729H27.8125V42.9968C28.3243 42.7133 28.6719 42.1688 28.6719 41.5443V36.3978C28.6719 35.4822 27.9257 34.7375 27.0084 34.7375H20.1379L24.1777 31.8576C24.7824 31.4265 25.1644 30.7553 25.2256 30.0161C25.2868 29.2771 25.0206 28.5524 24.4951 28.028L22.5029 26.0397C21.9775 25.5152 21.2511 25.2496 20.5108 25.3107C19.7703 25.3719 19.0978 25.753 18.6659 26.3565L15.8357 30.311L13.0055 26.3565C12.5736 25.753 11.9012 25.3718 11.1606 25.3107C10.4197 25.2494 9.69392 25.5152 9.16847 26.0397L7.17625 28.0279C6.6508 28.5523 6.38459 29.277 6.44581 30.016C6.50713 30.7552 6.88903 31.4264 7.4937 31.8575L11.5335 34.7374H4.66351C3.7462 34.7374 3 35.4821 3 36.3976V41.5442C3 42.1687 3.34758 42.7132 3.85942 42.9967V56.1262C3.85942 57.0417 4.60561 57.7864 5.52292 57.7864H26.1492C27.0665 57.7864 27.8127 57.0417 27.8127 56.1262V50.9244H35.6026C36.0466 50.9244 36.4067 50.5651 36.4067 50.1219C36.4067 49.6786 36.0466 49.3193 35.6026 49.3193H27.8127V45.7778H38.2366V56.1814H30.4464C30.0023 56.1814 29.6423 56.5407 29.6423 56.9839C29.6423 57.4271 30.0023 57.7864 30.4464 57.7864H55.3699C56.2872 57.7864 57.0334 57.0417 57.0334 56.1262V50.7164C57.5452 50.4329 57.8928 49.8884 57.8928 49.2639V45.8329C57.8928 44.9174 57.1465 44.1727 56.2293 44.1727ZM27.0639 36.3975V41.5441C27.0639 41.5746 27.0392 41.5993 27.0086 41.5993H19.2184V36.3423H27.0086C27.0392 36.3423 27.0639 36.367 27.0639 36.3975ZM14.9766 32.9112H16.6954C17.1999 32.9112 17.6102 33.3209 17.6102 33.8242V34.7372H14.0618V33.8242C14.0619 33.3209 14.4723 32.9112 14.9766 32.9112ZM17.6103 36.3423V56.1812H14.0619V36.3423H17.6103ZM19.975 27.2894C20.1338 27.0673 20.3714 26.9326 20.6439 26.9101C20.9161 26.8879 21.1728 26.9815 21.3661 27.1744L23.3584 29.1628C23.5517 29.3557 23.6457 29.6117 23.6232 29.8836C23.6007 30.1556 23.4657 30.3926 23.2432 30.5513L19.1894 33.4412C19.0231 32.3589 18.1639 31.5013 17.0795 31.3353L19.975 27.2894ZM8.04906 29.8836C8.02655 29.6117 8.12058 29.3557 8.31388 29.1628L10.3061 27.1744C10.4994 26.9815 10.7558 26.8875 11.0284 26.9101C11.3008 26.9326 11.5384 27.0673 11.6973 27.2894L14.5929 31.3353C13.5084 31.5011 12.6491 32.3588 12.4829 33.4411L8.42913 30.5512C8.20656 30.3926 8.07158 30.1556 8.04906 29.8836ZM5.4676 56.126V43.2044H9.81968C10.2638 43.2044 10.6238 42.8451 10.6238 42.4018C10.6238 41.9586 10.2638 41.5993 9.81968 41.5993H4.66351C4.63295 41.5993 4.60819 41.5746 4.60819 41.5441V36.3975C4.60819 36.367 4.63295 36.3423 4.66351 36.3423H12.4537V56.1812H5.52292C5.49237 56.1812 5.4676 56.1564 5.4676 56.126ZM26.2045 56.126C26.2045 56.1564 26.1798 56.1812 26.1492 56.1812H19.2184V43.2044H26.2045V56.126ZM56.2846 45.8329V49.2639C56.2846 49.2944 56.2598 49.3191 56.2293 49.3191H45.0012V45.7776H56.2292C56.2597 45.7777 56.2846 45.8024 56.2846 45.8329ZM39.8447 44.1727V43.2596C39.8447 42.7561 40.2552 42.3466 40.7595 42.3466H42.4783C42.9827 42.3466 43.393 42.7562 43.393 43.2596V44.1727H39.8447ZM45.7578 36.7248C45.9167 36.5027 46.1543 36.368 46.4267 36.3455C46.6992 36.3232 46.9557 36.4169 47.149 36.6098L49.1413 38.5982C49.3346 38.7911 49.4286 39.0472 49.4061 39.3191C49.3835 39.5911 49.2486 39.8281 49.0261 39.9867L44.9723 42.8766C44.8061 41.7943 43.9468 40.9366 42.8624 40.7707L45.7578 36.7248ZM33.8319 39.319C33.8094 39.0471 33.9035 38.791 34.0968 38.5981L36.089 36.6097C36.2823 36.4168 36.5387 36.3231 36.8113 36.3454C37.0837 36.3679 37.3213 36.5026 37.4802 36.7246L40.3758 40.7706C39.2913 40.9364 38.432 41.7941 38.2657 42.8764L34.2119 39.9864C33.9894 39.828 33.8545 39.5909 33.8319 39.319ZM39.8447 45.7777H43.3932V56.1813H39.8447V45.7777ZM55.3698 56.1812H45.0012V50.9242H55.4251V56.126C55.4252 56.1564 55.4003 56.1812 55.3698 56.1812Z" fill="#161720"/>
</svg>
