<svg width="16" height="8" viewBox="0 0 16 8" fill="none" xmlns="http://www.w3.org/2000/svg">
<path d="M15.276 3.117H2.93911L4.65739 1.5093C4.79647 1.37319 4.88674 1.1799 4.91002 0.968348C4.9333 0.756792 4.88788 0.542671 4.78288 0.369085C4.72888 0.275349 4.65944 0.19543 4.57871 0.1341C4.49798 0.0727703 4.40761 0.0312882 4.313 0.0121313C4.21839 -0.00702552 4.12148 -0.00346418 4.02807 0.0226026C3.93465 0.0486695 3.84664 0.0967071 3.76929 0.163846L0.352025 3.29943C0.308779 3.33116 0.266897 3.36541 0.226532 3.40205C0.155647 3.4716 0.0986015 3.55874 0.0594494 3.65727C0.0202973 3.7558 0 3.86331 0 3.97216C0 4.081 0.0202973 4.18851 0.0594494 4.28705C0.0986015 4.38558 0.155647 4.47271 0.226532 4.54226C0.265908 4.59449 0.307809 4.64398 0.352025 4.69049L3.76929 7.78047C3.84316 7.859 3.92992 7.91872 4.02418 7.95592C4.11843 7.99312 4.21817 8.007 4.31716 7.9967C4.41616 7.9864 4.5123 7.95213 4.5996 7.89604C4.6869 7.83994 4.76348 7.76322 4.82459 7.67065C4.88569 7.57808 4.93001 7.47163 4.95478 7.35795C4.97954 7.24427 4.98423 7.12579 4.96855 7.00987C4.95286 6.89396 4.91714 6.7831 4.86361 6.6842C4.81008 6.5853 4.73988 6.50048 4.65739 6.43502L2.93911 4.82732H15.276C15.468 4.82732 15.6522 4.73722 15.7879 4.57685C15.9237 4.41647 16 4.19896 16 3.97216C16 3.74536 15.9237 3.52784 15.7879 3.36747C15.6522 3.20709 15.468 3.117 15.276 3.117Z" fill="#161720"/>
</svg>
