<svg width="16" height="8" viewBox="0 0 16 8" fill="none" xmlns="http://www.w3.org/2000/svg">
<path d="M0.723996 4.883L13.0609 4.883L11.3426 6.4907C11.2035 6.62681 11.1133 6.8201 11.09 7.03165C11.0667 7.24321 11.1121 7.45733 11.2171 7.63092C11.2711 7.72465 11.3406 7.80457 11.4213 7.8659C11.502 7.92723 11.5924 7.96871 11.687 7.98787C11.7816 8.00703 11.8785 8.00346 11.9719 7.9774C12.0654 7.95133 12.1534 7.90329 12.2307 7.83615L15.648 4.70057C15.6912 4.66884 15.7331 4.63459 15.7735 4.59795C15.8444 4.5284 15.9014 4.44126 15.9406 4.34273C15.9797 4.2442 16 4.13669 16 4.02784C16 3.919 15.9797 3.81149 15.9406 3.71295C15.9014 3.61442 15.8444 3.52729 15.7735 3.45774C15.7341 3.40551 15.6922 3.35602 15.648 3.30951L12.2307 0.219532C12.1568 0.141005 12.0701 0.0812812 11.9758 0.0440803C11.8816 0.00687933 11.7818 -0.00700188 11.6828 0.00329971C11.5838 0.0136018 11.4877 0.0478668 11.4004 0.103961C11.3131 0.160056 11.2365 0.236779 11.1754 0.329351C11.1143 0.421925 11.07 0.528366 11.0452 0.642046C11.0205 0.755727 11.0158 0.874213 11.0315 0.990126C11.0471 1.10604 11.0829 1.2169 11.1364 1.3158C11.1899 1.4147 11.2601 1.49952 11.3426 1.56498L13.0609 3.17268L0.723996 3.17268C0.531981 3.17268 0.34783 3.26278 0.212054 3.42315C0.0762787 3.58353 0 3.80104 0 4.02784C0 4.25464 0.0762787 4.47216 0.212054 4.63253C0.34783 4.79291 0.531981 4.883 0.723996 4.883Z" fill="#161720"/>
</svg>
