<svg width="60" height="60" viewBox="0 0 60 60" fill="none" xmlns="http://www.w3.org/2000/svg">
<path d="M23.0668 1.00045C25.2515 1.02801 27.2505 2.23574 28.2907 4.15718L31.3188 9.76018L34.3432 4.16209C35.3712 2.26657 37.3349 1.06612 39.4907 1.01539C41.6464 0.964669 43.6645 2.07144 44.7805 3.9165C45.948 5.82011 45.9594 8.21519 44.81 10.1298L44.2132 11.1477H51.3978C53.7554 11.1525 55.6651 13.0632 55.6685 15.4209V21.9129C55.6644 22.4497 55.2303 22.8839 54.6935 22.8879H52.3678V31.5153L53.2691 31.196C55.0424 30.5699 57.0166 31.1763 58.1326 32.6899C59.2486 34.2035 59.2443 36.2688 58.1218 37.7776C57.9892 37.9397 55.957 40.4287 47.2228 51.1116L46.7894 51.6556L46.7734 51.6765C44.7128 54.3928 41.5026 55.9917 38.0932 56H23.3582C19.9885 55.9973 16.6339 55.5497 13.3813 54.6689L12.6691 54.4737L12.5328 55.1994C12.4496 55.663 12.0461 56 11.575 56H4.97497C4.43818 55.996 4.00401 55.5618 4 55.025V35.2236C4.00401 34.6868 4.43818 34.2526 4.97497 34.2486H10.6001V22.8879H8.27439C7.73641 22.8872 7.30065 22.4509 7.30065 21.9129V15.4209C7.30336 13.062 9.21493 11.1504 11.5738 11.1477H18.4232L17.8276 10.1298C16.7021 8.25704 16.6785 5.92171 17.7661 4.02666C18.8537 2.1316 20.882 0.973821 23.0668 1.00045ZM56.1821 33.4343C55.2406 32.6527 53.8544 32.7344 53.0112 33.6211L52.9928 33.6408L52.9732 33.6629L42.3111 44.7473C41.5021 45.6082 40.3736 46.097 39.1922 46.098H26.3445C26.0671 46.0971 25.803 45.9789 25.6175 45.7726C25.4287 45.5658 25.3391 45.287 25.372 45.0089C25.4458 44.5091 25.8786 44.1414 26.3838 44.1493H38.0846C39.3691 44.1371 40.4004 43.086 40.3882 41.8015C40.376 40.5171 39.3249 39.4858 38.0404 39.498H30.4617C28.7566 39.4985 27.1098 38.8773 25.83 37.7506C22.4241 34.7643 17.3324 34.7643 13.9265 37.7506L12.5476 38.965V52.4132L13.0387 52.552C16.779 53.6019 19.8623 54.0501 23.3533 54.0501H38.1951C40.942 54.0501 43.5071 52.7472 45.2373 50.4756C45.2434 50.4658 45.2508 50.4572 45.2581 50.4473L56.555 36.6222L56.582 36.5853C57.2984 35.5933 57.1236 34.2159 56.1821 33.4343ZM10.6001 36.1985H5.94994V54.0501H10.6001V36.1985ZM50.4228 22.8879H35.7614V37.5493H38.0895C39.9805 37.5568 41.6443 38.7995 42.1883 40.6105L42.5162 41.723L50.4228 33.502V22.8879ZM33.8127 13.0989H29.1613V37.4117L29.7397 37.4952C29.9796 37.5298 30.2217 37.5474 30.4642 37.548H33.8139L33.8127 13.0989ZM27.2077 22.8805H12.5512V36.2649L13.6073 35.5281C17.3813 32.9233 22.3727 32.9233 26.1468 35.5281L27.2077 36.2649V22.8805ZM51.3978 13.0964H35.7614V20.9367H53.7247L53.7234 15.4221C53.7194 14.1394 52.6805 13.1005 51.3978 13.0964ZM27.2077 13.0964H11.575C10.2923 13.1005 9.25341 14.1394 9.24936 15.4221V20.9367H27.2126L27.2077 13.0964ZM26.5581 5.08671C25.4816 3.11055 23.0068 2.38129 21.0307 3.45787C19.0545 4.53446 18.3252 7.0092 19.4018 8.98536C20.0958 10.3214 21.4794 11.1564 22.9849 11.1478H29.8305L26.5581 5.08671ZM41.5627 3.4591C39.5862 2.38354 37.112 3.11389 36.0365 5.09039L32.764 11.1477H39.6097C41.116 11.158 42.5007 10.3226 43.194 8.98536C44.2696 7.00886 43.5392 4.53467 41.5627 3.4591Z" fill="#383838"/>
</svg>
