<svg width="57" height="56" viewBox="0 0 57 56" fill="none" xmlns="http://www.w3.org/2000/svg">
<path d="M23.8685 7.66483V1.23484C23.8685 0.90734 23.9986 0.593254 24.2302 0.361676C24.4618 0.130099 24.7759 0 25.1034 0C25.4309 0 25.7449 0.130099 25.9765 0.361676C26.2081 0.593254 26.3382 0.90734 26.3382 1.23484V7.66483C26.3382 7.99233 26.2081 8.30641 25.9765 8.53799C25.7449 8.76957 25.4309 8.89967 25.1034 8.89967C24.7759 8.89967 24.4618 8.76957 24.2302 8.53799C23.9986 8.30641 23.8685 7.99233 23.8685 7.66483ZM31.1276 14.6064C31.1276 14.9339 31.2577 15.248 31.4893 15.4796C31.7209 15.7111 32.035 15.8412 32.3625 15.8412H38.7924C39.1199 15.8412 39.434 15.7111 39.6656 15.4796C39.8972 15.248 40.0273 14.9339 40.0273 14.6064C40.0273 14.2789 39.8972 13.9648 39.6656 13.7332C39.434 13.5017 39.1199 13.3716 38.7924 13.3716H32.3625C32.2003 13.3716 32.0397 13.4035 31.8899 13.4655C31.7401 13.5276 31.604 13.6186 31.4893 13.7332C31.3746 13.8479 31.2837 13.984 31.2216 14.1338C31.1596 14.2837 31.1276 14.4442 31.1276 14.6064ZM29.8575 11.1665C30.0215 11.1702 30.1845 11.14 30.3363 11.0778C30.4881 11.0156 30.6253 10.9226 30.7395 10.8048L35.2732 6.2624C35.3916 6.14806 35.4858 6.01103 35.5501 5.85949C35.6145 5.70795 35.6476 5.545 35.6476 5.38037C35.6476 5.21574 35.6145 5.0528 35.5501 4.90126C35.4858 4.74972 35.3916 4.61269 35.2732 4.49835C35.1576 4.38207 35.0201 4.2898 34.8688 4.22683C34.7174 4.16387 34.5551 4.13145 34.3911 4.13145C34.2272 4.13145 34.0648 4.16387 33.9135 4.22683C33.7621 4.2898 33.6247 4.38207 33.5091 4.49835L28.9666 9.04079C28.7354 9.27617 28.6055 9.59282 28.605 9.92282C28.605 10.2503 28.7351 10.5644 28.9667 10.796C29.1983 11.0276 29.5124 11.1577 29.8399 11.1577L29.8575 11.1665ZM45.734 28.3043V43.925C45.7317 47.1283 44.4575 50.1996 42.1916 52.4639C39.9257 54.7281 36.8535 56 33.6502 56C31.761 56.0068 29.8892 55.6384 28.1434 54.9161C26.3977 54.1939 24.8127 53.1322 23.4804 51.7927L11.6171 39.9118C11.1091 39.4012 10.7634 38.7517 10.6236 38.0451C10.4838 37.3384 10.556 36.6063 10.8313 35.9406C11.1067 35.275 11.5727 34.7056 12.1708 34.3042C12.7689 33.9028 13.4724 33.6872 14.1927 33.6847C15.0679 33.6844 15.9313 33.8866 16.7153 34.2756L21.5752 36.71V15.4355C21.6223 14.4578 22.0439 13.5357 22.7525 12.8604C23.4611 12.1851 24.4024 11.8084 25.3812 11.8084C26.36 11.8084 27.3013 12.1851 28.0099 12.8604C28.7185 13.5357 29.1401 14.4578 29.1872 15.4355V21.2216C29.6609 20.9774 30.1806 20.8353 30.7126 20.8045C31.2447 20.7737 31.7773 20.8549 32.276 21.0427C32.7748 21.2306 33.2286 21.521 33.6081 21.8952C33.9876 22.2693 34.2844 22.719 34.4793 23.215C35.0722 22.8469 35.7572 22.6543 36.4551 22.6593C37.2138 22.6632 37.9543 22.8925 38.5825 23.3181C39.2107 23.7437 39.6982 24.3464 39.9832 25.0496C40.5601 24.6987 41.2201 24.5077 41.8953 24.4964C42.5705 24.4851 43.2365 24.6538 43.8248 24.9853C44.4132 25.3167 44.9026 25.7989 45.2428 26.3823C45.583 26.9656 45.7617 27.629 45.7605 28.3043H45.734ZM43.6348 28.3043C43.6037 27.8728 43.4105 27.4692 43.0938 27.1745C42.7771 26.8798 42.3606 26.7159 41.9281 26.7159C41.4955 26.7159 41.079 26.8798 40.7623 27.1745C40.4457 27.4692 40.2524 27.8728 40.2213 28.3043V32.8997C40.2213 33.178 40.1108 33.445 39.9139 33.6419C39.7171 33.8387 39.4501 33.9493 39.1717 33.9493C38.8933 33.9493 38.6264 33.8387 38.4295 33.6419C38.2327 33.445 38.1221 33.178 38.1221 32.8997V26.4609C38.0911 26.0294 37.8978 25.6257 37.5811 25.331C37.2645 25.0363 36.8479 24.8725 36.4154 24.8725C35.9828 24.8725 35.5663 25.0363 35.2496 25.331C34.933 25.6257 34.7397 26.0294 34.7087 26.4609V32.8997C34.7087 33.178 34.5981 33.445 34.4012 33.6419C34.2044 33.8387 33.9374 33.9493 33.659 33.9493C33.3807 33.9493 33.1137 33.8387 32.9169 33.6419C32.72 33.445 32.6094 33.178 32.6094 32.8997V24.6262C32.5784 24.1948 32.3851 23.7911 32.0684 23.4964C31.7518 23.2017 31.3353 23.0379 30.9027 23.0379C30.4701 23.0379 30.0536 23.2017 29.737 23.4964C29.4203 23.7911 29.227 24.1948 29.196 24.6262V32.8997C29.196 33.178 29.0854 33.445 28.8885 33.6419C28.6917 33.8387 28.4247 33.9493 28.1464 33.9493C27.868 33.9493 27.601 33.8387 27.4042 33.6419C27.2073 33.445 27.0967 33.178 27.0967 32.8997V15.4355C27.0657 15.004 26.8724 14.6004 26.5558 14.3057C26.2391 14.011 25.8226 13.8471 25.39 13.8471C24.9575 13.8471 24.5409 14.011 24.2243 14.3057C23.9076 14.6004 23.7143 15.004 23.6833 15.4355V38.4123C23.6849 38.5916 23.6403 38.7682 23.5536 38.9251C23.4669 39.082 23.3412 39.2139 23.1886 39.3079C23.036 39.402 22.8617 39.455 22.6826 39.4619C22.5035 39.4688 22.3256 39.4293 22.1662 39.3473L15.7715 36.1632C15.2819 35.9157 14.7413 35.7859 14.1927 35.7839C13.7833 35.7839 13.3907 35.9465 13.1012 36.236C12.8117 36.5255 12.6491 36.9181 12.6491 37.3274C12.6487 37.5311 12.6891 37.7328 12.7678 37.9207C12.8466 38.1085 12.9622 38.2787 13.1078 38.4212L24.9887 50.2756C26.1222 51.4185 27.4718 52.3244 28.9588 52.9407C30.4458 53.557 32.0406 53.8714 33.6502 53.8655C36.2891 53.8632 38.8198 52.8163 40.6891 50.9536C42.5584 49.0909 43.6143 46.5639 43.626 43.925L43.6348 28.3043ZM19.2555 10.5843C19.4894 10.8183 19.8067 10.9497 20.1375 10.9497C20.4684 10.9497 20.7856 10.8183 21.0196 10.5843C21.2535 10.3504 21.3849 10.0331 21.3849 9.70231C21.3849 9.37149 21.2535 9.05421 21.0196 8.82029L16.4242 4.26902C16.3099 4.15058 16.1728 4.05638 16.0213 3.99205C15.8697 3.92771 15.7068 3.89456 15.5422 3.89456C15.3775 3.89456 15.2146 3.92771 15.0631 3.99205C14.9115 4.05638 14.7745 4.15058 14.6601 4.26902C14.5439 4.3846 14.4516 4.52203 14.3886 4.6734C14.3257 4.82477 14.2932 4.9871 14.2932 5.15105C14.2932 5.31499 14.3257 5.47732 14.3886 5.62869C14.4516 5.78007 14.5439 5.9175 14.6601 6.03308L19.2555 10.5843ZM11.4848 15.8765H17.9148C18.2423 15.8765 18.5564 15.7464 18.788 15.5148C19.0196 15.2833 19.1497 14.9692 19.1497 14.6417C19.1497 14.3142 19.0196 14.0001 18.788 13.7685C18.5564 13.5369 18.2423 13.4068 17.9148 13.4068H11.4848C11.1573 13.4068 10.8433 13.5369 10.6117 13.7685C10.3801 14.0001 10.25 14.3142 10.25 14.6417C10.25 14.9692 10.3801 15.2833 10.6117 15.5148C10.8433 15.7464 11.1573 15.8765 11.4848 15.8765Z" fill="#00A99C"/>
</svg>
