<svg width="57" height="56" viewBox="0 0 57 56" fill="none" xmlns="http://www.w3.org/2000/svg">
<path d="M51.94 25.05L51.43 17.46C51.5489 17.371 51.6466 17.2566 51.7157 17.1251C51.7849 16.9937 51.824 16.8484 51.83 16.7V15.38C51.8301 14.6918 51.5935 14.0245 51.16 13.49V13.38H51.08C50.7939 13.0468 50.4396 12.7789 50.0411 12.5943C49.6426 12.4097 49.2092 12.3127 48.77 12.31H42.25C42.1351 11.6637 41.7968 11.0782 41.2941 10.656C40.7915 10.2338 40.1565 10.0016 39.5 10H10.87C10.1291 10.0053 9.42055 10.304 8.89949 10.8307C8.37842 11.3574 8.08734 12.0691 8.09 12.81V13.38V23.38H5.87C5.60478 23.38 5.35043 23.4854 5.16289 23.6729C4.97536 23.8604 4.87 24.1148 4.87 24.38C4.87 24.6452 4.97536 24.8996 5.16289 25.0871C5.35043 25.2746 5.60478 25.38 5.87 25.38H17.38C17.6452 25.38 17.8996 25.2746 18.0871 25.0871C18.2746 24.8996 18.38 24.6452 18.38 24.38C18.38 24.1148 18.2746 23.8604 18.0871 23.6729C17.8996 23.4854 17.6452 23.38 17.38 23.38H10.09V17.67V12.81C10.0873 12.7054 10.1055 12.6014 10.1434 12.5038C10.1813 12.4063 10.2381 12.3173 10.3107 12.242C10.3833 12.1666 10.4701 12.1064 10.5661 12.0649C10.6621 12.0233 10.7654 12.0013 10.87 12H39.5C39.6046 12.0013 39.7079 12.0233 39.8039 12.0649C39.8999 12.1064 39.9867 12.1666 40.0593 12.242C40.1319 12.3173 40.1887 12.4063 40.2266 12.5038C40.2645 12.6014 40.2827 12.7054 40.28 12.81V13.38V37.83H23.75C23.3645 36.7809 22.6664 35.8754 21.7499 35.2357C20.8334 34.5961 19.7427 34.2531 18.625 34.2531C17.5073 34.2531 16.4166 34.5961 15.5001 35.2357C14.5836 35.8754 13.8855 36.7809 13.5 37.83H10.87C10.7641 37.8274 10.6597 37.8038 10.563 37.7606C10.4662 37.7173 10.379 37.6553 10.3065 37.5781C10.2339 37.5009 10.1774 37.41 10.1402 37.3108C10.1031 37.2115 10.086 37.1059 10.09 37V34.63H12.09C12.3552 34.63 12.6096 34.5246 12.7971 34.3371C12.9846 34.1496 13.09 33.8952 13.09 33.63C13.09 33.3648 12.9846 33.1104 12.7971 32.9229C12.6096 32.7354 12.3552 32.63 12.09 32.63H4.52C4.25478 32.63 4.00043 32.7354 3.81289 32.9229C3.62536 33.1104 3.52 33.3648 3.52 33.63C3.52 33.8952 3.62536 34.1496 3.81289 34.3371C4.00043 34.5246 4.25478 34.63 4.52 34.63H8.09V37C8.08734 37.7409 8.37842 38.4526 8.89949 38.9793C9.42055 39.506 10.1291 39.8047 10.87 39.81H13.13C13.13 41.2687 13.7095 42.6676 14.7409 43.6991C15.7724 44.7305 17.1713 45.31 18.63 45.31C20.0887 45.31 21.4876 44.7305 22.5191 43.6991C23.5505 42.6676 24.13 41.2687 24.13 39.81H41.65C41.65 41.2687 42.2295 42.6676 43.2609 43.6991C44.2924 44.7305 45.6913 45.31 47.15 45.31C48.6087 45.31 50.0076 44.7305 51.0391 43.6991C52.0705 42.6676 52.65 41.2687 52.65 39.81H55.25C55.5152 39.81 55.7696 39.7046 55.9571 39.5171C56.1446 39.3296 56.25 39.0752 56.25 38.81V29.55C56.2461 28.3902 55.7966 27.2763 54.9943 26.4387C54.1921 25.6011 53.0986 25.1039 51.94 25.05ZM18.63 43.41C17.9183 43.4259 17.2181 43.2293 16.6187 42.8453C16.0193 42.4612 15.548 41.9072 15.265 41.254C14.9821 40.6009 14.9002 39.8781 15.03 39.1782C15.1598 38.4783 15.4953 37.833 15.9936 37.3246C16.492 36.8163 17.1306 36.4681 17.8278 36.3245C18.525 36.1809 19.2492 36.2484 19.9078 36.5184C20.5665 36.7884 21.1297 37.2486 21.5255 37.8403C21.9214 38.4319 22.1318 39.1282 22.13 39.84C22.138 40.7772 21.774 41.6793 21.1179 42.3485C20.4618 43.0177 19.5671 43.3994 18.63 43.41ZM42.49 14.31H48.76C48.8973 14.3105 49.0331 14.3377 49.16 14.39L49.25 15.7H42.49V14.31ZM42.25 17.67H49.35L49.85 25.02H42.25V17.67ZM47.15 43.41C46.4383 43.4259 45.7381 43.2293 45.1387 42.8453C44.5393 42.4612 44.068 41.9072 43.785 41.254C43.5021 40.6009 43.4202 39.8781 43.55 39.1782C43.6798 38.4783 44.0153 37.833 44.5136 37.3246C45.012 36.8163 45.6505 36.4681 46.3478 36.3245C47.045 36.1809 47.7692 36.2484 48.4278 36.5184C49.0865 36.7884 49.6497 37.2486 50.0455 37.8403C50.4414 38.4319 50.6518 39.1282 50.65 39.84C50.658 40.7772 50.2941 41.6793 49.6379 42.3485C48.9818 43.0177 48.0871 43.3994 47.15 43.41ZM54.25 37.83H52.25C51.8859 36.828 51.236 35.9548 50.3807 35.3185C49.5253 34.6822 48.5021 34.3107 47.4378 34.2501C46.3735 34.1894 45.3147 34.4422 44.3926 34.9772C43.4705 35.5122 42.7256 36.3059 42.25 37.26V27H51.69C52.2259 27.0028 52.7472 27.1757 53.1785 27.4938C53.6098 27.8119 53.929 28.2588 54.09 28.77H51.09C50.8248 28.77 50.5704 28.8754 50.3829 29.0629C50.1954 29.2504 50.09 29.5048 50.09 29.77V30.77C50.0873 31.5294 50.3858 32.259 50.92 32.7988C51.4542 33.3386 52.1806 33.6447 52.94 33.65H54.25V37.83ZM54.25 31.69H53C52.8862 31.6887 52.7738 31.6648 52.6693 31.6198C52.5648 31.5747 52.4703 31.5094 52.3912 31.4275C52.3121 31.3457 52.2501 31.2489 52.2087 31.1429C52.1673 31.0369 52.1473 30.9238 52.15 30.81H54.25V31.69ZM12.76 30.07H1.25C0.984784 30.07 0.73043 29.9646 0.542893 29.7771C0.355357 29.5896 0.25 29.3352 0.25 29.07C0.25 28.8048 0.355357 28.5504 0.542893 28.3629C0.73043 28.1754 0.984784 28.07 1.25 28.07H12.76C13.0252 28.07 13.2796 28.1754 13.4671 28.3629C13.6546 28.5504 13.76 28.8048 13.76 29.07C13.76 29.3352 13.6546 29.5896 13.4671 29.7771C13.2796 29.9646 13.0252 30.07 12.76 30.07Z" fill="#0797FF"/>
</svg>
