<svg width="57" height="56" viewBox="0 0 57 56" fill="none" xmlns="http://www.w3.org/2000/svg">
<path d="M54.1751 37.4316V27.4241C54.171 26.4803 53.8676 25.5622 53.3085 24.8019C52.7495 24.0416 51.9636 23.4782 51.064 23.1929V22.2699C51.0744 10.5409 40.9839 1 28.5185 1C16.0531 1 6.0145 10.5409 6.0145 22.2699V23.027C4.96653 23.1923 4.01183 23.7258 3.32185 24.5317C2.63188 25.3376 2.25185 26.3631 2.25 27.4241V37.4316C2.25227 38.4432 2.59684 39.4243 3.22765 40.2151C3.85845 41.006 4.73834 41.5601 5.72412 41.7872C5.8821 44.0347 5.18163 46.2584 3.76409 48.0095C3.40716 48.4086 3.17357 48.9026 3.09162 49.4316C3.00966 49.9607 3.08286 50.5022 3.30234 50.9906C3.52182 51.4789 3.87817 51.8932 4.32824 52.1831C4.77831 52.4731 5.3028 52.6264 5.8382 52.6244H19.5791C19.6481 52.6303 19.7175 52.6303 19.7865 52.6244C22.4336 54.1799 25.4482 55 28.5185 55C31.5888 55 34.6034 54.1799 37.2505 52.6244H50.8773C51.4147 52.631 51.9423 52.4805 52.3952 52.1913C52.8482 51.9022 53.2069 51.4871 53.4272 50.9969C53.6475 50.5067 53.7198 49.9629 53.6353 49.4322C53.5508 48.9015 53.3131 48.407 52.9514 48.0095C51.5306 46.2239 50.8312 43.9702 50.9914 41.6939C51.9087 41.4183 52.7133 40.8554 53.2865 40.088C53.8597 39.3206 54.1712 38.3894 54.1751 37.4316ZM52.101 27.4241V37.4316C52.101 38.067 51.8486 38.6763 51.3994 39.1255C50.9501 39.5748 50.3408 39.8272 49.7055 39.8272H45.9098V25.0285H49.7055C50.34 25.0312 50.9477 25.2845 51.3964 25.7331C51.845 26.1818 52.0983 26.7895 52.101 27.4241ZM11.7494 41.9428C11.9832 42.9074 12.3061 43.8482 12.7138 44.7532C11.7936 44.0623 11.1501 43.0658 10.899 41.9428H11.7494ZM43.8357 26.8641C41.9009 26.4164 40.1206 25.4605 38.6786 24.0951C37.2366 22.7296 36.1851 21.0041 35.6327 19.0965C35.5842 18.9035 35.4811 18.7285 35.3358 18.5924C35.1906 18.4563 35.0092 18.3649 34.8134 18.3291C34.617 18.2943 34.4146 18.3168 34.2307 18.3941C34.0468 18.4713 33.889 18.6 33.7763 18.7647C33.7141 18.858 27.2222 28.2226 13.6057 27.5692C13.4991 27.5535 13.3908 27.5535 13.2842 27.5692V23.5144C13.388 19.5305 15.0435 15.7447 17.8979 12.9637C20.7523 10.1827 24.58 8.62636 28.5652 8.62636C32.5504 8.62636 36.378 10.1827 39.2324 12.9637C42.0868 15.7447 43.7423 19.5305 43.8461 23.5144L43.8357 26.8641ZM28.5704 3.0741C39.8431 3.0741 49.0003 11.6816 49.0003 22.2699V22.9544H45.8891C45.7785 18.4332 43.9047 14.1343 40.6679 10.9758C37.4311 7.81718 33.0877 6.04914 28.5652 6.04914C24.0426 6.04914 19.6992 7.81718 16.4624 10.9758C13.2256 14.1343 11.3519 18.4332 11.2412 22.9544H8.13008V22.2699C8.0886 11.6816 17.2561 3.0741 28.5704 3.0741ZM4.3241 37.4316V27.4241C4.32683 26.7895 4.5801 26.1818 5.02877 25.7331C5.47744 25.2845 6.08518 25.0312 6.71969 25.0285H10.5464V39.8272H6.71969C6.08434 39.8272 5.47501 39.5748 5.02575 39.1255C4.57649 38.6763 4.3241 38.067 4.3241 37.4316ZM5.82783 50.5918C5.69211 50.5916 5.5595 50.5511 5.44686 50.4754C5.33422 50.3997 5.24663 50.2922 5.19522 50.1666C5.13646 50.0494 5.11491 49.9171 5.13344 49.7874C5.15198 49.6576 5.20972 49.5367 5.29893 49.4407C7.05078 47.3309 7.94646 44.6401 7.80859 41.9013H8.79379C9.01823 43.3244 9.67823 44.643 10.683 45.6756C11.6877 46.7082 12.9878 47.404 14.4042 47.6673C15.1655 48.7255 16.0382 49.699 17.0072 50.571L5.82783 50.5918ZM17.1524 47.8021H22.4621C22.679 48.4157 23.0828 48.9458 23.6167 49.3179C24.1506 49.6899 24.7878 49.8852 25.4385 49.8762H30.9037C31.7426 49.8762 32.5471 49.543 33.1403 48.9498C33.7335 48.3566 34.0667 47.5521 34.0667 46.7132C34.0667 45.8743 33.7335 45.0698 33.1403 44.4766C32.5471 43.8834 31.7426 43.5502 30.9037 43.5502H25.4385C24.7814 43.5449 24.1396 43.7477 23.6049 44.1296C23.0702 44.5115 22.6702 45.0529 22.4621 45.6762H15.5968C14.0801 43.2659 13.2749 40.4764 13.2739 37.6286V29.5396C13.3481 29.5665 13.4244 29.5873 13.502 29.6019H14.9539C18.5831 29.6691 22.1852 28.9641 25.5214 27.5338C28.8576 26.1035 31.8517 23.9805 34.3052 21.3055C35.1449 23.2687 36.4525 24.9964 38.1138 26.3378C39.7752 27.6791 41.7397 28.5933 43.8357 29.0004V37.6909C43.8412 40.7901 42.9026 43.8175 41.1448 46.3701C39.387 48.9227 36.8934 50.8793 33.996 51.9795C31.0986 53.0796 27.9348 53.2712 24.9258 52.5287C21.9168 51.7861 19.2054 50.1447 17.1524 47.8229V47.8021ZM24.3392 46.7651C24.3419 46.4753 24.4589 46.1984 24.6648 45.9945C24.8707 45.7905 25.1487 45.6761 25.4385 45.6762H30.9037C31.1925 45.6762 31.4695 45.7909 31.6737 45.9951C31.8779 46.1993 31.9926 46.4763 31.9926 46.7651C31.9926 47.0539 31.8779 47.3308 31.6737 47.535C31.4695 47.7392 31.1925 47.854 30.9037 47.854H25.4385C25.1487 47.854 24.8707 47.7396 24.6648 47.5357C24.4589 47.3318 24.3419 47.0548 24.3392 46.7651ZM51.4062 49.4407C51.4946 49.537 51.5526 49.6572 51.5729 49.7864C51.5932 49.9155 51.5749 50.0478 51.5203 50.1666C51.4682 50.2938 51.379 50.4025 51.2644 50.4783C51.1497 50.5541 51.0148 50.5937 50.8773 50.5918H40.1024C42.6865 48.2857 44.5213 45.259 45.3706 41.9013H48.9173C48.7736 44.6374 49.6618 47.3278 51.4062 49.4407Z" fill="#B4278C"/>
</svg>
