<svg width="60" height="60" viewBox="0 0 60 60" fill="none" xmlns="http://www.w3.org/2000/svg">
<path d="M33.0479 2.00167C35.2149 1.95088 37.2434 3.06366 38.365 4.91852C39.5398 6.83102 39.5512 9.23871 38.3945 11.1622L37.8634 12.0682H44.8809C47.2635 12.0707 49.1943 14.0015 49.1967 16.3841V22.8322C49.1961 23.4053 48.7316 23.8698 48.1585 23.8704H45.918V26.9426C45.2467 26.7112 44.5492 26.5644 43.8415 26.5054V23.8704H29.4153V44.6213H27.3388V14.1437H22.8579V44.6213H20.7814V23.8704H6.35519V44.6213H4.27869V23.8693H2.03825C1.46509 23.8687 1.0006 23.4042 1 22.8311V16.383C1.00241 14.0004 2.93327 12.0696 5.31585 12.0672H11.9967L11.4656 11.1611C10.3544 9.27973 10.343 6.94565 11.4356 5.05344C12.5283 3.16123 14.5555 2.00436 16.7404 2.02622C18.9253 2.04808 20.929 3.24526 21.9836 5.15896L24.9344 10.6114L27.8732 5.16442C28.9067 3.25905 30.8809 2.05246 33.0479 2.00167ZM44.8798 14.1437H29.4153V21.7939H47.1202V16.3841C47.119 15.1472 46.1166 14.1449 44.8798 14.1437ZM20.7814 14.1437H5.31694C4.08026 14.1443 3.07771 15.1463 3.0765 16.383V21.7939H20.7814V14.1437ZM35.0743 4.55786C33.1443 3.50792 30.7286 4.22133 29.6787 6.15131L26.4842 12.0672H33.1705C34.6407 12.0752 35.9914 11.2588 36.6678 9.95349C37.7177 8.02351 37.0043 5.60781 35.0743 4.55786ZM20.1399 6.15131C19.065 4.27256 16.6853 3.59799 14.7843 4.6332C12.8834 5.6684 12.159 8.03345 13.1541 9.95568C13.8305 11.2607 15.1815 12.0764 16.6514 12.0672H23.3377L20.1399 6.15131Z" fill="#161720"/>
<path d="M47.5431 27.7656C43.6623 25.5274 38.8828 25.5274 35.0021 27.7656C33.1254 28.8643 31.5625 30.4268 30.4633 32.3033C28.2251 36.1844 28.2251 40.9642 30.4633 44.8454C31.5625 46.7218 33.1254 48.2843 35.0021 49.3831C38.2387 51.263 42.1502 51.5842 45.6502 50.2574C47.0324 49.7272 48.3139 48.9647 49.4393 48.0027L50.1158 47.4224L50.6961 46.7459C51.6582 45.6207 52.4207 44.3392 52.9507 42.9568C54.2784 39.4566 53.9572 35.5444 52.0764 32.3076C50.9793 30.4303 49.4183 28.8663 47.5431 27.7656ZM50.4589 43.8814C49.5295 45.4928 48.1916 46.8307 46.5802 47.7601C43.2973 49.6618 39.2479 49.6618 35.9649 47.7601C34.3536 46.8309 33.0161 45.493 32.0873 43.8814C30.1843 40.5993 30.1843 36.5494 32.0873 33.2672C33.0161 31.6556 34.3536 30.3177 35.9649 29.3885C39.2479 27.4869 43.2973 27.4869 46.5802 29.3885C48.1916 30.318 49.5295 31.6558 50.4589 33.2672C52.3606 36.5497 52.3606 40.5989 50.4589 43.8814Z" fill="#161720"/>
<path d="M58.3211 57.0038L58.3298 56.9951L59.7331 55.653C59.7697 55.5952 59.7883 55.5279 59.7867 55.4596C59.7898 55.425 59.7822 55.3902 59.7648 55.3601L52.1069 47.7022C52.0766 47.6843 52.0413 47.6767 52.0063 47.6803H50.3779V49.3088C50.3839 49.3566 50.4028 49.402 50.4326 49.4399L58.0829 57.0312L58.108 57.0651C58.1133 57.0731 58.1199 57.0801 58.1277 57.0858C58.1367 57.087 58.1459 57.087 58.155 57.0858C58.1856 57.088 58.2369 57.088 58.3211 57.0038Z" fill="#161720"/>
<path d="M32.2263 44.5261H4.27002V46.4933H32.811C32.5437 45.8613 32.3476 45.2015 32.2263 44.5261Z" fill="#161720"/>
</svg>
