<svg width="60" height="60" viewBox="0 0 60 60" fill="none" xmlns="http://www.w3.org/2000/svg">
<g clip-path="url(#clip0)">
<path d="M38.2495 47V39.8281H36.6143V39.0146H38.2495V38.1929H36.6143V37.3711H38.2495V34.7148H41.4204C42.7707 34.7148 43.7585 34.9168 44.3838 35.3208C45.0091 35.7192 45.3937 36.4027 45.5376 37.3711H46.4092V38.1929H45.5874V38.2925L45.5293 38.9067L45.5127 39.0146H46.4092V39.8281H45.3052L45.2637 39.936C44.7601 40.8768 44.1735 41.5132 43.5039 41.8452C42.6296 42.2713 41.6556 42.4844 40.582 42.4844L39.8765 42.4927V47H38.2495ZM39.8765 39.0146H43.8608C43.9217 38.749 43.9521 38.4751 43.9521 38.1929H39.8765V39.0146ZM39.8765 37.3711H43.8359C43.6865 36.8675 43.4071 36.5216 42.9976 36.3335C42.5936 36.1398 41.9378 36.043 41.0303 36.043H39.8765V37.3711ZM39.8765 41.1646H40.6401C42.0513 41.1646 43.0225 40.7191 43.5537 39.8281H39.8765V41.1646Z" fill="#67CAAB"/>
<path d="M37.2295 22.76C39.7287 10.9907 30.7129 0 18.8202 0C8.44271 0 0 8.44694 0 18.8295C0 30.7287 10.9944 39.7636 22.7729 37.2425C20.2753 48.97 29.2526 60 41.1799 60C51.5573 60 60 51.5532 60 41.1706C60 29.2747 49.0067 20.2329 37.2295 22.76ZM3.52941 18.8295C3.52941 10.3931 10.3888 3.52941 18.8202 3.52941C29.4352 3.52941 36.8581 14.1636 33.1662 24.1362C29.2104 26.0065 26.0067 29.216 24.1427 33.1768C14.1793 36.8854 3.52941 29.4672 3.52941 18.8295ZM41.1799 56.4706C32.7486 56.4706 25.8892 49.6071 25.8892 41.1706C25.8892 32.7342 32.7486 25.8707 41.1799 25.8707C49.6112 25.8707 56.4706 32.7342 56.4706 41.1706C56.4706 49.6071 49.6112 56.4706 41.1799 56.4706Z" fill="#67CAAB" stroke="white" stroke-width="1.5"/>
<path d="M43.8235 5.54968C47.2815 5.54968 50.9567 8.16085 50.9567 13V14.6617L49.3674 13.0716C48.6786 12.3821 47.5611 12.3821 46.8718 13.0709C46.1825 13.7598 46.1821 14.8772 46.8711 15.5665L51.4732 20.1712C52.1558 20.8547 53.2766 20.8647 53.9694 20.1712L58.5717 15.5665C59.2606 14.8772 59.2604 13.7599 58.5709 13.0709C57.8817 12.3818 56.7642 12.3821 56.0753 13.0716L54.4859 14.6618V13C54.4859 6.57991 49.6086 2.02026 43.8233 2.02026C42.8487 2.02026 42.0586 2.81038 42.0586 3.78497C42.0586 4.75956 42.8489 5.54968 43.8235 5.54968Z" fill="#67CAAB" stroke="white" stroke-width="1.5"/>
<path d="M16.1765 54.4504C12.7185 54.4504 9.04333 51.8393 9.04333 47.0001V45.3383L10.6327 46.9286C11.3216 47.6177 12.4387 47.6184 13.1284 46.9293C13.8178 46.2403 13.818 45.1229 13.1291 44.4336L8.52686 39.8288C7.84415 39.1447 6.72109 39.1368 6.03062 39.8288L1.42815 44.4337C0.739209 45.123 0.739445 46.2403 1.42886 46.9294C2.11803 47.6183 3.23544 47.6181 3.9245 46.9287L5.51392 45.3384V47.0001C5.51392 53.4203 10.3912 57.9799 16.1765 57.9799C17.1511 57.9799 17.9412 57.1897 17.9412 56.2151C17.9412 55.2406 17.1511 54.4504 16.1765 54.4504Z" fill="#67CAAB" stroke="white" stroke-width="1.5"/>
<path d="M18.0718 24.021V23C17.0978 23 16.0049 22.7703 14.793 22.311V20.8999C16.0436 21.481 17.1366 21.7715 18.0718 21.7715V17.3638C16.9484 16.6776 16.1792 16.0716 15.7642 15.5459C15.3547 15.0202 15.1499 14.3921 15.1499 13.6616C15.1499 12.8426 15.4155 12.1647 15.9468 11.6279C16.4836 11.0856 17.1919 10.7812 18.0718 10.7148V9.68555H18.8853V10.7148C19.6932 10.7148 20.5814 10.9002 21.5498 11.271V12.6074C20.4873 12.1481 19.5991 11.8908 18.8853 11.8354V16.21C19.1841 16.3926 19.4082 16.5282 19.5576 16.6167C20.4043 17.1313 20.9826 17.5962 21.2925 18.0112C21.6024 18.4263 21.7573 18.9409 21.7573 19.5552C21.7573 20.4295 21.5 21.1766 20.9854 21.7964C20.4707 22.4106 19.7707 22.8118 18.8853 23V24.021H18.0718ZM18.8853 21.6719C19.8426 21.3288 20.3213 20.7062 20.3213 19.8042C20.3213 19.4113 20.23 19.0903 20.0474 18.8413C19.8647 18.5868 19.4774 18.2547 18.8853 17.8452V21.6719ZM18.0718 15.6704V11.8853C17.0812 12.1951 16.5859 12.7762 16.5859 13.6284C16.5859 14.049 16.6883 14.4032 16.8931 14.6909C17.0978 14.9731 17.4907 15.2996 18.0718 15.6704Z" fill="#67CAAB"/>
</g>
<defs>
<clipPath id="clip0">
<path d="M0 0H60V60H0V0Z" fill="white"/>
</clipPath>
</defs>
</svg>
