<svg width="60" height="60" viewBox="0 0 60 60" fill="none" xmlns="http://www.w3.org/2000/svg">
<path d="M33.4851 6.86563C35.2301 8.19656 35.5672 10.699 34.2363 12.4439C33.5823 13.3013 31.9109 14.5112 30.1784 15.634L29.9419 15.7865L35.8982 13.404C36.3368 13.2286 36.8338 13.442 37.0091 13.8801C37.1727 14.2891 36.9979 14.7497 36.6176 14.9518L36.533 14.991L29.2584 17.9008H41.2293C42.1626 17.9008 42.9292 18.6285 42.9914 19.5463L42.9955 19.667V21.5472H49.4335C51.3576 21.5472 52.933 23.0691 53.0191 24.9725L53.0228 25.1365V26.0481C53.0228 26.4272 52.7757 26.7485 52.4338 26.8603L52.3464 26.8837L53.7598 32.5374C55.8601 32.8571 57.488 34.6335 57.5768 36.8004L57.5806 36.987V46.1027C57.5806 46.5433 57.2472 46.906 56.8191 46.9524L56.726 46.9574H53.9326C53.9328 46.9764 53.9341 46.9951 53.9341 47.0143C53.9341 49.9987 51.506 52.4268 48.5217 52.4268C45.5373 52.4268 43.1092 49.9987 43.1092 47.0143L43.1099 46.9858L43.1107 46.9574H23.8508C23.851 46.9764 23.8523 46.9951 23.8523 47.0143C23.8523 49.9987 21.4242 52.4268 18.4398 52.4268C15.4555 52.4268 13.0274 49.9987 13.0274 47.0143L13.0281 46.9858L13.0289 46.9574H8.41255C7.47921 46.9574 6.71269 46.2298 6.65044 45.3119L6.64635 45.1912V43.311H3.85464C3.3826 43.311 3 42.9284 3 42.4564C3 42.0158 3.33338 41.6532 3.76153 41.6068L3.85464 41.6018H12.0588C12.5308 41.6018 12.9134 41.9844 12.9134 42.4564C12.9134 42.897 12.5801 43.2596 12.1519 43.306L12.0588 43.311H8.35552V45.1912C8.35552 45.2148 8.36985 45.235 8.39028 45.2436L8.41244 45.2481H13.3248C14.0588 43.1285 16.0738 41.6018 18.4398 41.6018C20.7363 41.6018 22.702 43.0401 23.4868 45.0627L23.5549 45.2481H41.286V38.8102C41.286 38.3381 41.6687 37.9555 42.1406 37.9555C42.5812 37.9555 42.9439 38.2889 42.9903 38.717L42.9953 38.8102V45.2482H43.4068C44.1407 43.1286 46.1557 41.6019 48.5218 41.6019C50.8183 41.6019 52.7839 43.0402 53.5687 45.0628L53.6368 45.2482H55.8714V41.488H54.9028C53.4755 41.488 52.3055 40.3656 52.229 38.957L52.2251 38.8103V36.9871C52.2251 36.5466 52.5584 36.1839 52.9866 36.1375L53.0797 36.1325H55.7371C55.3755 35.0106 54.3223 34.1964 53.0818 34.1954C53.0809 34.1954 53.08 34.1955 53.0791 34.1955L53.0777 34.1954L42.9954 34.1953V35.1641C42.9954 35.6362 42.6127 36.0188 42.1408 36.0188C41.7002 36.0188 41.3375 35.6854 41.2911 35.2572L41.2861 35.1641V19.667C41.2861 19.6435 41.2718 19.6232 41.2514 19.6146L41.2292 19.6101H8.41244C8.38886 19.6101 8.36863 19.6244 8.35999 19.6449L8.35552 19.667V35.1639C8.35552 35.6359 7.97281 36.0185 7.50088 36.0185C7.06031 36.0185 6.69766 35.6852 6.65126 35.257L6.64625 35.1639V19.667C6.64625 18.7337 7.37387 17.9672 8.29169 17.9049L8.41244 17.9008H20.3833L13.1087 14.991C12.6705 14.8158 12.4573 14.3183 12.6326 13.8801C12.7962 13.4711 13.2402 13.2579 13.6552 13.374L13.7435 13.404L19.6999 15.7865C17.8848 14.6219 16.0891 13.3404 15.4055 12.4439C14.0747 10.6989 14.4116 8.19646 16.1566 6.86563C17.9016 5.5348 20.4041 5.87177 21.7349 7.61675C22.7074 8.89193 23.9904 12.4752 24.8209 14.9999C25.6513 12.475 26.9344 8.89193 27.9068 7.61675C29.2378 5.87177 31.7401 5.53458 33.4851 6.86563ZM18.4398 43.311C16.3979 43.311 14.7366 44.9723 14.7366 47.0143C14.7366 49.0563 16.3979 50.7176 18.4398 50.7176C20.4818 50.7176 22.1431 49.0563 22.1431 47.0143C22.1431 44.9723 20.4818 43.311 18.4398 43.311ZM48.5219 43.311C46.4799 43.311 44.8186 44.9723 44.8186 47.0143C44.8186 49.0563 46.4799 50.7176 48.5219 50.7176C50.5639 50.7176 52.2252 49.0563 52.2252 47.0143C52.2252 44.9723 50.5639 43.311 48.5219 43.311ZM48.5219 45.2481C49.4958 45.2481 50.2881 46.0404 50.2881 47.0143C50.2881 47.9882 49.4958 48.7805 48.5219 48.7805C47.548 48.7805 46.7557 47.9882 46.7557 47.0143C46.7557 46.0404 47.548 45.2481 48.5219 45.2481ZM18.4398 45.2481C19.4138 45.2481 20.206 46.0404 20.206 47.0143C20.206 47.9882 19.4138 48.7805 18.4398 48.7805C17.4659 48.7805 16.6736 47.9882 16.6736 47.0143C16.6736 46.0404 17.4659 45.2481 18.4398 45.2481ZM38.4945 41.6018C38.9665 41.6018 39.3491 41.9844 39.3491 42.4564C39.3491 42.897 39.0158 43.2596 38.5876 43.306L38.4945 43.311H25.7324C25.2604 43.311 24.8778 42.9284 24.8778 42.4564C24.8778 42.0158 25.2112 41.6532 25.6393 41.6068L25.7324 41.6018H38.4945ZM55.8714 37.8414H53.9343V38.81C53.9343 39.3107 54.3162 39.7239 54.804 39.7736L54.9029 39.7786H55.8714V37.8414ZM16.6167 37.9555C17.0886 37.9555 17.4713 38.3381 17.4713 38.8102C17.4713 39.2507 17.138 39.6134 16.7098 39.6598L16.6167 39.6648H5.67776C5.20572 39.6648 4.82312 39.2822 4.82312 38.8102C4.82312 38.3696 5.1565 38.0069 5.58465 37.9605L5.67776 37.9555H16.6167ZM36.6714 25.1933C37.1434 25.1933 37.526 25.576 37.526 26.048C37.526 26.52 37.1433 26.9026 36.6714 26.9026H33.8797V28.8397H34.8483C35.3203 28.8397 35.7029 29.2223 35.7029 29.6943C35.7029 30.1664 35.3202 30.549 34.8483 30.549H33.8797V32.486H36.6714C37.1433 32.486 37.526 32.8685 37.526 33.3406C37.526 33.8126 37.1433 34.1952 36.6714 34.1952H33.025C32.553 34.1952 32.1704 33.8125 32.1704 33.3406V26.048C32.1704 25.5759 32.5531 25.1933 33.025 25.1933H36.6714ZM16.6167 25.1933C17.0886 25.1933 17.4712 25.576 17.4713 26.048C17.4713 26.4885 17.138 26.8512 16.7098 26.8976L16.6167 26.9026H13.825V28.8396H15.7051C16.1772 28.8396 16.5598 29.2222 16.5598 29.6942C16.5598 30.1348 16.2264 30.4974 15.7983 30.5438L15.7051 30.5489H13.825V33.3406C13.825 33.8126 13.4424 34.1952 12.9704 34.1952C12.5298 34.1952 12.1671 33.8618 12.1207 33.4337L12.1157 33.3406V26.048C12.1157 25.6074 12.4491 25.2447 12.8772 25.1983L12.9704 25.1933H16.6167ZM21.6304 25.1933C23.3583 25.1933 24.7639 26.599 24.7639 28.3269C24.7639 29.3624 24.2587 30.2816 23.482 30.8525L23.3422 30.9496L24.6201 32.8665C24.8821 33.2591 24.776 33.7898 24.3832 34.0515C24.2375 34.1487 24.0729 34.1952 23.91 34.1952C23.6683 34.1952 23.4307 34.0929 23.2647 33.9018L23.1982 33.8145L21.6288 31.4604H20.206V33.3406C20.206 33.8126 19.8234 34.1952 19.3514 34.1952C18.9108 34.1952 18.5482 33.8618 18.5018 33.4337L18.4968 33.3406V26.048C18.4968 25.6074 18.8301 25.2447 19.2583 25.1983L19.3514 25.1933H21.6304ZM26.644 25.1933H30.2903C30.7624 25.1933 31.145 25.576 31.145 26.048C31.145 26.4885 30.8116 26.8512 30.3835 26.8976L30.2903 26.9026H27.4986V28.8426L27.5269 28.8406L27.5556 28.8397H29.3787C29.8507 28.8397 30.2333 29.2223 30.2333 29.6943C30.2333 30.1349 29.8999 30.4975 29.4718 30.5439L29.3787 30.549H27.5556L27.527 30.548L27.4986 30.5461V32.486H30.2903C30.7623 32.486 31.145 32.8685 31.145 33.3406C31.145 33.7811 30.8116 34.1438 30.3835 34.1902L30.2903 34.1952H26.644C26.2034 34.1952 25.8408 33.8618 25.7944 33.4337L25.7894 33.3406V26.048C25.7894 25.6074 26.1227 25.2447 26.5509 25.1983L26.644 25.1933H30.2903H26.644ZM50.5894 26.9026H42.9955V32.486H51.9852L50.5894 26.9026ZM21.6304 26.9026H20.206V29.7512H21.6304C22.4158 29.7512 23.0547 29.1124 23.0547 28.3269C23.0547 27.5415 22.4158 26.9026 21.6304 26.9026ZM49.4335 23.2563H42.9955V25.1933H51.3136V25.1364C51.3136 24.0997 50.4702 23.2563 49.4335 23.2563ZM18.5677 7.76045C18.0874 7.76045 17.6036 7.91172 17.1932 8.22471C16.1975 8.98404 16.0052 10.4118 16.7646 11.4073C17.0606 11.7956 18.0605 12.7594 21.4316 14.8542C22.1122 15.2773 22.7753 15.6749 23.3521 16.0145C22.4974 13.3856 21.2027 9.7373 20.376 8.65336C19.9296 8.06811 19.2523 7.76045 18.5677 7.76045ZM29.2659 8.65325C28.4393 9.7374 27.1446 13.3856 26.2899 16.0144C26.8668 15.6748 27.5299 15.2771 28.2103 14.8541C31.5812 12.7594 32.5811 11.7955 32.8772 11.4073C33.6364 10.4118 33.4442 8.98404 32.4485 8.22471C31.453 7.46548 30.0252 7.65769 29.2659 8.65325Z" fill="black"/>
</svg>
