<svg width="60" height="60" viewBox="0 0 60 60" fill="none" xmlns="http://www.w3.org/2000/svg">
<path d="M29.8543 1.00355C37.3374 1.12229 44.3618 4.14323 49.6331 9.51023C54.9035 14.8762 57.7996 21.9538 57.7881 29.4389C57.7816 33.5966 56.8535 37.7297 55.095 41.473L54.85 41.981L58.8362 53.5818C59.3538 55.0882 58.9755 56.7235 57.8495 57.8495C57.057 58.6422 56.0119 59.0643 54.9375 59.0643C54.5756 59.0643 54.2106 59.0165 53.8507 58.9189L53.5818 58.8363L41.981 54.8501C38.2738 56.684 34.1603 57.6915 30.0056 57.7816L29.4389 57.7882H29.3942C21.9252 57.7883 14.8658 54.8931 9.51025 49.6329C4.14325 44.3615 1.12219 37.3372 1.00368 29.854C0.94165 25.9353 1.66326 22.1291 3.14856 18.5409C4.58112 15.08 6.65636 11.9764 9.31655 9.31631C11.9766 6.65623 15.0802 4.58099 18.5411 3.14831C21.7705 1.81155 25.175 1.09272 28.6817 1.00821L29.2671 1L29.8543 1.00355ZM11.7507 11.7506C6.93193 16.5694 4.33763 22.9793 4.44571 29.7995C4.6605 43.3552 15.8756 54.3673 29.4334 54.3455C33.476 54.3393 37.4907 53.3425 41.0434 51.463C41.2939 51.3304 41.5705 51.2632 41.8483 51.2632C41.9897 51.2632 42.1314 51.2806 42.2701 51.3157L42.4077 51.3566L54.7003 55.5806C55.0565 55.7028 55.301 55.5295 55.4152 55.4153C55.5168 55.3139 55.6651 55.1092 55.6108 54.8149L55.5805 54.7004L51.3565 42.4077C51.2019 41.9579 51.2404 41.464 51.4629 41.0435C53.3423 37.491 54.339 33.4764 54.3454 29.4336C54.3664 15.8703 43.3552 4.66082 29.7996 4.44592C22.9775 4.33807 16.5695 6.93192 11.7507 11.7506ZM29.1145 42.1381C30.0795 42.1381 30.7941 42.9267 30.8358 43.8594C30.8774 44.789 30.0148 45.5807 29.1145 45.5807C28.1495 45.5807 27.4349 44.7919 27.3932 43.8594C27.3516 42.9298 28.2142 42.1381 29.1145 42.1381ZM29.1145 15.479C33.8367 15.479 37.6785 19.3208 37.6785 24.0429C37.6785 28.1757 34.7358 31.6341 30.8358 32.433V37.9059C30.8358 38.8567 30.0651 39.6273 29.1145 39.6273C28.1639 39.6273 27.3932 38.8566 27.3932 37.906V30.8856C27.3932 29.935 28.1639 29.1643 29.1145 29.1643C31.9383 29.1643 34.2359 26.8668 34.2359 24.0429C34.2359 21.2191 31.9383 18.9216 29.1145 18.9216C26.2907 18.9216 23.9931 21.2191 23.9931 24.0429C23.9931 24.9935 23.2224 25.7642 22.2719 25.7642C21.3213 25.7642 20.5506 24.9935 20.5506 24.0429C20.5506 19.3208 24.3923 15.479 29.1145 15.479Z" fill="#13D1F6" stroke="white" stroke-width="1.3"/>
</svg>
