<svg width="60" height="60" viewBox="0 0 60 60" fill="none" xmlns="http://www.w3.org/2000/svg">
<path d="M29.7066 30.7759L29.6492 30.7516L20.0239 26.675C20.0235 26.6749 20.0231 26.6747 20.0227 26.6745C19.7701 26.5732 19.4891 26.5731 19.2364 26.6743L9.98062 30.6691C9.98054 30.6691 9.98046 30.6692 9.98038 30.6692C9.68182 30.7994 9.46399 31.0678 9.39711 31.3895L9.39684 31.3908L9.39683 31.3908L4.17286 55.4483C4.17285 55.4484 4.17283 55.4485 4.17281 55.4486C4.09522 55.8123 4.21872 56.1894 4.49514 56.4345C4.77084 56.6772 5.15636 56.7469 5.49831 56.6166L5.49903 56.6164L16.4908 52.4923L16.5383 52.4745L16.5869 52.4892L29.4153 56.3681C29.4154 56.3682 29.4155 56.3682 29.4156 56.3682C29.5999 56.4226 29.795 56.4263 29.9807 56.379C29.9812 56.3788 29.9818 56.3787 29.9824 56.3785L42.82 52.756L42.8667 52.7428L42.9123 52.7595L53.9146 56.7905C53.9147 56.7905 53.9148 56.7905 53.9148 56.7905C54.2602 56.9151 54.6458 56.8408 54.9218 56.5963C55.1979 56.3517 55.3211 55.975 55.2427 55.6118L29.7066 30.7759ZM29.7066 30.7759L29.7644 30.7524L39.3905 26.8265C39.3907 26.8264 39.391 26.8263 39.3913 26.8262C39.6409 26.7282 39.9189 26.7321 40.1666 26.8368C40.1667 26.8368 40.1668 26.8369 40.167 26.8369L49.4332 30.8199C49.4336 30.8201 49.4339 30.8203 49.4343 30.8204C49.7311 30.9544 49.948 31.2219 50.0187 31.5426C50.0187 31.5426 50.0187 31.5427 50.0187 31.5427L55.2426 55.6116L29.7066 30.7759ZM20.6471 29.1355L20.4658 29.0589L20.44 29.2541L17.6313 50.5507L17.6147 50.6769L17.7366 50.7138L28.5084 53.9759L28.7019 54.0345V53.8324V32.6405V32.5411L28.6103 32.5023L20.6471 29.1355ZM30.8068 32.5134L30.7135 32.5515V32.6523V53.8674V54.0659L30.9044 54.0117L41.5842 50.9826L41.7086 50.9473L41.692 50.819L38.9181 29.4055L38.8931 29.2123L38.7127 29.2859L30.8068 32.5134ZM11.3176 32.3049L11.2469 32.3354L11.2306 32.4107L6.58396 53.8005L6.5255 54.0696L6.78328 53.9728L15.4982 50.6993L15.5824 50.6677L15.5942 50.5785L18.3681 29.5026L18.4026 29.2404L18.1598 29.3454L11.3176 32.3049ZM43.7174 50.7993L43.7291 50.8896L43.8146 50.9209L52.6333 54.148L52.8893 54.2416L52.8315 53.9753L48.1853 32.5623L48.1689 32.4869L48.0981 32.4563L41.1864 29.4737L40.9444 29.3692L40.9782 29.6306L43.7174 50.7993Z" fill="#161720" stroke="white" stroke-width="0.3"/>
<path d="M28.985 27.1323L28.9843 27.1316L22.5005 20.3164C18.5674 16.1562 18.568 9.42011 22.5001 5.29553L22.5012 5.29432C24.3701 3.28985 26.9771 2.15225 29.7056 2.15C32.4336 2.14777 35.0424 3.28133 36.9144 5.28311L36.915 5.28371C40.848 9.44348 40.8474 16.18 36.9154 20.3041L36.9152 20.3043L30.431 27.1316L30.4305 27.1323C30.2424 27.3325 29.9808 27.4458 29.7077 27.4458C29.4346 27.4458 29.173 27.3325 28.985 27.1323ZM29.5876 24.8448L29.6963 24.9592L29.8051 24.8449L35.4564 18.9035C38.6557 15.5601 38.6551 10.0753 35.4575 6.69734C33.9697 5.09169 31.8876 4.18009 29.7077 4.18009C27.5279 4.18009 25.4459 5.09161 23.9581 6.69714C20.7597 10.0525 20.7605 15.525 23.947 18.9027L23.9473 18.9031L29.5876 24.8448Z" fill="#161720" stroke="white" stroke-width="0.3"/>
<path d="M29.7079 16.4131C32.3878 16.413 34.5624 14.2227 34.5624 11.5183C34.5624 8.81398 32.3878 6.62363 29.7078 6.62363C27.0278 6.62363 24.8532 8.81394 24.8531 11.5183L29.7079 16.4131ZM29.7079 16.4131C27.0283 16.4117 24.8545 14.2223 24.8531 11.5183L29.7079 16.4131ZM29.7078 8.65371L29.7072 8.65371C28.1388 8.65996 26.8709 9.93969 26.8647 11.5178V11.5183C26.8647 13.0991 28.1366 14.383 29.7078 14.383C31.2789 14.383 32.5509 13.0991 32.5509 11.5183C32.5509 9.93755 31.2789 8.65371 29.7078 8.65371Z" fill="#161720" stroke="white" stroke-width="0.3"/>
</svg>
