<svg width="60" height="60" viewBox="0 0 60 60" fill="none" xmlns="http://www.w3.org/2000/svg">
<g clip-path="url(#clip0)">
<path d="M30.8162 7.58827C31.9968 6.83008 33.4937 6.80273 34.6294 7.51814C36.3217 8.58772 37.576 10.8685 38.0223 13.6097H56.4844C58.423 13.6097 60 15.1292 60 16.9971V48.6126C60 50.4805 58.423 52 56.4844 52H3.51562C1.577 52 0 50.4805 0 48.6126V16.9971C0 15.1292 1.577 13.6097 3.51562 13.6097H5.57098C6.01776 10.8689 7.27158 8.58772 8.96347 7.51902C10.1001 6.80273 11.597 6.83008 12.7776 7.58783L18.636 11.3514H24.9577L30.8162 7.58827ZM57.6562 45.2252H2.34375V48.6126C2.34375 49.2354 2.86926 49.7417 3.51562 49.7417H56.4844C57.1307 49.7417 57.6562 49.235 57.6562 48.6126V45.2252ZM57.6562 38.4505H2.34375V42.967H57.6562V38.4505ZM5.39062 15.8679H3.51562C2.86926 15.8679 2.34375 16.3743 2.34375 16.9971V36.1922H57.6562V16.9971C57.6562 16.3743 57.1307 15.8679 56.4844 15.8679H38.2031C38.2031 19.568 36.801 22.8452 34.6307 24.2169C34.2764 24.44 33.886 24.5896 33.4813 24.6685L35.3714 28.5746C35.5536 28.9521 35.506 29.3954 35.2469 29.7289C34.9878 30.0619 34.5598 30.2308 34.1322 30.1677L30.7278 29.6671L28.9375 32.5018C28.7242 32.8397 28.3438 33.0443 27.9364 33.0443C27.9149 33.0443 27.8934 33.0435 27.8719 33.0426C27.4402 33.0196 27.057 32.7696 26.8744 32.392L21.7969 21.9004L16.7198 32.392C16.5372 32.7696 16.1536 33.0196 15.7219 33.0426C15.2898 33.0673 14.881 32.8578 14.6562 32.5018L12.8664 29.6671L9.46152 30.1677C9.03442 30.2308 8.60596 30.0619 8.34686 29.7289C8.08777 29.3954 8.04016 28.9517 8.22281 28.5746L10.1125 24.669C9.70825 24.59 9.31824 24.4405 8.96484 24.2177C6.79276 22.8456 5.39062 19.568 5.39062 15.8679ZM39.375 31.6757C40.0223 31.6757 40.5469 32.1812 40.5469 32.8048C40.5469 33.4285 40.0223 33.934 39.375 33.934C38.7277 33.934 38.2031 33.4285 38.2031 32.8048C38.2031 32.1812 38.7277 31.6757 39.375 31.6757ZM54.1406 31.6757C54.7879 31.6757 55.3125 32.1812 55.3125 32.8048C55.3125 33.4285 54.7879 33.934 54.1406 33.934H44.0625C43.4152 33.934 42.8906 33.4285 42.8906 32.8048C42.8906 32.1812 43.4152 31.6757 44.0625 31.6757H54.1406ZM24.9577 20.3844H23.649L28.0733 29.5264L29.1312 27.8504C29.377 27.4613 29.8402 27.2518 30.309 27.3211L32.3218 27.6175L30.5653 23.9866L24.9577 20.3844ZM19.9443 20.3844H18.636L13.0284 23.9871L11.2715 27.617L13.2843 27.3211C13.7521 27.2514 14.2168 27.4609 14.4626 27.8504L15.5205 29.526L19.9443 20.3844ZM33.3453 9.40722C33.0029 9.19154 32.5085 9.21536 32.1158 9.4672L26.4844 13.0848V14.7388H30C30.6473 14.7388 31.1719 15.2443 31.1719 15.8679C31.1719 16.4916 30.6473 16.9971 30 16.9971H26.4844V18.6511C26.4995 18.6608 31.9244 22.1037 32.2064 22.3185C32.5777 22.5196 33.0281 22.5285 33.3467 22.3278C35.3362 21.0703 36.0356 17.3821 35.8154 14.8323C35.6053 12.3513 34.6358 10.2227 33.3453 9.40722ZM11.4775 9.4672C11.0857 9.21536 10.5908 9.19154 10.247 9.4081C8.95798 10.2227 7.98843 12.3513 7.77832 14.8306C7.55905 17.3843 8.23975 21.0588 10.2484 22.3287C10.5647 22.5276 11.0138 22.5192 11.3896 22.3168C11.4015 22.3079 17.0975 18.6586 17.1094 18.6511V16.9971H13.5938C12.9465 16.9971 12.4219 16.4912 12.4219 15.8679C12.4219 15.2443 12.9465 14.7388 13.5938 14.7388H17.1094V13.0848L11.4775 9.4672ZM24.1406 13.6097H19.4531V18.1262H24.1406V13.6097Z" fill="#67CAAB" stroke="white" stroke-width="0.5"/>
</g>
<defs>
<clipPath id="clip0">
<path d="M0 0H60V60H0V0Z" fill="white"/>
</clipPath>
</defs>
</svg>
