<svg width="60" height="60" viewBox="0 0 60 60" fill="none" xmlns="http://www.w3.org/2000/svg">
<path d="M41.553 18.0325H42.6863H53.5625C55.2633 18.0325 56.65 19.4193 56.65 21.12V29.7138C56.65 30.4692 56.0367 31.0825 55.2812 31.0825H53.5625H53.2125V31.4325V52.0575C53.2125 53.7583 51.8258 55.145 50.125 55.145H8.875C7.17424 55.145 5.7875 53.7583 5.7875 52.0575V31.4325V31.0825H5.4375H3.71875C2.9633 31.0825 2.35 30.4692 2.35 29.7138V21.12C2.35 19.4193 3.73674 18.0325 5.4375 18.0325H16.3138H17.447L16.5111 17.3935C15.7401 16.867 15.0897 16.3518 14.6406 15.8994C12.0089 13.2481 12.0089 8.9309 14.6439 6.27957L14.6439 6.27955C17.1987 3.70843 21.6715 3.70521 24.2295 6.27955L24.2298 6.27977C24.939 6.99229 26.2795 8.85314 27.3757 11.0498C28.4764 13.2555 29.2862 15.713 29.0293 17.6362L28.9764 18.0325H29.3763H29.6238H30.0239L29.9706 17.6359C29.7122 15.7129 30.5218 13.2555 31.623 11.0498C32.7196 8.85324 34.061 6.99234 34.7702 6.27977L34.7705 6.27955C37.3285 3.70521 41.8013 3.70843 44.3561 6.27955L44.3561 6.27957C46.9911 8.93088 46.9911 13.248 44.3561 15.8993L44.3551 15.9003C43.9099 16.352 43.2602 16.8669 42.4889 17.3935L41.553 18.0325ZM16.5847 8.20941L16.5844 8.20969C15.0086 9.79679 15.0086 12.382 16.5844 13.9691L16.5845 13.9692C17.3647 14.7549 18.9081 15.7651 20.5373 16.5754C22.1589 17.3819 23.949 18.0325 25.2238 18.0325C25.4959 18.0325 25.6887 18.0012 25.8238 17.9619C25.8915 17.9422 25.9448 17.9205 25.9863 17.8997C26.007 17.8893 26.0246 17.8792 26.0395 17.8698C26.0469 17.8651 26.0537 17.8606 26.0597 17.8563L26.0683 17.8501L26.0722 17.8472L26.0741 17.8457L26.075 17.845L26.0755 17.8447C26.0757 17.8445 26.0759 17.8443 25.8597 17.5691L26.0759 17.8443L26.0947 17.8296L26.1113 17.8124C26.3052 17.6118 26.3604 17.3153 26.3703 17.0483C26.3809 16.764 26.3425 16.4251 26.2701 16.0561C26.1249 15.3157 25.8313 14.3984 25.4436 13.4443C24.6714 11.5439 23.4952 9.42305 22.2888 8.20954L22.2887 8.20941C21.5257 7.44261 20.5119 7.02004 19.4384 7.02004C18.3617 7.02004 17.3479 7.44249 16.5847 8.20941ZM27.7812 52.4075H28.1313V52.0575V31.4325V31.0825H27.7812H8.875H8.525V31.4325V52.0575V52.4075H8.875H27.7812ZM27.7812 28.345H28.1313V27.995V21.12V20.77H27.7812H25.2238H5.4375H5.0875V21.12V27.995V28.345H5.4375H27.7812ZM36.7116 8.20911L36.7112 8.20954C35.5048 9.42305 34.3286 11.5439 33.556 13.4442C33.1681 14.3983 32.8742 15.3155 32.7285 16.0559C32.6559 16.4248 32.6172 16.7637 32.6273 17.0478C32.6369 17.3146 32.6915 17.6111 32.8847 17.8118L32.8847 17.8119L32.8894 17.8166C32.905 17.8322 32.9194 17.8434 32.9199 17.8438C32.9249 17.8477 32.9294 17.8511 32.9332 17.8539C32.941 17.8596 32.949 17.865 32.9571 17.8701C32.9733 17.8805 32.992 17.8911 33.0132 17.9016C33.0557 17.9228 33.1097 17.9444 33.1776 17.9637C33.3128 18.0023 33.505 18.0325 33.7763 18.0325C35.051 18.0325 36.8411 17.3819 38.4627 16.5754C40.0919 15.7651 41.6353 14.7549 42.4155 13.9692L42.4156 13.9691C43.9914 12.382 43.9914 9.79679 42.4156 8.20969L42.415 8.20911C40.8862 6.6766 38.2442 6.67274 36.7116 8.20911ZM50.125 52.4075H50.475V52.0575V31.4325V31.0825H50.125H31.2188H30.8687V31.4325V52.0575V52.4075H31.2188H50.125ZM53.5625 28.345H53.9125V27.995V21.12V20.77H53.5625H33.7763H31.2188H30.8687V21.12V27.995V28.345H31.2188H53.5625Z" fill="#161720" stroke="#F0F3FC" stroke-width="0.7"/>
</svg>
