<svg width="60" height="60" viewBox="0 0 60 60" fill="none" xmlns="http://www.w3.org/2000/svg">
<path d="M54.9908 24.1146C54.9856 24.0572 54.9742 24.0005 54.9566 23.9455C54.9452 23.8963 54.9292 23.8484 54.9091 23.8021C54.8858 23.7569 54.8579 23.7141 54.8258 23.6746C54.7937 23.6276 54.7565 23.5843 54.715 23.5453C54.7016 23.5337 54.6958 23.5178 54.6817 23.5062L46.667 17.2816V10.8304C46.667 9.44967 45.5476 8.33025 44.1668 8.33025H35.1353L31.5192 5.52254C30.6258 4.82582 29.3731 4.82582 28.4798 5.52254L24.8629 8.33025H15.8314C14.4506 8.33025 13.3312 9.44957 13.3312 10.8304V17.2817L5.31906 23.5063C5.3049 23.518 5.29904 23.5338 5.28576 23.5454C5.24425 23.5843 5.20705 23.6277 5.17491 23.6746C5.14288 23.7142 5.11495 23.7569 5.09161 23.8022C5.07139 23.8484 5.05557 23.8964 5.04414 23.9456C5.02676 23.9998 5.01533 24.0556 5.00996 24.1123C5.00996 24.1298 5 24.1448 5 24.1623V52.4998C5.00117 53.0299 5.17267 53.5456 5.48919 53.9707C5.49417 53.9783 5.49505 53.9874 5.50081 53.9941C5.50667 54.0007 5.51918 54.0082 5.52748 54.0174C5.99567 54.6335 6.72385 54.9967 7.49763 55H52.5007C53.2775 54.9977 54.0087 54.6327 54.4775 54.0133C54.4841 54.005 54.4942 54.0025 54.4999 53.9942C54.5058 53.9859 54.5066 53.9784 54.5116 53.9708C54.8282 53.5456 54.9997 53.0299 55.0008 52.4999V24.1646C55.0008 24.1471 54.9916 24.1321 54.9908 24.1146ZM29.499 6.83757C29.7901 6.60631 30.2022 6.60631 30.4932 6.83757L32.4158 8.33016H27.5822L29.499 6.83757ZM7.7076 53.3333L29.4991 36.4063C29.7903 36.1754 30.2022 36.1754 30.4933 36.4063L52.2906 53.3333H7.7076ZM53.334 52.034L31.5192 35.0911C30.6257 34.395 29.3733 34.395 28.4798 35.0911L6.66417 52.034V25.4338L20.321 36.0388C20.6848 36.3209 21.2085 36.2547 21.4907 35.8908C21.7728 35.5269 21.7066 35.0032 21.3427 34.7211L7.46843 23.9479L13.3313 19.3917V25.8313C13.3313 26.2916 13.7045 26.6647 14.1647 26.6647C14.625 26.6647 14.998 26.2915 14.998 25.8313V10.8303C14.998 10.37 15.3711 9.99697 15.8314 9.99697H44.1666C44.6269 9.99697 45 10.37 45 10.8303V25.8313C45 26.2916 45.373 26.6647 45.8333 26.6647C46.2936 26.6647 46.6667 26.2915 46.6667 25.8313V19.3917L52.5296 23.9479L38.6312 34.7403C38.3921 34.9215 38.2687 35.2172 38.3084 35.5146C38.348 35.812 38.5444 36.0651 38.8227 36.1773C39.1009 36.2896 39.418 36.2437 39.6529 36.057L53.334 25.4338V52.034Z" fill="#161720"/>
<path d="M39.9999 24.998V21.6645C39.9999 16.1413 35.5224 11.6638 29.9992 11.6638C24.476 11.6638 19.9985 16.1413 19.9985 21.6645C19.9985 27.1877 24.476 31.6652 29.9992 31.6652C30.4595 31.6652 30.8326 31.2921 30.8326 30.8318C30.8326 30.3715 30.4595 29.9985 29.9992 29.9985C25.3966 29.9985 21.6653 26.2672 21.6653 21.6646C21.6653 17.0619 25.3966 13.3307 29.9992 13.3307C34.6019 13.3307 38.3331 17.0619 38.3331 21.6646V24.9981C38.3331 25.9187 37.5868 26.6649 36.6663 26.6649C35.7457 26.6649 34.9994 25.9187 34.9994 24.9981V21.6646C34.9994 21.2043 34.6264 20.8312 34.1661 20.8312C33.7058 20.8312 33.3327 21.2043 33.3327 21.6646C33.3327 23.5056 31.8403 24.9981 29.9992 24.9981C28.1582 24.9981 26.6657 23.5056 26.6657 21.6646C26.6657 19.8235 28.1582 18.3311 29.9992 18.3311C30.4595 18.3311 30.8326 17.958 30.8326 17.4977C30.8326 17.0374 30.4595 16.6644 29.9992 16.6644C27.7613 16.6594 25.7925 18.142 25.1792 20.2943C24.5658 22.4466 25.4572 24.7443 27.3616 25.9198C29.2661 27.0952 31.7195 26.8622 33.3686 25.3491C33.55 27.1115 35.0819 28.422 36.8511 28.3283C38.6205 28.2346 40.0054 26.7698 39.9999 24.998Z" fill="#161720"/>
</svg>
