<svg width="60" height="60" viewBox="0 0 60 60" fill="none" xmlns="http://www.w3.org/2000/svg">
<g clip-path="url(#clip0)">
<path d="M49 0C49.266 0 49.5199 0.105 49.707 0.292969L59.707 10.293C59.895 10.48 60 10.735 60 11V45.0001C60 45.5531 59.553 46.0001 59 46.0001L52.999 46L52.9999 58.9999C52.9999 59.5134 52.6145 59.9355 52.1167 59.9932L52 59.9999H28C27.448 59.9999 27 59.5529 27 58.9999V46L17.9448 46.0004C17.4551 50.4081 13.7692 53.8653 9.26492 53.9962L9 54C4.03805 54 0 49.963 0 45V9L0.00384521 8.73508C0.144511 3.89512 4.12665 0 9 0H49ZM33.999 41.999L29 42V58L38.999 57.999V41.999H35.999L35.9999 52.0002C35.9999 54.1393 34.313 55.8911 32.1993 55.9953L31.9999 56.0002V54.0001C33.103 54.0001 34 53.103 34 52.0001L33.999 41.999ZM51 42L45.999 41.999L46 52C46 53.0529 46.8173 53.918 47.8509 53.9945L48 54H48.9997V55.9999H47.9998C45.7938 55.9999 43.9998 54.206 43.9998 52L43.999 41.999H41V57.999L51 58V42ZM15.9998 14.6506C14.3484 16.6922 11.8238 18 9 18C6.1762 18 3.65161 16.6922 2.00021 14.6506L2.00004 45L2.0041 45.2402C2.13119 48.9885 5.22049 52 9 52C12.8599 52 16 48.859 16 45L15.9998 14.6506ZM47.999 2L14.6506 2.00021C16.6922 3.65161 18 6.1762 18 9C18 9.33794 17.9813 9.6716 17.9448 9.99998L18 9.99996V44H27V41.999L25 41.9999C24.4874 41.9999 24.0645 41.6145 24.0067 41.1167L24 40.9999V34.9999C24 34.4469 24.448 34 25 34L27.7598 33.9996C27.28 33.2842 26.9999 32.4241 26.9999 31.5C26.9999 29.019 29.0189 27 31.4999 27H31.5609C32.7179 27 33.864 27.467 34.701 28.286L40 33.585L45.293 28.293C46.0938 27.5081 47.162 27.0568 48.2749 27.0049L48.514 26.9999C50.981 26.9999 52.9999 29.019 52.9999 31.5C52.9999 32.4241 52.7198 33.2842 52.24 33.9996L55 34C55.553 34 55.9999 34.447 55.9999 34.9999V40.9999C55.9999 41.5529 55.553 41.9999 55 41.9999L52.999 41.999V44L58.0001 44L58 11.999L49 11.9999C48.4865 11.9999 48.0644 11.6136 48.0067 11.1165L48 10.9999L47.999 2ZM31.4576 35.9998L26 36V40L34.53 39.999L37.863 36H31.4999C31.4858 36 31.4717 35.9999 31.4576 35.9998ZM38.999 37.762L37.135 39.999H38.999V37.762ZM41 37.763V39.999H42.864L41 37.763ZM54 36L42.134 35.999L45.468 39.999L54 40V36ZM31.5511 29C30.146 28.958 29 30.108 29 31.5C29 32.8789 30.1211 34 31.5 34L37.585 33.999L33.2931 29.707C32.8755 29.2975 32.3315 29.0525 31.7472 29.0075L31.5511 29ZM48.5 28.9999C47.762 28.992 47.179 29.245 46.7 29.7139L42.414 34H48.5C49.879 34 51 32.8791 51 31.4999C51 30.1209 49.879 28.9999 48.5 28.9999ZM9 2.00004C5.13996 2.00004 2.00004 5.14008 2.00004 9C2.00004 12.8599 5.13996 16 9 16C12.86 16 16 12.8599 16 9C16 5.14008 12.86 2.00004 9 2.00004ZM9 5.00004C11.2061 5.00004 13 6.79406 13 9C13 11.2059 11.2059 13 9 13C6.79406 13 5.00004 11.2059 5.00004 9C5.00004 6.79406 6.79395 5.00004 9 5.00004ZM9 6.99996C7.89691 6.99996 6.99996 7.89703 6.99996 9C6.99996 10.1031 7.89703 11 9 11C10.103 11 11 10.103 11 9C11 7.89691 10.103 6.99996 9 6.99996ZM50 3.414L50 9.99996L56.585 9.999L50 3.414Z" fill="#F05D6B" stroke="white" stroke-width="0.5"/>
</g>
<defs>
<clipPath id="clip0">
<path d="M0 0H60V60H0V0Z" fill="white"/>
</clipPath>
</defs>
</svg>
