<svg width="24" height="25" viewBox="0 0 24 25" fill="none" xmlns="http://www.w3.org/2000/svg">
<path d="M20.3102 8.52534H16.5802C16.9208 8.18531 17.172 7.76636 17.3116 7.30577C17.4512 6.84518 17.4747 6.35724 17.3802 5.88534C17.3207 5.55724 17.1918 5.24565 17.0021 4.97142C16.8124 4.6972 16.5662 4.4667 16.2802 4.29534C16.0186 4.13649 15.7249 4.03792 15.4205 4.00678C15.116 3.97565 14.8085 4.01273 14.5202 4.11534C14.1871 4.23435 13.8812 4.41858 13.6202 4.65725C13.3592 4.89592 13.1484 5.18424 13.0002 5.50534L12.0002 7.64534L11.0002 5.50534C10.8519 5.18424 10.6412 4.89592 10.3802 4.65725C10.1192 4.41858 9.81322 4.23435 9.48018 4.11534C9.19186 4.01273 8.88431 3.97565 8.57987 4.00678C8.27543 4.03792 7.98175 4.13649 7.72018 4.29534C7.43241 4.46465 7.18495 4.69457 6.99499 4.96915C6.80504 5.24372 6.67714 5.55636 6.62018 5.88534C6.52564 6.35724 6.5492 6.84518 6.68877 7.30577C6.82834 7.76636 7.0796 8.18531 7.42018 8.52534H3.69018C3.59426 8.53046 3.5003 8.55444 3.41368 8.59594C3.32705 8.63743 3.24947 8.69561 3.18537 8.76714C3.12127 8.83867 3.07191 8.92215 3.04014 9.01279C3.00836 9.10343 2.99478 9.19945 3.00018 9.29534V13.6253C2.99478 13.7212 3.00836 13.8173 3.04014 13.9079C3.07191 13.9985 3.12127 14.082 3.18537 14.1536C3.24947 14.2251 3.32705 14.2833 3.41368 14.3248C3.5003 14.3662 3.59426 14.3902 3.69018 14.3953H4.05018V21.2253C4.04192 21.4184 4.10947 21.607 4.2384 21.7508C4.36733 21.8947 4.54741 21.9825 4.74018 21.9953H19.2602C19.4529 21.9825 19.633 21.8947 19.762 21.7508C19.8909 21.607 19.9584 21.4184 19.9502 21.2253V14.3953H20.3102C20.4061 14.3902 20.5001 14.3662 20.5867 14.3248C20.6733 14.2833 20.7509 14.2251 20.815 14.1536C20.8791 14.082 20.9284 13.9985 20.9602 13.9079C20.992 13.8173 21.0056 13.7212 21.0002 13.6253V9.29534C21.0056 9.19945 20.992 9.10343 20.9602 9.01279C20.9284 8.92215 20.8791 8.83867 20.815 8.76714C20.7509 8.69561 20.6733 8.63743 20.5867 8.59594C20.5001 8.55444 20.4061 8.53046 20.3102 8.52534ZM14.2402 6.22534C14.304 6.07801 14.3973 5.94526 14.5142 5.83522C14.6311 5.72517 14.7693 5.64015 14.9202 5.58534C15.0131 5.55174 15.1113 5.53482 15.2102 5.53534C15.3557 5.53417 15.4983 5.57591 15.6202 5.65534C15.7295 5.71267 15.8237 5.79514 15.895 5.89597C15.9663 5.9968 16.0126 6.11312 16.0302 6.23534C16.083 6.54113 16.0255 6.85574 15.868 7.12311C15.7105 7.39049 15.4632 7.59327 15.1702 7.69534L13.3202 8.16534L14.2402 6.22534ZM8.00018 6.23534C8.01773 6.11312 8.06405 5.9968 8.13533 5.89597C8.20661 5.79514 8.30081 5.71267 8.41018 5.65534C8.53208 5.57591 8.67469 5.53417 8.82018 5.53534C8.91903 5.53482 9.01721 5.55174 9.11018 5.58534C9.2611 5.64015 9.39926 5.72517 9.51618 5.83522C9.6331 5.94526 9.72634 6.07801 9.79018 6.22534L10.7102 8.16534L8.85018 7.69534C8.55659 7.5949 8.30905 7.392 8.15293 7.12385C7.99681 6.85569 7.94258 6.54024 8.00018 6.23534ZM4.38018 10.0653H19.6202V12.8553H4.38018V10.0653ZM5.43018 14.3953H9.74018V20.4553H5.43018V14.3953ZM11.1202 20.4553V14.3953H12.8802V20.4553H11.1202ZM18.5702 20.4553H14.2602V14.3953H18.5702V20.4553Z" fill="#FE3D6C"/>
</svg>
