<svg width="60" height="60" viewBox="0 0 60 60" fill="none" xmlns="http://www.w3.org/2000/svg">
<g clip-path="url(#clip0)">
<path d="M53.0851 31.6533V24.3242H54.8138C55.7686 24.3242 56.5425 23.5505 56.5425 22.596V15.8005C56.5439 14.4249 55.998 13.1051 55.0252 12.1322C54.0524 11.1592 52.7325 10.6128 51.3564 10.6135H45.0654C47.9119 5.76087 44.2628 -0.251601 38.7101 0.008134C36.2532 0.112268 34.0336 1.50423 32.8705 3.67013L30.3238 8.38264L27.7744 3.67013C26.6105 1.50642 24.3915 0.116555 21.9362 0.0132762C16.3848 -0.243887 12.7344 5.76472 15.5808 10.6187H9.64098C6.77818 10.6187 4.45742 12.9387 4.45742 15.8005V22.5986C4.45708 23.0568 4.63893 23.4964 4.96292 23.8205C5.28691 24.1446 5.72648 24.3267 6.18484 24.3267H7.91356V34.8087H2.72742C1.77319 34.8094 1 35.5829 1 36.5368V57.2719C1 58.2258 1.77319 58.9993 2.72742 59H9.64227C10.4758 59 11.1906 58.4051 11.3414 57.5856C14.8097 58.5236 18.3869 58.9992 21.9799 59H37.4148C41.208 58.9906 44.7795 57.2121 47.0719 54.1911C47.1067 54.1486 58.9311 39.6896 58.9645 39.6446C59.6393 38.7492 60.0029 37.6579 60 36.5368C59.9987 32.9957 56.4847 30.4485 53.0851 31.6533ZM7.91356 43.4481V55.5437H4.45742V38.265H7.91356V43.4481ZM51.3564 14.0737C52.3106 14.0751 53.0837 14.848 53.0851 15.8018V20.8705H35.6848V14.0737H51.3564ZM49.6277 34.4487L42.3849 41.9771C41.7309 39.7772 39.7093 38.2677 37.4135 38.265H35.6848V24.3267H49.6277V34.4487ZM35.8868 5.32112C36.4763 4.22453 37.6009 3.52021 38.8451 3.46826C40.1294 3.41022 41.3455 4.04811 42.0275 5.13758C42.7094 6.22704 42.7516 7.59923 42.1379 8.72853C41.531 9.89387 40.3227 10.6217 39.0085 10.6136H33.0236L35.8868 5.32112ZM28.7713 14.0737H32.2287V38.265H29.4285C29.2086 38.2647 28.989 38.2488 28.7713 38.2174V14.0737ZM21.5876 3.46311C21.6442 3.46311 21.7008 3.46311 21.7574 3.46311C23.001 3.5148 24.1253 4.21799 24.7157 5.3134L27.5802 10.6136H21.594C20.2788 10.6204 19.0704 9.8905 18.4646 8.72338C17.868 7.62091 17.8945 6.28617 18.5344 5.20824C19.1744 4.13031 20.3337 3.46767 21.5876 3.46311ZM7.91356 20.8705V15.8018C7.91356 14.8474 8.68752 14.0737 9.64227 14.0737H25.3139V20.8705H7.91356ZM25.3139 24.3267V36.2758C21.1181 33.3783 15.5667 33.3783 11.371 36.2758V24.3267H25.3139ZM56.2146 37.5475L44.3708 52.0309L44.3322 52.081C42.7051 54.2245 40.2163 55.5437 37.5267 55.5437H21.9799C18.0659 55.5437 14.8361 54.9754 11.371 54.0008V40.7736L12.5749 39.7141C15.8751 36.8203 20.8097 36.8203 24.1099 39.7141C25.5809 41.0051 27.471 41.718 29.4285 41.7199H37.3672C38.2595 41.7064 39.0204 42.3631 39.1371 43.2475C39.194 43.7374 39.0389 44.2282 38.7109 44.5966C38.383 44.9649 37.9133 45.1758 37.42 45.1762H25.1544C24.2633 45.1662 23.5056 45.8242 23.3909 46.7076C23.334 47.1977 23.4893 47.6887 23.8175 48.0572C24.1458 48.4256 24.6158 48.6363 25.1093 48.6363H38.5712C40.0042 48.6321 41.3721 48.0377 42.3527 46.9931L53.525 35.3796C53.5287 35.3768 53.5317 35.3733 53.534 35.3693L53.5443 35.3603C54.6055 34.2211 56.5387 34.9656 56.5387 36.5368C56.5407 36.8996 56.4272 37.2535 56.2146 37.5475Z" fill="#F05D6B" stroke="white" stroke-width="1.5"/>
</g>
<defs>
<clipPath id="clip0">
<path d="M0 0H60V60H0V0Z" fill="white"/>
</clipPath>
</defs>
</svg>
