<svg width="25" height="25" viewBox="0 0 25 25" fill="none" xmlns="http://www.w3.org/2000/svg">
<path d="M21.1442 13.1061C21.1442 12.4943 21.0946 11.8792 20.9888 11.2773H12.5V14.743H17.3611C17.1594 15.8607 16.5113 16.8495 15.5622 17.4778V19.7265H18.4623C20.1654 18.159 21.1442 15.8442 21.1442 13.1061Z" fill="#4285F4"/>
<path d="M12.4989 21.8982C14.9262 21.8982 16.9731 21.1013 18.4645 19.7256L15.5644 17.4769C14.7575 18.0258 13.7158 18.3367 12.5022 18.3367C10.1543 18.3367 8.16357 16.7527 7.44928 14.623H4.45654V16.9412C5.98433 19.9802 9.09611 21.8982 12.4989 21.8982Z" fill="#34A853"/>
<path d="M7.44678 14.6233C7.06979 13.5056 7.06979 12.2952 7.44678 11.1775V8.85938H4.45735C3.18088 11.4024 3.18088 14.3984 4.45735 16.9414L7.44678 14.6233Z" fill="#FBBC04"/>
<path d="M12.4989 7.46057C13.782 7.44073 15.0221 7.92353 15.9513 8.80978L18.5208 6.24032C16.8938 4.71254 14.7344 3.87259 12.4989 3.89904C9.09611 3.89904 5.98433 5.81704 4.45654 8.85938L7.44597 11.1775C8.15696 9.04457 10.151 7.46057 12.4989 7.46057Z" fill="#EA4335"/>
</svg>
