<svg width="57" height="51" viewBox="0 0 57 51" fill="none" xmlns="http://www.w3.org/2000/svg">
<path d="M21.7648 26.9782L23.9526 25.1489C24.2756 24.8866 24.5041 24.5258 24.6033 24.1216C24.7025 23.7174 24.6669 23.2918 24.5021 22.9096C24.3331 22.5294 24.0498 22.2114 23.6917 22C23.3335 21.7885 22.9184 21.6942 22.504 21.7301L19.5869 21.97L18.508 19.3709C18.3375 18.9925 18.0535 18.6767 17.6955 18.4671C17.3374 18.2575 16.9231 18.1646 16.5099 18.2013C16.1021 18.2389 15.7157 18.401 15.403 18.6656C15.0903 18.9302 14.8664 19.2846 14.7616 19.6808L14.1023 22.4198L11.1851 22.6597C10.7773 22.6973 10.3909 22.8594 10.0782 23.124C9.7655 23.3887 9.54162 23.743 9.43686 24.1392C9.33845 24.5433 9.37388 24.9685 9.53784 25.3507C9.70181 25.7329 9.98541 26.0515 10.346 26.2585L12.8136 27.7179L12.1642 30.437C12.0658 30.8411 12.1012 31.2663 12.2652 31.6485C12.4291 32.0307 12.7127 32.3493 13.0733 32.5562C13.3768 32.7324 13.7214 32.8255 14.0723 32.8261C14.5392 32.827 14.9916 32.6644 15.3511 32.3663L17.5589 30.507L20.0664 31.9864C20.4199 32.1917 20.8279 32.2835 21.2351 32.2496C21.6424 32.2156 22.0295 32.0575 22.3442 31.7965C22.6641 31.5319 22.8897 31.1706 22.9869 30.7669C23.0842 30.3631 23.048 29.9387 22.8837 29.5573L21.7648 26.9782ZM19.6369 27.0882L21.0754 30.257L17.9585 28.4277C17.7813 28.3258 17.577 28.2807 17.3734 28.2985C17.1697 28.3164 16.9764 28.3964 16.8196 28.5277L14.0923 30.9068L14.9215 27.508C14.973 27.2997 14.9562 27.0802 14.8734 26.8822C14.7906 26.6842 14.6464 26.518 14.4619 26.4084L11.5148 24.639L14.9714 24.3591C15.1819 24.3414 15.3814 24.2573 15.5411 24.119C15.7009 23.9807 15.8127 23.7953 15.8606 23.5894L16.6698 20.2306L18.0484 23.4195C18.1313 23.6114 18.2723 23.7726 18.4515 23.8802C18.6307 23.9878 18.8391 24.0364 19.0474 24.0193L22.504 23.7394L19.8966 25.9286C19.735 26.0686 19.6226 26.2568 19.5758 26.4656C19.5291 26.6743 19.5505 26.8925 19.6369 27.0882Z" fill="#F86A6A"/>
<path d="M56.2808 15.5123C55.9109 14.9852 55.7376 14.3449 55.7913 13.703C55.8001 13.4989 55.837 13.2971 55.9012 13.1032C56.0232 12.884 56.0688 12.6304 56.0308 12.3825C55.9928 12.1345 55.8734 11.9062 55.6914 11.7337L52.2448 8.8347C52.0928 8.70664 51.9062 8.62682 51.7086 8.60546C51.5111 8.58409 51.3117 8.62214 51.1359 8.71475C50.5865 9.0018 49.9658 9.12341 49.3488 9.06486C48.7318 9.00632 48.145 8.77013 47.6593 8.38486C47.2112 8.00924 46.8934 7.50125 46.7516 6.93376C46.6098 6.36628 46.6513 5.76843 46.8701 5.22598C46.9494 5.03077 46.9651 4.81546 46.9149 4.61079C46.8647 4.40612 46.7511 4.22258 46.5903 4.08638L43.1337 1.14742C42.9818 1.01936 42.7951 0.939542 42.5976 0.918174C42.4 0.896807 42.2006 0.934858 42.0248 1.02747C41.5874 1.26241 41.1009 1.39116 40.6046 1.40331C40.1082 1.41547 39.616 1.31069 39.1676 1.09744C38.9739 1.0051 38.7557 0.977602 38.5452 1.01901C38.3347 1.06042 38.1431 1.16853 37.9988 1.32736L32.7439 7.09532C32.2523 6.79978 31.8594 6.3649 31.615 5.84576C31.5278 5.66022 31.4609 5.46584 31.4152 5.26597C31.4178 5.02462 31.3409 4.78914 31.1965 4.59584C31.0521 4.40254 30.8481 4.26216 30.616 4.19634L26.2003 3.1967C26.0046 3.15156 25.7998 3.16653 25.6126 3.23964C25.4255 3.31276 25.2648 3.44062 25.1514 3.60655C24.8015 4.09549 24.3157 4.47079 23.7545 4.68583C23.1932 4.90087 22.5812 4.94618 21.9945 4.81613C21.4188 4.68853 20.8956 4.38883 20.4941 3.95677C20.0927 3.52471 19.832 2.98072 19.7467 2.39698C19.7269 2.18813 19.642 1.99079 19.5039 1.83291C19.3659 1.67503 19.1817 1.56461 18.9774 1.51729L14.5618 0.517646C14.3745 0.481959 14.1809 0.500645 14.0038 0.571498C13.8268 0.642352 13.6738 0.762413 13.5627 0.917504C13.2902 1.31063 12.9277 1.63281 12.5054 1.85715C12.083 2.08148 11.6132 2.20145 11.1351 2.20705C10.9055 2.20091 10.6809 2.27409 10.4989 2.41429C10.317 2.55448 10.1888 2.75313 10.1361 2.97678L0.525514 42.6727C0.474212 42.8955 0.500766 43.1291 0.600752 43.3347C0.700737 43.5402 0.868112 43.7053 1.07498 43.8023C1.4935 44.0083 1.85526 44.3137 2.12867 44.6919C2.40207 45.07 2.57881 45.5094 2.64344 45.9716C2.66906 46.1751 2.75661 46.3657 2.89422 46.5177C3.03183 46.6697 3.21284 46.7757 3.41268 46.8213L7.81836 47.8209C8.00663 47.8555 8.20087 47.8353 8.37797 47.7627C8.55508 47.69 8.7076 47.568 8.81738 47.4111C9.16815 46.9231 9.65399 46.5486 10.215 46.3336C10.7759 46.1187 11.3875 46.0728 11.9743 46.2015C12.5505 46.3278 13.0745 46.6271 13.4762 47.0594C13.8779 47.4917 14.1381 48.0364 14.2221 48.6206C14.2484 48.8255 14.3374 49.0171 14.4769 49.1693C14.6164 49.3214 14.7996 49.4266 15.0013 49.4703L19.5069 50.5H19.7267C19.8894 50.5013 20.05 50.4629 20.1946 50.388C20.3391 50.313 20.4631 50.2039 20.5559 50.0701C20.8274 49.6784 21.1884 49.357 21.6088 49.1327C22.0293 48.9085 22.4971 48.7878 22.9735 48.7806C23.1556 48.7754 23.3329 48.7206 23.4861 48.6219C23.6392 48.5232 23.7626 48.3845 23.8426 48.2208C24.2801 48.0085 24.76 47.8982 25.2463 47.8982C25.7325 47.8982 26.2124 48.0085 26.6499 48.2208C26.8436 48.3131 27.0618 48.3406 27.2723 48.2992C27.4828 48.2578 27.6744 48.1497 27.8188 47.9909L47.2897 26.6084L56.2808 16.7619C56.4227 16.5846 56.5 16.3642 56.5 16.1371C56.5 15.91 56.4227 15.6896 56.2808 15.5123ZM19.3171 48.4307L16.1302 47.701C15.8886 46.8561 15.426 46.0911 14.7903 45.4849C14.1546 44.8786 13.3687 44.4531 12.5138 44.2522C11.6534 44.0589 10.7575 44.0937 9.91471 44.3532C9.07192 44.6127 8.31143 45.0878 7.70847 45.7317L4.5216 45.0119C4.22771 43.975 3.59003 43.069 2.71337 42.4428L11.9143 4.16636C12.9971 3.97733 13.9873 3.43622 14.7316 2.6269L17.9085 3.35664C18.1642 4.19484 18.6358 4.95102 19.2758 5.54932C19.9158 6.14762 20.7018 6.56701 21.5549 6.76544C22.4168 6.95853 23.3141 6.92365 24.1585 6.66423C25.0028 6.40481 25.7651 5.92979 26.3702 5.28596L29.5471 6.0057C29.6144 6.2392 29.7013 6.46659 29.8068 6.68546C30.1529 7.43743 30.6861 8.08796 31.3553 8.5748L28.4981 20.3806C28.4082 20.7605 28.3582 20.9604 28.3382 21.0804L27.1994 25.7687H27.2893C27.0195 26.5085 26.6699 27.928 26.0005 30.697L24.8117 35.6952C23.7527 40.0537 23.443 41.3332 23.3531 41.6931L22.1044 46.8513C21.0237 47.038 20.0359 47.5797 19.2971 48.3907L19.3171 48.4307ZM35.4912 24.2193L38.738 25.5088L35.2515 26.2985C35.0469 26.3434 34.8615 26.4516 34.7217 26.6076C34.5819 26.7637 34.4946 26.9598 34.4722 27.1682L34.1126 30.727L32.2444 27.708C32.1346 27.5292 31.9712 27.3895 31.7775 27.3087C31.5839 27.228 31.3697 27.2103 31.1655 27.2582L28.7678 27.798C28.9876 26.8783 29.1375 26.2585 29.1474 26.2385L30.1465 22.05L31.675 22.6698C31.8633 22.7459 32.0703 22.7627 32.2684 22.7181C32.4665 22.6734 32.6463 22.5694 32.7839 22.4199L35.2415 19.6309L34.8818 23.1996C34.8611 23.4125 34.909 23.6263 35.0187 23.8099C35.1284 23.9934 35.294 24.1369 35.4912 24.2193ZM45.2517 25.7587L41.9049 29.5074C41.4154 29.9672 40.4663 31.0069 38.3185 33.366C36.1706 35.7252 35.1915 36.7948 34.8019 37.3046L26.7498 46.1015C25.9793 45.867 25.1636 45.8225 24.3721 45.9716L26.7498 36.145C26.7498 36.145 27.569 32.7562 28.2383 29.9672L30.9157 29.3574L32.4142 31.8066C32.5945 32.0914 32.8438 32.326 33.139 32.4886C33.4342 32.6511 33.7657 32.7363 34.1026 32.7362C34.2518 32.7558 34.4029 32.7558 34.5521 32.7362C34.9566 32.6457 35.3229 32.4316 35.6003 32.1236C35.8778 31.8155 36.0526 31.4288 36.1006 31.0169L36.3903 28.1679L39.3175 27.5081C39.7234 27.417 40.0907 27.2014 40.3683 26.8914C40.6459 26.5814 40.8199 26.1924 40.866 25.7787C40.9108 25.359 40.8168 24.9362 40.5984 24.5751C40.3801 24.214 40.0494 23.9345 39.6571 23.7794L36.9498 22.6798L37.2395 19.8708C37.2843 19.4511 37.1903 19.0283 36.972 18.6672C36.7537 18.3061 36.423 18.0266 36.0307 17.8715C35.6493 17.7138 35.2284 17.6781 34.8259 17.7694C34.4234 17.8607 34.0591 18.0745 33.7829 18.3813L31.7849 20.5805L30.626 20.1107L33.1635 9.61443L39.0078 3.1967C40.0943 3.52932 41.26 3.49419 42.3245 3.09673L44.7921 5.176C44.5995 6.02957 44.6459 6.91974 44.9262 7.74864C45.2064 8.57754 45.7096 9.31306 46.3806 9.87434C47.0749 10.4466 47.9074 10.8263 48.7945 10.9755C49.6817 11.1246 50.5924 11.0379 51.4356 10.724L53.9032 12.8033C53.8512 13.0372 53.8145 13.2743 53.7933 13.513C53.7348 14.3381 53.8897 15.1644 54.2428 15.9122L45.2517 25.7587Z" fill="#F86A6A"/>
</svg>
