<svg width="57" height="56" viewBox="0 0 57 56" fill="none" xmlns="http://www.w3.org/2000/svg">
<path d="M56.1477 47.3234L47.1527 38.3199L54.5727 33.8239C54.7569 33.7099 54.9057 33.5469 55.0026 33.353C55.0994 33.1591 55.1404 32.9421 55.1211 32.7262C55.1025 32.5119 55.0251 32.3069 54.8974 32.1338C54.7698 31.9607 54.5969 31.8262 54.3977 31.7453L19.7361 17.5335C19.5236 17.444 19.2894 17.4196 19.0631 17.4633C18.8368 17.5069 18.6285 17.6167 18.4644 17.7787C18.3006 17.9416 18.1887 18.1495 18.143 18.3761C18.0973 18.6027 18.1198 18.8378 18.2077 19.0516L32.3011 53.9097C32.3817 54.1103 32.5164 54.2847 32.6903 54.4132C32.8641 54.5417 33.0702 54.6194 33.2855 54.6375C33.5008 54.6557 33.717 54.6137 33.9098 54.5161C34.1027 54.4185 34.2647 54.2692 34.3777 54.0848L38.8927 46.6695L47.8294 55.6613C47.9384 55.7696 48.0677 55.8552 48.2098 55.9133C48.352 55.9714 48.5042 56.0009 48.6577 56C48.9666 55.9957 49.2625 55.8747 49.4861 55.6613L56.1477 49.005C56.2606 48.8961 56.3505 48.7655 56.4118 48.621C56.4731 48.4765 56.5048 48.3212 56.5048 48.1642C56.5048 48.0072 56.4731 47.8519 56.4118 47.7074C56.3505 47.563 56.2606 47.4324 56.1477 47.3234ZM48.6577 53.1623L39.4994 43.9485C39.3904 43.8403 39.2611 43.7547 39.119 43.6966C38.9768 43.6385 38.8246 43.609 38.6711 43.6099H38.5311C38.3539 43.631 38.184 43.6926 38.0343 43.7897C37.8847 43.8869 37.7592 44.0171 37.6677 44.1704L33.5844 50.8618L21.4161 20.7332L51.3877 32.9831L44.7144 37.1054C44.5649 37.1971 44.4379 37.3214 44.343 37.4689C44.2481 37.6165 44.1876 37.7837 44.1661 37.9579C44.1468 38.1327 44.1672 38.3096 44.2258 38.4754C44.2844 38.6412 44.3796 38.7916 44.5044 38.9154L53.6744 48.1409L48.6577 53.1623ZM9.8194 3.04139C9.74426 2.90442 9.69734 2.75375 9.68143 2.5983C9.66552 2.44285 9.68094 2.28579 9.72678 2.13641C9.77262 1.98704 9.84794 1.84839 9.94828 1.72869C10.0486 1.60898 10.172 1.51065 10.311 1.43952C10.45 1.36839 10.6018 1.32591 10.7575 1.31459C10.9132 1.30327 11.0696 1.32334 11.2174 1.37362C11.3652 1.4239 11.5015 1.50336 11.618 1.6073C11.7346 1.71124 11.8291 1.83754 11.8961 1.97871L15.9561 9.97797C16.0944 10.2538 16.1181 10.5732 16.0219 10.8664C15.9258 11.1596 15.7175 11.4028 15.4427 11.5428C15.2817 11.6302 15.1009 11.6745 14.9177 11.6712C14.7023 11.6706 14.4912 11.6102 14.308 11.4969C14.1247 11.3835 13.9763 11.2216 13.8794 11.029L9.8194 3.04139ZM21.3344 9.30066L24.0877 0.764227C24.192 0.480694 24.4021 0.248667 24.6737 0.116899C24.9454 -0.0148686 25.2575 -0.0361193 25.5444 0.0576122C25.8314 0.151344 26.0709 0.352761 26.2126 0.619542C26.3543 0.886323 26.3872 1.1977 26.3044 1.48825L23.5511 10.0247C23.4748 10.2588 23.3265 10.4628 23.1275 10.6075C22.9284 10.7522 22.6888 10.8303 22.4427 10.8304C22.3228 10.8475 22.201 10.8475 22.0811 10.8304C21.9288 10.7834 21.7877 10.7056 21.6666 10.6018C21.5456 10.4981 21.447 10.3706 21.377 10.2273C21.3071 10.0839 21.2672 9.92775 21.2599 9.76838C21.2525 9.60902 21.2779 9.44984 21.3344 9.30066ZM27.6111 14.1703C27.5403 14.0339 27.4971 13.8848 27.4841 13.7316C27.471 13.5785 27.4882 13.4242 27.5349 13.2778C27.5815 13.1313 27.6565 12.9955 27.7557 12.8781C27.8548 12.7607 27.9762 12.6641 28.1127 12.5938L36.0694 8.50657C36.3435 8.37638 36.6576 8.35822 36.9449 8.45595C37.2322 8.55368 37.4702 8.75961 37.6083 9.03005C37.7464 9.30049 37.7738 9.61415 37.6847 9.9045C37.5956 10.1948 37.397 10.439 37.1311 10.5852L29.1744 14.6724C29.0119 14.7558 28.832 14.7998 28.6494 14.8009C28.4364 14.8024 28.227 14.7456 28.0439 14.6365C27.8609 14.5274 27.7112 14.3702 27.6111 14.182V14.1703ZM0.544399 12.804C0.640504 12.5099 0.849293 12.266 1.12491 12.1259C1.40053 11.9857 1.72045 11.9608 2.0144 12.0566L10.5077 14.8242C10.8172 14.8722 11.0948 15.0413 11.2797 15.2943C11.4646 15.5472 11.5415 15.8633 11.4936 16.173C11.4456 16.4827 11.2767 16.7607 11.024 16.9457C10.7713 17.1308 10.4555 17.2078 10.1461 17.1598C10.0301 17.1209 9.9201 17.0658 9.8194 16.9963L1.29107 14.2287C1.00787 14.1323 0.772485 13.9307 0.63353 13.6656C0.494575 13.4004 0.462667 13.092 0.544399 12.804ZM16.1544 29.1528L11.3477 36.7083C11.2413 36.8745 11.0945 37.0109 10.921 37.1048C10.7476 37.1987 10.5532 37.2472 10.3561 37.2455C10.1468 37.2452 9.94149 37.1885 9.76163 37.0814C9.58177 36.9743 9.434 36.8208 9.33379 36.6369C9.23359 36.453 9.18464 36.2456 9.19208 36.0362C9.19951 35.8269 9.26306 35.6234 9.37607 35.4471L14.1827 27.8916C14.2655 27.7621 14.3729 27.65 14.4989 27.562C14.6248 27.474 14.7669 27.4117 14.917 27.3786C15.067 27.3455 15.2221 27.3423 15.3733 27.3693C15.5246 27.3962 15.6691 27.4527 15.7986 27.5355C15.928 27.6183 16.0399 27.7258 16.1279 27.8519C16.2158 27.978 16.2781 28.1202 16.3111 28.2704C16.3442 28.4206 16.3473 28.5758 16.3204 28.7272C16.2936 28.8786 16.2371 29.0233 16.1544 29.1528ZM10.4494 23.9562L2.5044 27.9851C2.33835 28.0702 2.15431 28.1143 1.96773 28.1135C1.70549 28.1146 1.45054 28.0272 1.24402 27.8654C1.03749 27.7036 0.891441 27.477 0.829426 27.2219C0.76741 26.9669 0.793049 26.6983 0.902205 26.4597C1.01136 26.221 1.19767 26.0261 1.43107 25.9064L9.38773 21.8309C9.52793 21.7579 9.68148 21.7143 9.83905 21.7025C9.99663 21.6907 10.1549 21.7111 10.3044 21.7625C10.4539 21.8138 10.5914 21.895 10.7085 22.0011C10.8257 22.1072 10.9201 22.236 10.9861 22.3797C11.0556 22.5183 11.0969 22.6693 11.1075 22.8239C11.1181 22.9786 11.0978 23.1338 11.0479 23.2806C10.9979 23.4273 10.9193 23.5626 10.8165 23.6787C10.7138 23.7947 10.589 23.889 10.4494 23.9562Z" fill="#0797FF"/>
</svg>
