<svg width="16" height="20" viewBox="0 0 16 20" fill="none" xmlns="http://www.w3.org/2000/svg">
<path d="M15.9934 18.6139L14.7082 5.13952C14.6813 4.82718 14.5468 4.53677 14.3307 4.32499C14.1147 4.11321 13.8327 3.99527 13.5398 3.99419H11.6884C11.6748 2.94767 11.2836 1.94738 10.5967 1.20283C9.90977 0.458283 8.9805 0.0272452 8.00348 0C7.01864 0.0174654 6.07898 0.445499 5.38418 1.19314C4.68938 1.94079 4.29421 2.9491 4.28264 4.00382H2.48514C2.19225 4.00489 1.91025 4.12284 1.69421 4.33462C1.47816 4.5464 1.34359 4.83681 1.31676 5.14914L0.00458076 18.6139C-0.00943104 18.7867 0.008779 18.9608 0.0581522 19.126C0.107525 19.2913 0.187077 19.4443 0.292182 19.5764C0.40508 19.7116 0.543702 19.8193 0.698725 19.8923C0.853749 19.9654 1.02158 20.002 1.19093 19.9998H14.825C14.9953 20.0028 15.1642 19.9655 15.3195 19.8906C15.4748 19.8158 15.6129 19.7052 15.7238 19.5667C15.8259 19.4352 15.9023 19.2832 15.9486 19.1195C15.9949 18.9559 16.0102 18.784 15.9934 18.6139ZM8.00348 1.44368C8.63078 1.46093 9.22766 1.73678 9.6697 2.21374C10.1117 2.69069 10.3648 3.33194 10.3762 4.00382H5.63077C5.64214 3.33194 5.89523 2.69069 6.33726 2.21374C6.7793 1.73678 7.37618 1.46093 8.00348 1.44368ZM1.37068 18.5754L2.61995 5.4475H13.405L14.6363 18.5754H1.37068ZM11.3379 9.20108L5.14545 15.6495C5.09403 15.7057 5.03243 15.7501 4.96443 15.7799C4.89642 15.8097 4.82345 15.8243 4.75 15.8228C4.67725 15.8241 4.60499 15.8098 4.53743 15.7809C4.46988 15.752 4.40837 15.7089 4.35651 15.6543C4.30464 15.5996 4.26346 15.5345 4.23534 15.4626C4.20723 15.3907 4.19276 15.3136 4.19277 15.2357C4.19619 15.0809 4.25395 14.9331 4.35454 14.8218L10.5469 8.37337C10.6527 8.26285 10.7946 8.20098 10.9424 8.20098C11.0902 8.20098 11.2321 8.26285 11.3379 8.37337C11.3905 8.42625 11.4322 8.49045 11.4601 8.56178C11.4879 8.6331 11.5014 8.70993 11.4996 8.78722C11.4998 8.86428 11.4856 8.94059 11.4578 9.01166C11.43 9.08274 11.3892 9.14714 11.3379 9.20108ZM5.94534 11.2896C6.30085 11.2896 6.64838 11.1767 6.94398 10.9652C7.23957 10.7537 7.46996 10.4531 7.60601 10.1013C7.74206 9.7496 7.77766 9.36256 7.7083 8.98917C7.63895 8.61577 7.46775 8.27278 7.21636 8.00358C6.96498 7.73438 6.64469 7.55105 6.29601 7.47677C5.94733 7.4025 5.58591 7.44062 5.25746 7.58631C4.92901 7.732 4.64828 7.97872 4.45076 8.29527C4.25325 8.61182 4.14783 8.98399 4.14783 9.3647C4.1478 9.61993 4.19518 9.87262 4.28719 10.1081C4.3792 10.3435 4.51402 10.557 4.6838 10.7361C4.85358 10.9153 5.05493 11.0564 5.27614 11.1515C5.49735 11.2465 5.73399 11.2934 5.9723 11.2896H5.94534ZM5.9723 8.6621C6.10479 8.66589 6.23331 8.71142 6.34176 8.793C6.45022 8.87459 6.53382 8.9886 6.58209 9.12079C6.63036 9.25297 6.64117 9.39747 6.61317 9.5362C6.58517 9.67493 6.51959 9.80175 6.42465 9.90078C6.3297 9.99982 6.2096 10.0667 6.07936 10.093C5.94911 10.1193 5.81451 10.104 5.69239 10.0488C5.57026 9.99365 5.46603 9.90116 5.39273 9.78291C5.31943 9.66465 5.28031 9.52588 5.28026 9.38395C5.28495 9.19075 5.35992 9.00716 5.4892 8.87232C5.61848 8.73747 5.79183 8.66204 5.9723 8.6621ZM9.7201 12.714C9.36458 12.714 9.01705 12.8269 8.72146 13.0385C8.42586 13.25 8.19547 13.5506 8.05942 13.9023C7.92337 14.2541 7.88777 14.6411 7.95713 15.0145C8.02649 15.3879 8.19768 15.7309 8.44907 16.0001C8.70045 16.2693 9.02074 16.4526 9.36942 16.5269C9.7181 16.6012 10.0795 16.563 10.408 16.4173C10.7364 16.2717 11.0172 16.0249 11.2147 15.7084C11.4122 15.3918 11.5176 15.0197 11.5176 14.639C11.5129 14.1318 11.3214 13.6471 10.9848 13.2903C10.6482 12.9334 10.1937 12.7333 9.7201 12.7333V12.714ZM9.7201 15.3127C9.54046 15.3153 9.3671 15.242 9.23757 15.1087C9.10804 14.9754 9.03277 14.7928 9.02806 14.6005C9.02806 14.4039 9.10097 14.2154 9.23075 14.0764C9.36053 13.9374 9.53656 13.8594 9.7201 13.8594C9.90364 13.8594 10.0797 13.9374 10.2094 14.0764C10.3392 14.2154 10.4121 14.4039 10.4121 14.6005C10.4134 14.6977 10.3963 14.7942 10.3618 14.8842C10.3274 14.9742 10.2763 15.0558 10.2116 15.1241C10.147 15.1924 10.0702 15.246 9.98568 15.2817C9.90122 15.3175 9.81088 15.3345 9.7201 15.3319V15.3127Z" fill="#F86A6A"/>
</svg>
