<svg width="20" height="15" viewBox="0 0 20 15" fill="none" xmlns="http://www.w3.org/2000/svg">
<path d="M19.5971 2.1978C19.7436 2.85714 19.8901 3.88278 19.9634 5.20147L20 7.03297L19.9634 8.86447C19.8901 10.2564 19.7436 11.2454 19.5971 11.9048C19.4506 12.3443 19.2308 12.7106 18.9377 13.0037C18.6081 13.3333 18.2418 13.5531 17.8022 13.663C17.1429 13.8462 15.6777 13.956 13.3333 14.0293L10 14.0659L6.66667 14.0293C4.32234 13.956 2.82051 13.8462 2.1978 13.663C1.75824 13.5531 1.35531 13.3333 1.06227 13.0037C0.732601 12.7106 0.512821 12.3443 0.40293 11.9048C0.21978 11.2454 0.10989 10.2564 0.03663 8.86447L0 7.03297C0 6.52015 0 5.89744 0.03663 5.20147C0.10989 3.88278 0.21978 2.85714 0.40293 2.1978C0.512821 1.75824 0.732601 1.39194 1.06227 1.06227C1.35531 0.769231 1.75824 0.549451 2.1978 0.40293C2.82051 0.25641 4.32234 0.10989 6.66667 0.03663L10 0L13.3333 0.03663C15.6777 0.10989 17.1429 0.25641 17.8022 0.40293C18.2418 0.549451 18.6081 0.769231 18.9377 1.06227C19.2308 1.39194 19.4506 1.75824 19.5971 2.1978ZM7.94872 10.0366L13.1868 7.03297L7.94872 4.06593V10.0366Z" fill="#FF0000"/>
</svg>
