<svg width="20" height="20" viewBox="0 0 20 20" fill="none" xmlns="http://www.w3.org/2000/svg">
<path d="M10 20C8.02219 20 6.08879 19.4135 4.4443 18.3147C2.79981 17.2159 1.51809 15.6541 0.761209 13.8268C0.00433284 11.9996 -0.193701 9.98891 0.192152 8.0491C0.578004 6.10929 1.53041 4.32746 2.92894 2.92894C4.32746 1.53041 6.10929 0.578004 8.0491 0.192152C9.98891 -0.193701 11.9996 0.00433284 13.8268 0.761209C15.6541 1.51809 17.2159 2.79981 18.3147 4.4443C19.4135 6.08879 20 8.02219 20 10C20 12.6522 18.9464 15.1957 17.0711 17.0711C15.1957 18.9464 12.6522 20 10 20ZM10 1.54C8.32677 1.54 6.69112 2.03618 5.29988 2.96577C3.90864 3.89537 2.8243 5.21664 2.18398 6.7625C1.54367 8.30837 1.37613 10.0094 1.70256 11.6505C2.02899 13.2915 2.83473 14.799 4.01788 15.9821C5.20103 17.1653 6.70846 17.971 8.34954 18.2974C9.99062 18.6239 11.6916 18.4563 13.2375 17.816C14.7834 17.1757 16.1046 16.0914 17.0342 14.7001C17.9638 13.3089 18.46 11.6732 18.46 10C18.46 7.75627 17.5687 5.60444 15.9821 4.01788C14.3956 2.43132 12.2437 1.54 10 1.54ZM15.33 13.45C15.3854 13.3656 15.4235 13.271 15.4419 13.1717C15.4604 13.0724 15.4588 12.9704 15.4374 12.8717C15.416 12.7731 15.3751 12.6796 15.3172 12.5969C15.2593 12.5142 15.1854 12.4439 15.1 12.39L10.77 9.58V4.74C10.77 4.53579 10.6889 4.33993 10.5445 4.19553C10.4001 4.05113 10.2042 3.97 10 3.97C9.79579 3.97 9.59994 4.05113 9.45553 4.19553C9.31113 4.33993 9.23 4.53579 9.23 4.74V10.42L14.23 13.68C14.3528 13.7574 14.4948 13.7989 14.64 13.8C14.7758 13.8088 14.9115 13.7809 15.0329 13.7194C15.1543 13.6578 15.2569 13.5648 15.33 13.45Z" fill="#55C9A5"/>
</svg>
