<svg width="57" height="56" viewBox="0 0 57 56" fill="none" xmlns="http://www.w3.org/2000/svg">
<path d="M40.1883 16.8134C37.6249 16.8139 35.0988 17.4271 32.8207 18.6019C32.204 15.5765 30.7411 12.788 28.6019 10.5606C26.4627 8.33309 23.7351 6.75798 20.7359 6.01824C17.7367 5.2785 14.589 5.40448 11.6586 6.38157C8.72818 7.35865 6.13529 9.14671 4.18117 11.538C2.22705 13.9293 0.991903 16.8258 0.619234 19.8908C0.246564 22.9558 0.751667 26.0635 2.07586 28.853C3.40006 31.6425 5.48898 33.9993 8.09996 35.6494C10.7109 37.2995 13.7368 38.1754 16.826 38.1751C19.3917 38.1774 21.9209 37.5677 24.2036 36.3966C24.8237 39.4178 26.2884 42.2013 28.4277 44.4239C30.5669 46.6466 33.2929 48.2173 36.2894 48.9538C39.2858 49.6902 42.4298 49.5623 45.3565 48.5847C48.2831 47.6072 50.8723 45.8201 52.8237 43.431C54.775 41.0419 56.0084 38.1486 56.3808 35.0871C56.7531 32.0255 56.2491 28.9212 54.9273 26.1344C53.6054 23.3476 51.52 20.9926 48.9129 19.3427C46.3058 17.6929 43.284 16.8158 40.1983 16.8134H40.1883ZM16.816 36.1768C14.0391 36.2069 11.3125 35.4364 8.96257 33.9575C6.61263 32.4786 4.73899 30.3541 3.56602 27.8383C2.39306 25.3226 1.97049 22.5222 2.34892 19.7726C2.72734 17.0229 3.89073 14.4406 5.69975 12.3348C7.50878 10.229 9.88676 8.68903 12.5489 7.89924C15.2111 7.10944 18.0446 7.10334 20.7102 7.88165C23.3758 8.65996 25.7604 10.1897 27.5785 12.2877C29.3965 14.3857 30.5711 16.9629 30.9613 19.7109C28.7752 21.2283 26.9893 23.2524 25.7567 25.6102C24.5241 27.968 23.8814 30.5891 23.8837 33.2493C23.8837 33.589 23.8837 33.9188 23.9336 34.2485C21.7742 35.5107 19.3176 36.1763 16.816 36.1768ZM40.1883 47.687C37.3255 47.7147 34.519 46.8916 32.1252 45.3221C29.7313 43.7526 27.8581 41.5076 26.7433 38.872C25.6284 36.2364 25.3223 33.3292 25.8638 30.5194C26.4053 27.7096 27.7699 25.124 29.7844 23.0909C31.7989 21.0577 34.3725 19.6687 37.1784 19.1002C39.9842 18.5317 42.8958 18.8093 45.5435 19.8978C48.1912 20.9863 50.4556 22.8367 52.0491 25.2139C53.6427 27.5911 54.4935 30.3879 54.4937 33.2493C54.507 37.0583 53.0085 40.7171 50.3269 43.4236C47.6452 46.13 43.9993 47.6632 40.1883 47.687ZM47.276 30.9313H46.0364C45.8083 30.0068 45.2766 29.1854 44.5263 28.5985C43.776 28.0117 42.8505 27.6932 41.8978 27.6941H37.1893C36.9242 27.6941 36.6699 27.7994 36.4824 27.9867C36.295 28.1741 36.1896 28.4282 36.1896 28.6932V30.9313H35.08C34.8149 30.9313 34.5606 31.0366 34.3731 31.224C34.1856 31.4113 34.0803 31.6655 34.0803 31.9305C34.0803 32.1955 34.1856 32.4496 34.3731 32.637C34.5606 32.8243 34.8149 32.9296 35.08 32.9296H36.1896V39.7238C36.1896 39.9888 36.295 40.2429 36.4824 40.4303C36.6699 40.6177 36.9242 40.7229 37.1893 40.7229C37.4544 40.7229 37.7087 40.6177 37.8962 40.4303C38.0837 40.2429 38.189 39.9888 38.189 39.7238V36.1668H41.8978C42.8501 36.166 43.7747 35.8469 44.5246 35.2603C45.2746 34.6737 45.8067 33.8533 46.0364 32.9296H47.276C47.5411 32.9296 47.7954 32.8243 47.9829 32.637C48.1704 32.4496 48.2757 32.1955 48.2757 31.9305C48.2757 31.6655 48.1704 31.4113 47.9829 31.224C47.7954 31.0366 47.5411 30.9313 47.276 30.9313ZM38.189 29.6824H41.8978C42.314 29.6853 42.7213 29.8035 43.0743 30.024C43.4273 30.2445 43.7121 30.5586 43.8971 30.9313H38.189V29.6824ZM41.8978 34.1685H38.189V32.9296H43.9171C43.7283 33.3027 43.4395 33.6161 43.083 33.8349C42.7264 34.0536 42.3161 34.1692 41.8978 34.1685ZM20.6847 24.0072C20.6436 24.8875 20.2949 25.7255 19.6995 26.3754C19.1041 27.0253 18.2995 27.4459 17.4258 27.5642V29.8123C17.4258 30.0773 17.3204 30.3314 17.133 30.5188C16.9455 30.7062 16.6912 30.8114 16.4261 30.8114C16.161 30.8114 15.9067 30.7062 15.7192 30.5188C15.5317 30.3314 15.4264 30.0773 15.4264 29.8123V27.4543C14.4901 27.2032 13.6723 26.63 13.1172 25.8357C13.044 25.7262 12.9931 25.6034 12.9676 25.4742C12.942 25.3451 12.9423 25.2122 12.9683 25.0831C12.9943 24.9541 13.0456 24.8314 13.1192 24.7222C13.1927 24.613 13.2872 24.5195 13.3971 24.4469C13.5072 24.3742 13.6306 24.324 13.7602 24.2992C13.8898 24.2744 14.0231 24.2755 14.1522 24.3025C14.2814 24.3294 14.404 24.3816 14.5129 24.4561C14.6217 24.5307 14.7148 24.626 14.7866 24.7366C14.9979 25.0199 15.2746 25.2478 15.5932 25.401C15.9118 25.5541 16.2627 25.6278 16.616 25.6159C17.1022 25.6674 17.5894 25.5286 17.9752 25.2286C18.3611 24.9286 18.6157 24.4909 18.6854 24.0072C18.6204 23.52 18.3678 23.0773 17.9814 22.7731C17.595 22.469 17.1052 22.3275 16.616 22.3786H16.5261H16.4261C15.4079 22.4305 14.4104 22.0787 13.6504 21.3995C12.8904 20.7203 12.4293 19.7688 12.3674 18.7517C12.4059 17.9088 12.7295 17.1039 13.2851 16.4686C13.8408 15.8334 14.5957 15.4054 15.4264 15.2547V13.6961C15.4264 13.4311 15.5317 13.1769 15.7192 12.9896C15.9067 12.8022 16.161 12.6969 16.4261 12.6969C16.6912 12.6969 16.9455 12.8022 17.133 12.9896C17.3204 13.1769 17.4258 13.4311 17.4258 13.6961V15.2247C18.4426 15.4325 19.3388 16.0273 19.9249 16.8833C19.9991 16.9922 20.0511 17.1147 20.0779 17.2437C20.1048 17.3726 20.1059 17.5056 20.0813 17.6351C20.0567 17.7645 20.0068 17.8878 19.9346 17.998C19.8623 18.1081 19.769 18.203 19.66 18.2771C19.5511 18.3513 19.4286 18.4032 19.2995 18.43C19.1705 18.4569 19.0374 18.458 18.9079 18.4334C18.7784 18.4088 18.655 18.359 18.5448 18.2868C18.4346 18.2145 18.3397 18.1213 18.2655 18.0124C18.0544 17.7258 17.7765 17.4951 17.456 17.3401C17.1354 17.1852 16.7819 17.1107 16.4261 17.1231C15.9381 17.0722 15.4494 17.214 15.0646 17.5183C14.6798 17.8226 14.4294 18.2653 14.3668 18.7517C14.4294 19.2382 14.6798 19.6808 15.0646 19.9852C15.4494 20.2895 15.9381 20.4313 16.4261 20.3803H16.5261H16.616C17.6352 20.3284 18.6338 20.6799 19.3954 21.3588C20.1571 22.0377 20.6203 22.9893 20.6847 24.0072ZM24.1736 53.7918C24.2265 53.9124 24.2551 54.0424 24.2576 54.1741C24.2601 54.3058 24.2365 54.4367 24.1882 54.5593C24.1399 54.6819 24.0678 54.7937 23.976 54.8883C23.8843 54.9829 23.7748 55.0585 23.6537 55.1106C21.8049 55.9159 19.7659 56.1818 17.7722 55.8777C15.7786 55.5736 13.9117 54.7119 12.3874 53.3921C10.5225 51.7857 9.25736 49.595 8.79859 47.1774L7.73893 49.0658C7.65261 49.2235 7.52534 49.355 7.37051 49.4464C7.21569 49.5379 7.03905 49.5859 6.85922 49.5854C6.69051 49.5859 6.52476 49.541 6.37938 49.4555C6.26447 49.3919 6.16322 49.3063 6.08143 49.2036C5.99964 49.1008 5.93891 48.983 5.9027 48.8568C5.86649 48.7306 5.85552 48.5985 5.87042 48.4681C5.88531 48.3377 5.92578 48.2114 5.98951 48.0966L8.50868 43.6005V43.5305C8.50492 43.5007 8.50492 43.4705 8.50868 43.4406L8.58866 43.3807L8.7486 43.2508L8.91855 43.1709H9.09849C9.16137 43.1604 9.22554 43.1604 9.28843 43.1709H9.46837C9.53458 43.1801 9.59878 43.2004 9.65831 43.2308C9.69138 43.225 9.7252 43.225 9.75827 43.2308L9.83825 43.2908H9.91822L13.8469 46.5779C13.9541 46.656 14.0447 46.7546 14.1135 46.868C14.1822 46.9813 14.2276 47.1073 14.2472 47.2384C14.2667 47.3695 14.2599 47.5032 14.2273 47.6317C14.1946 47.7602 14.1367 47.8809 14.0569 47.9867C13.9629 48.0995 13.8452 48.1902 13.7121 48.2524C13.5791 48.3146 13.434 48.3467 13.2871 48.3464C13.0535 48.3469 12.8272 48.2656 12.6473 48.1166L10.718 46.498C11.0546 48.5751 12.1172 50.4656 13.717 51.8334C14.9568 52.9047 16.4745 53.6035 18.0949 53.8493C19.7152 54.095 21.372 53.8776 22.874 53.2223C23.1193 53.1234 23.3938 53.1257 23.6373 53.2287C23.8809 53.3317 24.0737 53.527 24.1736 53.7718V53.7918ZM30.8814 2.39572C30.8189 2.27565 30.7815 2.14415 30.7715 2.0092C30.7614 1.87425 30.7789 1.73866 30.8228 1.61066C30.8667 1.48266 30.9362 1.36492 31.0271 1.26457C31.1179 1.16422 31.2282 1.08336 31.3512 1.02689C33.1744 0.164339 35.2047 -0.164851 37.2072 0.0773785C39.2098 0.319607 41.1028 1.12336 42.6675 2.39572C44.6009 3.9323 45.9516 6.08244 46.4963 8.49051L47.4959 6.49221C47.6211 6.26443 47.8301 6.09434 48.0787 6.01803C48.3272 5.94173 48.5957 5.96522 48.8272 6.08351C49.0587 6.20181 49.235 6.4056 49.3187 6.65165C49.4024 6.8977 49.3868 7.16665 49.2754 7.40144L46.9061 12.0175L46.8262 12.1174C46.8262 12.1174 46.8262 12.1174 46.8262 12.1774C46.7397 12.2769 46.6344 12.3584 46.5163 12.4171C46.5163 12.4171 46.5163 12.4171 46.4463 12.4171C46.3252 12.4774 46.1916 12.5082 46.0564 12.5071C45.9611 12.505 45.8666 12.4882 45.7765 12.4571H45.6965H45.6066C45.6066 12.4571 45.6066 12.4571 45.5466 12.4571L45.4466 12.4072L41.4479 9.24986C41.2615 9.08003 41.1462 8.84604 41.1252 8.59482C41.1041 8.34359 41.1788 8.0937 41.3344 7.89525C41.49 7.69679 41.7148 7.56445 41.9639 7.52475C42.213 7.48505 42.4679 7.54094 42.6775 7.6812L44.6769 9.21988C44.2798 7.16017 43.1638 5.3083 41.5279 3.99435C40.2518 2.96395 38.7098 2.31576 37.0804 2.1248C35.4511 1.93383 33.8009 2.20789 32.3209 2.91527C32.1947 2.98836 32.0541 3.03298 31.9088 3.04599C31.7636 3.059 31.6172 3.04009 31.4801 2.99058C31.3429 2.94108 31.2182 2.86218 31.1148 2.75941C31.0114 2.65665 30.9317 2.53252 30.8814 2.39572Z" fill="#00A99C"/>
</svg>
