<svg width="18" height="18" viewBox="0 0 18 18" fill="none" xmlns="http://www.w3.org/2000/svg">
<path d="M17.7834 16.6331L13.4801 12.3324L13.3725 12.2571C14.4673 10.9235 15.0643 9.25124 15.0616 7.5263C15.0616 6.03774 14.6199 4.58261 13.7924 3.34491C12.9649 2.10722 11.7888 1.14256 10.4127 0.572909C9.03664 0.00326108 7.52245 -0.145785 6.06162 0.144619C4.60078 0.435023 3.25892 1.15183 2.20572 2.20441C1.15252 3.25698 0.435283 4.59804 0.144706 6.058C-0.145872 7.51795 0.00326303 9.03124 0.573251 10.4065C1.14324 11.7817 2.10848 12.9572 3.34691 13.7842C4.58535 14.6112 6.04135 15.0526 7.5308 15.0526C9.25545 15.0584 10.9286 14.4655 12.2644 13.3753C12.2644 13.3753 12.2644 13.4506 12.3398 13.4828L16.6431 17.7836C16.796 17.926 16.9983 18.0036 17.2074 17.9999C17.4164 17.9962 17.6158 17.9116 17.7637 17.7638C17.9115 17.6161 17.9962 17.4167 17.9999 17.2078C18.0036 16.9989 17.926 16.7967 17.7834 16.6439V16.6331ZM7.5308 13.4291C6.35961 13.4312 5.21412 13.0859 4.23942 12.4369C3.26472 11.788 2.50465 10.8645 2.05547 9.78353C1.60628 8.70254 1.4882 7.51264 1.71617 6.36452C1.94414 5.21641 2.5079 4.16174 3.33606 3.33407C4.16423 2.5064 5.21953 1.94297 6.36833 1.71514C7.51713 1.48731 8.70774 1.60532 9.78938 2.05424C10.871 2.50315 11.795 3.26277 12.4444 4.23689C13.0937 5.21101 13.4392 6.35581 13.4371 7.5263C13.4371 9.09181 12.8148 10.5932 11.7072 11.7002C10.5995 12.8072 9.09725 13.4291 7.5308 13.4291Z" fill="black"/>
</svg>
