<svg width="20" height="20" viewBox="0 0 20 20" fill="none" xmlns="http://www.w3.org/2000/svg">
<path d="M17.22 3.51H14.9V2.77C14.8974 2.03443 14.6033 1.32989 14.0822 0.810704C13.5612 0.291514 12.8556 -4.75885e-06 12.12 0L7.88 0C7.14443 -4.75885e-06 6.43884 0.291514 5.91777 0.810704C5.39671 1.32989 5.10265 2.03443 5.1 2.77V3.51H2.78C2.0427 3.51 1.33559 3.80289 0.814243 4.32424C0.292892 4.84559 0 5.5527 0 6.29L0 17.22C0.00263506 17.9565 0.296373 18.6621 0.817154 19.1828C1.33794 19.7036 2.04351 19.9974 2.78 20H17.22C17.9565 19.9974 18.6621 19.7036 19.1828 19.1828C19.7036 18.6621 19.9974 17.9565 20 17.22V6.29C20 5.5527 19.7071 4.84559 19.1858 4.32424C18.6644 3.80289 17.9573 3.51 17.22 3.51ZM6.62 2.77C6.61999 2.605 6.65266 2.44164 6.7161 2.28932C6.77954 2.13701 6.87251 1.99877 6.98965 1.88256C7.10678 1.76636 7.24576 1.67449 7.39857 1.61226C7.55139 1.55004 7.71501 1.51868 7.88 1.52H12.12C12.285 1.51868 12.4486 1.55004 12.6014 1.61226C12.7542 1.67449 12.8932 1.76636 13.0104 1.88256C13.1275 1.99877 13.2205 2.13701 13.2839 2.28932C13.3473 2.44164 13.38 2.605 13.38 2.77V3.51H6.62V2.77ZM2.78 5H17.22C17.3863 4.99999 17.551 5.03291 17.7045 5.09686C17.858 5.1608 17.9974 5.25451 18.1145 5.37257C18.2316 5.49064 18.3242 5.63072 18.387 5.78475C18.4497 5.93877 18.4813 6.10369 18.48 6.27V8.77H1.48V6.29C1.47583 6.11861 1.50668 5.94816 1.57067 5.78911C1.63465 5.63005 1.73042 5.48573 1.85212 5.36496C1.97382 5.2442 2.11888 5.14955 2.27842 5.0868C2.43797 5.02404 2.60864 4.99451 2.78 5ZM11.92 10.28V11.21H8.08V10.3L11.92 10.28ZM17.22 18.46H2.78C2.61416 18.4613 2.44972 18.4297 2.29625 18.3668C2.14278 18.304 2.00334 18.2112 1.88608 18.0939C1.76881 17.9767 1.67605 17.8372 1.6132 17.6838C1.55035 17.5303 1.51867 17.3658 1.52 17.2V10.28H6.52V12C6.52 12.2016 6.60007 12.3949 6.7426 12.5374C6.88513 12.6799 7.07844 12.76 7.28 12.76H12.64C12.8416 12.76 13.0349 12.6799 13.1774 12.5374C13.3199 12.3949 13.4 12.2016 13.4 12V10.28H18.4V17.22C18.4031 17.5415 18.2822 17.8518 18.0624 18.0864C17.8427 18.3211 17.541 18.462 17.22 18.48V18.46Z" fill="#161720"/>
</svg>
