<svg width="57" height="46" viewBox="0 0 57 46" fill="none" xmlns="http://www.w3.org/2000/svg">
<path d="M55.4953 44.0068H53.3552V32.3267H55.4953C55.7617 32.3267 56.0173 32.2217 56.2057 32.0348C56.3941 31.8479 56.5 31.5944 56.5 31.3301C56.5 31.0658 56.3941 30.8123 56.2057 30.6254C56.0173 30.4385 55.7617 30.3335 55.4953 30.3335H50.4716V26.8553L53.7269 23.4868C53.8627 23.3465 53.954 23.1698 53.9897 22.9785C54.0254 22.7872 54.0039 22.5898 53.9279 22.4105C53.851 22.2304 53.7223 22.0767 53.5579 21.9686C53.3936 21.8605 53.2008 21.8028 53.0035 21.8026H45.9202C45.723 21.8028 45.5302 21.8605 45.3658 21.9686C45.2014 22.0767 45.0728 22.2304 44.9958 22.4105C44.9198 22.5898 44.8983 22.7872 44.934 22.9785C44.9697 23.1698 45.0611 23.3465 45.1968 23.4868L48.4622 26.8553V30.3335H43.4385C43.172 30.3335 42.9165 30.4385 42.7281 30.6254C42.5396 30.8123 42.4338 31.0658 42.4338 31.3301C42.4338 31.5944 42.5396 31.8479 42.7281 32.0348C42.9165 32.2217 43.172 32.3267 43.4385 32.3267H45.5786V44.0068H43.4385C43.172 44.0068 42.9165 44.1118 42.7281 44.2987C42.5396 44.4856 42.4338 44.7391 42.4338 45.0034C42.4338 45.2677 42.5396 45.5212 42.7281 45.7081C42.9165 45.895 43.172 46 43.4385 46H55.4953C55.7617 46 56.0173 45.895 56.2057 45.7081C56.3941 45.5212 56.5 45.2677 56.5 45.0034C56.5 44.7391 56.3941 44.4856 56.2057 44.2987C56.0173 44.1118 55.7617 44.0068 55.4953 44.0068ZM50.6424 23.7958L49.4669 25.0216L48.2813 23.7958H50.6424ZM47.578 44.0068V32.3267H51.3457V44.0068H47.578Z" fill="#B4278C"/>
<path d="M33.3912 23.6463V13.0624C33.4392 11.3645 33.1434 9.67426 32.5215 8.09164C31.8995 6.50903 30.964 5.06617 29.7701 3.84838C28.5763 2.63058 27.1484 1.66257 25.571 1.00157C23.9935 0.340568 22.2984 0 20.5859 0C18.8735 0 17.1784 0.340568 15.6009 1.00157C14.0234 1.66257 12.5955 2.63058 11.4017 3.84838C10.2079 5.06617 9.27234 6.50903 8.65038 8.09164C8.02843 9.67426 7.73268 11.3645 7.78064 13.0624V23.6463H4.76645C3.63009 23.6857 2.55273 24.1579 1.75824 24.9647C0.963745 25.7715 0.513221 26.851 0.500286 27.9788C0.487352 29.1065 0.913 30.1959 1.68878 31.0205C2.46456 31.845 3.53082 32.3414 4.66597 32.4064V43.1298C4.66729 43.508 4.7437 43.8823 4.89084 44.2312C5.03798 44.5802 5.25297 44.8969 5.52354 45.1635C5.7941 45.43 6.11494 45.641 6.46774 45.7846C6.82053 45.9281 7.19837 46.0013 7.57969 46H9.99104C10.3724 46.0013 10.7502 45.9281 11.103 45.7846C11.4558 45.641 11.7766 45.43 12.0472 45.1635C12.3178 44.8969 12.5327 44.5802 12.6799 44.2312C12.827 43.8823 12.9034 43.508 12.9048 43.1298V42.5518H28.1867V43.1298C28.188 43.508 28.2644 43.8823 28.4116 44.2312C28.5587 44.5802 28.7737 44.8969 29.0443 45.1635C29.3148 45.43 29.6357 45.641 29.9885 45.7846C30.3413 45.9281 30.7191 46.0013 31.1004 46H33.6022C33.9835 46.0013 34.3614 45.9281 34.7142 45.7846C35.0669 45.641 35.3878 45.43 35.6584 45.1635C35.9289 44.8969 36.1439 44.5802 36.291 44.2312C36.4382 43.8823 36.5146 43.508 36.5159 43.1298V32.4064C37.6511 32.3414 38.7173 31.845 39.4931 31.0205C40.2689 30.1959 40.6945 29.1065 40.6816 27.9788C40.6687 26.851 40.2181 25.7715 39.4237 24.9647C38.6292 24.1579 37.5518 23.6857 36.4154 23.6463H33.3912ZM20.5508 2.34902C21.9713 2.3464 23.3785 2.6215 24.6918 3.15861C26.0051 3.69571 27.1988 4.48428 28.2047 5.47925C29.2105 6.47421 30.0089 7.65606 30.554 8.95723C31.0992 10.2584 31.3804 11.6534 31.3817 13.0624V23.6463H31.1406C30.3696 23.6463 29.63 23.9494 29.0838 24.4893C28.5377 25.0291 28.2296 25.7617 28.2269 26.5265V27.7423H12.9048V26.5265C12.9021 25.7617 12.5939 25.0291 12.0478 24.4893C11.5017 23.9494 10.7621 23.6463 9.99104 23.6463H9.74991V13.0624C9.75257 10.2219 10.8914 7.4984 12.9163 5.48982C14.9413 3.48124 17.687 2.35166 20.5508 2.34902ZM28.1867 31.8284H12.9048V29.7355H28.1867V31.8284ZM10.8953 43.1298C10.894 43.2463 10.8696 43.3613 10.8234 43.4685C10.7772 43.5756 10.7103 43.6726 10.6263 43.7541C10.5423 43.8355 10.443 43.8997 10.334 43.9431C10.225 43.9865 10.1085 44.0081 9.99104 44.0068H7.48926C7.25288 44.0068 7.02587 43.9151 6.85686 43.7512C6.68784 43.5872 6.59026 43.3642 6.58501 43.1298V31.4198C6.58501 31.1554 6.47915 30.902 6.29073 30.7151C6.1023 30.5282 5.84675 30.4232 5.58028 30.4232H4.67602C4.03649 30.4232 3.42315 30.1712 2.97094 29.7226C2.51872 29.2741 2.26467 28.6657 2.26467 28.0313C2.26467 27.397 2.51872 26.7886 2.97094 26.3401C3.42315 25.8915 4.03649 25.6395 4.67602 25.6395H9.99104C10.1093 25.6382 10.2267 25.6601 10.3363 25.7041C10.446 25.7481 10.5457 25.8132 10.6298 25.8957C10.714 25.9782 10.7807 26.0765 10.8263 26.1847C10.8718 26.293 10.8953 26.4091 10.8953 26.5265V43.1298ZM12.9048 40.5586V33.8216H28.1867V40.5586H12.9048ZM36.4054 30.4232H35.5011C35.2347 30.4232 34.9791 30.5282 34.7907 30.7151C34.6023 30.902 34.4964 31.1554 34.4964 31.4198V43.1298C34.4951 43.2463 34.4707 43.3613 34.4245 43.4685C34.3784 43.5756 34.3114 43.6726 34.2274 43.7541C34.1434 43.8355 34.0441 43.8997 33.9351 43.9431C33.8261 43.9865 33.7096 44.0081 33.5922 44.0068H31.1004C30.983 44.0081 30.8664 43.9865 30.7574 43.9431C30.6484 43.8997 30.5491 43.8355 30.4652 43.7541C30.3812 43.6726 30.3142 43.5756 30.2681 43.4685C30.2219 43.3613 30.1975 43.2463 30.1962 43.1298V26.5265C30.1962 26.4091 30.2196 26.293 30.2652 26.1847C30.3107 26.0765 30.3775 25.9782 30.4616 25.8957C30.5457 25.8132 30.6455 25.7481 30.7551 25.7041C30.8648 25.6601 30.9821 25.6382 31.1004 25.6395H36.4054C37.0449 25.6395 37.6583 25.8915 38.1105 26.3401C38.5627 26.7886 38.8167 27.397 38.8167 28.0313C38.8167 28.6657 38.5627 29.2741 38.1105 29.7226C37.6583 30.1712 37.0449 30.4232 36.4054 30.4232Z" fill="#B4278C"/>
</svg>
