<svg width="33" height="56" viewBox="0 0 33 56" fill="none" xmlns="http://www.w3.org/2000/svg">
<path d="M29.7 0H3.32927C2.5789 0 1.85926 0.305535 1.32867 0.84939C0.798083 1.39325 0.5 2.13087 0.5 2.9L0.5 53.1C0.5 53.8691 0.798083 54.6068 1.32867 55.1506C1.85926 55.6945 2.5789 56 3.32927 56H29.6707C30.4211 56 31.1407 55.6945 31.6713 55.1506C32.2019 54.6068 32.5 53.8691 32.5 53.1V2.9C32.5 2.13604 32.206 1.40293 31.6817 0.859924C31.1574 0.316923 30.4453 0.00790301 29.7 0V0ZM3.32927 1.93H29.6707C29.9295 1.93 30.1776 2.03536 30.3606 2.22289C30.5436 2.41043 30.6463 2.66478 30.6463 2.93V7.48H2.35366V2.9C2.36127 2.64002 2.46741 2.3933 2.64955 2.21221C2.8317 2.03111 3.07551 1.92988 3.32927 1.93ZM30.6463 9.41V42.72H2.35366V9.41H30.6463ZM29.6707 54.07H3.32927C3.07052 54.07 2.82237 53.9646 2.63941 53.7771C2.45645 53.5896 2.35366 53.3352 2.35366 53.07V44.65H30.6463V53.1C30.639 53.3549 30.5369 53.5972 30.361 53.7775C30.1851 53.9578 29.9487 54.0625 29.7 54.07H29.6707ZM16.5098 46C15.873 46 15.2505 46.1935 14.7211 46.5561C14.1916 46.9188 13.779 47.4341 13.5353 48.0371C13.2916 48.6401 13.2279 49.3037 13.3521 49.9438C13.4763 50.5839 13.783 51.1719 14.2332 51.6335C14.6835 52.095 15.2571 52.4093 15.8817 52.5366C16.5062 52.6639 17.1535 52.5986 17.7418 52.3488C18.3301 52.099 18.8329 51.6761 19.1867 51.1334C19.5404 50.5907 19.7293 49.9527 19.7293 49.3C19.7293 48.4248 19.3901 47.5854 18.7863 46.9665C18.1825 46.3477 17.3636 46 16.5098 46ZM16.5098 50.66C16.245 50.66 15.9862 50.5794 15.7662 50.4284C15.5462 50.2774 15.3749 50.0629 15.274 49.8119C15.1731 49.561 15.1472 49.285 15.1996 49.019C15.252 48.753 15.3802 48.5089 15.5682 48.3177C15.7561 48.1265 15.9951 47.9968 16.255 47.9451C16.5149 47.8934 16.784 47.9219 17.028 48.0272C17.2721 48.1324 17.4802 48.3096 17.6258 48.5362C17.7715 48.7628 17.8483 49.0286 17.8463 49.3C17.8489 49.4811 17.8162 49.6609 17.7501 49.8289C17.684 49.9969 17.5858 50.1497 17.4613 50.2782C17.3368 50.4067 17.1885 50.5085 17.0251 50.5775C16.8617 50.6465 16.6865 50.6814 16.5098 50.68V50.66ZM10.0415 24.75H11.6024V33.31C11.5631 33.4583 11.5577 33.6139 11.5865 33.7647C11.6154 33.9155 11.6778 34.0575 11.7688 34.1796C11.8599 34.3017 11.9772 34.4006 12.1116 34.4687C12.246 34.5368 12.394 34.5723 12.5439 34.5723C12.6938 34.5723 12.8418 34.5368 12.9762 34.4687C13.1106 34.4006 13.2279 34.3017 13.319 34.1796C13.41 34.0575 13.4724 33.9155 13.5013 33.7647C13.5301 33.6139 13.5247 33.4583 13.4854 33.31V28.71H18.061C19.1772 28.7073 20.2578 28.3068 21.1176 27.577C21.9773 26.8472 22.5626 25.8336 22.7732 24.71H24.422C24.5666 24.7503 24.7185 24.7559 24.8656 24.7263C25.0127 24.6967 25.1512 24.6328 25.2703 24.5394C25.3895 24.4461 25.486 24.3259 25.5524 24.1881C25.6189 24.0503 25.6534 23.8987 25.6534 23.745C25.6534 23.5913 25.6189 23.4397 25.5524 23.3019C25.486 23.1641 25.3895 23.0439 25.2703 22.9506C25.1512 22.8572 25.0127 22.7933 24.8656 22.7637C24.7185 22.7341 24.5666 22.7397 24.422 22.78H22.8122C22.6016 21.6564 22.0163 20.6428 21.1566 19.913C20.2969 19.1832 19.2163 18.7827 18.1 18.78H12.539C12.2803 18.78 12.0321 18.8854 11.8492 19.0729C11.6662 19.2604 11.5634 19.5148 11.5634 19.78V22.78H10.0415C9.83479 22.8376 9.65234 22.9633 9.52226 23.1376C9.39218 23.312 9.32171 23.5255 9.32171 23.745C9.32171 23.9645 9.39218 24.178 9.52226 24.3524C9.65234 24.5267 9.83479 24.6524 10.0415 24.71V24.75ZM18.1 26.75H13.4854V24.75H20.8512C20.651 25.3438 20.274 25.8581 19.7734 26.2205C19.2728 26.5829 18.6738 26.7751 18.061 26.77L18.1 26.75ZM13.4854 20.75H18.061C18.6648 20.7517 19.2534 20.9449 19.7459 21.3029C20.2385 21.661 20.6109 22.1665 20.8122 22.75H13.4854V20.75Z" fill="#FF9900"/>
</svg>
