<svg width="57" height="56" viewBox="0 0 57 56" fill="none" xmlns="http://www.w3.org/2000/svg">
<path d="M55.15 31.1408C54.7202 30.6975 54.2058 30.345 53.6372 30.1043C53.0686 29.8636 52.4574 29.7396 51.84 29.7396C51.2226 29.7396 50.6114 29.8636 50.0428 30.1043C49.4742 30.345 48.9598 30.6975 48.53 31.1408L45.53 34.1409V19.2008C46.2168 19.0728 46.8374 18.709 47.2847 18.1722C47.732 17.6355 47.9779 16.9595 47.98 16.2608V10.7808C47.98 9.9852 47.6639 9.22214 47.1013 8.65953C46.5387 8.09692 45.7757 7.78085 44.98 7.78085H40.77C41.3591 6.9432 41.6767 5.94488 41.68 4.92085C41.696 3.63358 41.2007 2.39254 40.3026 1.47013C39.4046 0.547712 38.1772 0.0192923 36.89 0.000849681C35.76 -0.0131786 34.6667 0.401289 33.83 1.16085L28.05 6.81085L22.28 1.14085C21.4377 0.386176 20.3407 -0.0211884 19.21 0.000849681C17.9228 0.0192923 16.6954 0.547712 15.7974 1.47013C14.8993 2.39254 14.404 3.63358 14.42 4.92085C14.4194 5.94549 14.7374 6.94496 15.33 7.78085H11.08C10.2844 7.78085 9.52129 8.09692 8.95868 8.65953C8.39607 9.22214 8.08 9.9852 8.08 10.7808V16.2608C8.08079 16.9553 8.32244 17.6279 8.76375 18.164C9.20506 18.7002 9.8187 19.0666 10.5 19.2008V32.3309C10.2278 31.9247 9.86053 31.5912 9.43004 31.3594C8.99954 31.1275 8.51892 31.0045 8.03 31.0008H3.5C2.70435 31.0008 1.94129 31.3169 1.37868 31.8795C0.81607 32.4421 0.5 33.2052 0.5 34.0009L0.5 53.0009C0.5 53.7965 0.81607 54.5596 1.37868 55.1222C1.94129 55.6848 2.70435 56.0009 3.5 56.0009H8.03C8.82565 56.0009 9.58871 55.6848 10.1513 55.1222C10.7139 54.5596 11.03 53.7965 11.03 53.0009V52.3809C14.96 54.2909 21.77 54.3008 30.25 54.3008H31.02C39.02 54.3008 40.78 53.3909 43.15 51.1609C46.27 48.2309 54.83 38.2709 55.15 37.8909C56.0175 36.9813 56.5014 35.7727 56.5014 34.5159C56.5014 33.259 56.0175 32.0504 55.15 31.1408ZM40.44 39.3409C40.2283 38.4751 39.7336 37.7048 39.0343 37.1523C38.335 36.5997 37.4712 36.2966 36.58 36.2909C35.58 36.2909 34.16 36.2909 32.8 36.2108V19.2608H43.57V36.1609L40.44 39.3409ZM18.97 31.6708C16.6714 31.6772 14.4278 32.374 12.53 33.6708V19.2608H23.3V32.6609C21.942 32.031 20.4668 31.6938 18.97 31.6708ZM25.3 19.2608H30.8V36.0609C29.7066 36.0026 28.6264 35.794 27.59 35.4408C27.0187 35.1302 26.4765 34.7688 25.97 34.3609C25.76 34.2009 25.54 34.0308 25.3 33.8708V19.2608ZM30.8 9.78085V17.2608H25.3V9.78085H30.8ZM46.02 10.7808V16.2608C46.02 16.5261 45.9146 16.7804 45.7271 16.968C45.5396 17.1555 45.2852 17.2608 45.02 17.2608H32.8V9.78085H45.02C45.2852 9.78085 45.5396 9.88621 45.7271 10.0737C45.9146 10.2613 46.02 10.5156 46.02 10.7808ZM39.68 4.92085C39.6915 5.58973 39.4689 6.2416 39.0508 6.76381C38.6326 7.28602 38.0452 7.64575 37.39 7.78085H29.92L35.08 2.71085C35.319 2.47762 35.6023 2.29463 35.9132 2.17269C36.224 2.05074 36.5562 1.99231 36.89 2.00085C37.6468 2.01921 38.3655 2.33688 38.8885 2.88424C39.4115 3.43159 39.6961 4.16398 39.68 4.92085ZM16.42 4.92085C16.4039 4.16398 16.6885 3.43159 17.2115 2.88424C17.7345 2.33688 18.4532 2.01921 19.21 2.00085C19.5438 1.99231 19.876 2.05074 20.1868 2.17269C20.4977 2.29463 20.781 2.47762 21.02 2.71085L26.18 7.78085H18.72C18.0647 7.64424 17.4772 7.28441 17.0577 6.76281C16.6383 6.2412 16.4129 5.59016 16.42 4.92085ZM10.08 16.2608V10.7808C10.08 10.5156 10.1854 10.2613 10.3729 10.0737C10.5604 9.88621 10.8148 9.78085 11.08 9.78085H23.3V17.2608H11.08C10.8148 17.2608 10.5604 17.1555 10.3729 16.968C10.1854 16.7804 10.08 16.5261 10.08 16.2608ZM9.03 53.0009C9.03 53.2661 8.92464 53.5204 8.73711 53.708C8.54957 53.8955 8.29522 54.0009 8.03 54.0009H3.5C3.23478 54.0009 2.98043 53.8955 2.79289 53.708C2.60536 53.5204 2.5 53.2661 2.5 53.0009V34.0009C2.5 33.7356 2.60536 33.4813 2.79289 33.2937C2.98043 33.1062 3.23478 33.0009 3.5 33.0009H8.03C8.16132 33.0009 8.29136 33.0267 8.41268 33.077C8.53401 33.1272 8.64425 33.2009 8.73711 33.2937C8.82996 33.3866 8.90362 33.4968 8.95388 33.6182C9.00413 33.7395 9.03 33.8695 9.03 34.0009V53.0009ZM53.67 36.5409C53.58 36.6509 44.82 46.8509 41.78 49.7009C40 51.3809 39.02 52.3008 31.02 52.3008H30.25C21.52 52.3008 14.63 52.3008 11.34 50.3008C11.2444 50.2452 11.1393 50.2079 11.03 50.1908V37.3508C11.1228 37.3096 11.2075 37.252 11.28 37.1809C11.28 37.1809 14.75 33.5208 18.9 33.6708C21.0712 33.7262 23.1519 34.5521 24.77 36.0009C25.3798 36.4858 26.0325 36.9143 26.72 37.2808C29 38.3808 35.82 38.3409 36.59 38.2808C37.1206 38.3175 37.6175 38.5542 37.9804 38.943C38.3433 39.3319 38.5452 39.844 38.5452 40.3759C38.5452 40.9077 38.3433 41.4198 37.9804 41.8087C37.6175 42.1975 37.1206 42.4342 36.59 42.4709H24.91C24.6448 42.4709 24.3904 42.5762 24.2029 42.7637C24.0154 42.9513 23.91 43.2056 23.91 43.4709C23.91 43.7361 24.0154 43.9904 24.2029 44.178C24.3904 44.3655 24.6448 44.4709 24.91 44.4709H36.59C37.1766 44.4652 37.7549 44.3306 38.2837 44.0766C38.8125 43.8225 39.279 43.4553 39.65 43.0009L49.95 32.5609C50.1954 32.3132 50.4875 32.1167 50.8093 31.9825C51.1311 31.8484 51.4763 31.7793 51.825 31.7793C52.1737 31.7793 52.5189 31.8484 52.8407 31.9825C53.1625 32.1167 53.4546 32.3132 53.7 32.5609C54.2105 33.0994 54.4926 33.8148 54.487 34.5569C54.4814 35.299 54.1886 36.01 53.67 36.5409Z" fill="#F86A6A"/>
</svg>
