<svg width="18" height="19" viewBox="0 0 18 19" fill="none" xmlns="http://www.w3.org/2000/svg">
<path d="M9 2.62106C11.4033 2.62106 11.6876 2.63035 12.6369 2.67358C13.5143 2.71359 13.9909 2.86007 14.3081 2.98332C14.6995 3.12743 15.0536 3.35757 15.3442 3.65675C15.6433 3.94735 15.8735 4.3014 16.0176 4.69279C16.1408 5.01003 16.2873 5.48661 16.3273 6.36404C16.3706 7.31327 16.3798 7.59764 16.3798 10.0009C16.3798 12.4042 16.3706 12.6885 16.3273 13.6378C16.2873 14.5152 16.1408 14.9918 16.0176 15.309C15.8677 15.6971 15.6383 16.0495 15.3442 16.3436C15.05 16.6378 14.6976 16.8672 14.3095 17.0171C13.9923 17.1403 13.5157 17.2868 12.6383 17.3268C11.6894 17.37 11.4047 17.3793 9.00143 17.3793C6.59817 17.3793 6.31343 17.37 5.36456 17.3268C4.48714 17.2868 4.01056 17.1403 3.69332 17.0171C3.30192 16.8729 2.94787 16.6428 2.65727 16.3436C2.35809 16.053 2.12796 15.699 1.98384 15.3076C1.86059 14.9903 1.71412 14.5138 1.6741 13.6363C1.63087 12.6871 1.62159 12.4027 1.62159 9.99948C1.62159 7.59621 1.63087 7.31184 1.6741 6.36261C1.71412 5.48519 1.86059 5.00861 1.98384 4.69136C2.12796 4.29997 2.35809 3.94592 2.65727 3.65532C2.94787 3.35614 3.30192 3.126 3.69332 2.98189C4.01056 2.85864 4.48714 2.71216 5.36456 2.67215C6.31379 2.62892 6.59817 2.61963 9.00143 2.61963L9 2.62106ZM9.00143 0.998047C6.55708 0.998047 6.25056 1.00841 5.29061 1.05235C4.33066 1.09629 3.67724 1.24956 3.10456 1.47213C2.50407 1.69807 1.96007 2.05224 1.51048 2.50996C1.05341 2.95973 0.69986 3.50371 0.474436 4.10403C0.250079 4.67671 0.0978882 5.33085 0.054303 6.28865C0.0107177 7.24646 0 7.55513 0 9.99948C0 12.4438 0.0103604 12.7503 0.054303 13.7103C0.0982455 14.6702 0.250079 15.3222 0.47265 15.8949C0.698597 16.4954 1.05277 17.0394 1.51048 17.489C1.96016 17.9467 2.50412 18.301 3.10456 18.5272C3.67617 18.7494 4.33138 18.9016 5.28918 18.9455C6.24698 18.9895 6.55565 18.9995 9 18.9995C11.4443 18.9995 11.7509 18.9891 12.7108 18.9455C13.6708 18.9019 14.3228 18.7494 14.8954 18.5272C15.4933 18.2959 16.0362 17.9423 16.4895 17.489C16.9428 17.0357 17.2964 16.4928 17.5277 15.8949C17.7499 15.3233 17.9021 14.6681 17.9461 13.7103C17.99 12.7525 18 12.4438 18 9.99948C18 7.55513 17.9896 7.2486 17.9461 6.28865C17.9025 5.32871 17.7499 4.67671 17.5277 4.10403C17.3015 3.5036 16.9472 2.95963 16.4895 2.50996C16.0397 2.05289 15.4958 1.69934 14.8954 1.47391C14.3228 1.24956 13.6686 1.09736 12.7108 1.05378C11.753 1.01019 11.4443 0.999476 9 0.999476L9.00143 0.998047Z" fill="url(#paint0_linear)"/>
<path d="M9.00019 5.37764C8.08606 5.37764 7.19246 5.64871 6.4324 6.15658C5.67234 6.66445 5.07995 7.3863 4.73014 8.23085C4.38034 9.0754 4.28883 10.0047 4.46719 10.9013C4.64556 11.7978 5.08578 12.6214 5.73219 13.2677C6.3786 13.9141 7.20216 14.3542 8.09873 14.5325C8.9953 14.7108 9.92461 14.6192 10.7691 14.2694C11.6137 13.9195 12.3355 13.3271 12.8433 12.5669C13.3511 11.8068 13.6221 10.9132 13.622 9.9991C13.6221 9.39216 13.5025 8.79115 13.2703 8.23041C13.038 7.66966 12.6976 7.16016 12.2684 6.731C11.8392 6.30185 11.3297 5.96144 10.7689 5.72923C10.2081 5.49701 9.60713 5.37754 9.00019 5.37764ZM9.00019 12.999C8.40665 12.999 7.82645 12.823 7.33295 12.4932C6.83944 12.1635 6.4548 11.6948 6.22767 11.1464C6.00053 10.5981 5.9411 9.9947 6.0569 9.41257C6.17269 8.83045 6.4585 8.29573 6.87819 7.87604C7.29788 7.45635 7.8326 7.17053 8.41473 7.05474C8.99686 6.93895 9.60025 6.99838 10.1486 7.22551C10.697 7.45265 11.1656 7.83729 11.4954 8.33079C11.8251 8.8243 12.0011 9.4045 12.0011 9.99803C12.0011 10.7939 11.685 11.5572 11.1222 12.12C10.5594 12.6828 9.79609 12.999 9.00019 12.999Z" fill="url(#paint1_linear)"/>
<path d="M13.8045 6.27477C14.401 6.27477 14.8845 5.79125 14.8845 5.19479C14.8845 4.59833 14.401 4.11481 13.8045 4.11481C13.208 4.11481 12.7245 4.59833 12.7245 5.19479C12.7245 5.79125 13.208 6.27477 13.8045 6.27477Z" fill="url(#paint2_linear)"/>
<defs>
<linearGradient id="paint0_linear" x1="9" y1="0.998047" x2="3.37417" y2="20.5744" gradientUnits="userSpaceOnUse">
<stop offset="0.0520833" stop-color="#4168DB"/>
<stop offset="0.307292" stop-color="#A6369E"/>
<stop offset="0.479167" stop-color="#D03082"/>
<stop offset="0.708333" stop-color="#F36D37"/>
<stop offset="0.96875" stop-color="#FED273"/>
</linearGradient>
<linearGradient id="paint1_linear" x1="9" y1="0.998047" x2="3.37417" y2="20.5744" gradientUnits="userSpaceOnUse">
<stop offset="0.0520833" stop-color="#4168DB"/>
<stop offset="0.307292" stop-color="#A6369E"/>
<stop offset="0.479167" stop-color="#D03082"/>
<stop offset="0.708333" stop-color="#F36D37"/>
<stop offset="0.96875" stop-color="#FED273"/>
</linearGradient>
<linearGradient id="paint2_linear" x1="9" y1="0.998047" x2="3.37417" y2="20.5744" gradientUnits="userSpaceOnUse">
<stop offset="0.0520833" stop-color="#4168DB"/>
<stop offset="0.307292" stop-color="#A6369E"/>
<stop offset="0.479167" stop-color="#D03082"/>
<stop offset="0.708333" stop-color="#F36D37"/>
<stop offset="0.96875" stop-color="#FED273"/>
</linearGradient>
</defs>
</svg>
