<svg width="20" height="16" viewBox="0 0 20 16" fill="none" xmlns="http://www.w3.org/2000/svg">
<path d="M17.44 8.45157e-05H2.56C2.22644 -0.00255229 1.89563 0.0605389 1.58645 0.185756C1.27727 0.310972 0.995788 0.495862 0.758068 0.729868C0.520348 0.963874 0.331049 1.24241 0.200979 1.54958C0.0709089 1.85675 0.00261612 2.18652 0 2.52008L0 13.5201C0.0157304 14.1868 0.293009 14.8205 0.771973 15.2845C1.25094 15.7485 1.89316 16.0055 2.56 16.0001H17.44C17.7736 16.0027 18.1044 15.9396 18.4136 15.8144C18.7227 15.6892 19.0042 15.5043 19.2419 15.2703C19.4797 15.0363 19.669 14.7578 19.799 14.4506C19.9291 14.1434 19.9974 13.8136 20 13.4801V2.48008C19.9843 1.81341 19.707 1.17967 19.228 0.71567C18.7491 0.251673 18.1068 -0.00535189 17.44 8.45157e-05ZM2.56 1.37008H17.44C17.7459 1.37007 18.0395 1.49091 18.2567 1.7063C18.474 1.92168 18.5974 2.21417 18.6 2.52008V2.66008H18.51L10 8.25008L1.44 2.30008C1.49248 2.04051 1.6322 1.8067 1.83595 1.63752C2.0397 1.46834 2.2952 1.37396 2.56 1.37008ZM17.44 14.6301H2.56C2.25407 14.6301 1.96053 14.5093 1.74327 14.2939C1.52601 14.0785 1.40264 13.786 1.4 13.4801V4.00008L9.6 9.64009C9.71559 9.72588 9.85606 9.77153 10 9.77009C10.1389 9.76911 10.2745 9.72738 10.39 9.65008L18.6 4.28008V13.4801C18.5974 13.786 18.474 14.0785 18.2567 14.2939C18.0395 14.5093 17.7459 14.6301 17.44 14.6301Z" fill="#161720"/>
</svg>
