<svg width="25" height="24" viewBox="0 0 25 24" fill="none" xmlns="http://www.w3.org/2000/svg">
<path d="M18.6439 4.75569C18.1966 4.34296 16.389 3.03075 12.3627 3.01292C12.3627 3.01292 7.61466 2.7266 5.30007 4.84969C4.01163 6.1384 3.55838 8.02405 3.51057 10.3619C3.46276 12.6997 3.4009 17.0809 7.62412 18.2689H7.62817L7.62547 20.0816C7.62547 20.0816 7.59846 20.8155 8.08169 20.9652C8.66621 21.1467 9.00925 20.5889 9.56731 19.9876C9.87362 19.6575 10.2966 19.1727 10.6153 18.8021C13.5037 19.0452 15.7251 18.4896 15.9774 18.4075C16.5605 18.2184 19.8605 17.7957 20.3972 13.4147C20.9512 8.89922 20.1293 6.04305 18.6439 4.75569Z" fill="white"/>
<path d="M17.7054 5.66762C17.3273 5.32403 15.695 4.29842 12.2891 4.28356C12.2891 4.28356 8.25605 4.01858 6.29827 5.79187C5.20864 6.86773 4.84156 8.46761 4.80131 10.42C4.76106 12.3724 4.55253 16.1021 8.1237 17.0942C8.1237 17.0942 8.10965 19.8631 8.10803 20.1065C8.10803 20.2767 8.13504 20.3931 8.23228 20.4171C8.30224 20.4342 8.40705 20.398 8.49618 20.3091C9.0672 19.7356 10.8953 17.5302 10.8953 17.5302C13.3482 17.6903 15.2998 17.206 15.5097 17.1374C16.0045 16.9783 18.6811 16.7485 19.134 13.0895C19.6021 9.31792 18.962 6.74348 17.7054 5.66762Z" fill="#7360F2"/>
<path fill-rule="evenodd" clip-rule="evenodd" d="M12.4315 8.84169C12.438 8.7161 12.5451 8.61961 12.6707 8.62616C13.1406 8.65067 13.5315 8.7929 13.8099 9.08077C14.0873 9.36754 14.2232 9.76816 14.2471 10.2493C14.2533 10.3749 14.1566 10.4818 14.031 10.488C13.9054 10.4942 13.7985 10.3975 13.7923 10.2719C13.7718 9.85999 13.6588 9.57961 13.4826 9.39738C13.3074 9.21624 13.04 9.10146 12.647 9.08095C12.5214 9.0744 12.4249 8.96728 12.4315 8.84169Z" fill="white"/>
<path fill-rule="evenodd" clip-rule="evenodd" d="M12.0863 7.61494C12.0955 7.48952 12.2046 7.39528 12.33 7.40446C13.2862 7.47445 14.0559 7.80117 14.6165 8.41315L14.6166 8.41323C15.1712 9.01919 15.4347 9.77299 15.4156 10.6572C15.4129 10.7829 15.3087 10.8826 15.183 10.8799C15.0573 10.8772 14.9576 10.773 14.9603 10.6473C14.9772 9.86758 14.7479 9.2312 14.2806 8.72069C13.8149 8.21229 13.1638 7.92211 12.2968 7.85866C12.1713 7.84948 12.0771 7.74036 12.0863 7.61494Z" fill="white"/>
<path fill-rule="evenodd" clip-rule="evenodd" d="M11.6843 6.44878C11.6852 6.32302 11.7878 6.22179 11.9136 6.22266C13.235 6.23187 14.352 6.67179 15.2488 7.54604C16.1531 8.4276 16.6003 9.62776 16.6117 11.1183C16.6126 11.2441 16.5115 11.3468 16.3857 11.3478C16.26 11.3487 16.1572 11.2476 16.1563 11.1218C16.1457 9.72506 15.7301 8.65123 14.9309 7.87214C14.1242 7.08573 13.1226 6.6865 11.9104 6.67806C11.7847 6.67719 11.6834 6.57453 11.6843 6.44878Z" fill="white"/>
<path d="M12.704 13.3104C12.704 13.3104 13.024 13.3374 13.1964 13.1251L13.5324 12.7024C13.6945 12.4928 14.0856 12.3591 14.4686 12.5725C14.7556 12.7362 15.0343 12.9141 15.3035 13.1057C15.5577 13.2926 16.0782 13.7269 16.0798 13.7269C16.3278 13.9363 16.3851 14.2436 16.2162 14.5678C16.2162 14.5697 16.2149 14.5729 16.2149 14.5745C16.029 14.8969 15.7929 15.1875 15.5156 15.4357C15.5123 15.4373 15.5123 15.4389 15.5094 15.4405C15.2684 15.6418 15.0317 15.7563 14.7992 15.7838C14.765 15.7898 14.7302 15.792 14.6955 15.7903C14.593 15.7913 14.491 15.7756 14.3935 15.7439L14.386 15.7328C14.0278 15.6318 13.4298 15.3789 12.4339 14.8295C11.8575 14.5153 11.3089 14.1529 10.7937 13.7461C10.5355 13.5423 10.2892 13.3239 10.056 13.0919L9.9815 13.0173C9.97312 13.0092 9.96502 13.0009 9.95665 12.9925C9.72464 12.7593 9.50621 12.513 9.30243 12.2548C8.89569 11.7397 8.53326 11.1911 8.21901 10.6149C7.6696 9.61877 7.41677 9.02128 7.31575 8.66257L7.30468 8.65501C7.27301 8.55752 7.25741 8.45552 7.25849 8.35302C7.2566 8.31833 7.25868 8.28352 7.2647 8.2493C7.29369 8.01718 7.40831 7.78029 7.60855 7.53863C7.61017 7.53566 7.6118 7.53566 7.61342 7.53242C7.86146 7.2551 8.15215 7.01912 8.47454 6.83337C8.47616 6.83337 8.4794 6.83175 8.48129 6.83175C8.80542 6.66293 9.11281 6.72019 9.32188 6.9668C9.3235 6.96843 9.75703 7.48893 9.94314 7.74311C10.1347 8.01261 10.3127 8.29154 10.4763 8.57884C10.6897 8.96159 10.556 9.35352 10.3464 9.51505L9.92369 9.85107C9.7103 10.0234 9.73839 10.3435 9.73839 10.3435C9.73839 10.3435 10.3645 12.7132 12.704 13.3104Z" fill="white"/>
</svg>
