<svg width="20" height="16" viewBox="0 0 20 16" fill="none" xmlns="http://www.w3.org/2000/svg">
<path d="M17.44 2.34805e-05H2.56C2.22644 -0.00261332 1.89563 0.0604779 1.58645 0.185695C1.27727 0.310911 0.995788 0.495801 0.758068 0.729807C0.520348 0.963813 0.331049 1.24235 0.200979 1.54952C0.0709089 1.85668 0.00261612 2.18646 0 2.52002L0 13.52C0.0157304 14.1867 0.293009 14.8204 0.771973 15.2844C1.25094 15.7484 1.89316 16.0055 2.56 16H17.44C17.7736 16.0027 18.1044 15.9396 18.4136 15.8144C18.7227 15.6891 19.0042 15.5042 19.2419 15.2702C19.4797 15.0362 19.669 14.7577 19.799 14.4505C19.9291 14.1434 19.9974 13.8136 20 13.48V2.48002C19.9843 1.81335 19.707 1.17961 19.228 0.715609C18.7491 0.251612 18.1068 -0.00541293 17.44 2.34805e-05ZM2.56 1.37002H17.44C17.7459 1.37001 18.0395 1.49085 18.2567 1.70624C18.474 1.92162 18.5974 2.21411 18.6 2.52002V2.66002H18.51L10 8.25002L1.44 2.30002C1.49248 2.04045 1.6322 1.80664 1.83595 1.63746C2.0397 1.46828 2.2952 1.3739 2.56 1.37002ZM17.44 14.63H2.56C2.25407 14.63 1.96053 14.5092 1.74327 14.2938C1.52601 14.0784 1.40264 13.7859 1.4 13.48V4.00002L9.6 9.64002C9.71559 9.72582 9.85606 9.77147 10 9.77002C10.1389 9.76905 10.2745 9.72732 10.39 9.65002L18.6 4.28002V13.48C18.5974 13.7859 18.474 14.0784 18.2567 14.2938C18.0395 14.5092 17.7459 14.63 17.44 14.63Z" fill="#161720"/>
</svg>
