<svg width="18" height="18" viewBox="0 0 18 18" fill="none" xmlns="http://www.w3.org/2000/svg">
<path d="M15.4602 1.57H14.4602V0.57C14.4642 0.498257 14.4539 0.426429 14.4298 0.358726C14.4057 0.291023 14.3684 0.228806 14.32 0.175721C14.2715 0.122636 14.213 0.0797498 14.1478 0.0495761C14.0826 0.0194024 14.012 0.00254786 13.9402 7.94048e-09L13.1302 7.94048e-09C13.0593 0.00130113 12.9893 0.0165608 12.9243 0.0449074C12.8593 0.073254 12.8005 0.114132 12.7512 0.165207C12.702 0.216281 12.6634 0.276552 12.6374 0.342576C12.6115 0.4086 12.5989 0.479083 12.6002 0.55V1.55H5.40018V0.55C5.40151 0.479083 5.38885 0.4086 5.36293 0.342576C5.33701 0.276552 5.29833 0.216281 5.24912 0.165207C5.1999 0.114132 5.1411 0.073254 5.07608 0.0449074C5.01107 0.0165608 4.9411 0.00130113 4.87018 7.94048e-09H4.06018C3.98842 -1.22982e-05 3.91737 0.0142796 3.8512 0.0420403C3.78502 0.069801 3.72504 0.110474 3.67476 0.161681C3.62449 0.212889 3.58492 0.273604 3.55838 0.340279C3.53184 0.406953 3.51885 0.478249 3.52018 0.55V1.55H2.52018C1.84205 1.56315 1.19661 1.84383 0.724566 2.33087C0.252518 2.8179 -0.00786382 3.47179 0.000181021 4.15V15.42C-0.00250394 16.0982 0.262973 16.7499 0.738755 17.2332C1.21454 17.7165 1.86205 17.9921 2.54018 18H15.4602C16.1383 17.9921 16.7858 17.7165 17.2616 17.2332C17.7374 16.7499 18.0029 16.0982 18.0002 15.42V4.15C18.0029 3.47183 17.7374 2.82009 17.2616 2.33681C16.7858 1.85354 16.1383 1.57791 15.4602 1.57ZM2.54018 3H15.4602C15.6134 2.99999 15.765 3.03033 15.9064 3.08925C16.0478 3.14817 16.1761 3.23451 16.284 3.34328C16.3918 3.45206 16.4771 3.58112 16.5348 3.72302C16.5925 3.86491 16.6215 4.01683 16.6202 4.17V6H1.38018V4.15C1.38282 3.84409 1.5062 3.5516 1.72345 3.33621C1.94071 3.12083 2.23425 2.99999 2.54018 3ZM15.4602 16.59H2.54018C2.387 16.59 2.23534 16.5597 2.09395 16.5008C1.95255 16.4418 1.82423 16.3555 1.71638 16.2467C1.60853 16.1379 1.5233 16.0089 1.46559 15.867C1.40789 15.7251 1.37886 15.5732 1.38018 15.42V7.42H16.6202V15.42C16.6215 15.5732 16.5925 15.7251 16.5348 15.867C16.4771 16.0089 16.3918 16.1379 16.284 16.2467C16.1761 16.3555 16.0478 16.4418 15.9064 16.5008C15.765 16.5597 15.6134 16.59 15.4602 16.59Z" fill="#F86A6A"/>
</svg>
