<svg width="18" height="18" viewBox="0 0 18 18" fill="none" xmlns="http://www.w3.org/2000/svg">
<path d="M9 1.62204C11.4033 1.62204 11.6876 1.63133 12.6369 1.67456C13.5143 1.71457 13.9909 1.86104 14.3081 1.9843C14.6995 2.12841 15.0536 2.35854 15.3442 2.65772C15.6433 2.94832 15.8735 3.30237 16.0176 3.69377C16.1408 4.01101 16.2873 4.48759 16.3273 5.36501C16.3706 6.31424 16.3798 6.59862 16.3798 9.00188C16.3798 11.4051 16.3706 11.6895 16.3273 12.6388C16.2873 13.5162 16.1408 13.9928 16.0176 14.31C15.8677 14.698 15.6383 15.0505 15.3442 15.3446C15.05 15.6388 14.6976 15.8681 14.3095 16.018C13.9923 16.1413 13.5157 16.2878 12.6383 16.3278C11.6894 16.371 11.4047 16.3803 9.00143 16.3803C6.59817 16.3803 6.31343 16.371 5.36456 16.3278C4.48714 16.2878 4.01056 16.1413 3.69332 16.018C3.30192 15.8739 2.94787 15.6438 2.65727 15.3446C2.35809 15.054 2.12796 14.7 1.98384 14.3086C1.86059 13.9913 1.71412 13.5147 1.6741 12.6373C1.63087 11.6881 1.62159 11.4037 1.62159 9.00045C1.62159 6.59719 1.63087 6.31281 1.6741 5.36358C1.71412 4.48616 1.86059 4.00958 1.98384 3.69234C2.12796 3.30095 2.35809 2.94689 2.65727 2.6563C2.94787 2.35711 3.30192 2.12698 3.69332 1.98287C4.01056 1.85961 4.48714 1.71314 5.36456 1.67313C6.31379 1.6299 6.59817 1.62061 9.00143 1.62061L9 1.62204ZM9.00143 -0.000976562C6.55708 -0.000976562 6.25056 0.00938387 5.29061 0.0533264C4.33066 0.0972689 3.67724 0.250532 3.10456 0.473102C2.50407 0.699049 1.96007 1.05322 1.51048 1.51093C1.05341 1.9607 0.69986 2.50469 0.474436 3.10501C0.250079 3.67769 0.0978882 4.33183 0.054303 5.28963C0.0107177 6.24744 0 6.5561 0 9.00045C0 11.4448 0.0103604 11.7513 0.054303 12.7113C0.0982455 13.6712 0.250079 14.3232 0.47265 14.8959C0.698597 15.4964 1.05277 16.0404 1.51048 16.49C1.96016 16.9477 2.50412 17.3019 3.10456 17.5282C3.67617 17.7504 4.33138 17.9026 5.28918 17.9465C6.24698 17.9904 6.55565 18.0005 9 18.0005C11.4443 18.0005 11.7509 17.9901 12.7108 17.9465C13.6708 17.9029 14.3228 17.7504 14.8954 17.5282C15.4933 17.2969 16.0362 16.9433 16.4895 16.49C16.9428 16.0367 17.2964 15.4937 17.5277 14.8959C17.7499 14.3243 17.9021 13.6691 17.9461 12.7113C17.99 11.7535 18 11.4448 18 9.00045C18 6.5561 17.9896 6.24958 17.9461 5.28963C17.9025 4.32968 17.7499 3.67769 17.5277 3.10501C17.3015 2.50457 16.9472 1.96061 16.4895 1.51093C16.0397 1.05386 15.4958 0.700312 14.8954 0.474889C14.3228 0.250532 13.6686 0.0983407 12.7108 0.0547554C11.753 0.0111701 11.4443 0.000452463 9 0.000452463L9.00143 -0.000976562Z" fill="#161720"/>
<path d="M9.00019 4.37861C8.08606 4.37861 7.19246 4.64969 6.4324 5.15756C5.67234 5.66542 5.07995 6.38728 4.73014 7.23182C4.38034 8.07637 4.28883 9.00569 4.46719 9.90224C4.64556 10.7988 5.08578 11.6223 5.73219 12.2687C6.3786 12.915 7.20216 13.3552 8.09873 13.5335C8.9953 13.7118 9.92461 13.6202 10.7691 13.2703C11.6137 12.9205 12.3355 12.328 12.8433 11.5679C13.3511 10.8078 13.6221 9.91421 13.622 9.00008C13.6221 8.39314 13.5025 7.79213 13.2703 7.23138C13.038 6.67064 12.6976 6.16114 12.2684 5.73198C11.8392 5.30282 11.3297 4.96242 10.7689 4.7302C10.2081 4.49799 9.60713 4.37852 9.00019 4.37861ZM9.00019 12C8.40665 12 7.82645 11.824 7.33295 11.4942C6.83944 11.1645 6.4548 10.6958 6.22767 10.1474C6.00053 9.59907 5.9411 8.99568 6.0569 8.41355C6.17269 7.83142 6.4585 7.2967 6.87819 6.87701C7.29788 6.45732 7.8326 6.17151 8.41473 6.05572C8.99686 5.93993 9.60025 5.99935 10.1486 6.22649C10.697 6.45362 11.1656 6.83826 11.4954 7.33177C11.8251 7.82527 12.0011 8.40548 12.0011 8.99901C12.0011 9.79491 11.685 10.5582 11.1222 11.121C10.5594 11.6838 9.79609 12 9.00019 12Z" fill="#161720"/>
<path d="M13.8045 5.27575C14.401 5.27575 14.8845 4.79223 14.8845 4.19577C14.8845 3.59931 14.401 3.11579 13.8045 3.11579C13.208 3.11579 12.7245 3.59931 12.7245 4.19577C12.7245 4.79223 13.208 5.27575 13.8045 5.27575Z" fill="#161720"/>
</svg>
