<svg width="57" height="48" viewBox="0 0 57 48" fill="none" xmlns="http://www.w3.org/2000/svg">
<path d="M55.1862 26.3582H47.6525L45.7845 20.0973C45.6357 19.5138 45.2993 18.9976 44.8288 18.6308C44.3582 18.264 43.7806 18.0677 43.1877 18.073H41.1349L40.8988 17.5826C41.8314 17.0462 42.6075 16.2684 43.1484 15.3281C43.6892 14.3879 43.9755 13.3188 43.978 12.2295V10.1426C43.8818 8.61237 43.2366 7.17124 42.1648 6.09249C41.0929 5.01374 39.669 4.37237 38.1629 4.29003C36.6569 4.20768 35.1734 4.69008 33.994 5.64574C32.8145 6.60139 32.021 7.96386 31.7639 9.47476C31.7377 9.6091 31.7377 9.74738 31.7639 9.88172C31.7639 9.9652 31.7639 10.0487 31.7639 10.1322V12.2191C31.7662 13.307 32.0524 14.3748 32.5934 15.3134C33.1343 16.2521 33.9107 17.0279 34.8431 17.5617L34.6173 18.0834C34.5012 18.0734 34.3844 18.0734 34.2683 18.0834H32.4721C31.8828 18.0805 31.309 18.2752 30.8395 18.6374C30.37 18.9996 30.0312 19.5091 29.8754 20.0869L28.1716 26.3477H27.0528C27.1774 26.0145 27.24 25.6607 27.2375 25.3043V16.1217C27.2142 15.3987 26.9333 14.709 26.4472 14.1808C26.9398 13.6335 27.2143 12.9192 27.217 12.1774V3.00522C27.2143 2.21084 26.9034 1.44961 26.3519 0.886918C25.8003 0.324223 25.0526 0.00551094 24.2713 1.81171e-05H13.1041C12.7146 -0.00135457 12.3286 0.0752887 11.9682 0.225572C11.6078 0.375855 11.28 0.596835 11.0036 0.875895C10.7272 1.15495 10.5076 1.48663 10.3573 1.85198C10.207 2.21733 10.1289 2.6092 10.1276 3.00522V12.1774C10.1291 12.9214 10.4078 13.6373 10.9076 14.1808C10.4078 14.7244 10.1291 15.4402 10.1276 16.1843V25.3669C10.1251 25.7233 10.1877 26.0771 10.3123 26.4103H1.81378C1.66081 26.365 1.49956 26.3565 1.34279 26.3854C1.18601 26.4144 1.03803 26.4801 0.910557 26.5773C0.783083 26.6745 0.679619 26.8005 0.608359 26.9454C0.537099 27.0903 0.5 27.2501 0.5 27.4121C0.5 27.5741 0.537099 27.7338 0.608359 27.8787C0.679619 28.0236 0.783083 28.1497 0.910557 28.2469C1.03803 28.3441 1.18601 28.4097 1.34279 28.4387C1.49956 28.4677 1.66081 28.4592 1.81378 28.4138H6.82258V45.1511C6.8266 45.5294 6.90387 45.9031 7.04996 46.2509C7.19605 46.5988 7.40811 46.914 7.67403 47.1785C7.93994 47.443 8.25451 47.6517 8.59977 47.7926C8.94502 47.9336 9.3142 48.004 9.68622 47.9998H47.3138C47.6858 48.004 48.055 47.9336 48.4002 47.7926C48.7455 47.6517 49.0601 47.443 49.326 47.1785C49.5919 46.914 49.804 46.5988 49.95 46.2509C50.0961 45.9031 50.1734 45.5294 50.1774 45.1511V28.3616H55.1862C55.3392 28.407 55.5004 28.4155 55.6572 28.3866C55.814 28.3576 55.962 28.2919 56.0894 28.1947C56.2169 28.0975 56.3204 27.9715 56.3916 27.8266C56.4629 27.6817 56.5 27.5219 56.5 27.3599C56.5 27.1979 56.4629 27.0381 56.3916 26.8933C56.3204 26.7484 56.2169 26.6223 56.0894 26.5251C55.962 26.4279 55.814 26.3622 55.6572 26.3333C55.5004 26.3043 55.3392 26.3128 55.1862 26.3582ZM37.8607 5.97912C38.63 5.98432 39.3823 6.20913 40.032 6.62793C40.6816 7.04673 41.2025 7.64266 41.5352 8.34781C40.8743 8.11064 40.2594 7.75747 39.7185 7.30434C39.6091 7.2178 39.4835 7.15469 39.3495 7.11882C39.2154 7.08295 39.0756 7.07507 38.9384 7.09564C38.8015 7.11991 38.6709 7.17219 38.5544 7.24932C38.438 7.32645 38.3382 7.42682 38.261 7.54434C37.2859 9.07824 35.1818 9.07824 33.8783 8.93216C34.1382 8.068 34.667 7.31294 35.3851 6.78043C36.1032 6.24793 36.9719 5.96674 37.8607 5.97912ZM33.6833 12.24V10.8835C34.0716 10.9312 34.4623 10.9556 34.8534 10.9565C36.4721 11.0396 38.0589 10.4782 39.2771 9.39128C40.0915 9.92171 41.0153 10.2538 41.9765 10.3617V12.24C41.9765 13.347 41.544 14.4086 40.774 15.1914C40.0041 15.9741 38.9598 16.4139 37.871 16.4139H37.8094C36.724 16.4194 35.6807 15.9879 34.9075 15.2135C34.1343 14.4392 33.6941 13.3851 33.6833 12.2817V12.24ZM39.2771 18.8869L38.4457 19.6904C38.2758 19.8473 38.0544 19.9342 37.8248 19.9342C37.5952 19.9342 37.3738 19.8473 37.2038 19.6904L36.3622 18.9599L36.6598 18.2712C37.049 18.3461 37.4441 18.3845 37.8402 18.386H37.9018C38.2911 18.3851 38.6794 18.3467 39.0616 18.2712L39.2771 18.8869ZM31.7845 20.6399C31.8268 20.4874 31.9167 20.353 32.0408 20.257C32.1648 20.161 32.3162 20.1086 32.4721 20.1078H34.1965C34.4189 20.1077 34.634 20.1892 34.8021 20.3373L35.8284 21.266C36.382 21.7541 37.0947 22.015 37.8272 21.9976C38.5598 21.9803 39.2597 21.6859 39.7903 21.1721L40.6217 20.3686C40.7924 20.2009 41.0207 20.1073 41.2581 20.1078H43.2082C43.37 20.1081 43.5269 20.1639 43.6535 20.2662C43.7802 20.3684 43.8692 20.5112 43.9062 20.6712L45.5997 26.3582H30.2038L31.7845 20.6399ZM16.5117 2.00349H18.6672V4.33044H16.5117V2.00349ZM12.0777 3.00522C12.0777 2.72848 12.1859 2.46307 12.3783 2.26738C12.5708 2.07169 12.8319 1.96175 13.1041 1.96175H14.5411V5.32174C14.5411 5.59848 14.6492 5.86389 14.8417 6.05958C15.0342 6.25527 15.2952 6.36521 15.5674 6.36521H19.673C19.9452 6.36521 20.2063 6.25527 20.3988 6.05958C20.5913 5.86389 20.6994 5.59848 20.6994 5.32174V2.00349H24.3226C24.5948 2.00349 24.8559 2.11343 25.0484 2.30911C25.2408 2.5048 25.349 2.77022 25.349 3.04696V12.2191C25.349 12.4958 25.2408 12.7613 25.0484 12.9569C24.8559 13.1526 24.5948 13.2626 24.3226 13.2626H13.1041C12.8319 13.2626 12.5708 13.1526 12.3783 12.9569C12.1859 12.7613 12.0777 12.4958 12.0777 12.2191V3.00522ZM18.6672 15.8087V18.1356H16.5117V15.8087H18.6672ZM12.0777 16.1843C12.0777 15.9076 12.1859 15.6421 12.3783 15.4465C12.5708 15.2508 12.8319 15.1408 13.1041 15.1408H14.5411V19.0956C14.5411 19.3723 14.6492 19.6378 14.8417 19.8334C15.0342 20.0291 15.2952 20.1391 15.5674 20.1391H19.673C19.9452 20.1391 20.2063 20.0291 20.3988 19.8334C20.5913 19.6378 20.6994 19.3723 20.6994 19.0956V15.1826H24.3226C24.5948 15.1826 24.8559 15.2925 25.0484 15.4882C25.2408 15.6839 25.349 15.9493 25.349 16.226V25.4086C25.349 25.6854 25.2408 25.9508 25.0484 26.1465C24.8559 26.3421 24.5948 26.4521 24.3226 26.4521H13.1041C12.8319 26.4521 12.5708 26.3421 12.3783 26.1465C12.1859 25.9508 12.0777 25.6854 12.0777 25.4086V16.1843ZM48.2067 45.1511C48.2028 45.2663 48.1765 45.3795 48.1295 45.4843C48.0824 45.5891 48.0155 45.6834 47.9326 45.7619C47.8497 45.8404 47.7523 45.9015 47.6461 45.9418C47.54 45.982 47.427 46.0005 47.3138 45.9964H9.68622C9.45825 46.0021 9.23714 45.9168 9.07024 45.7588C8.90334 45.6009 8.80392 45.3827 8.79326 45.1511V28.3616H48.2067V45.1511ZM12.4472 35.259C12.4472 34.9823 12.5554 34.7169 12.7478 34.5212C12.9403 34.3255 13.2014 34.2155 13.4736 34.2155H26.2522C26.4052 34.1702 26.5664 34.1616 26.7232 34.1906C26.88 34.2196 27.028 34.2853 27.1554 34.3825C27.2829 34.4797 27.3864 34.6057 27.4576 34.7506C27.5289 34.8955 27.566 35.0553 27.566 35.2173C27.566 35.3793 27.5289 35.539 27.4576 35.6839C27.3864 35.8288 27.2829 35.9549 27.1554 36.052C27.028 36.1492 26.88 36.2149 26.7232 36.2439C26.5664 36.2729 26.4052 36.2644 26.2522 36.219H13.4428C13.1896 36.2121 12.9478 36.1102 12.764 35.933C12.5802 35.7558 12.4674 35.5157 12.4472 35.259ZM12.4472 41.1755C12.4472 40.8988 12.5554 40.6333 12.7478 40.4377C12.9403 40.242 13.2014 40.132 13.4736 40.132H29.8959C30.0489 40.0867 30.2101 40.0781 30.3669 40.1071C30.5237 40.1361 30.6716 40.2018 30.7991 40.299C30.9266 40.3962 31.0301 40.5222 31.1013 40.6671C31.1726 40.812 31.2097 40.9718 31.2097 41.1338C31.2097 41.2958 31.1726 41.4555 31.1013 41.6004C31.0301 41.7453 30.9266 41.8714 30.7991 41.9685C30.6716 42.0657 30.5237 42.1314 30.3669 42.1604C30.2101 42.1894 30.0489 42.1809 29.8959 42.1355H13.4736C13.215 42.1363 12.9657 42.0379 12.7754 41.86C12.5851 41.682 12.4679 41.4375 12.4472 41.1755Z" fill="#15A2B9"/>
</svg>
