<svg width="57" height="46" viewBox="0 0 57 46" fill="none" xmlns="http://www.w3.org/2000/svg">
<path d="M53.57 6.72928H37.5V5.99928C37.5175 4.95668 37.2651 3.92728 36.7675 3.01092C36.2699 2.09457 35.544 1.32238 34.66 0.769276C33.8879 0.294924 33.0046 0.0322491 32.0988 0.00767296C31.193 -0.0169032 30.2966 0.197486 29.5 0.629276L26.76 2.05928C25.9204 2.52145 25.2117 3.1889 24.7 3.99928C24.3524 3.74103 23.9329 3.5977 23.5 3.58928H18.38C17.9543 3.60371 17.5429 3.74664 17.2 3.99928C16.6845 3.20497 15.9757 2.55463 15.14 2.10928L12.42 0.629276C11.6209 0.193746 10.7209 -0.0227032 9.81115 0.00188396C8.90143 0.0264712 8.01438 0.29122 7.24 0.769276C6.35233 1.31995 5.62238 2.09108 5.12118 3.0076C4.61999 3.92412 4.36464 4.95479 4.38 5.99928V6.69928H3.43C3.04713 6.69398 2.66702 6.76481 2.31176 6.90768C1.9565 7.05054 1.63317 7.26257 1.36055 7.53146C1.08794 7.80035 0.871482 8.12074 0.723751 8.474C0.57602 8.82727 0.499963 9.20637 0.5 9.58928V43.1393C0.503912 43.5197 0.58288 43.8955 0.732374 44.2453C0.881869 44.5951 1.09895 44.9119 1.37116 45.1776C1.64338 45.4434 1.96537 45.6527 2.31867 45.7937C2.67198 45.9347 3.04964 46.0046 3.43 45.9993H53.57C53.9504 46.0046 54.328 45.9347 54.6813 45.7937C55.0346 45.6527 55.3566 45.4434 55.6288 45.1776C55.9011 44.9119 56.1181 44.5951 56.2676 44.2453C56.4171 43.8955 56.4961 43.5197 56.5 43.1393V9.58928C56.4961 9.2089 56.4171 8.83303 56.2676 8.48324C56.1181 8.13345 55.9011 7.81661 55.6288 7.5509C55.3566 7.28519 55.0346 7.07584 54.6813 6.93484C54.328 6.79385 53.9504 6.72399 53.57 6.72928ZM27.7 3.82928L30.41 2.38928C30.9082 2.12171 31.4681 1.99008 32.0334 2.00764C32.5987 2.02519 33.1493 2.19131 33.63 2.48928C34.2166 2.8648 34.6967 3.38492 35.0242 3.99962C35.3517 4.61433 35.5156 5.30295 35.5 5.99928V10.6993C35.5184 11.4039 35.354 12.1012 35.0228 12.7233C34.6916 13.3455 34.2048 13.8712 33.61 14.2493C33.1292 14.5476 32.5778 14.7132 32.0121 14.729C31.4465 14.7448 30.8867 14.6103 30.39 14.3393L27.7 12.9393C27.0002 12.5577 26.4372 11.9668 26.09 11.2493C25.7898 10.6433 25.6357 9.9755 25.64 9.29928H29.56C29.8252 9.29928 30.0796 9.19392 30.2671 9.00638C30.4546 8.81885 30.56 8.56449 30.56 8.29928C30.56 8.03406 30.4546 7.77971 30.2671 7.59217C30.0796 7.40463 29.8252 7.29928 29.56 7.29928H25.65C25.6601 6.59247 25.8545 5.90054 26.214 5.29194C26.5736 4.68334 27.0858 4.17916 27.7 3.82928ZM12.08 16.2993L12.42 16.1393L15.14 14.6993C16.0244 14.2356 16.7697 13.5454 17.3 12.6993C17.625 12.8993 17.9985 13.0065 18.38 13.0093H19.38L14.72 22.8293L13.5 20.9993C13.4011 20.8517 13.2646 20.7332 13.1047 20.6558C12.9447 20.5785 12.7671 20.5452 12.59 20.5593L10.14 20.7493L12.08 16.2993ZM24.6 12.6593C25.1328 13.5033 25.8776 14.1929 26.76 14.6593L29.5 16.1393C29.7815 16.2865 30.0761 16.407 30.38 16.4993L32.24 20.7093L29.79 20.5193C29.6145 20.507 29.4389 20.5412 29.2809 20.6184C29.1229 20.6957 28.9881 20.8133 28.89 20.9593L27.65 22.7893L22.98 12.9993H23.5C23.8914 12.9922 24.2729 12.8744 24.6 12.6593ZM18.27 5.65928C18.27 5.6301 18.2816 5.60212 18.3022 5.58149C18.3228 5.56086 18.3508 5.54928 18.38 5.54928H23.5C23.5302 5.54917 23.5593 5.56043 23.5815 5.58082C23.6037 5.6012 23.6175 5.62921 23.62 5.65928V10.8093C23.6305 10.8294 23.6355 10.852 23.6346 10.8747C23.6337 10.8975 23.6268 10.9195 23.6146 10.9388C23.6025 10.958 23.5855 10.9737 23.5654 10.9843C23.5453 10.9949 23.5227 11.0001 23.5 10.9993H18.38C18.3499 10.9968 18.3219 10.983 18.3015 10.9608C18.2812 10.9385 18.2699 10.9094 18.27 10.8793V5.65928ZM6.38 5.99928C6.36657 5.30107 6.53345 4.6112 6.86454 3.99633C7.19562 3.38147 7.6797 2.8624 8.27 2.48928C8.75183 2.18946 9.30433 2.02231 9.87155 2.00474C10.4388 1.98718 11.0006 2.11984 11.5 2.38928L14.22 3.82928C14.826 4.17915 15.3296 4.68188 15.6806 5.28727C16.0315 5.89266 16.2175 6.57952 16.22 7.27928H12.5C12.2348 7.27928 11.9804 7.38463 11.7929 7.57217C11.6054 7.75971 11.5 8.01406 11.5 8.27927C11.5 8.54449 11.6054 8.79885 11.7929 8.98638C11.9804 9.17392 12.2348 9.27927 12.5 9.27927H16.28C16.2809 9.95626 16.1233 10.624 15.82 11.2293C15.4738 11.9442 14.9149 12.5345 14.22 12.9193L11.5 14.3693C11.0026 14.6383 10.4432 14.7717 9.87794 14.7559C9.31268 14.7401 8.76156 14.5757 8.28 14.2793C7.68517 13.9012 7.19843 13.3755 6.8672 12.7533C6.53598 12.1312 6.37157 11.4339 6.39 10.7293L6.38 5.99928ZM3.43 8.72927H4.38V10.7293C4.35767 11.7805 4.60969 12.8194 5.11121 13.7435C5.61273 14.6676 6.34644 15.4451 7.24 15.9993C7.98178 16.4502 8.82328 16.7112 9.69 16.7593L7.62 21.4293C7.54551 21.5891 7.51459 21.7658 7.5304 21.9414C7.54621 22.117 7.60817 22.2853 7.71 22.4293C7.81044 22.5716 7.94631 22.6852 8.10417 22.7589C8.26203 22.8326 8.4364 22.8637 8.61 22.8493L12.15 22.5793L14.04 25.3793C14.1306 25.5168 14.2538 25.6299 14.3985 25.7084C14.5433 25.7869 14.7053 25.8284 14.87 25.8293H14.94C15.1164 25.8162 15.2862 25.7565 15.432 25.6564C15.5778 25.5562 15.6944 25.4192 15.77 25.2593L21.17 13.8593L26.58 25.2593C26.6556 25.4192 26.7722 25.5562 26.918 25.6564C27.0638 25.7565 27.2336 25.8162 27.41 25.8293H27.5C27.6647 25.8284 27.8267 25.7869 27.9715 25.7084C28.1162 25.6299 28.2394 25.5168 28.33 25.3793L30.22 22.5793L33.76 22.8493C33.933 22.864 34.1068 22.8335 34.2644 22.7607C34.422 22.688 34.5579 22.5754 34.6588 22.4341C34.7597 22.2929 34.8221 22.1278 34.8398 21.9551C34.8576 21.7824 34.8301 21.6081 34.76 21.4493L32.67 16.7393C33.3792 16.6337 34.0596 16.3854 34.67 16.0093C35.5595 15.4506 36.2882 14.6699 36.7844 13.7441C37.2806 12.8183 37.5272 11.7793 37.5 10.7293V8.72927H53.5C53.7371 8.72114 53.9678 8.80692 54.1419 8.96797C54.3161 9.12901 54.4196 9.3523 54.43 9.58928V30.2693H2.5V9.58928C2.5104 9.3523 2.61394 9.12901 2.78809 8.96797C2.96225 8.80692 3.19294 8.72114 3.43 8.72927ZM54.5 32.2693V37.2693H2.5V32.2693H54.5ZM53.57 43.9993H3.43C3.19294 44.0074 2.96225 43.9216 2.78809 43.7606C2.61394 43.5995 2.5104 43.3763 2.5 43.1393V39.2593H54.5V43.1393C54.4896 43.3763 54.3861 43.5995 54.2119 43.7606C54.0378 43.9216 53.8071 44.0074 53.57 43.9993Z" fill="#55C9A5"/>
</svg>
