<svg width="17" height="20" viewBox="0 0 17 20" fill="none" xmlns="http://www.w3.org/2000/svg">
<path d="M8.00094 19.9992C7.74697 20.0073 7.49488 19.9532 7.26657 19.8418C7.03827 19.7303 6.84066 19.5648 6.69094 19.3596C6.03094 18.4535 5.18094 17.2909 4.14094 15.8717C2.84094 14.0928 2.00094 12.9335 1.60094 12.3239C1.08841 11.605 0.665297 10.8264 0.340938 10.0053C0.103125 9.25246 -0.0116817 8.46618 0.000937875 7.67677C-0.00349796 6.31299 0.377823 4.97572 1.10094 3.81914C1.83292 2.65031 2.85018 1.68661 4.05715 1.01855C5.26413 0.35049 6.62121 0 8.00094 0C9.38066 0 10.7377 0.35049 11.9447 1.01855C13.1517 1.68661 14.169 2.65031 14.9009 3.81914C15.6241 4.97572 16.0054 6.31299 16.0009 7.67677C16.0136 8.46618 15.8988 9.25246 15.6609 10.0053C15.3395 10.8403 14.9163 11.6325 14.4009 12.3639C13.9909 12.9735 13.1609 14.1328 11.8709 15.9117L9.31094 19.3596C9.16122 19.5648 8.96361 19.7303 8.7353 19.8418C8.507 19.9532 8.2549 20.0073 8.00094 19.9992ZM5.24094 15.0023C6.28094 16.4147 7.13094 17.5807 7.79094 18.5001C7.79094 18.5001 7.85094 18.5701 8.00094 18.5701C8.15094 18.5701 8.19094 18.5701 8.21094 18.4901L10.7609 15.0023C12.0509 13.2434 12.8609 12.1041 13.2609 11.5044C13.7099 10.8868 14.0795 10.2153 14.3609 9.50565C14.5518 8.9152 14.643 8.29714 14.6309 7.67677C14.6403 6.57666 14.3312 5.49731 13.7409 4.56868C13.1478 3.60277 12.314 2.8073 11.3209 2.2601C10.3044 1.69929 9.16212 1.40514 8.00094 1.40514C6.83976 1.40514 5.69752 1.69929 4.68094 2.2601C3.68791 2.8073 2.85404 3.60277 2.26094 4.56868C1.67069 5.49731 1.36162 6.57666 1.37094 7.67677C1.35887 8.29714 1.45011 8.9152 1.64094 9.50565C1.9224 10.2153 2.29196 10.8868 2.74094 11.5044C3.14094 12.134 4.00094 13.2733 5.24094 15.0023ZM8.00094 12.0941C7.20337 12.1159 6.41749 11.8989 5.74429 11.471C5.07109 11.043 4.54134 10.4236 4.22313 9.69236C3.90492 8.96115 3.81279 8.15154 3.95857 7.36759C4.10436 6.58364 4.4814 5.86117 5.04124 5.29304C5.60108 4.72491 6.31814 4.33709 7.10025 4.17941C7.88236 4.02173 8.69378 4.10141 9.43022 4.4082C10.1667 4.71498 10.7945 5.23487 11.233 5.90102C11.6715 6.56718 11.9006 7.34917 11.8909 8.14648C11.8963 9.18471 11.4901 10.1828 10.7611 10.9226C10.0321 11.6623 9.03976 12.0835 8.00094 12.0941ZM8.00094 5.58805C7.49261 5.57813 6.99283 5.7197 6.56531 5.99473C6.1378 6.26975 5.80191 6.66576 5.60046 7.1323C5.39901 7.59883 5.34113 8.11474 5.43418 8.61427C5.52724 9.1138 5.76703 9.57433 6.12298 9.93715C6.47893 10.3 6.93492 10.5486 7.43283 10.6515C7.93074 10.7543 8.44801 10.7067 8.91871 10.5146C9.38941 10.3225 9.79221 9.99467 10.0758 9.57293C10.3594 9.15118 10.5108 8.6546 10.5109 8.14648C10.5163 7.47496 10.2551 6.82868 9.78469 6.34916C9.31425 5.86964 8.67285 5.59596 8.00094 5.58805Z" fill="#FF4E4E"/>
</svg>
