<svg width="57" height="40" viewBox="0 0 57 40" fill="none" xmlns="http://www.w3.org/2000/svg">
<path d="M53.5 0H3.5C2.70435 0 1.94129 0.31607 1.37868 0.87868C0.81607 1.44129 0.5 2.20435 0.5 3L0.5 37C0.5 37.7957 0.81607 38.5587 1.37868 39.1213C1.94129 39.6839 2.70435 40 3.5 40H53.5C54.2957 40 55.0587 39.6839 55.6213 39.1213C56.1839 38.5587 56.5 37.7957 56.5 37V3C56.5 2.20435 56.1839 1.44129 55.6213 0.87868C55.0587 0.31607 54.2957 0 53.5 0ZM3.5 2H53.5C53.7652 2 54.0196 2.10536 54.2071 2.29289C54.3946 2.48043 54.5 2.73478 54.5 3V7.84H2.5V3C2.5 2.73478 2.60536 2.48043 2.79289 2.29289C2.98043 2.10536 3.23478 2 3.5 2ZM54.5 9.84V15H2.5V9.84H54.5ZM53.5 38H3.5C3.23478 38 2.98043 37.8946 2.79289 37.7071C2.60536 37.5196 2.5 37.2652 2.5 37V17H54.5V37C54.5 37.2652 54.3946 37.5196 54.2071 37.7071C54.0196 37.8946 53.7652 38 53.5 38ZM6.11 24.23C6.11 23.9648 6.21536 23.7104 6.40289 23.5229C6.59043 23.3354 6.84478 23.23 7.11 23.23H20.31C20.5752 23.23 20.8296 23.3354 21.0171 23.5229C21.2046 23.7104 21.31 23.9648 21.31 24.23C21.31 24.4952 21.2046 24.7496 21.0171 24.9371C20.8296 25.1246 20.5752 25.23 20.31 25.23H7.11C6.84478 25.23 6.59043 25.1246 6.40289 24.9371C6.21536 24.7496 6.11 24.4952 6.11 24.23ZM24.44 30.29C24.44 30.5552 24.3346 30.8096 24.1471 30.9971C23.9596 31.1846 23.7052 31.29 23.44 31.29H7.11C6.84478 31.29 6.59043 31.1846 6.40289 30.9971C6.21536 30.8096 6.11 30.5552 6.11 30.29C6.11 30.0248 6.21536 29.7704 6.40289 29.5829C6.59043 29.3954 6.84478 29.29 7.11 29.29H23.44C23.7052 29.29 23.9596 29.3954 24.1471 29.5829C24.3346 29.7704 24.44 30.0248 24.44 30.29ZM43.72 21C42.4182 21.0178 41.1507 21.4201 40.0771 22.1565C39.0034 22.8929 38.1715 23.9303 37.686 25.1384C37.2005 26.3464 37.0832 27.671 37.3488 28.9456C37.6143 30.2201 38.2509 31.3877 39.1784 32.3013C40.1059 33.2149 41.2829 33.8339 42.5613 34.0802C43.8397 34.3265 45.1624 34.1892 46.363 33.6856C47.5636 33.182 48.5884 32.3346 49.3085 31.25C50.0286 30.1653 50.4118 28.8919 50.41 27.59C50.3941 25.8298 49.681 24.1477 48.427 22.9123C47.1729 21.677 45.4803 20.9893 43.72 21ZM43.72 32.19C42.8143 32.1723 41.9339 31.8875 41.1894 31.3714C40.4448 30.8553 39.8693 30.1308 39.5349 29.2889C39.2005 28.4469 39.1221 27.525 39.3096 26.6387C39.4972 25.7524 39.9422 24.9412 40.589 24.3068C41.2357 23.6725 42.0554 23.2432 42.9452 23.0729C43.8349 22.9026 44.7552 22.9988 45.5905 23.3494C46.4258 23.7001 47.139 24.2896 47.6406 25.044C48.1422 25.7984 48.4098 26.6841 48.41 27.59C48.3889 28.8154 47.8839 29.9827 47.0052 30.837C46.1265 31.6914 44.9455 32.1634 43.72 32.15V32.19Z" fill="#397CEE"/>
</svg>
