<svg width="53" height="60" viewBox="0 0 53 60" fill="none" xmlns="http://www.w3.org/2000/svg">
<path d="M48.8999 14.2871H4.0999C3.25121 14.2871 2.43728 14.6242 1.83716 15.2242C1.23704 15.8242 0.899902 16.638 0.899902 17.4865V42.442C0.899902 43.2906 1.23704 44.1044 1.83716 44.7044C2.43728 45.3044 3.25121 45.6415 4.0999 45.6415H48.8999C49.7486 45.6415 50.5625 45.3044 51.1626 44.7044C51.7628 44.1044 52.0999 43.2906 52.0999 42.442V17.4865C52.0999 16.638 51.7628 15.8242 51.1626 15.2242C50.5625 14.6242 49.7486 14.2871 48.8999 14.2871ZM49.9666 42.442C49.9666 42.7249 49.8542 42.9962 49.6541 43.1962C49.4541 43.3962 49.1828 43.5085 48.8999 43.5085H4.0999C3.817 43.5085 3.54569 43.3962 3.34565 43.1962C3.14562 42.9962 3.03324 42.7249 3.03324 42.442V17.4865C3.03324 17.2037 3.14562 16.9324 3.34565 16.7324C3.54569 16.5324 3.817 16.42 4.0999 16.42H48.8999C49.1828 16.42 49.4541 16.5324 49.6541 16.7324C49.8542 16.9324 49.9666 17.2037 49.9666 17.4865V42.442Z" fill="#55C9A5"/>
<path d="M26.5639 28.6205H26.4359C25.8173 28.6205 25.2946 28.2366 25.2946 27.7887C25.2946 27.3407 25.8173 26.9568 26.4359 26.9568C26.6398 26.9407 26.8443 26.9762 27.0308 27.0601C27.2172 27.144 27.3795 27.2735 27.5026 27.4367C27.5801 27.554 27.68 27.6547 27.7966 27.7332C27.9131 27.8117 28.0441 27.8664 28.1819 27.8942C28.3196 27.9219 28.4615 27.9222 28.5994 27.8949C28.7373 27.8677 28.8684 27.8134 28.9853 27.7353C29.2191 27.579 29.3817 27.3366 29.4376 27.0609C29.4935 26.7853 29.4383 26.4987 29.2839 26.2636C28.8666 25.6565 28.2524 25.212 27.5453 25.0052V24.1413C27.5453 23.8585 27.4329 23.5872 27.2329 23.3872C27.0328 23.1872 26.7615 23.0748 26.4786 23.0748C26.1957 23.0748 25.9244 23.1872 25.7244 23.3872C25.5243 23.5872 25.4119 23.8585 25.4119 24.1413V24.9945C24.7934 25.1629 24.2452 25.5252 23.8478 26.0281C23.4504 26.531 23.2247 27.1481 23.2039 27.7887C23.2481 28.6148 23.6171 29.3901 24.2305 29.9454C24.8439 30.5008 25.652 30.7912 26.4786 30.7535H26.6066C27.2253 30.7535 27.7479 31.1374 27.7479 31.5853C27.7479 32.0332 27.2253 32.4172 26.6066 32.4172C26.4031 32.4304 26.1995 32.3936 26.0136 32.3099C25.8276 32.2262 25.665 32.0983 25.5399 31.9373C25.4633 31.8192 25.364 31.7174 25.2478 31.6379C25.1316 31.5583 25.0009 31.5026 24.863 31.4738C24.7252 31.4451 24.583 31.4439 24.4447 31.4704C24.3064 31.4968 24.1748 31.5504 24.0573 31.628C23.94 31.7055 23.8392 31.8053 23.7607 31.9219C23.6822 32.0384 23.6275 32.1693 23.5997 32.3071C23.572 32.4449 23.5717 32.5867 23.599 32.7246C23.6263 32.8624 23.6805 32.9936 23.7586 33.1104C24.1586 33.6589 24.7226 34.066 25.3693 34.2728V35.7446C25.3693 36.0274 25.4817 36.2987 25.6817 36.4987C25.8817 36.6987 26.153 36.8111 26.4359 36.8111C26.7188 36.8111 26.9901 36.6987 27.1902 36.4987C27.3902 36.2987 27.5026 36.0274 27.5026 35.7446V34.4115C28.1491 34.2638 28.7287 33.9066 29.1511 33.3955C29.5736 32.8843 29.8153 32.248 29.8386 31.5853C29.7944 30.7591 29.4254 29.9839 28.812 29.4285C28.1987 28.8732 27.3906 28.5827 26.5639 28.6205Z" fill="#55C9A5"/>
<path d="M28.9533 19.7475C27.6134 19.4255 26.2231 19.3709 24.862 19.587C23.501 19.8031 22.196 20.2856 21.0217 21.0068C19.8475 21.728 18.8272 22.6739 18.0193 23.7901C17.2113 24.9063 16.6316 26.1709 16.3133 27.5115C15.6639 30.2166 16.1131 33.0687 17.5626 35.4434C19.012 37.818 21.3435 39.5217 24.0466 40.1812C24.8578 40.3716 25.6881 40.4682 26.5213 40.4692C28.8744 40.4653 31.1575 39.6685 33.002 38.2076C34.8464 36.7466 36.1445 34.7067 36.6866 32.4173C37.336 29.7122 36.8868 26.86 35.4373 24.4854C33.9879 22.1107 31.6564 20.4071 28.9533 19.7475ZM34.6173 31.916C34.2434 33.4337 33.4506 34.8158 32.329 35.9047C31.2075 36.9936 29.8025 37.7455 28.2742 38.0746C26.7459 38.4037 25.1559 38.2968 23.6855 37.766C22.2151 37.2352 20.9234 36.302 19.9578 35.0727C18.9923 33.8435 18.3916 32.3676 18.2245 30.8136C18.0573 29.2595 18.3303 27.6897 19.0123 26.2833C19.6943 24.8768 20.7579 23.6903 22.0818 22.8591C23.4057 22.0278 24.9366 21.5852 26.5 21.5819C27.1609 21.5862 27.8193 21.6649 28.4626 21.8165C30.614 22.347 32.4683 23.7064 33.6213 25.5984C34.7742 27.4903 35.1322 29.7612 34.6173 31.916Z" fill="#55C9A5"/>
<path d="M16.9639 5.71265C18.3026 4.24391 20.0298 3.18404 21.9457 2.6556C23.8616 2.12717 25.888 2.15175 27.7905 2.72652C30.3704 3.48653 32.5731 5.18297 33.9665 7.483L30.7665 6.55517C30.6296 6.50802 30.4845 6.48924 30.3401 6.49997C30.1957 6.5107 30.055 6.55072 29.9266 6.61758C29.7981 6.68445 29.6846 6.77676 29.593 6.8889C29.5014 7.00103 29.4336 7.13064 29.3938 7.26982C29.3539 7.40901 29.3428 7.55485 29.3611 7.69847C29.3794 7.84209 29.4268 7.98048 29.5003 8.10519C29.5739 8.22991 29.6721 8.33835 29.7889 8.4239C29.9057 8.50945 30.0387 8.57032 30.1799 8.6028L35.9932 10.2985H36.2919C36.4155 10.2984 36.5383 10.2767 36.6545 10.2345C36.689 10.2146 36.7246 10.1968 36.7612 10.1812C36.8325 10.1449 36.9004 10.102 36.9639 10.0532C37.0013 10.0229 37.0337 9.98693 37.0599 9.94656C37.0992 9.90335 37.1348 9.85698 37.1665 9.80792L37.2305 9.65861C37.2341 9.62671 37.2341 9.59453 37.2305 9.56263C37.2359 9.53086 37.2359 9.49842 37.2305 9.46665C37.2367 9.43137 37.2367 9.39528 37.2305 9.36L37.7639 3.20643C37.7875 2.92508 37.6986 2.64584 37.5166 2.42993C37.3347 2.21402 37.0745 2.07906 36.7932 2.05464C36.5118 2.03099 36.2325 2.11988 36.0166 2.3018C35.8006 2.48373 35.6656 2.74385 35.6412 3.02513L35.3852 6.01126C33.7248 3.45201 31.212 1.56299 28.2919 0.678883C26.0059 -0.0157114 23.5697 -0.0477254 21.2662 0.586559C18.9628 1.22084 16.8865 2.4954 15.2785 4.26224C15.1731 4.36308 15.0896 4.48445 15.033 4.61886C14.9764 4.75327 14.9479 4.89786 14.9494 5.0437C14.9509 5.18953 14.9823 5.3335 15.0417 5.46672C15.1011 5.59993 15.1871 5.71956 15.2945 5.81821C15.402 5.91685 15.5285 5.99242 15.6663 6.04024C15.8041 6.08806 15.9503 6.10711 16.0957 6.09621C16.2412 6.08532 16.3829 6.04472 16.512 5.97691C16.6411 5.9091 16.755 5.81553 16.8465 5.70199L16.9639 5.71265Z" fill="#55C9A5"/>
<path d="M36.0359 54.312C34.6975 55.781 32.9698 56.8403 31.0534 57.367C29.1371 57.8937 27.1106 57.8661 25.2092 57.2875C22.6499 56.5202 20.4675 54.8286 19.0866 52.5416L22.2866 53.4695C22.3854 53.4858 22.4863 53.4858 22.5852 53.4695C22.8246 53.4783 23.0601 53.4063 23.2536 53.2651C23.4471 53.1239 23.5874 52.9216 23.6519 52.6909C23.7275 52.4194 23.6925 52.129 23.5546 51.8832C23.4166 51.6375 23.187 51.4562 22.9159 51.3792L17.0066 49.7261H16.8039C16.8039 49.7261 16.7292 49.7261 16.6866 49.7261H16.5052L16.2492 49.8115H16.1532C16.072 49.8633 15.9968 49.9241 15.9292 49.9928L15.8439 50.1101C15.7957 50.178 15.7596 50.2538 15.7372 50.334C15.7157 50.3599 15.6977 50.3886 15.6839 50.4193C15.6785 50.4511 15.6785 50.4836 15.6839 50.5153C15.6777 50.5506 15.6777 50.5867 15.6839 50.622L15.1506 56.7649C15.1374 56.905 15.1521 57.0464 15.1938 57.1809C15.2355 57.3153 15.3035 57.4402 15.3937 57.5483C15.4839 57.6563 15.5947 57.7455 15.7196 57.8105C15.8444 57.8756 15.9809 57.9153 16.1212 57.9273H16.2172C16.4842 57.9284 16.742 57.8293 16.9395 57.6496C17.137 57.47 17.2599 57.2227 17.2839 56.9568L17.5399 53.96C18.6929 55.7648 20.2805 57.2513 22.1571 58.2836C24.0337 59.3158 26.1394 59.8607 28.2812 59.8683C30.0369 59.8673 31.7731 59.4996 33.3784 58.7889C34.9838 58.0782 36.423 57.0401 37.6039 55.7411C37.7093 55.6402 37.7928 55.5189 37.8494 55.3844C37.9061 55.25 37.9345 55.1054 37.933 54.9596C37.9315 54.8138 37.9001 54.6698 37.8407 54.5366C37.7814 54.4034 37.6953 54.2837 37.5879 54.1851C37.4804 54.0865 37.3539 54.0109 37.2161 53.9631C37.0783 53.9153 36.9322 53.8962 36.7867 53.9071C36.6412 53.918 36.4996 53.9586 36.3704 54.0264C36.2413 54.0942 36.1274 54.1878 36.0359 54.3013V54.312Z" fill="#55C9A5"/>
</svg>
