<svg width="57" height="57" viewBox="0 0 57 57" fill="none" xmlns="http://www.w3.org/2000/svg">
<path d="M56.21 9.47L47 0.29C46.8137 0.105256 46.5623 0.00110462 46.3 0L8.63 0C4 0 0.5 2 0.5 4.62V47.55C0.5 50.18 4 52.17 8.63 52.17C13.01 52.17 16.37 50.4 16.73 47.98H22.14V53C22.1542 53.4102 22.2494 53.8136 22.4202 54.1869C22.591 54.5601 22.834 54.8959 23.1352 55.1748C23.4364 55.4537 23.7898 55.6702 24.1751 55.8118C24.5604 55.9534 24.9699 56.0174 25.38 56H45.81C46.2201 56.0174 46.6296 55.9534 47.0149 55.8118C47.4002 55.6702 47.7536 55.4537 48.0548 55.1748C48.356 54.8959 48.599 54.5601 48.7698 54.1869C48.9406 53.8136 49.0359 53.4102 49.05 53V48H51.62C52.2699 47.9961 52.9126 47.8633 53.5107 47.6092C54.1089 47.355 54.6507 46.9847 55.1046 46.5196C55.5586 46.0545 55.9157 45.5038 56.1552 44.8997C56.3947 44.2955 56.5119 43.6498 56.5 43V10.18C56.5008 10.0484 56.4755 9.91793 56.4258 9.79609C56.376 9.67426 56.3027 9.56344 56.21 9.47ZM47.3 3.41L53.08 9.18H48.24C47.9853 9.16469 47.7461 9.05262 47.5714 8.86671C47.3966 8.68081 47.2995 8.43514 47.3 8.18V3.41ZM8.63 2C12.15 2 14.77 3.39 14.77 4.62C14.77 5.85 12.15 7.25 8.63 7.25C5.11 7.25 2.5 5.86 2.5 4.62C2.5 3.38 5.12 2 8.63 2ZM8.63 50.17C5.12 50.17 2.5 48.78 2.5 47.55V7.72C4.36202 8.78834 6.48435 9.31806 8.63 9.25C10.779 9.31939 12.9049 8.78965 14.77 7.72V47.55C14.77 48.78 12.15 50.17 8.63 50.17ZM26.05 29.49C26.1056 28.9716 26.3615 28.4954 26.7631 28.1629C27.1648 27.8304 27.6803 27.6679 28.2 27.71C28.7255 27.689 29.2408 27.8596 29.65 28.19L33.28 31.19H27.78C27.3387 31.1527 26.9243 30.9624 26.6084 30.652C26.2926 30.3416 26.095 29.9306 26.05 29.49ZM41.5 28.19C41.9061 27.8611 42.4177 27.6905 42.94 27.71C43.4613 27.6652 43.9795 27.8264 44.3833 28.1592C44.7871 28.492 45.0444 28.9697 45.1 29.49C45.0619 29.937 44.8677 30.3564 44.5514 30.6745C44.235 30.9927 43.8168 31.1893 43.37 31.23H37.81L41.5 28.19ZM48.96 37C48.9272 37.2947 48.7799 37.5648 48.5498 37.7519C48.3197 37.9389 48.0252 38.0281 47.73 38H39.34V33.23H42.89C43.0198 33.2404 43.1502 33.2404 43.28 33.23H47.73C48.0247 33.2045 48.3177 33.2946 48.5473 33.4812C48.7768 33.6678 48.9248 33.9363 48.96 34.23V37ZM37.34 33.23V38H33.85V33.23H37.34ZM27.82 33.23C27.9465 33.2398 28.0735 33.2398 28.2 33.23H31.85V38H23.5C23.2037 38.0282 22.9081 37.9394 22.6764 37.7525C22.4446 37.5657 22.2952 37.2956 22.26 37V34.2C22.2976 33.9055 22.4477 33.6369 22.6788 33.4505C22.9099 33.2641 23.2042 33.1744 23.5 33.2L27.82 33.23ZM25.38 54C25.0837 54.0282 24.7881 53.9394 24.5564 53.7525C24.3246 53.5657 24.1752 53.2956 24.14 53V40H31.85V54H25.38ZM33.85 54V40H37.34V54H33.85ZM45.85 54H39.34V40H47.05V53C47.0148 53.2956 46.8654 53.5657 46.6336 53.7525C46.4019 53.9394 46.1063 54.0282 45.81 54H45.85ZM51.66 46H49.05V39.7C49.5979 39.4867 50.0711 39.117 50.4107 38.637C50.7502 38.1569 50.9413 37.5877 50.96 37V34.2C50.9287 33.3741 50.5711 32.5944 49.9655 32.0319C49.3599 31.4695 48.5559 31.1703 47.73 31.2H46.56C46.8738 30.6733 47.0428 30.073 47.05 29.46C46.993 28.4095 46.5245 27.4237 45.7458 26.7162C44.9672 26.0086 43.9412 25.6364 42.89 25.68C41.9521 25.6606 41.0353 25.9603 40.29 26.53L35.56 30.53L30.83 26.53C30.0816 25.9588 29.1612 25.6591 28.22 25.68C27.1705 25.6391 26.147 26.0125 25.3706 26.7198C24.5941 27.427 24.127 28.4113 24.07 29.46C24.0536 30.0777 24.2021 30.6886 24.5 31.23H23.5C23.0902 31.2139 22.6813 31.2788 22.2966 31.4209C21.9119 31.5631 21.559 31.7796 21.258 32.0583C20.9571 32.3369 20.7141 32.6721 20.5428 33.0448C20.3716 33.4174 20.2755 33.8202 20.26 34.23V37C20.2776 37.5906 20.4692 38.1628 20.8108 38.6449C21.1523 39.127 21.6287 39.4976 22.18 39.71V46H16.77V4.62C16.7525 4.11069 16.6223 3.61159 16.3889 3.15858C16.1554 2.70557 15.8246 2.3099 15.42 2H45.3V8.21C45.2998 8.99536 45.6077 9.74947 46.1574 10.3104C46.7071 10.8713 47.4548 11.1943 48.24 11.21H54.5V43C54.512 43.3871 54.4466 43.7728 54.3076 44.1343C54.1686 44.4958 53.9589 44.826 53.6906 45.1054C53.4224 45.3848 53.1011 45.6079 52.7455 45.7615C52.39 45.9151 52.0073 45.9962 51.62 46H51.66Z" fill="#FF4E4E"/>
</svg>
