<svg width="18" height="18" viewBox="0 0 18 18" fill="none" xmlns="http://www.w3.org/2000/svg">
<path d="M18 1.00446C18 0.723214 17.8795 0.482143 17.6786 0.28125C17.4777 0.120536 17.2366 0 16.9955 0H1.00446C0.683036 0 0.441964 0.120536 0.28125 0.28125C0.0803571 0.482143 0 0.723214 0 1.00446V16.9955C0 17.2768 0.0803571 17.5179 0.28125 17.7188C0.441964 17.9196 0.683036 18 1.00446 18H9.60268V11.0089H7.27232V8.31696H9.60268V6.30804C9.60268 5.18304 9.92411 4.29911 10.567 3.65625C11.2098 3.05357 12.0536 2.73214 13.0982 2.73214C13.9018 2.73214 14.625 2.77232 15.1875 2.8125V5.26339H13.7411C13.2188 5.26339 12.8571 5.38393 12.6562 5.625C12.4955 5.82589 12.4152 6.14732 12.4152 6.58929V8.31696H15.1071L14.7455 11.0089H12.4152V18H16.9955C17.2768 18 17.5179 17.9196 17.7188 17.7188C17.8795 17.5179 18 17.2768 18 16.9955V1.00446Z" fill="#161720"/>
</svg>
