<svg width="20" height="16" viewBox="0 0 20 16" fill="none" xmlns="http://www.w3.org/2000/svg">
<path d="M17.9297 4C18.7109 3.42308 19.4141 2.73077 20 1.88462C19.2188 2.23077 18.4375 2.46154 17.6562 2.53846C18.5156 2 19.1406 1.26923 19.4531 0.307692C18.6328 0.769231 17.7734 1.11538 16.8359 1.26923C16.4453 0.884615 15.9766 0.576923 15.4688 0.346154C14.9609 0.115385 14.4141 0 13.8281 0C13.0859 0 12.4219 0.192308 11.7969 0.538462C11.1719 0.923077 10.6641 1.42308 10.3125 2.03846C9.92188 2.65385 9.76562 3.34615 9.76562 4.03846C9.76562 4.34615 9.76562 4.65385 9.84375 4.96154C8.16406 4.88462 6.60156 4.5 5.11719 3.73077C3.63281 3 2.42188 2 1.40625 0.730769C1.01562 1.38462 0.820312 2.07692 0.820312 2.76923C0.820312 3.46154 0.976562 4.11538 1.32812 4.69231C1.64062 5.30769 2.10938 5.76923 2.65625 6.15385C1.99219 6.15385 1.36719 5.96154 0.820312 5.61539V5.69231C0.820312 6.65385 1.13281 7.5 1.75781 8.23077C2.38281 9 3.16406 9.46154 4.10156 9.65385C3.71094 9.73077 3.35938 9.76923 3.00781 9.76923C2.77344 9.76923 2.5 9.76923 2.26562 9.73077C2.5 10.5385 2.96875 11.1923 3.67188 11.7308C4.375 12.2692 5.15625 12.5 6.09375 12.5C4.57031 13.6538 2.85156 14.2308 0.976562 14.2308C0.585938 14.2308 0.273438 14.2308 0 14.1923C1.875 15.4231 3.98438 16 6.28906 16C8.67188 16 10.7812 15.4231 12.6562 14.1923C14.3359 13.1154 15.6641 11.6923 16.6016 9.84615C17.5 8.15385 17.9688 6.34615 17.9688 4.5C17.9688 4.26923 17.9297 4.11538 17.9297 4Z" fill="#161720"/>
</svg>
