<svg width="21" height="20" viewBox="0 0 21 20" fill="none" xmlns="http://www.w3.org/2000/svg">
<path d="M18.0109 19.9999C14.9067 20.0126 11.8561 19.192 9.17855 17.6241C6.56981 16.0891 4.40073 13.9097 2.88002 11.2956C1.31646 8.63468 0.494739 5.60454 0.500124 2.51964C0.495676 2.15183 0.610861 1.7925 0.828386 1.4956C0.947624 1.32987 1.1007 1.19124 1.27752 1.08886C1.45434 0.986488 1.65088 0.922686 1.85421 0.901666L5.5369 0.0312393C5.91852 -0.0439906 6.31449 0.0176593 6.65504 0.205325C7.00592 0.380599 7.27454 0.685492 7.40389 1.05527L9.12726 5.04899C9.26556 5.37302 9.28731 5.73482 9.18881 6.07303C9.11413 6.39409 8.94645 6.68613 8.70668 6.91273L6.95253 8.34638C7.54077 9.44629 8.28344 10.4566 9.15804 11.3468C10.0417 12.2365 11.0593 12.9828 12.1739 13.5587L13.5588 11.869C13.7985 11.6098 14.103 11.4189 14.441 11.3161C14.7822 11.2242 15.1447 11.2531 15.4668 11.398L19.5086 13.1184C19.865 13.2635 20.1566 13.5327 20.3292 13.8761C20.5015 14.2219 20.5452 14.6175 20.4523 14.9923L19.5906 18.7198C19.5663 18.9134 19.5006 19.0996 19.398 19.2657C19.2953 19.4318 19.1581 19.5739 18.9956 19.6824C18.7083 19.8876 18.3642 19.9986 18.0109 19.9999ZM5.88567 1.56729L2.02859 2.44795C2.01515 5.29673 2.76607 8.09715 4.20333 10.5583C5.59767 12.9332 7.57913 14.9112 9.95818 16.3031C12.4001 17.7303 15.1812 18.4765 18.0109 18.4638H18.1134L18.9649 14.6749V14.5827L14.8616 12.8009C14.7983 12.8131 14.7407 12.8454 14.6975 12.8931L12.6458 15.4532L12.1021 15.2074C10.5974 14.5356 9.2305 13.5912 8.07067 12.422C6.92348 11.272 5.98618 9.93083 5.30096 8.45902L5.0445 7.91628L7.68086 5.77606C7.67818 5.74881 7.67818 5.72138 7.68086 5.69413L5.94722 1.59801L5.88567 1.56729Z" fill="#161720"/>
</svg>
