<svg width="18" height="18" viewBox="0 0 18 18" fill="none" xmlns="http://www.w3.org/2000/svg">
<path d="M15.1439 1.75569C14.6966 1.34296 12.889 0.0307474 8.86271 0.01292C8.86271 0.01292 4.11466 -0.2734 1.80007 1.84969C0.511627 3.1384 0.0583771 5.02405 0.0105671 7.36188C-0.0372429 9.69971 -0.0990992 14.0809 4.12412 15.2689H4.12817L4.12547 17.0816C4.12547 17.0816 4.09846 17.8155 4.58169 17.9652C5.16621 18.1467 5.50925 17.5889 6.06731 16.9876C6.37362 16.6575 6.79661 16.1727 7.11535 15.8021C10.0037 16.0452 12.2251 15.4896 12.4774 15.4075C13.0605 15.2184 16.3605 14.7957 16.8972 10.4147C17.4512 5.89922 16.6293 3.04305 15.1439 1.75569Z" fill="black"/>
<path d="M14.2047 2.66811C13.8265 2.32452 12.1942 1.2989 8.78837 1.28405C8.78837 1.28405 4.75532 1.01907 2.79754 2.79236C1.70791 3.86822 1.34082 5.4681 1.30058 7.42047C1.26033 9.37285 1.0518 13.1026 4.62296 14.0947C4.62296 14.0947 4.60892 16.8636 4.6073 17.107C4.6073 17.2772 4.63431 17.3936 4.73155 17.4176C4.80151 17.4346 4.90631 17.3984 4.99545 17.3096C5.56647 16.7361 7.39459 14.5307 7.39459 14.5307C9.84749 14.6908 11.7991 14.2065 12.0089 14.1379C12.5038 13.9788 15.1803 13.7489 15.6333 10.09C16.1014 6.31841 15.4612 3.74397 14.2047 2.66811Z" fill="#161720"/>
<path fill-rule="evenodd" clip-rule="evenodd" d="M8.93195 5.84071C8.9385 5.71513 9.04562 5.61863 9.17121 5.62518C9.64108 5.64969 10.032 5.79192 10.3104 6.07979C10.5878 6.36656 10.7237 6.76718 10.7476 7.24831C10.7538 7.37392 10.6571 7.48079 10.5315 7.48702C10.4059 7.49325 10.299 7.39648 10.2927 7.27088C10.2723 6.85902 10.1593 6.57864 9.98307 6.3964C9.80788 6.21526 9.54054 6.10048 9.14748 6.07997C9.0219 6.07342 8.9254 5.9663 8.93195 5.84071Z" fill="white"/>
<path fill-rule="evenodd" clip-rule="evenodd" d="M8.58678 4.61396C8.59596 4.48854 8.70507 4.39431 8.8305 4.40349C9.78672 4.47347 10.5564 4.80019 11.117 5.41217L11.1171 5.41226C11.6716 6.01821 11.9352 6.77202 11.9161 7.65618C11.9133 7.78191 11.8092 7.88163 11.6835 7.87891C11.5578 7.87619 11.458 7.77206 11.4608 7.64633C11.4776 6.8666 11.2483 6.23023 10.7811 5.71971C10.3153 5.21132 9.66424 4.92113 8.79725 4.85768C8.67183 4.8485 8.5776 4.73939 8.58678 4.61396Z" fill="white"/>
<path fill-rule="evenodd" clip-rule="evenodd" d="M8.18478 3.4478C8.18566 3.32204 8.28831 3.22081 8.41407 3.22169C9.73552 3.23089 10.8525 3.67081 11.7493 4.54506C12.6536 5.42662 13.1008 6.62678 13.1122 8.11736C13.1131 8.24312 13.012 8.34584 12.8862 8.3468C12.7604 8.34775 12.6577 8.24658 12.6568 8.12083C12.6461 6.72408 12.2306 5.65025 11.4314 4.87116C10.6247 4.08476 9.6231 3.68553 8.41089 3.67708C8.28514 3.67621 8.18391 3.57355 8.18478 3.4478Z" fill="white"/>
<path d="M9.20445 10.3094C9.20445 10.3094 9.52454 10.3364 9.69687 10.1241L10.0329 9.70141C10.195 9.4918 10.5861 9.35809 10.9691 9.57148C11.2561 9.73518 11.5348 9.91313 11.804 10.1047C12.0582 10.2916 12.5787 10.7259 12.5803 10.7259C12.8283 10.9353 12.8856 11.2427 12.7167 11.5668C12.7167 11.5687 12.7154 11.5719 12.7154 11.5736C12.5294 11.8959 12.2934 12.1866 12.0161 12.4347C12.0128 12.4363 12.0128 12.4379 12.0098 12.4395C11.7689 12.6409 11.5322 12.7553 11.2997 12.7829C11.2655 12.7888 11.2307 12.791 11.196 12.7893C11.0935 12.7903 10.9915 12.7746 10.894 12.7429L10.8864 12.7318C10.5283 12.6308 9.93024 12.378 8.93434 11.8285C8.35802 11.5144 7.80936 11.1519 7.29421 10.7451C7.03601 10.5413 6.78971 10.3229 6.55653 10.0909L6.48198 10.0164C6.47361 10.0083 6.46551 9.99988 6.45713 9.99151C6.22513 9.75833 6.0067 9.51203 5.80292 9.25383C5.39618 8.73874 5.03375 8.19016 4.7195 7.61397C4.17009 6.6178 3.91726 6.02031 3.81624 5.6616L3.80516 5.65403C3.7735 5.55654 3.7579 5.45455 3.75898 5.35205C3.75709 5.31735 3.75917 5.28255 3.76519 5.24832C3.79418 5.01621 3.9088 4.77932 4.10904 4.53766C4.11066 4.53469 4.11228 4.53469 4.1139 4.53144C4.36195 4.25412 4.65264 4.01814 4.97502 3.83239C4.97664 3.83239 4.97989 3.83077 4.98178 3.83077C5.30591 3.66195 5.6133 3.71921 5.82237 3.96583C5.82399 3.96745 6.25752 4.48796 6.44363 4.74213C6.6352 5.01163 6.81316 5.29056 6.97683 5.57786C7.19022 5.96061 7.05651 6.35255 6.84691 6.51407L6.42418 6.85009C6.21079 7.02243 6.23888 7.34251 6.23888 7.34251C6.23888 7.34251 6.865 9.71221 9.20445 10.3094Z" fill="white"/>
</svg>
