<svg width="16" height="20" viewBox="0 0 16 20" fill="none" xmlns="http://www.w3.org/2000/svg">
<path d="M8.23 19.9926H8C5.92303 20.0328 3.9148 19.2484 2.41528 17.8112C0.915766 16.374 0.0472441 14.4012 0 12.325C0 12.1751 0 12.0251 0 11.8752C0.14 7.60658 2.4 6.42696 2.66 6.297C2.81506 6.21879 2.98632 6.17805 3.16 6.17805C3.33368 6.17805 3.50494 6.21879 3.66 6.297C3.81565 6.37413 3.94995 6.48831 4.05109 6.62951C4.15223 6.77071 4.2171 6.93459 4.24 7.10674C4.35746 7.69745 4.59951 8.25635 4.95 8.74621C4.98245 7.76138 5.11989 6.78283 5.36 5.82715C6.03851 3.54652 7.46508 1.56052 9.41 0.188982C9.57239 0.0810347 9.75996 0.0169369 9.95447 0.0029228C10.149 -0.0110913 10.3438 0.0254552 10.52 0.109008C10.7044 0.201728 10.8588 0.344909 10.965 0.521885C11.0712 0.698861 11.125 0.902355 11.12 1.10868C11.12 2.66818 11.97 3.75783 13.03 5.10739C14.6739 6.87893 15.7138 9.12587 16 11.5253C16 11.5253 16 12.1051 16 12.3151C15.9684 14.2836 15.195 16.1677 13.8343 17.591C12.4736 19.0143 10.6257 19.872 8.66 19.9926C8.51684 20.0025 8.37316 20.0025 8.23 19.9926ZM6.05 16.2238V16.3837C6.04412 16.9493 6.25739 17.4951 6.64512 17.9069C7.03286 18.3188 7.56498 18.5646 8.13 18.593H8.53C9.0547 18.5159 9.53388 18.2519 9.87933 17.8496C10.2248 17.4474 10.4132 16.9339 10.41 16.4037C10.41 16.3437 10.41 16.2738 10.41 16.2138C10.3145 15.2969 9.93319 14.4331 9.32 13.7446C9.14 13.4947 8.96 13.2447 8.78 12.9748C8.69316 13.1467 8.62606 13.3277 8.58 13.5147C8.45196 14.1393 8.39825 14.7768 8.42 15.414C8.42002 15.5667 8.38963 15.7179 8.33059 15.8587C8.27155 15.9995 8.18505 16.1271 8.07613 16.2341C7.96722 16.3411 7.83807 16.4254 7.69623 16.482C7.55439 16.5386 7.40269 16.5663 7.25 16.5637C6.82639 16.5625 6.41126 16.4449 6.05 16.2238ZM2.94 7.76653C2.44 8.17639 1.46 9.30603 1.38 11.9452C1.38 12.0851 1.38 12.2051 1.38 12.325C1.39438 13.5044 1.74184 14.6556 2.38231 15.6461C3.02279 16.6366 3.93022 17.4259 5 17.9232C4.77487 17.4413 4.65878 16.9156 4.66 16.3837V16.1638C4.66282 15.5744 4.78885 14.9922 5.03 14.4544C5.07853 14.332 5.16478 14.2282 5.27625 14.1581C5.38773 14.088 5.51863 14.0552 5.65 14.0645C5.77835 14.0642 5.90408 14.1008 6.01222 14.17C6.12036 14.2391 6.20636 14.3378 6.26 14.4544C6.32238 14.6206 6.42409 14.7692 6.55644 14.8876C6.68879 15.006 6.84784 15.0906 7.02 15.1341C7.00714 14.4621 7.07428 13.791 7.22 13.1348C7.43071 12.3747 7.81398 11.6734 8.34 11.0855C8.42496 11.0006 8.53007 10.9386 8.6455 10.9054C8.76093 10.8722 8.8829 10.8688 9 10.8955C9.11732 10.9254 9.22535 10.984 9.31438 11.066C9.40341 11.148 9.47063 11.2509 9.51 11.3654C9.71194 11.9144 10.0062 12.4249 10.38 12.8749C11.1595 13.7799 11.6383 14.9048 11.75 16.0938C11.75 16.1838 11.75 16.2838 11.75 16.3837C11.7479 16.7991 11.6769 17.2112 11.54 17.6033C12.4614 17.0613 13.2272 16.2906 13.7633 15.3659C14.2994 14.4412 14.5876 13.3938 14.6 12.325C14.6 12.1551 14.6 11.6853 14.6 11.6453C14.3559 9.53413 13.4452 7.55569 12 5.9971C10.8438 4.79664 10.071 3.2794 9.78 1.63851C8.28293 2.79728 7.18518 4.39444 6.64 6.20703C6.35413 7.44903 6.22313 8.72163 6.25 9.9958C6.24377 10.0916 6.21844 10.1851 6.17551 10.271C6.13257 10.3568 6.0729 10.4332 6 10.4956C5.92161 10.5606 5.83 10.6076 5.73156 10.6335C5.63311 10.6594 5.5302 10.6635 5.43 10.6456C3.79 10.3057 3.16 8.58626 2.94 7.76653Z" fill="#F86A6A"/>
</svg>
