<svg width="14" height="14" viewBox="0 0 14 14" fill="none" xmlns="http://www.w3.org/2000/svg">
<path d="M7 13.6668C5.68146 13.6668 4.39253 13.2758 3.2962 12.5433C2.19987 11.8108 1.34539 10.7696 0.840805 9.55139C0.336221 8.33322 0.204198 6.99277 0.461433 5.69956C0.718668 4.40636 1.35361 3.21847 2.28596 2.28612C3.21831 1.35377 4.40619 0.718832 5.6994 0.461597C6.99261 0.204362 8.33305 0.336385 9.55123 0.840969C10.7694 1.34555 11.8106 2.20004 12.5431 3.29636C13.2757 4.39269 13.6667 5.68162 13.6667 7.00017C13.6667 8.76828 12.9643 10.464 11.714 11.7142C10.4638 12.9645 8.76811 13.6668 7 13.6668ZM7 1.36017C5.88452 1.36017 4.79408 1.69095 3.86659 2.31068C2.93909 2.93041 2.2162 3.81126 1.78932 4.84183C1.36244 5.87241 1.25075 7.00642 1.46837 8.10048C1.68599 9.19453 2.22315 10.1995 3.01192 10.9882C3.80069 11.777 4.80564 12.3142 5.89969 12.5318C6.99375 12.7494 8.12776 12.6377 9.15834 12.2108C10.1889 11.784 11.0698 11.0611 11.6895 10.1336C12.3092 9.20609 12.64 8.11565 12.64 7.00017C12.64 5.50434 12.0458 4.06979 10.9881 3.01208C9.93038 1.95438 8.49582 1.36017 7 1.36017ZM10.5533 9.30017C10.5903 9.24389 10.6156 9.18081 10.6279 9.11462C10.6402 9.04843 10.6392 8.98045 10.6249 8.91466C10.6107 8.84887 10.5834 8.78658 10.5448 8.73144C10.5062 8.6763 10.457 8.6294 10.4 8.5935L7.51334 6.72017V3.4935C7.51334 3.35735 7.45925 3.22679 7.36298 3.13052C7.26672 3.03425 7.13615 2.98017 7 2.98017C6.86386 2.98017 6.73329 3.03425 6.63702 3.13052C6.54075 3.22679 6.48667 3.35735 6.48667 3.4935V7.28017L9.82 9.4535C9.90189 9.50508 9.99656 9.53279 10.0933 9.5335C10.1839 9.53936 10.2743 9.52079 10.3552 9.47975C10.4362 9.4387 10.5046 9.37668 10.5533 9.30017Z" fill="#403F47"/>
</svg>
