<svg width="16" height="16" viewBox="0 0 16 16" fill="none" xmlns="http://www.w3.org/2000/svg">
<path d="M7.50781 0C8.83984 0 10.1113 0.363281 11.2617 1.0293C12.4121 1.69531 13.3203 2.60352 13.9863 3.75391C14.6523 4.9043 15.0156 6.17578 15.0156 7.50781C15.0156 8.87012 14.6523 10.1113 13.9863 11.2617C13.3203 12.4121 12.4121 13.3506 11.2617 14.0166C10.1113 14.6826 8.83984 15.0156 7.50781 15.0156C6.14551 15.0156 4.9043 14.6826 3.75391 14.0166C2.60352 13.3506 1.66504 12.4121 0.999023 11.2617C0.333008 10.1113 0 8.87012 0 7.50781C0 6.17578 0.333008 4.9043 0.999023 3.75391C1.66504 2.60352 2.60352 1.69531 3.75391 1.0293C4.9043 0.363281 6.14551 0 7.50781 0ZM7.50781 13.5625C8.59766 13.5625 9.59668 13.29 10.5352 12.7451C11.4434 12.2002 12.2002 11.4736 12.7451 10.5352C13.29 9.62695 13.5625 8.59766 13.5625 7.50781C13.5625 6.41797 13.29 5.41895 12.7451 4.48047C12.2002 3.57227 11.4434 2.81543 10.5352 2.27051C9.59668 1.72559 8.59766 1.45312 7.50781 1.45312C6.41797 1.45312 5.38867 1.72559 4.48047 2.27051C3.54199 2.81543 2.81543 3.57227 2.27051 4.48047C1.72559 5.41895 1.45312 6.41797 1.45312 7.50781C1.45312 8.59766 1.72559 9.62695 2.27051 10.5352C2.81543 11.4736 3.54199 12.2002 4.48047 12.7451C5.38867 13.29 6.41797 13.5625 7.50781 13.5625ZM7.50781 3.33008C7.14453 3.33008 6.8418 3.48145 6.59961 3.72363C6.35742 3.96582 6.23633 4.26855 6.23633 4.60156C6.23633 4.96484 6.35742 5.26758 6.59961 5.50977C6.8418 5.75195 7.14453 5.87305 7.50781 5.87305C7.84082 5.87305 8.14355 5.75195 8.38574 5.50977C8.62793 5.26758 8.7793 4.96484 8.7793 4.60156C8.7793 4.26855 8.62793 3.96582 8.38574 3.72363C8.14355 3.48145 7.84082 3.33008 7.50781 3.33008ZM9.20312 11.0195V10.293C9.20312 10.2021 9.14258 10.1113 9.08203 10.0508C9.02148 9.99023 8.93066 9.92969 8.83984 9.92969H8.47656V6.90234C8.47656 6.81152 8.41602 6.7207 8.35547 6.66016C8.29492 6.59961 8.2041 6.53906 8.11328 6.53906H6.17578C6.05469 6.53906 5.96387 6.59961 5.90332 6.66016C5.84277 6.7207 5.8125 6.81152 5.8125 6.90234V7.62891C5.8125 7.75 5.84277 7.84082 5.90332 7.90137C5.96387 7.96191 6.05469 7.99219 6.17578 7.99219H6.53906V9.92969H6.17578C6.05469 9.92969 5.96387 9.99023 5.90332 10.0508C5.84277 10.1113 5.8125 10.2021 5.8125 10.293V11.0195C5.8125 11.1406 5.84277 11.2314 5.90332 11.292C5.96387 11.3525 6.05469 11.3828 6.17578 11.3828H8.83984C8.93066 11.3828 9.02148 11.3525 9.08203 11.292C9.14258 11.2314 9.20312 11.1406 9.20312 11.0195Z" fill="#161720"/>
</svg>
