<svg width="24" height="24" viewBox="0 0 24 24" fill="none" xmlns="http://www.w3.org/2000/svg">
<path d="M12 22C13.9778 22 15.9112 21.4135 17.5557 20.3147C19.2002 19.2159 20.4819 17.6541 21.2388 15.8268C21.9957 13.9996 22.1937 11.9889 21.8078 10.0491C21.422 8.10929 20.4696 6.32746 19.0711 4.92894C17.6725 3.53041 15.8907 2.578 13.9509 2.19215C12.0111 1.8063 10.0004 2.00433 8.17317 2.76121C6.3459 3.51809 4.78412 4.79981 3.6853 6.4443C2.58649 8.08879 2 10.0222 2 12C2 14.6522 3.05357 17.1957 4.92893 19.0711C6.8043 20.9464 9.34783 22 12 22V22ZM12 3.65556C13.6504 3.65556 15.2637 4.14495 16.6359 5.06185C18.0082 5.97875 19.0777 7.28197 19.7093 8.80672C20.3408 10.3315 20.5061 12.0093 20.1841 13.6279C19.8621 15.2466 19.0674 16.7334 17.9004 17.9004C16.7334 19.0674 15.2466 19.8621 13.6279 20.1841C12.0093 20.5061 10.3315 20.3408 8.80672 19.7093C7.28197 19.0777 5.97875 18.0082 5.06185 16.6359C4.14495 15.2637 3.65556 13.6504 3.65556 12C3.65849 9.78782 4.53858 7.66709 6.10283 6.10284C7.66708 4.53859 9.78782 3.6585 12 3.65556ZM12 9.7C11.774 9.70288 11.558 9.79395 11.3982 9.95377C11.2384 10.1136 11.1473 10.3295 11.1444 10.5556L11.1444 17.4444C11.1473 17.6705 11.2384 17.8864 11.3982 18.0462C11.558 18.2061 11.774 18.2971 12 18.3C12.2183 18.3002 12.4282 18.2158 12.5856 18.0646C12.7431 17.9133 12.8358 17.707 12.8444 17.4889L12.8444 10.5556C12.8445 10.3306 12.7558 10.1146 12.5978 9.95448C12.4397 9.79435 12.225 9.70293 12 9.7ZM12 5.74445C11.775 5.74737 11.5603 5.8388 11.4022 5.99893C11.2441 6.15906 11.1555 6.37501 11.1556 6.6V7.4C11.1541 7.51183 11.1748 7.62283 11.2166 7.72657C11.2584 7.83031 11.3204 7.92472 11.3989 8.00431C11.4775 8.08391 11.5711 8.1471 11.6743 8.19023C11.7774 8.23336 11.8882 8.25557 12 8.25556C12.2243 8.2473 12.4371 8.1545 12.5958 7.99581C12.7545 7.83712 12.8473 7.62428 12.8556 7.4V6.6C12.8527 6.37399 12.7616 6.15805 12.6018 5.99822C12.442 5.83839 12.226 5.74733 12 5.74445Z" fill="#FFFFFF"/>
</svg>
