<svg width="24" height="24" viewBox="0 0 24 24" fill="none" xmlns="http://www.w3.org/2000/svg">
<path d="M11.5078 4C12.8398 4 14.1113 4.36328 15.2617 5.0293C16.4121 5.69531 17.3203 6.60352 17.9863 7.75391C18.6523 8.9043 19.0156 10.1758 19.0156 11.5078C19.0156 12.8701 18.6523 14.1113 17.9863 15.2617C17.3203 16.4121 16.4121 17.3506 15.2617 18.0166C14.1113 18.6826 12.8398 19.0156 11.5078 19.0156C10.1455 19.0156 8.9043 18.6826 7.75391 18.0166C6.60352 17.3506 5.66504 16.4121 4.99902 15.2617C4.33301 14.1113 4 12.8701 4 11.5078C4 10.1758 4.33301 8.9043 4.99902 7.75391C5.66504 6.60352 6.60352 5.69531 7.75391 5.0293C8.9043 4.36328 10.1455 4 11.5078 4ZM11.5078 17.5625C12.5977 17.5625 13.5967 17.29 14.5352 16.7451C15.4434 16.2002 16.2002 15.4736 16.7451 14.5352C17.29 13.627 17.5625 12.5977 17.5625 11.5078C17.5625 10.418 17.29 9.41895 16.7451 8.48047C16.2002 7.57227 15.4434 6.81543 14.5352 6.27051C13.5967 5.72559 12.5977 5.45312 11.5078 5.45312C10.418 5.45312 9.38867 5.72559 8.48047 6.27051C7.54199 6.81543 6.81543 7.57227 6.27051 8.48047C5.72559 9.41895 5.45312 10.418 5.45312 11.5078C5.45312 12.5977 5.72559 13.627 6.27051 14.5352C6.81543 15.4736 7.54199 16.2002 8.48047 16.7451C9.38867 17.29 10.418 17.5625 11.5078 17.5625ZM11.5078 7.33008C11.1445 7.33008 10.8418 7.48145 10.5996 7.72363C10.3574 7.96582 10.2363 8.26855 10.2363 8.60156C10.2363 8.96484 10.3574 9.26758 10.5996 9.50977C10.8418 9.75195 11.1445 9.87305 11.5078 9.87305C11.8408 9.87305 12.1436 9.75195 12.3857 9.50977C12.6279 9.26758 12.7793 8.96484 12.7793 8.60156C12.7793 8.26855 12.6279 7.96582 12.3857 7.72363C12.1436 7.48145 11.8408 7.33008 11.5078 7.33008ZM13.2031 15.0195V14.293C13.2031 14.2021 13.1426 14.1113 13.082 14.0508C13.0215 13.9902 12.9307 13.9297 12.8398 13.9297H12.4766V10.9023C12.4766 10.8115 12.416 10.7207 12.3555 10.6602C12.2949 10.5996 12.2041 10.5391 12.1133 10.5391H10.1758C10.0547 10.5391 9.96387 10.5996 9.90332 10.6602C9.84277 10.7207 9.8125 10.8115 9.8125 10.9023V11.6289C9.8125 11.75 9.84277 11.8408 9.90332 11.9014C9.96387 11.9619 10.0547 11.9922 10.1758 11.9922H10.5391V13.9297H10.1758C10.0547 13.9297 9.96387 13.9902 9.90332 14.0508C9.84277 14.1113 9.8125 14.2021 9.8125 14.293V15.0195C9.8125 15.1406 9.84277 15.2314 9.90332 15.292C9.96387 15.3525 10.0547 15.3828 10.1758 15.3828H12.8398C12.9307 15.3828 13.0215 15.3525 13.082 15.292C13.1426 15.2314 13.2031 15.1406 13.2031 15.0195Z" fill="#161720"/>
</svg>
