<svg width="60" height="60" viewBox="0 0 60 60" fill="none" xmlns="http://www.w3.org/2000/svg">
<path d="M57 20.931C57 20.7899 56.9634 20.6512 56.8939 20.5285L50.5009 9.28026C50.0493 8.48772 49.21 7.99918 48.3016 8H10.6815C9.78347 8.00954 8.95761 8.49669 8.51116 9.28026L2.10611 20.5285C2.03656 20.6512 2 20.7899 2 20.931C2.00119 23.4919 3.29897 25.8759 5.44368 27.2571V51.291V52.9107H53.5611V51.291V27.2571C55.704 25.8748 57 23.4909 57 20.931ZM47.6384 46.9604H47.6191V48.5826H47.6384V51.291H38.9159V49.7052C38.9159 49.6591 38.9159 49.6155 38.9159 49.5694V43.1827C38.9159 43.1366 38.9159 43.0906 38.9159 43.0469V32.1357H47.6384V46.9604ZM51.943 51.291H49.2493V31.321C49.2493 31.1062 49.1644 30.9002 49.0134 30.7483C48.8623 30.5964 48.6575 30.5111 48.4439 30.5111H38.1104C37.6661 30.5124 37.3063 30.8743 37.305 31.321V51.291H7.06423V28.0452C10.5925 29.258 14.4702 27.6711 16.1533 24.3257C17.4251 26.857 20.0055 28.4531 22.8261 28.4531C25.6466 28.4531 28.227 26.857 29.4988 24.3257C30.7701 26.8583 33.3512 28.4555 36.1727 28.4555C38.9942 28.4555 41.5754 26.8583 42.8467 24.3257C44.5303 27.6747 48.4126 29.2622 51.943 28.0452V51.291ZM17.0142 21.7409H28.6379C28.236 24.6585 25.7555 26.831 22.8261 26.831C19.8967 26.831 17.4161 24.6585 17.0142 21.7409ZM30.3621 21.7409H41.9833C41.5855 24.6612 39.1042 26.8375 36.1727 26.8375C33.2412 26.8375 30.76 24.6612 30.3621 21.7409ZM49.5194 26.8328C46.5915 26.8283 44.1138 24.6567 43.71 21.7409H52.6327C52.9304 21.759 53.2136 21.6102 53.3689 21.3542C53.5242 21.0983 53.5262 20.7769 53.3739 20.5191C53.2217 20.2613 52.9402 20.1091 52.6423 20.1236H5.39786C4.95302 20.1236 4.59241 20.4862 4.59241 20.9335C4.59241 21.3807 4.95302 21.7433 5.39786 21.7433H15.2852C14.8833 24.6609 12.4028 26.8334 9.47336 26.8334C6.54395 26.8334 4.0634 24.6609 3.66155 21.7433H6.24913C6.69397 21.7433 7.05459 21.3807 7.05459 20.9335C7.05459 20.4862 6.69397 20.1236 6.24913 20.1236H4.1945L9.89779 10.0853C10.0614 9.79836 10.3647 9.62093 10.6936 9.61972H48.3016C48.6305 9.62093 48.9338 9.79836 49.0974 10.0853L54.8127 20.1236H52.7557C52.3108 20.1236 51.9502 20.4862 51.9502 20.9335C51.9502 21.3807 52.3108 21.7433 52.7557 21.7433H55.3409C54.9322 24.6607 52.4495 26.8302 49.5194 26.8304V26.8328Z" fill="#161720"/>
<path d="M33.8056 30.511H10.5559C10.3423 30.511 10.1375 30.5963 9.9864 30.7482C9.83535 30.9001 9.75049 31.1061 9.75049 31.3208V47.7653C9.75049 47.9801 9.83535 48.1861 9.9864 48.338C10.1375 48.4898 10.3423 48.5752 10.5559 48.5752H33.8056C34.2499 48.5738 34.6097 48.212 34.6111 47.7653V31.3208C34.6097 30.8741 34.2499 30.5123 33.8056 30.511ZM33.0001 46.9603H11.3614V32.1307H33.0001V46.9603Z" fill="#161720"/>
</svg>
