<svg width="24" height="23" viewBox="0 0 24 23" fill="none" xmlns="http://www.w3.org/2000/svg">
<path d="M11.5833 20.53C10.9199 19.5899 10.0651 18.4023 9.01889 16.9673C7.74305 15.1859 6.901 13.986 6.49273 13.3674C5.90584 12.4768 5.51033 11.7283 5.3062 11.1222C5.10207 10.516 5 9.81708 5 9.02537C5 7.73882 5.33172 6.55125 5.99515 5.46263C6.65859 4.37402 7.55168 3.50808 8.67441 2.86481C9.79715 2.22154 11.022 1.8999 12.3488 1.8999C13.6757 1.8999 14.9005 2.22154 16.0232 2.86481C17.146 3.50808 18.0391 4.37402 18.7025 5.46263C19.3659 6.55125 19.6976 7.73882 19.6976 9.02537C19.6976 9.81708 19.5956 10.516 19.3914 11.1222C19.1873 11.7283 18.7918 12.4768 18.2049 13.3674C17.7966 13.986 16.9546 15.1859 15.6788 16.9673L13.1143 20.53C12.9357 20.7774 12.6805 20.9011 12.3488 20.9011C12.0171 20.9011 11.7619 20.7774 11.5833 20.53Z" fill="#FF4E4E"/>
<path fill-rule="evenodd" clip-rule="evenodd" d="M12.5639 4.57202V4.51538L12.5641 4.40399C12.5643 4.3038 12.5645 4.20361 12.5631 4.10342C12.5625 4.05803 12.5783 4.03688 12.6296 4.03812C12.7107 4.04008 12.7921 4.03925 12.8731 4.03812C12.9057 4.03812 12.9204 4.04936 12.9203 4.08031C12.9193 4.5368 12.9186 4.9934 12.9181 5.4501C12.9169 5.45435 12.9154 5.45849 12.9134 5.46247L12.8265 5.4627C12.7509 5.46299 12.6741 5.46329 12.5973 5.46165C12.5635 5.46093 12.5634 5.43369 12.5635 5.40821C12.5639 5.29492 12.5638 5.18159 12.5636 5.06828L12.5635 4.89834V4.8417H11.9795V5.46268L11.9073 5.46277C11.8171 5.46294 11.729 5.46311 11.6409 5.46083C11.6311 5.46083 11.6151 5.43493 11.6142 5.42038C11.6118 5.38166 11.6122 5.34277 11.6126 5.30388V5.30387V5.30387V5.30387V5.30387V5.30386V5.30386V5.30386L11.6129 5.26078V4.1123C11.6129 4.03863 11.6129 4.03853 11.6924 4.03853C11.7147 4.03853 11.7369 4.03871 11.7591 4.03889C11.8124 4.03931 11.8657 4.03974 11.919 4.0377C11.9663 4.03595 11.9793 4.05586 11.979 4.09548C11.9782 4.18239 11.9785 4.26934 11.9787 4.35631V4.35632V4.35633V4.35634V4.35635V4.35636V4.35638V4.35639L11.979 4.4869C11.979 4.5799 11.9822 4.57978 12.0779 4.57629L12.082 4.57614C12.1853 4.57301 12.2884 4.57362 12.3918 4.57422C12.4381 4.57449 12.4845 4.57476 12.5309 4.5747C12.5362 4.5747 12.5418 4.57414 12.5494 4.57338L12.5639 4.57202ZM14.7467 8.56313V8.56313C14.7458 8.53676 14.7449 8.5104 14.7449 8.48416C14.7541 8.32022 14.7458 8.15756 14.6971 7.9992C14.684 7.95702 14.672 7.91446 14.66 7.87191L14.6598 7.87109L14.6598 7.87108L14.6598 7.87107L14.6598 7.87106L14.6598 7.87106L14.6598 7.87105L14.6598 7.87104L14.6597 7.87103L14.6597 7.87103L14.6597 7.87102L14.6597 7.87101C14.6336 7.77812 14.6074 7.6853 14.5702 7.59673C14.471 7.3585 14.326 7.1401 14.1426 6.95282C14.0254 6.8335 13.9033 6.71254 13.7625 6.62203C13.5847 6.50782 13.3906 6.41313 13.194 6.33041C13.0608 6.27417 12.9127 6.24361 12.7678 6.2184C12.6562 6.1993 12.5417 6.19338 12.4277 6.18749L12.3538 6.18354C12.187 6.1746 12.0197 6.18758 11.8566 6.22212C11.7364 6.24589 11.6185 6.27943 11.5042 6.32239C11.3519 6.38153 11.1998 6.44555 11.0588 6.52525C10.8753 6.629 10.7042 6.75332 10.5675 6.91204C10.4568 7.0381 10.3528 7.16948 10.2561 7.30568C10.1519 7.45591 10.0848 7.62403 10.0247 7.79598C9.973 7.94789 9.94029 8.1051 9.92727 8.26433C9.90974 8.45093 9.90706 8.63753 9.94627 8.82273C9.95272 8.85353 9.95802 8.88469 9.96332 8.91584L9.96332 8.91585L9.96333 8.91591C9.97441 8.98108 9.98549 9.04623 10.0072 9.10808C10.0419 9.20703 10.0856 9.30311 10.1293 9.39908H10.1293L10.132 9.40497C10.1449 9.43326 10.1577 9.46151 10.1703 9.48985C10.2528 9.67553 10.3756 9.8359 10.5136 9.98693C10.6796 10.17 10.8768 10.3251 11.0968 10.4457C11.2204 10.5149 11.349 10.5755 11.4816 10.6273C11.5937 10.6696 11.7139 10.6949 11.8327 10.7182C11.9563 10.7436 12.0815 10.7606 12.2076 10.769C12.4737 10.7833 12.7373 10.7601 12.993 10.6823L13.0012 10.6798C13.1345 10.6393 13.2693 10.5983 13.3948 10.5414C13.5155 10.4861 13.6281 10.4134 13.7396 10.3414L13.7487 10.3356C13.9736 10.1904 14.1571 10.0039 14.3146 9.79396C14.4125 9.66344 14.4978 9.52567 14.5565 9.37459L14.574 9.32964C14.6077 9.2431 14.6414 9.15667 14.6677 9.06753C14.7006 8.95984 14.7256 8.85009 14.7426 8.73907C14.7508 8.68131 14.7488 8.62222 14.7467 8.56313ZM13.826 6.87138L13.8138 6.8931L13.7899 6.89311C13.7578 6.89313 13.7259 6.89315 13.6952 6.89287L13.6935 6.89287C13.6541 6.89275 13.6341 6.89269 13.6239 6.90218C13.6133 6.91205 13.6133 6.93223 13.6133 6.97339V7.80285V9.93162L13.6133 9.93483L13.6132 9.93963C13.6128 9.98147 13.6125 10.0134 13.684 9.99657C13.7262 9.98652 13.772 9.98897 13.8179 9.99147L13.8206 9.99161C13.8401 9.99264 13.8596 9.99366 13.8788 9.99366L13.891 10.0149C13.8705 10.0318 13.8502 10.049 13.8299 10.0663C13.786 10.1037 13.7421 10.141 13.695 10.1743C13.2525 10.488 12.7538 10.637 12.2041 10.6042C11.0907 10.5378 10.2971 9.76686 10.1287 8.86909C9.91509 7.73 10.6144 6.81328 11.5558 6.47065C11.8161 6.37623 12.0934 6.33185 12.3717 6.34005C12.7821 6.35202 13.1705 6.45229 13.5216 6.66224C13.5917 6.70447 13.6584 6.75225 13.7251 6.80005L13.7257 6.8005V6.80051L13.7258 6.80053L13.7258 6.80054C13.7591 6.82438 13.7923 6.84823 13.826 6.87138ZM13.9247 6.97791V9.97392C14.8132 9.1483 14.7686 7.74649 13.9247 6.97791ZM12.1221 9.65996L12.1222 9.65989C12.1422 9.63232 12.162 9.60521 12.1817 9.57915L12.1818 9.67105V9.6712C12.182 9.75401 12.1821 9.8432 12.1813 9.93265C12.181 9.96637 12.1892 9.99168 12.2292 9.99168L12.2649 9.99214C12.3143 9.99296 12.3638 9.99377 12.4122 9.9874C12.5014 9.9752 12.5014 9.97148 12.5014 9.88285V8.14815C12.5014 8.01485 12.5012 7.88156 12.5011 7.74827L12.5011 7.74593V7.74579C12.5007 7.47771 12.5004 7.20964 12.5014 6.94162C12.5015 6.89295 12.4873 6.8754 12.4341 6.879C12.3972 6.88151 12.3602 6.88092 12.3232 6.88034L12.323 6.88033C12.3069 6.88007 12.2907 6.87982 12.2746 6.87982C12.1813 6.87982 12.1813 6.87993 12.1813 6.9687V7.3163C12.1648 7.28795 12.1485 7.25812 12.1319 7.22764L12.1319 7.22764L12.1319 7.22763L12.1319 7.22758L12.1316 7.22704L12.1316 7.22702C12.0938 7.15776 12.0542 7.08514 12.0054 7.01865C11.8448 6.80012 11.4722 6.67488 11.1562 6.78525C10.9152 6.86913 10.7801 7.03039 10.7076 7.24997C10.6688 7.36719 10.6501 7.48848 10.6736 7.61244C10.6789 7.64031 10.682 7.66886 10.6852 7.69736V7.69736C10.691 7.7499 10.6969 7.80228 10.716 7.85003C10.7618 7.96385 10.816 8.07457 10.8702 8.18532L10.8702 8.18533C10.8896 8.22505 10.909 8.26477 10.9281 8.30464C10.9417 8.33307 10.9568 8.36085 10.9718 8.38865C10.9791 8.4021 10.9864 8.41555 10.9935 8.42908C10.8713 8.38923 10.7854 8.30813 10.6857 8.21368C10.6697 8.24624 10.6528 8.2778 10.6362 8.30889L10.6362 8.3089L10.6361 8.30899C10.5997 8.37714 10.5644 8.4431 10.5418 8.51272C10.5115 8.60573 10.4912 8.7016 10.4709 8.79746L10.4709 8.79747L10.4709 8.79759C10.4618 8.84059 10.4527 8.88359 10.4427 8.92632C10.4084 9.07433 10.4254 9.2228 10.4575 9.3669C10.4884 9.51318 10.5557 9.65033 10.6538 9.76713C10.7801 9.91499 10.9364 10.0198 11.1371 10.0632C11.2879 10.0975 11.4454 10.096 11.5955 10.0586C11.7386 10.022 11.8749 9.96275 11.9725 9.85239C12.027 9.7908 12.0753 9.72442 12.1218 9.66044H12.1218L12.1221 9.65996ZM11.7036 8.02617C11.7065 8.03434 11.7112 8.04185 11.7173 8.04824C11.7344 8.02846 11.7518 8.00912 11.7691 7.98993L11.7692 7.98981C11.8125 7.94175 11.855 7.89454 11.8904 7.84318C11.9118 7.81251 11.9154 7.76302 11.9098 7.72433C11.8837 7.54809 11.8302 7.37951 11.7125 7.23719C11.6239 7.13019 11.52 7.04584 11.3596 7.05676C11.2397 7.06411 11.1369 7.14065 11.1011 7.24927C11.0514 7.3974 11.0745 7.54042 11.1213 7.68425C11.201 7.92933 11.3366 8.14781 11.4721 8.36618L11.4721 8.36621C11.4955 8.40393 11.519 8.44165 11.5421 8.4795L11.5598 8.50847L11.5598 8.50856C11.6728 8.6933 11.7858 8.87804 11.8543 9.08282C11.9285 9.30495 11.8673 9.57517 11.6517 9.69799C11.4268 9.82601 11.1383 9.7806 10.9529 9.58079C10.832 9.45078 10.7819 9.29449 10.7629 9.12546C10.7478 8.99046 10.7758 8.86196 10.812 8.73416H10.8271L10.8238 8.79157C10.8213 8.83366 10.8188 8.87575 10.8169 8.91784C10.8072 9.13847 10.8408 9.34878 10.9904 9.52813C11.0922 9.65013 11.2212 9.73039 11.391 9.72508C11.5926 9.71855 11.7653 9.59227 11.8035 9.38429C11.8397 9.18678 11.7618 9.01741 11.6711 8.85314C11.5696 8.6688 11.4629 8.487 11.3561 8.30512L11.3561 8.3051L11.3554 8.30387L11.3554 8.30384L11.3553 8.30368C11.3008 8.21081 11.2463 8.11792 11.1924 8.02466C11.1075 7.87722 11.0372 7.72224 11.0104 7.55657C10.9859 7.40426 11.0028 7.25322 11.1153 7.12542C11.2256 7.00007 11.4444 6.97695 11.5955 7.05688C11.7795 7.15447 11.8695 7.31003 11.9318 7.48674C11.9491 7.53557 11.9594 7.5866 11.9698 7.63769V7.6377L11.9698 7.63787C11.975 7.66344 11.9802 7.68902 11.9862 7.71434C11.9906 7.7278 11.9961 7.74092 12.0027 7.75361L12.1808 7.67646V8.94875C12.1725 8.92925 12.1649 8.91061 12.1577 8.89267C12.1428 8.8561 12.1291 8.82239 12.1126 8.79005L12.0866 8.73927C12.0329 8.63467 11.9793 8.53002 11.9193 8.42873C11.8583 8.32566 11.7957 8.22342 11.7331 8.1212L11.733 8.12119L11.733 8.12118L11.7329 8.12101C11.6432 7.97443 11.5534 7.82788 11.4683 7.6789C11.4349 7.62109 11.4228 7.55181 11.411 7.48412L11.4108 7.48347L11.4108 7.48344L11.4108 7.48342L11.4108 7.4834L11.4108 7.48337L11.4108 7.48335L11.4108 7.48332L11.4108 7.4833L11.4108 7.48327L11.4108 7.48325C11.4084 7.4692 11.4059 7.45522 11.4033 7.44143C11.4005 7.42697 11.412 7.41004 11.4235 7.39312L11.4235 7.39308C11.4289 7.38513 11.4343 7.37719 11.4383 7.36952C11.4454 7.37346 11.4537 7.37688 11.4621 7.3803L11.4621 7.38031C11.48 7.38766 11.4979 7.39502 11.5043 7.40762L11.5101 7.41912C11.5498 7.49798 11.5901 7.57783 11.6157 7.66136C11.6402 7.74141 11.6582 7.82328 11.6762 7.90515L11.6763 7.90553V7.90554V7.90554C11.6851 7.94582 11.694 7.9861 11.7036 8.02617ZM11.1997 8.71627L11.1713 8.7222C11.1686 8.74335 11.1653 8.76448 11.1621 8.78562L11.162 8.7864L11.162 8.78641C11.1548 8.83317 11.1476 8.87993 11.1458 8.92679C11.1404 9.07539 11.1626 9.21842 11.2615 9.34169C11.3074 9.39884 11.3683 9.42103 11.4194 9.3971C11.4624 9.37674 11.493 9.29832 11.4657 9.24235C11.404 9.11485 11.3393 8.98863 11.2745 8.86246L11.2743 8.86213L11.2709 8.85548L11.2709 8.85542L11.2709 8.85537L11.2708 8.85532L11.2708 8.85527L11.2708 8.85522L11.2708 8.85517L11.2707 8.85512L11.2707 8.85506L11.2707 8.85501L11.2706 8.85496C11.2469 8.80875 11.2232 8.76254 11.1997 8.71627ZM13.5118 7.90531C13.5125 7.91218 13.5134 7.91904 13.5143 7.92591C13.5161 7.94007 13.5179 7.95424 13.5179 7.96847C13.5179 8.6106 13.5183 9.25276 13.519 9.89495C13.519 9.93623 13.5147 9.96 13.4614 9.95745C13.4214 9.95553 13.3795 9.9593 13.3378 9.96305L13.3378 9.96305C13.3241 9.96428 13.3105 9.96551 13.2969 9.96653C13.2473 9.97016 13.2292 9.94873 13.2296 9.90158C13.231 9.79076 13.2308 9.67988 13.2307 9.56897V9.56896V9.56895V9.56894V9.56893V9.56893V9.56892V9.56891V9.5689V9.56889L13.2307 9.44349V9.20021C13.212 9.2189 13.1957 9.23938 13.18 9.2592C13.1388 9.31098 13.1013 9.35816 13.0339 9.3568C12.965 9.35536 12.9295 9.30705 12.89 9.25336C12.8751 9.23305 12.8596 9.21196 12.8415 9.19235V9.24853L12.8414 9.36853C12.8413 9.54564 12.8412 9.72274 12.8434 9.89985C12.8441 9.95138 12.8243 9.96852 12.7744 9.96618C12.7466 9.96498 12.7187 9.96523 12.6907 9.96549H12.6907H12.6907H12.6907H12.6907H12.6907H12.6906H12.6906H12.6906H12.6906H12.6906C12.6649 9.96572 12.6391 9.96595 12.6133 9.96505C12.5746 9.96388 12.5521 9.94837 12.5522 9.90423C12.5528 9.61864 12.5529 9.33306 12.5531 9.0475V9.04748V9.04747V9.04745V9.04744V9.04743V9.04741V9.0474V9.04738V9.04737V9.04663C12.5533 8.6848 12.5535 8.32298 12.5544 7.96116C12.5544 7.94975 12.5638 7.93822 12.573 7.92684C12.5771 7.9218 12.5811 7.9168 12.5843 7.91184C12.5871 7.9166 12.5904 7.92128 12.5937 7.92597L12.5937 7.92598C12.6007 7.9361 12.6078 7.94626 12.6103 7.9573C12.6205 8.00156 12.6298 8.04603 12.6391 8.09048C12.6534 8.15845 12.6676 8.22638 12.6848 8.29351C12.709 8.38668 12.7384 8.47857 12.7727 8.56879C12.8135 8.67717 12.8663 8.78003 12.9585 8.859C13.0079 8.90136 13.0505 8.90379 13.108 8.86829C13.1873 8.81863 13.2289 8.73878 13.2607 8.66202C13.3248 8.50719 13.3746 8.34704 13.4234 8.18712C13.4386 8.13715 13.4472 8.08528 13.4559 8.03337C13.4608 8.00416 13.4656 7.97493 13.4717 7.94602C13.4741 7.93452 13.4806 7.92388 13.4871 7.9132L13.4871 7.91319C13.4897 7.90897 13.4923 7.90474 13.4947 7.90045L13.5118 7.90531ZM13.0736 8.1779L13.0736 8.17791C13.0649 8.20077 13.0562 8.22363 13.0479 8.2466L13.0268 8.24439C13.0188 8.23508 13.012 8.22482 13.0067 8.21384C12.998 8.18771 12.9891 8.16163 12.9802 8.13556L12.9801 8.13545L12.9801 8.13544C12.9543 8.06001 12.9285 7.98459 12.9081 7.90788C12.8728 7.77512 12.8401 7.6413 12.8161 7.50633C12.7984 7.40901 12.7846 7.31097 12.7708 7.21298L12.7708 7.21295L12.7708 7.21293L12.7708 7.2129L12.7708 7.21287L12.7708 7.21285L12.7708 7.21282L12.7708 7.2128L12.7708 7.21277C12.7616 7.14756 12.7524 7.08237 12.7421 7.01743C12.7253 6.90826 12.7235 6.90824 12.6108 6.90674L12.61 6.90673C12.6041 6.90649 12.5982 6.90657 12.5923 6.90665C12.5841 6.90677 12.576 6.90689 12.568 6.90615C12.52 6.90139 12.4969 6.91858 12.5022 6.96829C12.5073 7.01647 12.5115 7.06479 12.5158 7.11314C12.5232 7.19662 12.5306 7.28018 12.5421 7.36323C12.5661 7.53583 12.5954 7.70787 12.6262 7.87943C12.668 8.11163 12.7301 8.33871 12.8295 8.5543C12.8632 8.62738 12.906 8.69616 12.9571 8.75908C13.0023 8.81472 13.0721 8.81089 13.1133 8.75223C13.1672 8.67522 13.2196 8.59461 13.2556 8.50888C13.2982 8.40722 13.3293 8.30079 13.3601 8.19478L13.3699 8.16146C13.3999 8.05889 13.4286 7.95539 13.4487 7.85085C13.4751 7.71541 13.4943 7.5787 13.5111 7.44186C13.5255 7.32564 13.5367 7.20911 13.548 7.09259L13.548 7.09255L13.548 7.0922C13.5523 7.04861 13.5565 7.00502 13.5609 6.96144C13.5652 6.91916 13.5457 6.90197 13.5008 6.90603C13.4848 6.90742 13.4684 6.90676 13.452 6.9061C13.43 6.90522 13.4081 6.90434 13.3874 6.90847C13.366 6.91277 13.3357 6.93426 13.3319 6.95249C13.3236 6.99151 13.3193 7.03127 13.315 7.07106V7.07106V7.07107V7.07107V7.07108V7.07108V7.07108V7.07109V7.07109C13.3121 7.0981 13.3092 7.12512 13.305 7.15194L13.2941 7.22425C13.276 7.34583 13.2579 7.46705 13.2329 7.58892C13.203 7.73493 13.1657 7.87978 13.1265 8.02393C13.1123 8.0761 13.0929 8.12701 13.0736 8.1779ZM14.4156 4.09422L14.4154 4.0386L14.3468 4.03809H13.3082H13.3075C13.227 4.03809 13.227 4.03809 13.227 4.11629L13.2268 4.36698V4.36701V4.36703V4.36705V4.36707V4.3671V4.36712C13.2266 4.53416 13.2263 4.70118 13.227 4.86819C13.2273 4.93604 13.2282 5.00388 13.2291 5.07172C13.2306 5.18736 13.2322 5.30298 13.2304 5.4186C13.2304 5.46384 13.2508 5.46378 13.2818 5.4637L13.2858 5.4637H14.4129C14.4237 5.4637 14.4345 5.46275 14.447 5.46167L14.4665 5.46007L14.4664 5.38937V5.38932V5.38927V5.38922V5.38917V5.38912V5.38908C14.4663 5.3433 14.4662 5.29836 14.4665 5.25239L14.4665 5.25177C14.4668 5.18296 14.4668 5.18296 14.3948 5.18296H13.5849V4.84529H14.3521V4.58334H13.5799V4.30478L13.5961 4.30359C13.6095 4.30254 13.6243 4.30137 13.6391 4.30137L13.8339 4.30131C14.0102 4.3013 14.1866 4.3013 14.3628 4.30024C14.3804 4.30014 14.4131 4.28683 14.4131 4.27857C14.4161 4.21801 14.4158 4.15725 14.4156 4.09425V4.09422ZM10.9736 4.30163V4.65519L10.9735 4.8432C10.9733 5.03123 10.9731 5.21926 10.9745 5.4073C10.9745 5.45465 10.9571 5.46837 10.9069 5.46641C10.8383 5.46371 10.7695 5.46426 10.6997 5.46481H10.6997H10.6997H10.6997H10.6997H10.6997C10.6707 5.46504 10.6415 5.46528 10.612 5.46528V4.30235H10.1302L10.1301 4.24229C10.1298 4.18157 10.1295 4.12372 10.132 4.06599C10.132 4.05567 10.1575 4.03854 10.1712 4.03854C10.4352 4.03786 10.6992 4.03809 10.9633 4.03832L11.3593 4.03854L11.3622 4.03854C11.4422 4.03853 11.4423 4.03853 11.4428 4.1153C11.4428 4.12865 11.4426 4.14202 11.4423 4.1554L11.4423 4.15544C11.4419 4.18672 11.4414 4.21807 11.4435 4.24942C11.4464 4.28925 11.4332 4.30359 11.3882 4.30256C11.3055 4.3005 11.2227 4.3009 11.14 4.3013C11.1066 4.30146 11.0733 4.30163 11.04 4.30163H10.9736ZM12.2641 11.4429L12.2675 11.4431C12.3334 11.4475 12.3993 11.4519 12.4601 11.4698C12.6636 11.5294 12.8244 11.6451 12.9241 11.8238C13.0141 11.985 13.0356 12.1622 13.0234 12.336C13.0058 12.5891 12.8989 12.8119 12.6583 12.957C12.5848 12.9994 12.5035 13.0291 12.4184 13.0446C12.3189 13.0633 12.2173 13.0711 12.1158 13.0679C11.7935 13.0584 11.5497 12.9261 11.4104 12.6535C11.3269 12.4902 11.3108 12.3129 11.3301 12.1361C11.3441 12.0068 11.3748 11.8777 11.4602 11.7678C11.557 11.6424 11.6725 11.5404 11.8379 11.4894C11.9476 11.4555 12.0623 11.4375 12.1779 11.4358C12.2064 11.439 12.2352 11.4409 12.2641 11.4429ZM12.6297 12.1857L12.6297 12.1853C12.6223 12.1449 12.6126 12.0916 12.5982 12.0395C12.5654 11.9201 12.4932 11.8257 12.3682 11.7734C12.1572 11.685 11.8854 11.7479 11.7785 11.9575C11.7278 12.0568 11.7142 12.1621 11.7187 12.2683C11.7221 12.3503 11.7273 12.4372 11.7591 12.5121C11.8131 12.6394 11.912 12.7286 12.0675 12.7636C12.2231 12.7986 12.3531 12.7645 12.467 12.6745C12.6051 12.5654 12.626 12.4128 12.6368 12.2233V12.2231C12.6347 12.2127 12.6323 12.2001 12.6297 12.1858L12.6297 12.1857ZM13.3367 11.4938C13.3187 11.495 13.3009 11.4973 13.2833 11.5007V11.5903L13.2834 11.8954L13.2834 11.899C13.2835 12.2537 13.2836 12.6086 13.2822 12.9634C13.2821 13.0121 13.2971 13.029 13.3505 13.0266C13.4329 13.0233 13.5157 13.0241 13.5981 13.0266C13.6482 13.0281 13.6631 13.0111 13.6631 12.9651C13.6625 12.8857 13.6643 12.8063 13.666 12.7269L13.666 12.7263C13.6671 12.6766 13.6682 12.6269 13.6687 12.5773C13.6704 12.5459 13.6676 12.5144 13.6604 12.4837C13.6493 12.4447 13.6646 12.4314 13.7036 12.4314C13.7407 12.4314 13.7779 12.4309 13.8152 12.4304C13.9049 12.4292 13.9946 12.428 14.0839 12.4337C14.1506 12.438 14.2262 12.453 14.2395 12.536L14.2441 12.5638C14.2511 12.6062 14.2581 12.649 14.2626 12.6919C14.2665 12.729 14.2697 12.7662 14.2729 12.8033L14.2732 12.8065C14.2782 12.8649 14.2833 12.9234 14.2912 12.9814C14.2935 12.9977 14.3238 13.0226 14.3419 13.0232C14.4586 13.027 14.5755 13.0265 14.6922 13.0245C14.7321 13.0236 14.749 12.9913 14.7209 12.9705C14.6605 12.9256 14.6576 12.866 14.6546 12.8053L14.6536 12.7844L14.6516 12.7517L14.6516 12.7514C14.6466 12.6689 14.6416 12.5864 14.6344 12.5041C14.6271 12.4189 14.5756 12.3598 14.4974 12.3187C14.4866 12.3138 14.475 12.3105 14.4631 12.3088C14.485 12.2891 14.506 12.2715 14.5257 12.2552L14.526 12.2549C14.5673 12.2205 14.6026 12.1911 14.6281 12.1554C14.6893 12.0697 14.7092 11.9747 14.6945 11.8668C14.6687 11.675 14.4724 11.5067 14.2787 11.501C14.0535 11.4943 13.8281 11.4943 13.6026 11.4943C13.514 11.4943 13.4253 11.4943 13.3367 11.4938ZM13.9111 12.1569V12.1588L13.8497 12.1587C13.8018 12.1586 13.754 12.1585 13.7061 12.1591C13.6734 12.1595 13.6603 12.1505 13.6613 12.1171C13.6642 12.021 13.6642 11.9247 13.6624 11.8286C13.6617 11.7959 13.6713 11.7803 13.7088 11.781C13.7463 11.7817 13.7838 11.7826 13.8213 11.7836L13.8246 11.7836C13.9346 11.7863 14.0446 11.789 14.1545 11.7868C14.2803 11.7842 14.3367 11.9565 14.3045 12.0353C14.2691 12.1219 14.1976 12.1497 14.1101 12.1561C14.0646 12.1593 14.0188 12.1585 13.9728 12.1577L13.9728 12.1577C13.9523 12.1573 13.9317 12.1569 13.9111 12.1569ZM15.057 11.497C15.0503 11.4976 15.0438 11.4982 15.0379 11.4986H15.038V12.8462C15.038 12.8589 15.0382 12.8716 15.0385 12.8843L15.0385 12.8844C15.0391 12.9134 15.0397 12.9423 15.0372 12.9711C15.0329 13.0156 15.0532 13.0267 15.0998 13.0267C15.2436 13.0253 15.3872 13.0255 15.5308 13.0257H15.5308H15.5308L15.6858 13.0259L15.8548 13.0257H15.8551C16.008 13.0254 16.161 13.0252 16.314 13.0267C16.3665 13.0272 16.3862 13.012 16.3823 12.9628C16.3789 12.9109 16.3789 12.8588 16.3823 12.8069C16.3856 12.7432 16.3764 12.7321 16.3105 12.7321H15.415V12.4563C15.415 12.4124 15.415 12.3905 15.426 12.3795C15.4371 12.3684 15.4592 12.3684 15.5035 12.3684H15.5069C15.5852 12.3686 15.6636 12.3685 15.7419 12.3684H15.7419H15.7419C15.893 12.3682 16.0441 12.368 16.1955 12.3696C16.2483 12.3702 16.2619 12.3501 16.2605 12.3074C16.2596 12.2726 16.2599 12.238 16.2602 12.2033L16.2605 12.1515C16.2606 12.0845 16.2321 12.0662 16.1595 12.0678C15.9248 12.0733 15.6899 12.0754 15.4551 12.0766C15.443 12.0768 15.4188 12.0575 15.4188 12.0464C15.4165 11.9803 15.4167 11.9141 15.4169 11.8461V11.8461V11.8461L15.4171 11.7827L15.4402 11.7814C15.4548 11.7805 15.4679 11.7797 15.481 11.7797L15.6551 11.7796C15.8648 11.7794 16.0746 11.7792 16.2843 11.7805C16.3292 11.7807 16.346 11.7659 16.3449 11.7261C16.3442 11.6929 16.3444 11.6595 16.3446 11.6262V11.6262V11.6261L16.3449 11.576C16.3447 11.4966 16.3416 11.4934 16.2581 11.4934C15.8734 11.4934 15.4888 11.4936 15.1043 11.494C15.0881 11.494 15.0718 11.4956 15.057 11.497H15.057H15.057ZM8.44647 12.5325C8.45891 12.5325 8.47142 12.5321 8.48392 12.5317H8.48392C8.51401 12.5307 8.54406 12.5297 8.57296 12.5345C8.59535 12.5382 8.62779 12.559 8.63166 12.5766C8.64522 12.638 8.66458 12.6937 8.72849 12.7246C8.73808 12.7292 8.74772 12.7342 8.75742 12.7391C8.79322 12.7575 8.82977 12.7763 8.86768 12.7802C9.00324 12.795 9.13892 12.7944 9.26577 12.7333C9.32629 12.7043 9.34251 12.6539 9.34384 12.6013C9.34517 12.5487 9.31963 12.4988 9.25839 12.4824C9.18842 12.4638 9.11777 12.4473 9.04709 12.4308C9.00698 12.4215 8.96687 12.4121 8.92687 12.4024L8.86216 12.3867C8.78868 12.3691 8.7152 12.3514 8.64316 12.3298C8.57549 12.3109 8.51049 12.2847 8.4495 12.2518C8.36066 12.2008 8.30813 12.1228 8.29215 12.0255C8.28454 11.9703 8.28292 11.9146 8.28731 11.8592C8.29433 11.7169 8.47952 11.5398 8.62052 11.495C8.76734 11.4484 8.9167 11.4294 9.06715 11.4459C9.28356 11.4696 9.48207 11.5375 9.59886 11.7243C9.63178 11.7767 9.65023 11.8383 9.66813 11.898L9.67149 11.9092C9.68117 11.9419 9.65563 11.9662 9.61726 11.9668C9.55681 11.9678 9.49626 11.9675 9.43585 11.9671H9.43577H9.43566C9.40553 11.9669 9.37544 11.9668 9.34541 11.9668C9.297 11.9668 9.28296 11.9302 9.27618 11.8999C9.25912 11.8228 9.21203 11.771 9.13094 11.7587C9.03532 11.7444 8.93728 11.7317 8.84045 11.7381C8.75572 11.7438 8.67814 11.7827 8.64413 11.8672C8.61992 11.9271 8.66918 12.0108 8.75161 12.0309C8.81072 12.0454 8.87043 12.0577 8.93012 12.07C8.99375 12.0831 9.05734 12.0962 9.12016 12.1119L9.16473 12.1229L9.16473 12.1229C9.27637 12.1506 9.38846 12.1783 9.49441 12.2195C9.67258 12.2891 9.75609 12.4895 9.70925 12.6628C9.65393 12.8677 9.50688 12.9747 9.29966 13.0261C9.15597 13.064 9.00544 13.0747 8.85715 13.0575C8.73611 13.0428 8.61907 13.0198 8.51825 12.9654C8.41742 12.9109 8.3258 12.8396 8.29033 12.728C8.27393 12.6814 8.26075 12.6339 8.25088 12.5857C8.24591 12.557 8.26189 12.5322 8.30195 12.5327C8.33423 12.5331 8.36651 12.533 8.39878 12.5328L8.4472 12.5327L8.44647 12.5325ZM11.245 11.4976H9.80469C9.80469 11.5335 9.80492 11.5669 9.80514 11.5991C9.80531 11.6239 9.80548 11.6481 9.80554 11.6723C9.80382 11.7834 9.80906 11.7832 9.87446 11.7805C9.88772 11.78 9.90345 11.7793 9.92209 11.7795C10.0127 11.78 10.103 11.7798 10.1951 11.7796C10.2418 11.7795 10.2891 11.7795 10.337 11.7795V11.8463C10.337 11.9273 10.337 12.0084 10.3371 12.0895C10.3372 12.3825 10.3373 12.6757 10.336 12.9687C10.336 13.0115 10.3468 13.0287 10.3966 13.0266C10.4545 13.0241 10.5126 13.0246 10.5708 13.0252C10.5952 13.0254 10.6197 13.0256 10.6441 13.0256C10.7214 13.0256 10.7251 13.0222 10.7251 12.9494V11.8769C10.7251 11.8725 10.7254 11.868 10.7257 11.8635C10.7264 11.8525 10.7271 11.8416 10.7234 11.8324C10.7031 11.7838 10.7326 11.7793 10.773 11.7793C10.8336 11.7796 10.8942 11.7795 10.9548 11.7795C11.0331 11.7793 11.1113 11.7792 11.1896 11.7801C11.2241 11.7806 11.245 11.772 11.245 11.7386V11.4976Z" fill="white"/>
</svg>
