<svg width="60" height="60" viewBox="0 0 60 60" fill="none" xmlns="http://www.w3.org/2000/svg">
<path d="M33.1056 32.25H13.8931C13.1652 32.25 12.467 32.5397 11.9523 33.0555C11.4376 33.5712 11.1484 34.2707 11.1484 35V54.25C11.1484 55.7688 12.3773 57 13.8931 57H44.9997C46.5155 57 47.7443 55.7688 47.7443 54.25V35C47.7443 33.4812 46.5155 32.25 44.9997 32.25H33.1056ZM12.9786 54.25V35C12.9786 34.4939 13.388 34.0837 13.8931 34.0837H24.8716V55.1663H13.8931C13.6505 55.1663 13.4179 55.0698 13.2464 54.8979C13.0749 54.7261 12.9786 54.493 12.9786 54.25ZM26.7018 55.1663V34.0837H32.191V55.1663H26.7018ZM45.9142 35V54.25C45.9142 54.7561 45.5048 55.1663 44.9997 55.1663H34.0211V34.0837H44.9997C45.5048 34.0837 45.9142 34.4939 45.9142 35Z" fill="#161720"/>
<path d="M47.6791 4.75003C46.151 3.20921 43.8587 2.7185 41.8356 3.49913C39.8125 4.27975 38.4407 6.18426 38.3388 8.35403L32.8002 2.80569C32.2856 2.28983 31.5875 2 30.8596 2C30.1317 2 29.4337 2.28983 28.9191 2.80569L26.3374 5.39778C25.8225 5.91354 25.5332 6.61315 25.5332 7.34266C25.5332 8.07216 25.8225 8.77178 26.3374 9.28753L34.7472 17.7137L41.2153 24.1955L49.625 32.6206C50.6971 33.6937 52.4341 33.6937 53.5061 32.6206L56.0932 30.0275C56.608 29.5119 56.8973 28.8125 56.8973 28.0831C56.8973 27.3538 56.608 26.6544 56.0932 26.1388L50.5546 20.5894C52.6092 20.4879 54.4337 19.2413 55.2783 17.3619C56.1229 15.4826 55.8452 13.2875 54.5593 11.6788C53.2733 10.07 51.1961 9.31904 49.1812 9.73441C49.5468 7.92568 48.9827 6.05378 47.6791 4.75003ZM41.2099 6.04554C42.1323 5.10794 43.4855 4.73766 44.7555 5.07535C46.0255 5.41303 47.0174 6.40687 47.3544 7.67935C47.6915 8.95182 47.3219 10.3077 46.3861 11.2319L43.798 13.825L41.2099 11.2319C39.7806 9.79968 39.7806 7.47772 41.2099 6.04554ZM36.6813 17.0649L40.5634 13.1719L45.7429 18.3615L41.8607 22.2512L36.6813 17.0649ZM27.624 6.69437L30.211 4.10228C30.3824 3.92995 30.6152 3.83309 30.858 3.83309C31.1008 3.83309 31.3337 3.92995 31.5051 4.10228L39.2683 11.8828L35.3872 15.7726L27.624 7.99095C27.4522 7.81908 27.3557 7.58586 27.3557 7.34266C27.3557 7.09946 27.4522 6.86624 27.624 6.69437ZM54.7959 28.733L52.2089 31.3262C51.8469 31.6719 51.2778 31.6719 50.9159 31.3262L43.1526 23.5478L47.0337 19.6591L54.797 27.4375C54.9687 27.6094 55.0652 27.8426 55.0652 28.0858C55.0652 28.329 54.9687 28.5622 54.797 28.7341L54.7959 28.733ZM52.8543 12.5274C54.2447 13.9658 54.2265 16.2557 52.8135 17.6718C51.4005 19.0879 49.115 19.1065 47.6791 17.7137L45.091 15.1205L47.6791 12.5274C49.1096 11.0989 51.4238 11.0989 52.8543 12.5274Z" fill="#161720"/>
<path d="M18.01 3.83374C16.1001 3.84482 14.2795 4.64554 12.9786 6.04663C11.6776 4.64554 9.857 3.84482 7.94708 3.83374C4.6117 3.83374 2 6.85874 2 10.7216C2 14.9712 5.2271 19.1102 12.1552 23.7498C12.6535 24.0838 13.3037 24.0838 13.8019 23.7498C20.73 19.1102 23.9571 14.9712 23.9571 10.7216C23.9571 6.85874 21.3454 3.83374 18.01 3.83374ZM12.9786 22.0955C6.73772 17.8834 3.83012 14.2655 3.83012 10.7216C3.83012 7.8395 5.6002 5.66636 7.94708 5.66636C9.65622 5.7019 11.2421 6.56564 12.2013 7.98345C12.3794 8.23669 12.6693 8.38733 12.9786 8.38733C13.2878 8.38733 13.5777 8.23669 13.7558 7.98345C14.718 6.56892 16.302 5.70617 18.01 5.66636C20.3569 5.66636 22.127 7.8395 22.127 10.7216C22.127 14.2644 19.2194 17.8834 12.9786 22.0955Z" fill="#161720"/>
<path d="M22.8637 28.6536C22.9751 29.1677 23.3749 29.57 23.8876 29.6837C25.802 30.1329 27.7584 30.3785 29.7242 30.4164C32.4689 30.4164 34.4416 29.745 35.801 28.3872C36.7199 27.4905 37.2929 26.2973 37.4189 25.0184C37.5416 23.7294 37.0808 22.4532 36.1634 21.5412C35.1999 20.5783 33.9053 20.021 32.545 19.9836C32.5076 18.6206 31.9514 17.3235 30.9904 16.3581C30.078 15.4406 28.8034 14.981 27.5167 15.1055C26.2426 15.2296 25.0531 15.8002 24.1578 16.7169C21.9824 18.8911 21.5718 22.6841 22.8637 28.6493V28.6536ZM27.6722 16.921C28.4212 16.8439 29.1646 17.1109 29.6942 17.6471C30.4966 18.4705 30.8611 19.6266 30.6763 20.7624C30.6114 21.0672 30.7055 21.3841 30.9262 21.6038C31.147 21.8234 31.4639 21.9155 31.7677 21.8484C32.9004 21.667 34.0517 22.0349 34.8704 22.8399C35.4058 23.3708 35.6723 24.1162 35.5952 24.867C35.5051 25.7138 35.1202 26.5018 34.5081 27.0927C32.872 28.732 29.6245 29.0177 24.5855 27.9586C23.5306 22.9097 23.8147 19.657 25.4508 18.0177C26.0397 17.403 26.8265 17.0165 27.6722 16.9263V16.921Z" fill="#161720"/>
</svg>
