<svg width="60" height="60" viewBox="0 0 60 60" fill="none" xmlns="http://www.w3.org/2000/svg">
<path d="M54.2298 30.2124C54.0085 29.7596 54.0085 29.2404 54.2298 28.7877L56.2811 24.5913C57.4232 22.2548 56.5183 19.4699 54.221 18.251L50.095 16.0618C49.6498 15.8257 49.3446 15.4054 49.2575 14.9093L48.4506 10.3085C48.0012 7.74699 45.6317 6.02568 43.0572 6.38995L38.4324 7.04414C37.9332 7.11461 37.4396 6.95412 37.0775 6.60382L33.7205 3.35628C31.8513 1.54796 28.923 1.54785 27.0539 3.35628L23.6968 6.60414C23.3345 6.95455 22.8409 7.11471 22.3419 7.04446L17.7171 6.39027C15.1417 6.02579 12.773 7.74731 12.3237 10.3089L11.5168 14.9094C11.4296 15.4057 11.1245 15.8258 10.6794 16.062L6.55339 18.2512C4.25609 19.47 3.35118 22.2551 4.49328 24.5916L6.54447 28.7879C6.76576 29.2407 6.76576 29.76 6.54447 30.2126L4.49317 34.4089C3.35107 36.7454 4.25598 39.5303 6.55328 40.7492L10.6793 42.9384C11.1245 43.1745 11.4296 43.5948 11.5168 44.0909L12.3237 48.6917C12.7328 51.0235 14.7323 52.6589 17.0303 52.6587C17.2567 52.6587 17.4863 52.6428 17.7172 52.6101L22.342 51.956C22.8407 51.8852 23.3346 52.046 23.6969 52.3963L27.0539 55.6438C27.9886 56.5481 29.1877 57 30.3871 57C31.5863 57 32.786 56.5479 33.7204 55.6438L37.0775 52.3963C37.4397 52.046 37.9334 51.8859 38.4324 51.956L43.0572 52.6101C45.6329 52.9745 48.0012 51.2531 48.4506 48.6916L49.2576 44.091C49.3447 43.5948 49.6499 43.1746 50.095 42.9384L54.221 40.7492C56.5183 39.5304 57.4232 36.7453 56.2811 34.4088L54.2298 30.2124ZM52.7342 37.9469L48.6081 40.1361C47.2927 40.8343 46.3904 42.0758 46.1332 43.5428L45.3262 48.1434C45.1742 49.0101 44.373 49.5922 43.5015 49.4692L38.8767 48.815C37.4018 48.606 35.9424 49.0807 34.8719 50.1162L31.5148 53.3636C30.8826 53.9753 29.8918 53.9753 29.2593 53.3636L25.9023 50.1161C24.9976 49.2409 23.8149 48.7666 22.5802 48.7666C22.354 48.7666 22.1259 48.7825 21.8976 48.8149L17.2728 49.4691C16.402 49.5922 15.6001 49.0099 15.448 48.1433L14.641 43.5426C14.3836 42.0756 13.4815 40.8339 12.1659 40.136L8.03988 37.9468C7.26258 37.5344 6.95643 36.5922 7.34282 35.8017L9.39413 31.6053C10.0481 30.2673 10.0481 28.7327 9.39413 27.3947L7.34282 23.1983C6.95643 22.4078 7.26258 21.4656 8.03988 21.0532L12.1659 18.864C13.4814 18.1658 14.3836 16.9243 14.6409 15.4573L15.4478 10.8567C15.5999 9.99004 16.4011 9.40782 17.2726 9.53093L21.8974 10.1851C23.3717 10.3938 24.8317 9.91936 25.9021 8.88393L29.2592 5.63639C29.8915 5.02474 30.8822 5.02474 31.5147 5.63639L34.8717 8.88393C35.9422 9.91947 37.4019 10.3938 38.8765 10.1851L43.5013 9.53093C44.3721 9.40771 45.174 9.99004 45.326 10.8567L46.133 15.4574C46.3903 16.9244 47.2925 18.166 48.608 18.864L52.7341 21.0532C53.5114 21.4656 53.8175 22.4078 53.4311 23.1983L51.3798 27.3945C50.7258 28.7325 50.7258 30.2673 51.3798 31.6052L53.4311 35.8015C53.8176 36.5922 53.5115 37.5345 52.7342 37.9469Z" fill="#161720" stroke="#EFF3FD"/>
<path d="M41.9757 17.9108C41.3564 17.2914 40.352 17.2914 39.7327 17.9108L18.7975 38.846C18.1782 39.4654 18.1782 40.4697 18.7975 41.0891C19.1072 41.3988 19.5132 41.5537 19.919 41.5537C20.3249 41.5537 20.7309 41.3989 21.0405 41.0891L41.9756 20.154C42.5952 19.5345 42.5952 18.5303 41.9757 17.9108Z" fill="#161720" stroke="#EFF3FD"/>
<path d="M24.0427 15.2256C20.836 15.2256 18.2271 17.8345 18.2271 21.0412C18.2271 24.248 20.836 26.8569 24.0427 26.8569C27.2494 26.8569 29.8583 24.248 29.8583 21.0412C29.8583 17.8345 27.2494 15.2256 24.0427 15.2256ZM24.0427 23.6846C22.5851 23.6846 21.3993 22.4988 21.3993 21.0411C21.3993 19.5835 22.5851 18.3977 24.0427 18.3977C25.5003 18.3977 26.6862 19.5835 26.6862 21.0411C26.6861 22.4988 25.5003 23.6846 24.0427 23.6846Z" fill="#161720" stroke="#EFF3FD"/>
<path d="M36.7312 32.1438C33.5245 32.1438 30.9155 34.7527 30.9155 37.9594C30.9155 41.1662 33.5245 43.7751 36.7312 43.7751C39.9379 43.7751 42.5468 41.1662 42.5468 37.9594C42.5468 34.7527 39.9379 32.1438 36.7312 32.1438ZM36.7312 40.6029C35.2736 40.6029 34.0877 39.417 34.0877 37.9594C34.0877 36.5019 35.2735 35.316 36.7312 35.316C38.1888 35.316 39.3746 36.5019 39.3746 37.9594C39.3746 39.417 38.1888 40.6029 36.7312 40.6029Z" fill="#161720" stroke="#EFF3FD"/>
</svg>
