<svg width="60" height="60" viewBox="0 0 60 60" fill="none" xmlns="http://www.w3.org/2000/svg">
<path d="M53.6228 7H5.37719C3.51062 7.008 2.00131 8.52898 2 10.4033V43.2712C2.00797 45.1455 3.52267 46.6611 5.38925 46.6624H21.7035L21.057 51.9769H18.3094C17.8645 51.9769 17.5037 52.3391 17.5037 52.7859C17.5037 53.2328 17.8645 53.595 18.3094 53.595H40.705C41.15 53.595 41.5107 53.2328 41.5107 52.7859C41.5107 52.3391 41.15 51.9769 40.705 51.9769H37.9719L37.311 46.6745H53.6228C55.4841 46.6652 56.9908 45.1524 57 43.2833V10.4033C56.9974 8.52953 55.4888 7.00932 53.6228 7ZM22.6684 51.9769L23.3294 46.6745H26.2941V46.6866H27.9561V46.6745H31.0607V46.6866H32.7204V46.6745H35.6851L36.3461 51.9769H22.6684ZM55.4055 43.2712C55.4042 44.2566 54.609 45.0551 53.6276 45.0564H5.38202C4.40069 45.0551 3.6055 44.2566 3.60417 43.2712V10.4033C3.6055 9.41791 4.40069 8.61942 5.38202 8.61808H53.6228C54.6041 8.61942 55.3993 9.41791 55.4007 10.4033L55.4055 43.2712Z" fill="#161720"/>
<path d="M50.8198 10.459H6.25053C5.8061 10.4603 5.44615 10.8218 5.44482 11.268V42.4064C5.44482 42.8533 5.80555 43.2155 6.25053 43.2155H7.97531C8.42028 43.2155 8.78101 42.8533 8.78101 42.4064C8.78101 41.9596 8.42028 41.5974 7.97531 41.5974H7.06588V12.0868H50.8198C51.2648 12.0868 51.6255 11.7245 51.6255 11.2777C51.6255 10.8309 51.2648 10.4687 50.8198 10.4687V10.459Z" fill="#161720"/>
<path d="M52.7642 10.459H51.0418C50.5968 10.459 50.2361 10.8212 50.2361 11.268C50.2361 11.7148 50.5968 12.0771 51.0418 12.0771H51.9585V41.5974H8.1973C7.75233 41.5974 7.3916 41.9596 7.3916 42.4064C7.3916 42.8533 7.75233 43.2155 8.1973 43.2155H52.7642C52.9783 43.2161 53.1838 43.1312 53.3355 42.9794C53.4871 42.8276 53.5723 42.6214 53.5723 42.4064V11.268C53.571 10.8208 53.2096 10.459 52.7642 10.459Z" fill="#161720"/>
<path d="M40.4786 19.419C40.3317 19.2319 40.1102 19.1194 39.8731 19.1114L20.9319 18.2442H20.8885C20.7745 17.8742 20.5379 17.5545 20.2179 17.3382L17.8972 15.7856C17.6577 15.625 17.351 15.605 17.0927 15.7331C16.8345 15.8612 16.6639 16.1179 16.6453 16.4065C16.6266 16.6951 16.7627 16.9718 17.0023 17.1324L19.3229 18.685C19.3341 18.6926 19.3426 18.7037 19.347 18.7165L22.3021 29.1057C22.3927 29.4202 22.5434 29.7139 22.7459 29.9704L21.6628 32.1505C21.4039 32.67 21.4322 33.2873 21.7376 33.7807C21.8463 33.9565 21.9861 34.1108 22.1501 34.2361C21.5671 35.2627 21.7667 36.5575 22.6315 37.359C23.4964 38.1606 24.7976 38.2568 25.7701 37.5912C26.7426 36.9255 27.129 35.6741 26.7021 34.5728H34.0499C33.9342 34.8657 33.8753 35.1781 33.8762 35.4932C33.8762 36.8979 35.0102 38.0366 36.4091 38.0366C37.808 38.0366 38.942 36.8979 38.942 35.4932C38.9431 35.1013 38.8522 34.7145 38.6766 34.3645C38.9243 34.1401 39.0087 33.7857 38.8889 33.4731C38.7691 33.1605 38.4698 32.9544 38.1363 32.9547H23.1488C23.1296 32.9558 23.1116 32.9453 23.1029 32.928C23.0917 32.9121 23.0917 32.8907 23.1029 32.8748L24.0992 30.8739C24.3048 30.9275 24.5164 30.9543 24.7288 30.9539C24.8296 30.9543 24.9303 30.9486 25.0304 30.9369L36.3681 29.5998C37.8279 29.4304 39.011 28.3324 39.2942 26.8845L40.6354 20.0803C40.6817 19.8474 40.6244 19.6059 40.4786 19.419ZM36.3994 34.5655C36.7716 34.5645 37.1076 34.789 37.2505 35.1341C37.3934 35.4792 37.3149 35.8767 37.0517 36.141C36.7886 36.4052 36.3927 36.484 36.049 36.3406C35.7054 36.1971 35.4818 35.8597 35.4828 35.486C35.4828 34.9776 35.8932 34.5655 36.3994 34.5655ZM24.338 34.5655C24.7102 34.5645 25.0462 34.789 25.1891 35.1341C25.332 35.4792 25.2535 35.8767 24.9903 36.141C24.7272 36.4052 24.3313 36.484 23.9876 36.3406C23.644 36.1971 23.4204 35.8597 23.4214 35.486C23.4214 35.2414 23.5183 35.0069 23.6907 34.8342C23.8631 34.6616 24.0969 34.5649 24.3404 34.5655H24.338ZM22.3624 23.423L21.354 19.8841L24.5768 20.0318L25.1341 23.423H22.3624ZM24.8398 29.3213C24.3929 29.3753 23.9734 29.0948 23.8507 28.66L22.8255 25.0532H25.3994L26.0773 29.1711L24.8398 29.3213ZM29.563 28.7641L27.679 28.987L27.035 25.0532H29.563V28.7641ZM29.563 23.4351H26.7696L26.222 20.1093L29.563 20.2619V23.4351ZM33.6446 28.2797L31.1889 28.5728V25.0532H33.9486L33.6446 28.2797ZM34.0836 23.4351H31.1889V20.3225L34.3611 20.4678L34.0836 23.4351ZM37.7021 26.5623C37.5522 27.3217 36.9313 27.8972 36.1654 27.9866L35.2825 28.0907L35.5575 25.0556H38.0036L37.7021 26.5623ZM38.3244 23.4351H35.6999L35.9604 20.5526L38.8696 20.6858L38.3244 23.4351Z" fill="#161720"/>
</svg>
