<svg width="60" height="60" viewBox="0 0 60 60" fill="none" xmlns="http://www.w3.org/2000/svg">
<path d="M25.6812 2C27.6582 2 29.2609 3.59499 29.2609 5.56249V17.4375C29.2609 18.3234 28.9359 19.1338 28.3982 19.757C28.9355 20.3814 29.2609 21.1948 29.2609 22.0842V33.9592C29.2609 35.9267 27.6689 37.5217 25.7051 37.5217H12.6673V35.1468H25.7052C26.3598 35.1468 26.8905 34.6151 26.8905 33.9592V22.0842C26.8905 21.5745 26.57 21.1398 26.1198 20.9714C25.9756 20.991 25.8294 21 25.6812 21H19.7603L19.7609 25.6123C19.7609 26.2182 19.3003 26.7166 18.7102 26.7766L18.5906 26.7826H13.9094C13.2631 26.7826 12.7391 26.2586 12.7391 25.6123L12.7388 21H11.3623C11.2523 21 11.1433 20.9951 11.0358 20.9854C10.6023 21.1605 10.2968 21.5867 10.2968 22.0842V36.3342C10.2968 36.99 9.76614 37.5217 9.11154 37.5217L7.68385 37.5215L7.68423 53.0218C7.68423 54.9409 9.1842 56.508 11.0704 56.6041L11.2541 56.6087H49.333C51.3045 56.6087 52.9028 55.0028 52.9028 53.0218L52.902 37.5215L30.5 37.5217V35.0435L35.0429 35.0429L35.0435 28.2626C35.0473 25.0115 37.5989 22.3632 40.791 22.2434L41.0097 22.2391L41.9356 22.2393C40.0214 20.9464 38.7633 18.7651 38.7609 16.2913L38.7603 13.9776L36.6406 13.9783C36.0276 13.9783 35.5233 13.5087 35.4626 12.907L35.4565 12.785V11.5918H39.0087V10.3986C39.0087 6.44454 42.1894 3.23913 46.113 3.23913C50.0366 3.23913 53.2174 6.44443 53.2174 10.3986V16.2913C53.2149 18.7652 51.9568 20.9466 50.0425 22.2394L50.5556 22.2391C53.849 22.2432 56.5178 24.9376 56.5217 28.2626L56.5215 35.0429L59 35.0435V36.2826C59 36.9669 58.4683 37.5217 57.8125 37.5217L55.2817 37.5215L55.2826 53.0218C55.2788 56.2484 52.7342 58.8769 49.5508 58.9958L49.3328 59H11.2541C7.96982 58.9961 5.30825 56.3219 5.30435 53.0218L5.3041 37.5215L3.18529 37.5217C2.57161 37.5217 2.06682 37.0544 2.00612 36.4556L2 36.3342V35.1467H7.92625V22.0842C7.92625 21.2336 8.22383 20.4526 8.72038 19.84C8.13782 19.2075 7.78261 18.3638 7.78261 17.4375V5.56249C7.78261 3.59499 9.38531 2 11.3623 2H25.6812ZM18.5217 50.7391V53.2174H11.5V50.7391H18.5217ZM18.5217 45.7826V48.2609H11.5V45.7826H18.5217ZM42.7398 24.648L41.0097 24.6485C39.0326 24.6485 37.4299 26.2666 37.4299 28.2626L37.4293 35.0429H38.7603L38.7609 31.7391H41.2391L41.2388 35.0429H44.5429V26.4577L42.7398 24.648ZM50.5556 24.6485L48.8246 24.648L47.0215 26.4577V35.0429H50.7388L50.7391 31.7391H53.2174L53.2174 35.0429H54.135L54.1353 28.2626C54.1353 26.329 52.6312 24.75 50.7398 24.6532L50.5556 24.6485ZM17.4194 21H15.0796L15.0797 24.4421H17.4203L17.4194 21ZM50.808 13.8957H41.1704V16.2913C41.1704 18.9375 43.3278 21.0827 45.9891 21.0827C48.6505 21.0827 50.808 18.9375 50.808 16.2913V13.8957ZM12.7388 4.37405L11.3623 4.37496C10.7033 4.37496 10.169 4.90666 10.169 5.56249V17.4375C10.169 17.9575 10.505 18.3995 10.9726 18.5603C11.139 18.5341 11.309 18.5217 11.482 18.5217H25.7051C25.8416 18.5217 25.9764 18.5294 26.1089 18.5445C26.5567 18.3752 26.8744 17.9433 26.8744 17.4375V5.56249C26.8744 4.90666 26.3402 4.37496 25.6812 4.37496L19.7603 4.37405L19.7609 9.09054C19.7609 9.69648 19.3003 10.1949 18.7103 10.2548L18.5907 10.2609H13.9095C13.2631 10.2609 12.7391 9.73687 12.7391 9.09054L12.7388 4.37405ZM46.113 5.62557C43.4973 5.62557 41.3768 7.76254 41.3769 10.3986L41.3765 11.5H50.849L50.8493 10.3986C50.8493 7.83191 48.8389 5.73839 46.3185 5.62998L46.113 5.62557ZM17.4194 4.37405H15.0796L15.0798 7.92033H17.4203L17.4194 4.37405Z" fill="#127CD3" stroke="white" stroke-width="0.5"/>
</svg>
