<svg width="16" height="11" viewBox="0 0 16 11" fill="none" xmlns="http://www.w3.org/2000/svg">
<path d="M15.8056 5.24626C15.9352 5.44554 16 5.66293 16 5.89844C16 6.13394 15.9352 6.35134 15.8056 6.55061C15.0093 7.87308 13.9259 8.9238 12.5556 9.70279C11.1667 10.4999 9.64815 10.8984 8 10.8984C6.35185 10.8984 4.83333 10.4999 3.44444 9.70279C2.07407 8.9238 0.990741 7.87308 0.194444 6.55061C0.0648147 6.35134 0 6.13394 0 5.89844C0 5.66293 0.0648147 5.44554 0.194444 5.24626C0.990741 3.9238 2.07407 2.87308 3.44444 2.09409C4.83333 1.29699 6.35185 0.898438 8 0.898438C9.64815 0.898438 11.1667 1.29699 12.5556 2.09409C13.9259 2.87308 15.0093 3.9238 15.8056 5.24626ZM8 9.59409C9.40741 9.59409 10.6991 9.25895 11.875 8.58866C13.0509 7.91837 13.9815 7.02163 14.6667 5.89844C14.2407 5.21003 13.7176 4.59862 13.0972 4.0642C12.4769 3.52978 11.7778 3.09953 11 2.77344C11.5185 3.44373 11.7778 4.19554 11.7778 5.02887C11.7778 5.69916 11.6065 6.3151 11.2639 6.8767C10.9213 7.43829 10.463 7.88666 9.88889 8.22181C9.31481 8.55695 8.68518 8.72452 8 8.72452C7.31481 8.72452 6.68519 8.55695 6.11111 8.22181C5.53704 7.88666 5.0787 7.43829 4.73611 6.8767C4.39352 6.3151 4.22222 5.69916 4.22222 5.02887C4.22222 4.41293 4.37037 3.83322 4.66667 3.28974C4.66667 3.70641 4.81944 4.0642 5.125 4.36311C5.43056 4.66202 5.7963 4.81148 6.22222 4.81148C6.64815 4.81148 7.01389 4.66202 7.31944 4.36311C7.625 4.0642 7.77778 3.70641 7.77778 3.28974C7.77778 2.87308 7.62963 2.51981 7.33333 2.22996C6.07407 2.33865 4.91667 2.71909 3.86111 3.37126C2.80556 4.02344 1.96296 4.86583 1.33333 5.89844C2.01852 7.02163 2.94907 7.91837 4.125 8.58866C5.30093 9.25895 6.59259 9.59409 8 9.59409Z" fill="#88898F"/>
</svg>
