<svg width="24" height="24" viewBox="0 0 24 24" fill="none" xmlns="http://www.w3.org/2000/svg">
<path d="M20.17 5.61893L18.38 3.82966C17.8443 3.30711 17.1284 3.01011 16.38 3C16.0068 3.00125 15.6376 3.07706 15.2941 3.22297C14.9507 3.36888 14.6399 3.58195 14.38 3.84965L3.87997 14.2054L3.03997 19.2034C2.98351 19.4429 2.99172 19.6932 3.06376 19.9285C3.13579 20.1639 3.26908 20.3759 3.44997 20.5428C3.71091 20.8187 4.07034 20.9804 4.44997 20.9926C4.5397 21.0025 4.63024 21.0025 4.71997 20.9926L9.76997 20.143L20.15 9.68726C20.4169 9.42679 20.6295 9.11597 20.7754 8.7728C20.9213 8.42964 20.9976 8.06095 21 7.68808C21.0081 6.91576 20.7096 6.17171 20.17 5.61893ZM5.49997 14.5453L13.21 6.88841L17.1 10.7868L9.44997 18.4837L5.49997 14.5453ZM4.49997 19.6032L4.39997 19.4832L4.99997 15.9947L7.99997 18.9935L4.49997 19.6032ZM19.17 8.70766L18.08 9.80721L14.19 5.9188L15.29 4.82925C15.4287 4.6875 15.5944 4.57487 15.7773 4.49798C15.9602 4.42109 16.1566 4.38149 16.355 4.38149C16.5534 4.38149 16.7498 4.42109 16.9327 4.49798C17.1155 4.57487 17.2812 4.6875 17.42 4.82925L19.16 6.56854C19.304 6.70935 19.4187 6.87721 19.4977 7.06247C19.5766 7.24772 19.6182 7.44674 19.62 7.6481C19.6219 7.84615 19.583 8.04248 19.5055 8.2248C19.4281 8.40712 19.3139 8.5715 19.17 8.70766Z" fill="#397CEE"/>
</svg>
