<svg width="60" height="60" viewBox="0 0 60 60" fill="none" xmlns="http://www.w3.org/2000/svg">
<path d="M43.386 0C45.3781 0 46.9999 1.62198 46.9999 3.61499V56.386C46.9999 58.378 45.378 60 43.3849 60H16.615C14.622 60 13 58.378 13 56.385V3.61499C13 1.62198 14.622 0 16.615 0H43.386ZM45 51.999H15L15.0001 56.3859C15.0001 57.2255 15.6458 57.9189 16.4681 57.9933L16.615 58H43.386C44.276 58 45.0001 57.275 45.0001 56.385L45 51.999ZM44.9999 10L15 10V49.999L44.9999 50V10ZM31.2419 27C32.4987 27 33.5625 27.8462 33.8934 28.9989L34.9999 29C35.5519 29 35.9999 29.448 35.9999 30C35.9999 30.5519 35.5519 30.9999 34.9999 30.9999L33.894 30.9999C33.5637 32.1535 32.4992 33 31.241 33H28.758C27.5006 33 26.4361 32.1535 26.1059 30.9999L24.9999 30.9999C24.448 30.9999 24 30.5519 24 30C24 29.448 24.448 29 24.9999 29L26.1065 28.9989C26.4374 27.8462 27.5015 27 28.759 27H31.2419ZM41.9999 29C42.5519 29 42.9999 29.448 42.9999 30C42.9999 30.5519 42.5519 30.9999 41.9999 30.9999H40.9999C40.448 30.9999 40 30.5519 40 30C40 29.448 40.448 29 40.9999 29H41.9999ZM43.3849 2.00003H16.615C15.724 2.00003 15.0001 2.72495 15.0001 3.61499L15 7.99899H45L45.0001 3.61499C45.0001 2.77451 44.3541 2.0811 43.5318 2.00665L43.3849 2.00003Z" fill="#EF5C6A"/>
</svg>
