<svg width="60" height="60" viewBox="0 0 60 60" fill="none" xmlns="http://www.w3.org/2000/svg">
<path d="M41.4659 53.7872C40.906 55.4082 39.7277 56.6536 38.2757 57.3564C36.8814 58.0314 35.2341 58.2062 33.6383 57.7336L10.31 50.0373C8.65177 49.49 7.37768 48.3381 6.65825 46.9188C5.94013 45.5008 5.77535 43.8153 6.33437 42.1978L15.5524 15.5112C16.0056 14.1992 16.8724 13.0947 18.0533 12.3308L29.1386 3.30529C29.8536 2.69348 31.0477 2.23462 31.98 2.08338C33.0028 1.91675 34.0531 2.00134 35.033 2.32391L43.3668 5.05699C44.4779 5.424 45.4163 6.06187 46.1305 6.86937C46.8586 7.69309 47.3543 8.69413 47.5632 9.76395L50.7819 23.5135C50.9471 24.1082 51.0157 24.7124 50.9969 25.3097C50.9772 25.9309 50.8645 26.5333 50.6682 27.0994L49.2005 31.3522C50.156 31.6675 51.1792 31.9486 52.2802 32.1883C52.8838 32.3186 53.2649 32.9022 53.1312 33.4922C52.9983 34.0823 52.4008 34.4552 51.7972 34.3249C50.6162 34.0677 49.5152 33.7661 48.485 33.4277L41.4659 53.7872ZM23.4279 40.6242C23.4279 40.1275 23.1478 39.7528 22.6547 39.5939L16.7281 37.6928C16.1314 37.5025 15.4858 37.8093 15.2857 38.378C15.0861 38.9464 15.408 39.5621 16.0047 39.7524L21.8979 41.643C22.0202 41.6858 22.1523 41.7091 22.2896 41.7091C22.9184 41.7091 23.4279 41.1624 23.4279 40.6242ZM31.0466 41.7499C30.3362 41.552 29.5789 42.1018 29.5789 42.7985C29.5789 43.2858 29.8369 43.6424 30.3139 43.8165C30.3394 43.8245 30.3639 43.8335 30.3899 43.8411L36.2706 45.7251C36.8706 45.9162 37.5201 45.6085 37.7208 45.0374C37.9215 44.4663 37.5979 43.8479 36.998 43.6569L31.0466 41.7499ZM26.5034 40.6909C25.9376 40.6909 25.4783 41.1467 25.4783 41.7091C25.4783 42.2715 25.9376 42.7273 26.5034 42.7273C27.0697 42.7273 27.5286 42.2715 27.5286 41.7091C27.5286 41.1467 27.0697 40.6909 26.5034 40.6909ZM34.1506 15.752C34.1623 15.1625 34.6493 14.6938 35.2384 14.7055C35.8275 14.7167 36.2958 15.2042 36.2842 15.7937C36.2842 15.8058 36.2396 17.1305 36.7146 19.0352C36.7471 19.0201 36.7787 19.0051 36.8104 18.9893C37.6328 18.5819 38.2994 17.861 38.6157 16.9241C38.9331 15.9839 38.8394 15.0032 38.4315 14.1784C38.024 13.3554 37.3041 12.6882 36.3679 12.3718C35.428 12.054 34.4485 12.1479 33.6244 12.5565C32.802 12.9638 32.1353 13.6843 31.8191 14.6217C31.5016 15.5623 31.5954 16.5426 32.0033 17.3673C32.4107 18.1904 33.1307 18.8575 34.0669 19.174C34.2423 19.2332 34.4189 19.2778 34.5956 19.3091C34.1027 17.2139 34.1502 15.765 34.1506 15.752ZM37.4871 21.05C38.7881 24.2241 41.5466 28.0782 47.3861 30.5668L48.8383 26.3744C48.9684 26.0014 49.0431 25.6133 49.0555 25.2213C49.067 24.84 49.0206 24.4442 48.9091 24.0449L45.6339 10.1349C45.4963 9.39782 45.1867 8.74107 44.6811 8.17286C44.2144 7.64806 43.6026 7.23415 42.879 6.99647L34.4451 4.24697C33.8028 4.03636 33.1127 3.98221 32.4386 4.09095C32.2714 4.11803 30.9996 4.58179 30.6103 4.86633L19.2645 14.0406C18.4855 14.5315 17.8954 15.2694 17.5986 16.1239L8.26894 42.9707C7.90312 44.0237 8.01149 45.1219 8.48171 46.0451C8.95149 46.9671 9.78222 47.7145 10.8624 48.0691L34.2779 55.7511C35.3616 56.1066 36.4918 56.0017 37.4425 55.5444C38.3904 55.0879 39.1597 54.2816 39.5246 53.2324L46.6575 32.666C39.7851 29.8095 36.6604 25.2006 35.2409 21.4858C32.9309 21.5013 30.7882 20.2329 29.7513 18.1986C28.2623 15.2768 29.4965 11.7338 32.5027 10.2875C35.5098 8.84078 39.1561 10.04 40.6446 12.9609C41.3343 14.314 41.4922 15.9223 40.9561 17.4658C40.4186 19.0131 39.2875 20.2015 37.8932 20.872C37.7605 20.9361 37.6251 20.9954 37.4871 21.05ZM20.1034 27.6493L40.3829 34.5224C40.9784 34.723 41.6227 34.3995 41.8219 33.7998C42.0211 33.2002 41.7003 32.5514 41.1044 32.3508L20.8254 25.4777C20.2299 25.2771 19.5856 25.6001 19.3863 26.1998C19.1871 26.7994 19.5079 27.4486 20.1034 27.6493ZM18.0531 33.7581L38.3326 40.6312C38.9281 40.8323 39.5724 40.5088 39.7716 39.9091C39.9708 39.3095 39.6496 38.6607 39.0541 38.4601L18.775 31.587C18.1795 31.3859 17.5352 31.7094 17.336 32.309C17.1367 32.9087 17.4576 33.5575 18.0531 33.7581Z" fill="white" stroke="#C54238"/>
</svg>
