<svg width="60" height="60" viewBox="0 0 60 60" fill="none" xmlns="http://www.w3.org/2000/svg">
<path d="M48.3938 42.9853C47.6075 39.0238 43.9132 38.3495 43.9016 38.3441V38.3442C43.8619 38.3325 44.2405 38.428 34.8917 36.0969V35.7778H41.7737C43.1922 35.7778 44.3463 34.6169 44.3463 33.19V19.987C44.4619 19.4961 44.4622 18.9857 44.3463 18.4938V13.6751C44.3463 13.1895 43.9549 12.7961 43.4724 12.7961C42.9897 12.7961 42.5986 13.1895 42.5986 13.6751V16.1978C42.1373 15.9208 41.6104 15.7222 41.0426 15.6238C40.8375 14.7078 40.0812 13.9836 39.1221 13.8569C38.1224 13.7247 37.3647 13.1384 36.8701 12.1144C36.6387 11.635 36.1853 11.3201 35.6575 11.2719C35.1293 11.2238 34.6292 11.4508 34.3162 11.8795C32.8141 13.9359 28.6383 18.5483 21.4276 18.548C20.879 18.548 20.507 18.5219 20.3775 18.516C19.0525 18.4358 17.9321 19.5008 17.9321 20.8363V22.8561C17.9321 26.0842 19.2635 29.2138 21.5845 31.4423C22.3543 32.1814 23.2035 32.7979 24.109 33.2895V34.02H17.2585C16.8035 34.02 16.4334 33.6477 16.4334 33.1902V13.4383C16.4334 7.03483 21.6237 1.75835 27.8932 1.75835C27.9135 1.75835 27.9338 1.75847 27.9539 1.75859C30.2002 1.77066 32.7937 2.41249 34.5611 3.39323C35.6812 4.01515 36.3731 3.52085 37.4792 3.52085C40.179 3.52085 42.3425 6.31343 42.6018 8.8251C42.6035 8.8619 42.6073 9.0092 42.6078 9.57358C42.6084 10.4221 43.5611 10.4873 43.4823 10.4519C43.9651 10.4515 44.3558 10.0576 44.3555 9.57217C44.3553 9.41608 44.3566 8.80401 44.3421 8.66198C43.9907 5.16546 41.0258 1.76281 37.4793 1.76281C36.0942 1.76281 35.8783 2.11601 35.4054 1.85398C33.4014 0.741754 30.4801 0.0141373 27.9634 0.000270165C20.7089 -0.046683 14.6856 6.03264 14.6856 13.4382V33.1901C14.6856 34.6171 15.8398 35.778 17.2583 35.778H24.109V36.0971L15.1344 38.3345C15.1225 38.3374 15.1109 38.3408 15.0991 38.3442L14.4434 38.5388C14.4238 38.5446 14.4044 38.5511 14.3852 38.5582C13.2151 38.9974 11.1684 40.1565 10.6068 42.9858C7.94718 56.4251 8.05914 55.8512 8.05273 55.8973C7.73237 58.1767 8.86668 60 11.5954 60H21.0449C21.5277 60 21.9187 59.6065 21.9187 59.121C21.9187 58.6353 21.5275 58.242 21.0449 58.242H17.7566V49.951C17.7566 49.4653 17.3654 49.0719 16.8828 49.0719C16.4001 49.0719 16.0089 49.4654 16.0089 49.951V58.242H11.5954C10.4346 58.242 9.76056 57.866 9.74937 56.6394C9.74448 56.0411 9.72107 56.6243 12.3208 43.3295C12.7121 41.3581 14.1352 40.5346 14.969 40.2157L15.575 40.036L20.7287 38.751C26.4618 45.5451 26.1224 45.1851 26.4537 45.5101C28.3672 47.3878 31.0977 47.2553 32.8947 45.1323L38.2914 38.7558L43.4255 40.0358C43.574 40.1045 46.1297 40.5567 46.6799 43.3292C49.2572 56.5089 49.2563 56.0382 49.2514 56.6387C49.2426 57.8401 48.5965 58.2421 47.4054 58.2421H43.0232V49.951C43.0232 49.4653 42.6321 49.0719 42.1494 49.0719C41.6666 49.0719 41.2755 49.4654 41.2755 49.951V58.242H25.1228C24.6401 58.242 24.249 58.6355 24.249 59.121C24.249 59.6066 24.6402 60 25.1228 60H47.4055C49.5644 60 50.9793 58.805 50.9996 56.6528C51.0065 55.6477 50.947 56.1279 48.3938 42.9853ZM41.0998 17.4373C41.8295 17.6556 42.3923 18.1394 42.5987 18.7368V19.7439C42.3923 20.3415 41.8295 20.8252 41.0998 21.0434V17.4373ZM41.0998 23.0091V22.8468C41.6459 22.7453 42.153 22.5508 42.5987 22.283V33.1901C42.5987 33.6477 42.2286 34.0198 41.7738 34.0198H34.8917V33.3405C38.5967 31.392 41.0998 27.4907 41.0998 23.0091ZM22.7913 30.1703C20.814 28.2718 19.68 25.6059 19.68 22.8558C19.732 20.9419 19.5541 20.71 19.8577 20.4224C19.9652 20.3205 20.1098 20.2613 20.2725 20.2707C26.5381 20.6501 31.9272 17.8794 35.4852 13.2401C36.4446 14.9347 37.8515 15.4622 38.8946 15.6002C39.1553 15.6346 39.3521 15.8585 39.3521 16.1211C39.3521 18.5528 39.3521 20.5949 39.3521 23.0092C39.3521 31.7556 28.943 36.0764 22.7913 30.1703ZM31.5638 43.9926C30.3463 45.4313 28.6419 45.4274 27.4274 43.9853L25.6041 41.8205H33.4021L31.5638 43.9926ZM34.8902 40.0623H24.1235L22.6218 38.2792L25.1933 37.638C25.5833 37.5408 25.8569 37.1801 25.8569 36.776L25.857 34.0566C28.2615 34.8628 30.8007 34.854 33.144 34.0817C33.1605 36.8912 33.1065 36.8269 33.1927 37.0748C33.288 37.3487 33.5151 37.5649 33.8075 37.6378L36.3959 38.2832L34.8902 40.0623Z" fill="#64DDF5"/>
</svg>
