<svg width="60" height="60" viewBox="0 0 60 60" fill="none" xmlns="http://www.w3.org/2000/svg">
<path fill-rule="evenodd" clip-rule="evenodd" d="M5 6C5 5.44772 5.44772 5 6 5H46.23C46.7823 5 47.23 5.44772 47.23 6V29.9746C51.7641 31.9194 54.94 36.4238 54.94 41.6699C54.94 48.695 49.2451 54.3899 42.22 54.3899C37.8763 54.3899 34.0411 52.2127 31.7463 48.89H6C5.44772 48.89 5 48.4423 5 47.89V6ZM45.23 7V29.3082C44.265 29.074 43.257 28.95 42.22 28.95C35.1949 28.95 29.5 34.6449 29.5 41.6699C29.5 43.5303 29.8994 45.2973 30.617 46.89H7V7H45.23ZM42.22 30.95C36.2995 30.95 31.5 35.7495 31.5 41.6699C31.5 47.5904 36.2995 52.3899 42.22 52.3899C48.1405 52.3899 52.94 47.5904 52.94 41.6699C52.94 35.7495 48.1405 30.95 42.22 30.95ZM14.1001 13.9399C13.5478 13.9399 13.1001 14.3877 13.1001 14.9399C13.1001 15.4922 13.5478 15.9399 14.1001 15.9399H38.1201C38.6724 15.9399 39.1201 15.4922 39.1201 14.9399C39.1201 14.3877 38.6724 13.9399 38.1201 13.9399H14.1001ZM13.1001 23.1899C13.1001 22.6377 13.5478 22.1899 14.1001 22.1899H38.1201C38.6724 22.1899 39.1201 22.6377 39.1201 23.1899C39.1201 23.7422 38.6724 24.1899 38.1201 24.1899H14.1001C13.5478 24.1899 13.1001 23.7422 13.1001 23.1899ZM14.1001 30.4299C13.5478 30.4299 13.1001 30.8776 13.1001 31.4299C13.1001 31.9822 13.5478 32.4299 14.1001 32.4299H27.1901C27.7424 32.4299 28.1901 31.9822 28.1901 31.4299C28.1901 30.8776 27.7424 30.4299 27.1901 30.4299H14.1001ZM42.8102 47.4201C42.9066 47.3299 42.9817 47.2194 43.0301 47.0966C43.0785 46.9738 43.0991 46.8418 43.0901 46.7101C43.0901 46.4449 42.9848 46.1905 42.7973 46.003C42.6097 45.8154 42.3554 45.7101 42.0901 45.7101C41.8258 45.7059 41.5705 45.8066 41.3801 45.9901C41.1939 46.1775 41.0894 46.4309 41.0894 46.6951C41.0894 46.9593 41.1939 47.2127 41.3801 47.4001C41.5719 47.5835 41.8259 47.6875 42.0912 47.6912C42.3565 47.6949 42.6134 47.598 42.8102 47.4201ZM45.8498 39.81C45.6844 40.1238 45.4719 40.4104 45.2198 40.66C45.0803 40.8249 44.8242 41.0581 44.4847 41.3673C44.2888 41.5457 44.065 41.7495 43.8198 41.98C43.6503 42.1266 43.49 42.2836 43.3398 42.45C43.2281 42.5754 43.1308 42.7129 43.0498 42.86C42.9918 42.9787 42.9449 43.1026 42.9098 43.23L42.7598 43.83C42.7575 43.9203 42.7366 44.0091 42.6986 44.091C42.6605 44.1728 42.606 44.246 42.5385 44.306C42.4711 44.366 42.392 44.4115 42.3062 44.4397C42.2204 44.4679 42.1298 44.4782 42.0398 44.47C41.9403 44.4737 41.841 44.457 41.7481 44.4209C41.6552 44.3847 41.5708 44.33 41.4998 44.26C41.4204 44.175 41.3605 44.0737 41.3242 43.9632C41.2879 43.8526 41.2762 43.7355 41.2898 43.62C41.2793 43.2411 41.3438 42.8638 41.4798 42.51C41.6053 42.2121 41.7812 41.9381 41.9998 41.7C42.2984 41.3814 42.6156 41.0809 42.9498 40.8L42.9899 40.7644C43.3292 40.4628 43.5758 40.2436 43.7298 40.08C43.9014 39.9069 44.0493 39.7118 44.1698 39.5C44.2968 39.2669 44.3622 39.0054 44.3598 38.74C44.3644 38.4911 44.315 38.2442 44.2148 38.0163C44.1147 37.7884 43.9663 37.5849 43.7798 37.42C43.359 37.0685 42.8281 36.876 42.2798 36.876C41.7315 36.876 41.2007 37.0685 40.7798 37.42C40.415 37.8445 40.1456 38.3424 39.9898 38.88C39.7898 39.55 39.4298 39.63 39.1698 39.63C39.0594 39.6325 38.9497 39.6115 38.848 39.5684C38.7463 39.5253 38.6549 39.4611 38.5798 39.38C38.4351 39.2446 38.349 39.058 38.3398 38.86C38.353 38.3398 38.5124 37.8338 38.7998 37.4C39.1472 36.87 39.6261 36.4393 40.1898 36.15C40.8511 35.8105 41.5868 35.642 42.3298 35.66C43.0185 35.6488 43.7012 35.7887 44.3298 36.07C44.8602 36.3174 45.3131 36.7046 45.6398 37.19C45.9424 37.6352 46.1028 38.1617 46.0998 38.7C46.1108 39.0851 46.0248 39.4668 45.8498 39.81Z" fill="#161720"/>
</svg>
