<svg width="60" height="60" viewBox="0 0 60 60" fill="none" xmlns="http://www.w3.org/2000/svg">
<path d="M41.8944 25.8896H27.5606C27.1598 25.8896 26.835 26.2176 26.835 26.6221C26.835 27.0266 27.1598 27.3545 27.5606 27.3545H41.8944C42.2951 27.3545 42.62 27.0266 42.62 26.6221C42.62 26.2176 42.2951 25.8896 41.8944 25.8896Z" fill="#161720"/>
<path d="M24.3584 24.7588C24.2626 24.5903 24.1044 24.4671 23.9185 24.4166C23.7326 24.366 23.5345 24.3922 23.3678 24.4893L19.972 26.4609L20.2835 25.3193C20.3526 25.0671 20.2832 24.7968 20.1013 24.6102C19.9195 24.4237 19.6528 24.3492 19.4019 24.4149C19.1509 24.4806 18.9537 24.6765 18.8846 24.9287L18.4879 26.3867C18.344 26.9076 18.5272 27.4645 18.9513 27.7949C19.3777 28.1184 19.9532 28.1567 20.418 27.8926L24.0943 25.7598C24.2611 25.6626 24.3826 25.5024 24.4322 25.3146C24.4817 25.1268 24.4552 24.9268 24.3584 24.7588Z" fill="#161720"/>
<path d="M41.8944 31.4736H27.5606C27.1598 31.4736 26.835 31.8015 26.835 32.2061C26.835 32.6106 27.1598 32.9385 27.5606 32.9385H41.8944C42.2951 32.9385 42.62 32.6106 42.62 32.2061C42.62 31.8015 42.2951 31.4736 41.8944 31.4736Z" fill="#161720"/>
<path d="M24.3585 30.3426C24.2627 30.1741 24.1044 30.051 23.9186 30.0004C23.7327 29.9498 23.5345 29.976 23.3678 30.0731L19.972 32.0438L20.2836 30.9022C20.3904 30.5122 20.1639 30.1087 19.7776 30.0008C19.3913 29.893 18.9915 30.1216 18.8846 30.5116L18.488 31.9647C18.3439 32.4853 18.5272 33.042 18.9514 33.3719C19.3773 33.6966 19.9536 33.735 20.418 33.4696L24.0944 31.3377C24.4377 31.1351 24.5555 30.6913 24.3585 30.3426Z" fill="#161720"/>
<path d="M41.8944 37.0576H27.5606C27.1598 37.0576 26.835 37.3855 26.835 37.79C26.835 38.1945 27.1598 38.5225 27.5606 38.5225H41.8944C42.2951 38.5225 42.62 38.1945 42.62 37.79C42.62 37.3855 42.2951 37.0576 41.8944 37.0576Z" fill="#161720"/>
<path d="M24.3585 35.9268C24.1586 35.5764 23.7154 35.4554 23.3678 35.6563L19.972 37.628L20.2835 36.4864C20.3904 36.0965 20.1639 35.6929 19.7776 35.5851C19.3912 35.4772 18.9915 35.7058 18.8846 36.0958L18.4879 37.5489C18.3438 38.071 18.5275 38.6292 18.9524 38.9606C19.3773 39.2919 19.9588 39.3303 20.4229 39.0577L24.0992 36.9259C24.4431 36.7215 24.5589 36.2752 24.3585 35.9268Z" fill="#161720"/>
<path d="M41.8944 42.6406H27.5606C27.1598 42.6406 26.835 42.9685 26.835 43.373C26.835 43.7776 27.1598 44.1055 27.5606 44.1055H41.8944C42.2951 44.1055 42.62 43.7776 42.62 43.373C42.62 42.9685 42.2951 42.6406 41.8944 42.6406Z" fill="#161720"/>
<path d="M24.3583 41.5099C24.1584 41.1594 23.7149 41.0387 23.3676 41.2404L19.9719 43.2121L20.2834 42.0705C20.3525 41.8182 20.2831 41.5479 20.1012 41.3614C19.9194 41.1748 19.6527 41.1004 19.4017 41.166C19.1508 41.2317 18.9536 41.4276 18.8844 41.6799L18.4878 43.132C18.3431 43.6543 18.5265 44.2129 18.9516 44.5445C19.3766 44.8762 19.9584 44.9146 20.4227 44.6418L24.099 42.509C24.4434 42.3049 24.5593 41.8582 24.3583 41.5099Z" fill="#161720"/>
<path d="M45.4915 5H25.4989C25.3064 5.00087 25.1219 5.07802 24.9852 5.21484L12.2148 18.1055C12.0793 18.2445 12.0023 18.431 12 18.626V49.5127C12 49.9172 12.3249 50.2451 12.7256 50.2451C13.1263 50.2451 13.4512 49.9172 13.4512 49.5127V19.3555H22.6498C24.6248 19.3555 26.2267 17.7407 26.2294 15.7471V6.46484H45.4915C46.4097 6.46646 47.1535 7.21769 47.1545 8.14453V21.9736C47.1545 22.3781 47.4794 22.7061 47.8801 22.7061C48.2809 22.7061 48.6057 22.3781 48.6057 21.9736V8.14453C48.6041 6.4089 47.2109 5.00215 45.4915 5ZM24.7704 15.75C24.7605 16.9323 23.8134 17.8884 22.642 17.8984H14.4777L24.7704 7.50098V15.75Z" fill="#161720"/>
<path d="M47.8801 20.2646C47.4794 20.2646 47.1545 20.5926 47.1545 20.9971V51.8564C47.1535 52.7831 46.4095 53.5341 45.4915 53.5352H15.1133C14.1956 53.5335 13.4523 52.7827 13.4512 51.8564V48.5361C13.4512 48.1316 13.1263 47.8037 12.7256 47.8037C12.3249 47.8037 12 48.1316 12 48.5361V51.8564C12.0021 53.5917 13.3952 54.9978 15.1142 55H45.4924C47.2115 54.9978 48.6045 53.5917 48.6067 51.8564V20.9971C48.6067 20.8027 48.5301 20.6162 48.3938 20.4788C48.2575 20.3414 48.0727 20.2646 47.8801 20.2646Z" fill="#161720"/>
</svg>
