<svg width="32" height="32" viewBox="0 0 32 32" fill="none" xmlns="http://www.w3.org/2000/svg">
<path fill-rule="evenodd" clip-rule="evenodd" d="M16 0C24.8366 0 32 7.16344 32 16C32 24.8366 24.8366 32 16 32C7.16344 32 0 24.8366 0 16C0 7.16344 7.16344 0 16 0ZM16.8456 8L15.049 9.07211C16.2496 11.093 18.6377 13.3668 20.44 14.9273H7V17.0225H20.4603C18.6552 18.5808 16.2541 20.8603 15.049 22.8896L16.8456 23.9606C18.6693 20.8918 23.9606 16.8614 24.0135 16.8214L25.1138 15.9865L24.0146 15.1515C23.9617 15.1104 18.6693 11.0699 16.8456 8Z" fill="#0A0ADC"/>
</svg>
