<svg width="15" height="20" viewBox="0 0 15 20" fill="none" xmlns="http://www.w3.org/2000/svg">
<path d="M6.58332 19.53C5.91989 18.5899 5.06507 17.4023 4.01889 15.9673C2.74305 14.1859 1.901 12.986 1.49273 12.3674C0.905845 11.4768 0.510335 10.7283 0.306201 10.1222C0.102067 9.51602 0 8.81708 0 8.02537C0 6.73882 0.331718 5.55125 0.995153 4.46263C1.65859 3.37402 2.55168 2.50808 3.67441 1.86481C4.79715 1.22154 6.02195 0.899902 7.34882 0.899902C8.67569 0.899902 9.9005 1.22154 11.0232 1.86481C12.146 2.50808 13.0391 3.37402 13.7025 4.46263C14.3659 5.55125 14.6976 6.73882 14.6976 8.02537C14.6976 8.81708 14.5956 9.51602 14.3914 10.1222C14.1873 10.7283 13.7918 11.4768 13.2049 12.3674C12.7966 12.986 11.9546 14.1859 10.6788 15.9673L8.11433 19.53C7.93571 19.7774 7.68054 19.9011 7.34882 19.9011C7.01711 19.9011 6.76194 19.7774 6.58332 19.53Z" fill="#FF4E4E"/>
</svg>
