<svg width="60" height="60" viewBox="0 0 60 60" fill="none" xmlns="http://www.w3.org/2000/svg">
<path d="M52.9583 10C56.2884 10 58.9998 12.805 58.9998 16.2501L58.9989 18.731L59 18.7501V26.25C59 26.2561 59 26.2622 58.9999 26.2682L58.9998 43.75C58.9998 47.195 56.2883 50 52.9581 50H7.04162C3.71149 50 1 47.195 1 43.75V16.2501C1 12.805 3.71149 10 7.04162 10H52.9583ZM56.5823 27.499H3.41653L3.41662 43.7499C3.41662 45.7508 4.93976 47.391 6.8494 47.4948L7.04162 47.4999H52.9583C54.9569 47.4999 56.5833 45.8175 56.5833 43.7499L56.5823 27.499ZM23.9583 39.9999C24.6253 39.9999 25.1667 40.5599 25.1667 41.2499C25.1667 41.9399 24.6253 42.5 23.9583 42.5H9.45836C8.79136 42.5 8.24999 41.9399 8.24999 41.2499C8.24999 40.5599 8.79136 39.9999 9.45836 39.9999H23.9583ZM48.1249 32.5C50.1235 32.5 51.7499 34.1825 51.7499 36.25V38.7499C51.7499 40.8175 50.1235 42.4999 48.1249 42.4999H45.7083C43.7097 42.4999 42.0833 40.8175 42.0833 38.7499V36.25C42.0833 34.1824 43.7097 32.5 45.7083 32.5H48.1249ZM48.1249 35H45.7083C45.0413 35 44.4999 35.5601 44.4999 36.2501V38.7501C44.4999 39.4401 45.0413 40.0001 45.7083 40.0001H48.1249C48.7919 40.0001 49.3333 39.4401 49.3333 38.7501V36.2501C49.3333 35.5601 48.7919 35 48.1249 35ZM23.9583 35C24.6253 35 25.1667 35.56 25.1667 36.25C25.1667 36.94 24.6253 37.5 23.9583 37.5H9.45836C8.79136 37.5 8.24999 36.9401 8.24999 36.2501C8.24999 35.5601 8.79136 35 9.45836 35H23.9583ZM56.5833 19.9999H3.41662V24.9999H56.5833V19.9999ZM52.9581 12.5001H7.04162C5.043 12.5001 3.41662 14.1826 3.41662 16.2501L3.41653 17.4996H56.5823L56.5833 16.2501C56.5833 14.2492 55.06 12.609 53.1504 12.5052L52.9581 12.5001Z" fill="#13D1F6" stroke="white"/>
</svg>
