<svg width="60" height="60" viewBox="0 0 60 60" fill="none" xmlns="http://www.w3.org/2000/svg">
<path d="M22.4844 8C30.6986 8 37.3821 14.5798 37.3821 22.6667V27.25H38.3132C40.8803 27.25 42.9688 29.3061 42.9688 31.8333C42.9688 34.0462 41.3663 35.8988 39.2443 36.3241V47.4167C39.2443 47.9227 38.8281 48.3333 38.3132 48.3333H35.5199V51.0833C35.5199 51.5893 35.1037 52 34.5888 52H30.8643C30.3494 52 29.9332 51.5893 29.9332 51.0833V48.3333H13.1733V51.0833C13.1733 51.5893 12.7571 52 12.2422 52H8.51775C8.00285 52 7.58665 51.5893 7.58665 51.0833V48.3333H6.65554C6.14064 48.3333 5.72443 47.9227 5.72443 47.4167V36.3241C3.60244 35.8988 2 34.0471 2 31.8333C2 29.3061 4.08847 27.25 6.65554 27.25H7.58665V22.6667C7.58665 14.5798 14.2701 8 22.4844 8ZM55.4375 23.84C55.7973 23.84 56.1233 24.069 56.2604 24.4192C56.3985 24.7702 56.3219 25.1738 56.0672 25.4423L52.7656 28.9219V33.2267H59V35.104H54.5469V50.1227H59V52H44.75V50.1227H49.2031V35.104H44.75V33.2267H50.9844V28.9219L47.6828 25.4423C47.4281 25.1738 47.3515 24.7702 47.4896 24.4192C47.6267 24.069 47.9527 23.84 48.3125 23.84H55.4375ZM11.3111 48.3333H9.44886V50.1667H11.3111V48.3333ZM33.6577 48.3333H31.7955V50.1667H33.6577V48.3333ZM52.7656 35.104H50.9844V50.1227H52.7656V35.104ZM31.7955 40.0833H13.1733V46.5H31.7955V40.0833ZM11.3111 44.6667H7.58665V46.5H11.3111V44.6667ZM37.3821 44.6667H33.6577V46.5H37.3821V44.6667ZM11.3111 29.0833H6.65554C5.11549 29.0833 3.86222 30.3172 3.86222 31.8333C3.86222 33.3495 5.11549 34.5833 6.65554 34.5833C7.17044 34.5833 7.58665 34.994 7.58665 35.5V42.8333H11.3111V29.0833ZM38.3132 29.0833H33.6577V42.8333H37.3821V35.5C37.3821 34.994 37.7983 34.5833 38.3132 34.5833C39.8533 34.5833 41.1065 33.3495 41.1065 31.8333C41.1065 30.3172 39.8533 29.0833 38.3132 29.0833ZM31.7955 36.4167H13.1733V38.25H31.7955V36.4167ZM22.4844 9.83333C15.2962 9.83333 9.44886 15.59 9.44886 22.6667V27.25H12.2422C12.7571 27.25 13.1733 27.6607 13.1733 28.1667V34.5833H31.7955V28.1667C31.7955 27.6607 32.2117 27.25 32.7266 27.25H35.5199V22.6667C35.5199 15.59 29.6725 9.83333 22.4844 9.83333ZM16.25 25.6V27.36H14.4688V25.6H16.25ZM29.6094 25.6V27.36H27.8281V25.6H29.6094ZM53.2875 25.7173H50.4625L51.875 27.2061L53.2875 25.7173ZM23.375 19.44V21.2H21.5938V19.44H23.375ZM16.25 15.04V16.8H14.4688V15.04H16.25ZM29.6094 15.04V16.8H27.8281V15.04H29.6094Z" fill="#127CD3" stroke="#F5F5F5" stroke-width="0.3"/>
</svg>
