<svg width="60" height="60" viewBox="0 0 60 60" fill="none" xmlns="http://www.w3.org/2000/svg">
<path d="M55.5508 4.00649C50.2877 7.02182 45.0087 5.51045 39.4192 3.91005C33.6638 2.26089 27.7119 0.554503 21.685 4.00649L21.1567 4.3075V49.7271H23.2411V27.101C28.332 24.4726 33.4451 25.9225 38.8476 27.472C42.149 28.4163 45.5137 29.3797 48.9196 29.3797C51.455 29.3797 54.0116 28.8498 56.5829 27.3734L57.1111 27.0724V3.11938L55.5508 4.00649ZM39.4202 25.4646C36.1189 24.5192 32.7542 23.5568 29.3483 23.5568C27.25 23.5375 25.1705 23.9547 23.2411 24.782V5.53377C28.3309 2.90423 33.4451 4.36791 38.8476 5.91638C44.1076 7.42351 49.5323 8.97728 55.0268 6.59999V25.8472C49.9348 28.4767 44.8228 27.0131 39.4202 25.4646Z" fill="#161720"/>
<path d="M22.2498 53.2979C19.1566 53.2979 16.2388 52.964 14.034 52.3588C11.4468 51.6487 10.1348 50.6503 10.1348 49.3912C10.1348 48.1321 11.4468 47.1369 14.034 46.4236C16.2388 45.8184 19.1566 45.4856 22.2498 45.4856C25.3431 45.4856 28.2609 45.8184 30.4657 46.4236C33.0529 47.1347 34.3649 48.1321 34.3649 49.3912C34.3649 50.6503 33.0529 51.6466 30.4657 52.3588C28.2609 52.9683 25.3431 53.2979 22.2498 53.2979ZM22.2498 47.0796C19.2919 47.0796 16.5251 47.3923 14.4524 47.9614C12.1832 48.5847 11.7194 49.2492 11.7194 49.3933C11.7194 49.5375 12.1832 50.202 14.4524 50.8252C16.5219 51.3986 19.294 51.7081 22.2498 51.7081C25.2057 51.7081 27.9746 51.3901 30.0473 50.8252C32.3165 50.202 32.7803 49.5375 32.7803 49.3933C32.7803 49.2492 32.3165 48.5847 30.0473 47.9614C27.9746 47.3965 25.2057 47.0839 22.2498 47.0839V47.0796Z" fill="#161720"/>
<path d="M22.2502 57C17.229 57 12.4962 56.2751 8.92549 54.9577C5.1044 53.548 3 51.5735 3 49.3976C3 47.2217 5.1044 45.2429 8.92549 43.8386C12.4962 42.5212 17.229 41.7952 22.2502 41.7952C27.2714 41.7952 32.0031 42.5212 35.5749 43.8386C39.396 45.2472 41.5004 47.2217 41.5004 49.3976C41.5004 51.5735 39.396 53.548 35.5749 54.9577C32.0031 56.2751 27.2714 57 22.2502 57ZM22.2502 43.385C17.4107 43.385 12.8723 44.076 9.46743 45.3309C6.4038 46.4596 4.58041 47.9806 4.58041 49.3976C4.58041 52.2412 11.8349 55.4102 22.246 55.4102C27.0854 55.4102 31.6228 54.7192 35.0287 53.4654C38.0923 52.3366 39.9157 50.8157 39.9157 49.3976C39.9157 46.554 32.6602 43.385 22.2502 43.385Z" fill="#161720"/>
</svg>
