<svg width="60" height="60" viewBox="0 0 60 60" fill="none" xmlns="http://www.w3.org/2000/svg">
<path d="M41.997 1.31415C42.3161 0.957607 42.8443 0.896795 43.2335 1.1716L48.07 4.58897C48.459 4.86389 48.5891 5.39004 48.3744 5.82035C47.9304 6.71021 48.2032 7.8106 49.0092 8.37999C49.3399 8.61387 49.7259 8.73723 50.1259 8.73723C50.6793 8.73723 51.2094 8.49965 51.58 8.08541C51.8994 7.72887 52.4274 7.66806 52.8167 7.94286L57.6534 11.3602C58.0425 11.6352 58.1726 12.1613 57.9578 12.5916C57.5139 13.4815 57.7867 14.5819 58.5927 15.1513C59.022 15.4546 59.129 16.056 58.8317 16.4942L34.5963 52.2209C34.2989 52.659 33.71 52.7684 33.2805 52.4652C32.9498 52.2315 32.5636 52.1079 32.1636 52.1079C31.6103 52.1079 31.0802 52.3453 30.7096 52.7595C30.3913 53.1149 29.8489 53.1677 29.4729 52.902C29.472 52.9014 26.8055 51.0173 26.8055 51.0173L25.5619 56.4259C25.5045 56.6752 25.3525 56.8909 25.1394 57.0258C24.7486 57.2729 24.3902 57.0911 23.9731 57.0911C23.1645 57.0911 22.4273 57.6092 22.1386 58.3801C21.9715 58.8262 21.4942 59.0838 21.0392 58.9752L15.3122 57.6037C14.8515 57.4933 14.5416 57.0524 14.5869 56.5717C14.7995 54.3145 11.5871 53.5371 10.7908 55.6626C10.6218 56.1137 10.153 56.368 9.69144 56.2576L3.96451 54.8861C3.50391 54.7757 3.19398 54.3347 3.23929 53.854C3.33297 52.8601 2.6841 51.9382 1.72982 51.7096C1.22141 51.5879 0.905923 51.0686 1.02521 50.5496L9.33461 14.4095C9.33585 14.4039 10.7519 8.24554 10.7519 8.24554C10.8714 7.72667 11.3807 7.40469 11.8885 7.52643C12.8279 7.75141 13.8295 7.21278 14.175 6.29112C14.3441 5.84 14.8139 5.58566 15.2744 5.69607L21.0014 7.06757C21.4622 7.17798 21.7721 7.61892 21.7268 8.09963C21.6331 9.09366 22.2821 10.0154 23.2361 10.244C24.1763 10.4692 25.177 9.9315 25.5226 9.0088C25.6916 8.55769 26.1614 8.30334 26.622 8.41375L32.3492 9.78514C32.4561 9.8108 32.5545 9.85485 32.6427 9.91254L38.1102 1.85279C38.4075 1.41462 38.9968 1.30548 39.4259 1.60873C39.7567 1.84261 40.1428 1.96597 40.5428 1.96597C41.096 1.96574 41.6263 1.72839 41.997 1.31415ZM15.5547 7.74621C14.8611 8.80926 13.6813 9.48836 12.404 9.51021L11.3927 13.9084L12.3132 14.1289C12.8217 14.2506 13.1372 14.77 13.0179 15.2889C12.9155 15.7336 12.5271 16.0338 12.0981 16.0338C12.0264 16.0338 11.9539 16.0254 11.8813 16.008L10.9605 15.7876L3.05532 50.169C4.1759 50.7642 4.95108 51.8959 5.10945 53.1779L9.41107 54.2081C10.2956 52.8523 11.9547 52.1761 13.5092 52.5484C15.1007 52.9294 16.2594 54.2952 16.4569 55.8954L20.7587 56.9256C21.4521 55.8625 22.632 55.1834 23.9094 55.1616L25.2807 49.197C25.2809 49.1966 26.706 42.9981 26.706 42.9981C26.706 42.9977 29.0416 32.8401 29.0417 32.8404L30.1459 28.0379C30.1461 28.0374 30.3103 27.323 30.3103 27.323L31.8142 20.7819L30.8937 20.5614C30.3852 20.4397 30.0697 19.9203 30.189 19.4014C30.3085 18.8824 30.8183 18.5606 31.3257 18.6823L32.2464 18.9027L33.2579 14.5035C32.4897 14.0966 31.8695 13.417 31.5139 12.6131C31.3954 12.3456 31.305 12.0592 31.2489 11.7749C31.2434 11.7473 31.2161 11.4972 31.2039 11.4941L26.9021 10.464C26.018 11.8196 24.3583 12.4958 22.804 12.1236C21.2125 11.7423 20.054 10.3766 19.8564 8.77642L15.5547 7.74621ZM42.7586 3.18383C42.1151 3.64269 41.341 3.89611 40.5427 3.89611C40.0774 3.89611 39.6217 3.81125 39.193 3.64708L36.6735 7.36111L37.451 7.91049C37.8803 8.21397 37.9874 8.81527 37.69 9.25344C37.3925 9.69184 36.7872 9.78941 36.3741 9.49761C36.3741 9.49738 35.5968 8.94822 35.5968 8.94822L33.4217 12.1546C33.4237 12.1576 33.4254 12.1607 33.4275 12.1636C33.7032 12.5629 34.1171 12.8495 34.5834 12.9616C34.5948 12.9643 34.6057 12.9684 34.617 12.9715L35.0275 12.3664C35.3212 11.9333 35.9183 11.822 36.3433 12.1223C36.3679 12.1398 50.0346 21.7961 50.0346 21.7961C50.4552 22.0935 50.5661 22.7079 50.2736 23.1391C50.2663 23.1498 48.0898 26.3583 48.0898 26.3583C47.7923 26.7964 47.2034 26.9058 46.7739 26.6024C46.3446 26.2989 46.2375 25.6977 46.5349 25.2594L48.1804 22.8334L36.0443 14.2584L34.8527 16.015L32.4181 26.6031L33.7129 26.9994L35.7337 24.0203C35.9669 23.6766 36.3903 23.525 36.7829 23.6451C37.1754 23.7652 37.4474 24.1295 37.4567 24.5476L37.5377 28.1703L40.9385 29.2114C41.331 29.3315 41.603 29.6959 41.6123 30.1138C41.6217 30.5319 41.3661 30.9084 40.9795 31.0466L37.6286 32.2444L37.7096 35.8669C37.719 36.2851 37.4635 36.6616 37.0768 36.7998C36.9743 36.8365 36.8687 36.8541 36.7643 36.8541C36.4749 36.8541 36.1944 36.7183 36.0119 36.4739L33.8601 33.5917L30.5386 34.7791L28.6947 42.7985L32.7118 45.6369L44.3348 28.5034C44.6321 28.0652 45.2212 27.9558 45.6506 28.2593C46.08 28.5628 46.187 29.164 45.8897 29.6022L33.7286 47.5291C33.4345 47.9627 32.8376 48.0732 32.4128 47.7733L28.2305 44.8183L27.2695 48.9976L29.9471 50.8895C30.5906 50.4307 31.3649 50.1773 32.1631 50.1773C32.6284 50.1773 33.084 50.2622 33.5127 50.4263L53.2087 21.3922L52.4313 20.8428C52.0017 20.5393 51.8947 19.9382 52.192 19.4999C52.4893 19.0618 53.0786 18.9523 53.5078 19.2558L54.2854 19.8053L56.8057 16.0894C55.9768 15.1167 55.6617 13.7737 55.9744 12.5217L52.342 9.95509C51.0322 10.8888 49.2465 10.8956 47.9323 9.96688C46.5881 9.01713 46.0006 7.31324 46.3909 5.7504L42.7586 3.18383ZM17.3398 29.0193C17.7477 28.9843 18.1321 29.2215 18.2907 29.6071L19.6662 32.9476L23.2043 32.6448C23.613 32.6099 23.9965 32.847 24.1552 33.2326C24.3139 33.618 24.2116 34.0639 23.901 34.3374L21.213 36.7047L22.5885 40.0453C22.7471 40.4307 22.6447 40.8766 22.3345 41.1498C22.0243 41.423 21.5769 41.4611 21.2268 41.2446L18.1899 39.3672L15.5021 41.7345C15.326 41.8896 15.1058 41.969 14.884 41.969C14.7154 41.969 14.5458 41.923 14.3943 41.8293C14.0439 41.6128 13.87 41.1905 13.9636 40.7834L14.7747 37.2556L11.738 35.3783C11.3876 35.1618 11.2137 34.7395 11.3073 34.3324C11.4009 33.9254 11.7408 33.6261 12.149 33.5912L15.6871 33.2883L16.4982 29.7606C16.5917 29.3536 16.9317 29.0542 17.3398 29.0193ZM17.6746 33.0933C17.5127 33.7973 17.448 35.0745 16.5299 35.1531C16.5281 35.1532 15.2074 35.2662 15.2074 35.2662L16.3425 35.9681C16.6929 36.1846 16.8668 36.6069 16.7732 37.014L16.4701 38.3324C17.0083 37.8583 17.7971 36.8672 18.5824 37.3527C18.5827 37.353 19.7177 38.0546 19.7177 38.0546L19.2036 36.8059C18.8366 35.9148 19.9165 35.2972 20.462 34.8165C19.7538 34.877 18.5465 35.2107 18.1887 34.3418C18.1875 34.339 17.6746 33.0933 17.6746 33.0933ZM35.6326 27.5611C35.2256 28.161 34.7145 29.321 33.8282 29.0497C33.8268 29.0494 32.5568 28.6606 32.5568 28.6606L33.3611 29.7381C33.937 30.5098 33.0432 31.3782 32.631 31.9859L33.8834 31.5383C34.2647 31.4017 34.7031 31.536 34.9483 31.8642C34.9486 31.8649 35.7527 32.9417 35.7527 32.9417L35.7224 31.5874C35.713 31.1692 35.9686 30.7926 36.3552 30.6544L37.6078 30.2068C36.9274 29.9984 35.6839 29.8567 35.6629 28.9152C35.6629 28.9139 35.6326 27.5611 35.6326 27.5611ZM22.5842 17.5798C22.7037 17.0608 23.2126 16.7391 23.721 16.8607L27.5234 17.7714C28.0318 17.8931 28.3473 18.4124 28.2281 18.9315C28.1257 19.3762 27.7372 19.6763 27.3083 19.6763C27.2364 19.6763 27.1639 19.6679 27.0912 19.6505L23.2888 18.7398C22.7804 18.6181 22.4649 18.0988 22.5842 17.5798ZM45.7693 14.9618C46.0668 14.5236 46.6558 14.4142 47.0852 14.7177L50.2965 16.9866C50.7258 17.2901 50.8329 17.8914 50.5355 18.3295C50.2367 18.77 49.6287 18.8626 49.2197 18.5736C49.2133 18.5691 46.0084 16.3047 46.0084 16.3047C45.5789 16.0012 45.4719 15.4 45.7693 14.9618ZM14.9792 15.7584C15.0987 15.2395 15.6077 14.9177 16.116 15.0393L19.9184 15.95C20.4268 16.0716 20.7422 16.5911 20.6231 17.1102C20.5207 17.5548 20.1322 17.8551 19.7032 17.8551C19.6314 17.8551 19.5589 17.8466 19.4862 17.8293L15.6838 16.9186C15.1754 16.7968 14.8599 16.2774 14.9792 15.7584ZM39.3466 10.424C39.644 9.98584 40.2331 9.87659 40.6625 10.1798L43.8738 12.4488C44.3032 12.7522 44.4102 13.3534 44.1129 13.7919C43.8188 14.2253 43.2224 14.3364 42.7972 14.0359L39.5859 11.767C39.1566 11.4635 39.0493 10.8623 39.3466 10.424Z" fill="#EF5C6A"/>
</svg>
