<svg width="60" height="60" viewBox="0 0 60 60" fill="none" xmlns="http://www.w3.org/2000/svg">
<path d="M54.121 23.8621V47.4699C54.121 48.4984 53.454 49.3394 52.6383 49.3394H7.36155C6.54581 49.3394 5.87891 48.4984 5.87891 47.4699V23.8621" stroke="white"/>
<path d="M13.187 48.8888V31.8777C13.187 31.2305 13.6791 30.7004 14.2793 30.7004H24.1103C24.7112 30.7004 25.2026 31.2305 25.2026 31.8777V48.8888" stroke="white"/>
<path d="M9.74539 19.9075V20.3238C9.74539 22.1869 8.23537 23.6962 6.37294 23.6962C4.50981 23.6962 3.00049 22.1869 3.00049 20.3238V19.9075" stroke="white" stroke-linecap="square" stroke-linejoin="round"/>
<path d="M16.4905 19.9075V20.3238C16.4905 22.1869 14.9805 23.6962 13.1181 23.6962C11.2549 23.6962 9.74561 22.1869 9.74561 20.3238V19.9075" stroke="white" stroke-linecap="square" stroke-linejoin="round"/>
<path d="M23.2547 19.8884V20.3047C23.2547 22.1678 21.7446 23.6772 19.8822 23.6772C18.0191 23.6772 16.5098 22.1678 16.5098 20.3047V19.8884" stroke="white" stroke-linecap="square" stroke-linejoin="round"/>
<path d="M30.0003 19.8884V20.3047C30.0003 22.1678 28.4902 23.6772 26.6278 23.6772C24.7647 23.6772 23.2554 22.1678 23.2554 20.3047V19.8884" stroke="white" stroke-linecap="square" stroke-linejoin="round"/>
<path d="M36.7454 19.9075V20.3238C36.7454 22.1869 35.2354 23.6962 33.3729 23.6962C31.5098 23.6962 30.0005 22.1869 30.0005 20.3238V19.9075" stroke="white" stroke-linecap="square" stroke-linejoin="round"/>
<path d="M43.4905 19.9075V20.3238C43.4905 22.1869 41.9805 23.6962 40.1181 23.6962C38.2549 23.6962 36.7456 22.1869 36.7456 20.3238V19.9075" stroke="white" stroke-linecap="square" stroke-linejoin="round"/>
<path d="M50.2547 19.8884V20.3047C50.2547 22.1678 48.7446 23.6772 46.8822 23.6772C45.0191 23.6772 43.5098 22.1678 43.5098 20.3047V19.8884" stroke="white" stroke-linecap="square" stroke-linejoin="round"/>
<path d="M56.9998 19.8884V20.3047C56.9998 22.1678 55.4898 23.6772 53.6273 23.6772C51.7642 23.6772 50.2549 22.1678 50.2549 20.3047V19.8884" stroke="white" stroke-linecap="square" stroke-linejoin="round"/>
<path d="M56.9999 19.6463C56.9999 19.6463 55.3235 13.7298 54.5892 11.4307C54.3491 10.6774 53.9097 10 53.0785 10H6.92212C6.09024 10 5.6199 10.669 5.4107 11.4307C4.84488 13.4897 3 19.6463 3 19.6463" stroke="white" stroke-linecap="round"/>
<path d="M3 19.6462H56.9999" stroke="white" stroke-linecap="round" stroke-linejoin="round"/>
<path fill-rule="evenodd" clip-rule="evenodd" d="M47.6443 42.157H32.5153C32.0794 42.157 31.7256 41.8032 31.7256 41.3665V31.6262C31.7256 31.1895 32.0794 30.8357 32.5153 30.8357H47.6443C48.081 30.8357 48.4341 31.1895 48.4341 31.6262V41.3665C48.4341 41.8032 48.081 42.157 47.6443 42.157Z" stroke="white"/>
<path d="M37.3359 34.3481L39.4209 37.6307" stroke="white" stroke-linecap="round" stroke-linejoin="round"/>
<path d="M39.729 34.0923L42.4044 37.9653" stroke="white" stroke-linecap="round" stroke-linejoin="round"/>
</svg>
