<svg width="17" height="15" viewBox="0 0 17 15" fill="none" xmlns="http://www.w3.org/2000/svg">
<path d="M12.7279 3.74271C12.8508 3.86886 12.9196 4.03801 12.9196 4.21412C12.9196 4.39023 12.8508 4.55937 12.7279 4.68552L9.42809 7.98535L12.7279 11.2852C12.8529 11.4102 12.9232 11.5798 12.9232 11.7566C12.9232 11.9334 12.8529 12.103 12.7279 12.228C12.6029 12.353 12.4333 12.4233 12.2565 12.4233C12.0797 12.4233 11.9101 12.353 11.7851 12.228L8.48528 8.92816L5.18545 12.228C5.06043 12.353 4.89086 12.4233 4.71405 12.4233C4.53723 12.4233 4.36767 12.353 4.24264 12.228C4.11762 12.103 4.04738 11.9334 4.04738 11.7566C4.04738 11.5798 4.11762 11.4102 4.24264 11.2852L7.54247 7.98535L4.24264 4.68552C4.11762 4.5605 4.04738 4.39093 4.04738 4.21412C4.04738 4.0373 4.11762 3.86774 4.24264 3.74271C4.36767 3.61769 4.53723 3.54745 4.71405 3.54745C4.89086 3.54745 5.06043 3.61769 5.18545 3.74271L8.48528 7.04254L11.7851 3.74271C11.9113 3.61982 12.0804 3.55105 12.2565 3.55105C12.4326 3.55105 12.6018 3.61982 12.7279 3.74271Z" fill="white"/>
</svg>
